<svg width="32" height="32" viewBox="0 0 32 32" fill="none" xmlns="http://www.w3.org/2000/svg">
<g clip-path="url(#clip0_1339_1192)">
<path d="M27.9574 2.29601L28.5905 3.0755L16.3497 13.0169L15.7166 12.2374L27.9574 2.29601Z" fill="#55A1FF"/>
<path d="M3.5717 8.29432L3.94993 7.36409L16.134 12.3181L15.7558 13.2483L3.5717 8.29432Z" fill="#EF6356"/>
<path d="M12.2511 21.0209C12.2511 20.1335 12.9704 19.4142 13.8578 19.4142H18.1423C19.0296 19.4142 19.749 20.1335 19.749 21.0209V30.3933C19.749 31.2806 19.0296 32 18.1423 32H13.8578C12.9704 32 12.2511 31.2806 12.2511 30.3933V21.0209Z" fill="#EF6356"/>
<path d="M0 16.4017C0 15.5144 0.719342 14.795 1.60669 14.795H5.89121C6.77857 14.795 7.49791 15.5144 7.49791 16.4017V30.3933C7.49791 31.2807 6.77857 32 5.89121 32H1.60669C0.719342 32 0 31.2807 0 30.3933V16.4017Z" fill="#FFC861"/>
<path d="M24.5021 10.4435C24.5021 9.5562 25.2214 8.83685 26.1088 8.83685H30.3933C31.2807 8.83685 32 9.55619 32 10.4435V30.3933C32 31.2807 31.2807 32 30.3933 32H26.1088C25.2214 32 24.5021 31.2807 24.5021 30.3933V10.4435Z" fill="#55A1FF"/>
<path d="M6.82849 7.69882C6.82849 9.39958 5.44975 10.7783 3.74899 10.7783C2.04823 10.7783 0.669495 9.39958 0.669495 7.69882C0.669495 5.99806 2.04823 4.61932 3.74899 4.61932C5.44975 4.61932 6.82849 5.99806 6.82849 7.69882Z" fill="#FFC861"/>
<path d="M19.0796 12.318C19.0796 14.0187 17.7008 15.3975 16.0001 15.3975C14.2993 15.3975 12.9206 14.0187 12.9206 12.318C12.9206 10.6172 14.2993 9.23846 16.0001 9.23846C17.7008 9.23846 19.0796 10.6172 19.0796 12.318Z" fill="#EF6356"/>
<path d="M31.3309 3.0795C31.3309 4.78026 29.9521 6.159 28.2514 6.159C26.5506 6.159 25.1719 4.78026 25.1719 3.0795C25.1719 1.37874 26.5506 0 28.2514 0C29.9521 0 31.3309 1.37874 31.3309 3.0795Z" fill="#55A1FF"/>
</g>
<defs>
<clipPath id="clip0_1339_1192">
<rect width="32" height="32" fill="white"/>
</clipPath>
</defs>
</svg>
