<svg width="24" height="32" viewBox="0 0 24 32" fill="none" xmlns="http://www.w3.org/2000/svg">
<path d="M15.829 29.1667L15.0931 29.7186L15.829 30.2706V30.484C15.829 31.3215 15.1498 32 14.3131 32H9.7239C8.88716 32 8.20792 31.3215 8.20792 30.484V30.2706L8.94383 29.7186L8.20792 29.1667V26.6918H15.829V29.1667Z" fill="#D8ECFE"/>
<path d="M11.9066 32H9.7239C8.88716 32 8.20792 31.3215 8.20792 30.484V30.2706L8.94383 29.7186L8.20792 29.1667V26.6911H10.4164V30.484C10.4164 31.3126 11.0817 31.9867 11.9066 32Z" fill="#B3DAFE"/>
<path d="M13.9234 17.1474C13.9234 18.2 13.0711 19.053 12.0185 19.053V25.3329H8.20786V23.4812C8.20786 22.751 7.79126 22.0812 7.131 21.7683C3.26296 19.9355 0.58667 15.9969 0.58667 11.4325V11.4193H4.3973V11.4318C4.3973 12.4836 5.25037 13.3374 6.30221 13.3374C7.35479 13.3374 8.20786 12.4836 8.20786 11.4318V11.4193H12.0185V15.2424C13.0711 15.2425 13.9234 16.0955 13.9234 17.1474Z" fill="#AEE69C"/>
<path d="M9.67998 23.4812V25.333H8.20786V23.4812C8.20786 22.751 7.79126 22.0812 7.131 21.7684C3.26297 19.9356 0.58667 15.9969 0.58667 11.4326V11.4193H2.05879V11.4326C2.05879 15.9969 4.73516 19.9356 8.60312 21.7684C9.26338 22.0812 9.67998 22.751 9.67998 23.4812Z" fill="#89DAA4"/>
<path d="M23.4503 11.4193V11.4318C23.4503 15.9947 20.7769 19.9326 16.9104 21.7662C16.2486 22.0797 15.8291 22.7488 15.8291 23.4812V25.333H12.0185V19.0531C13.071 19.0531 13.9234 18.2 13.9234 17.1474C13.9234 16.0956 13.071 15.2425 12.0185 15.2425V11.4194H15.8291C15.8357 10.3727 16.6866 9.52625 17.7347 9.52625C18.7822 9.52625 19.633 10.3727 19.6397 11.4194H23.4503V11.4193Z" fill="#8AC9FE"/>
<path d="M23.4503 11.4193H19.6396C19.633 10.3726 18.7821 9.52617 17.7347 9.52617C16.6866 9.52617 15.8357 10.3726 15.8291 11.4193H12.0184V7.62119C10.9659 7.62119 10.1135 6.76812 10.1135 5.71554C10.1135 4.66297 10.9659 3.81063 12.0184 3.81063V0C18.328 0 23.4436 5.11128 23.4503 11.4193Z" fill="#FFE177"/>
<path d="M10.1136 5.71554C10.1136 6.76812 10.9659 7.62119 12.0185 7.62119V11.4193H8.20786V11.4318C8.20786 12.4837 7.35479 13.3375 6.30221 13.3375C5.25037 13.3375 4.3973 12.4837 4.3973 11.4318V11.4193H0.58667C0.593293 5.09362 5.69273 0 12.0185 0V3.81063C10.9659 3.81063 10.1136 4.66304 10.1136 5.71554Z" fill="#FE646F"/>
<path d="M12.0185 0V0.0934613C6.39199 0.811124 2.06468 5.59257 2.05879 11.4193H0.58667C0.593293 5.09362 5.69273 0 12.0185 0Z" fill="#FD4755"/>
<path d="M8.20792 29.1667H15.829V30.2706H8.20792V29.1667Z" fill="#EAF6FF"/>
<path d="M8.20792 29.1667H10.4164V30.2706H8.20792V29.1667Z" fill="#D8ECFE"/>
<path d="M16.5912 27.4201H7.44572C6.81438 27.4201 6.30255 26.9083 6.30255 26.277C6.30255 25.6456 6.81438 25.1338 7.44572 25.1338H16.5913C17.2226 25.1338 17.7344 25.6456 17.7344 26.277C17.7344 26.9083 17.2226 27.4201 16.5912 27.4201Z" fill="#EAF6FF"/>
<path d="M9.65423 27.4199H7.44605C6.81448 27.4199 6.30222 26.9083 6.30222 26.2768C6.30222 25.961 6.43026 25.6754 6.63713 25.4686C6.84399 25.2618 7.13026 25.1337 7.44605 25.1337H9.65423C9.33845 25.1337 9.0521 25.2617 8.84531 25.4686C8.63852 25.6754 8.5104 25.961 8.5104 26.2768C8.5104 26.9083 9.02274 27.4199 9.65423 27.4199Z" fill="#D8ECFE"/>
</svg>
