<svg xmlns="http://www.w3.org/2000/svg" width="32" height="28.8" viewBox="0 0 32 28.8">
  <g id="chart-bullish-svgrepo-com" transform="translate(-1 -1.6)">
    <path id="Path_4381" data-name="Path 4381" d="M29.8,5.5H33V23.9H29.8ZM25,11.1h3.2V23.9H25Zm-4.8-4h3.2V23.9H20.2Zm-4.8,4.8h3.2v12H15.4Zm-4.8,2.4h3.2v9.6H10.6ZM5.8,12.7H9V23.9H5.8ZM1,15.9H4.2v8H1Z" transform="translate(0 6.5)" fill="#4caf50"/>
    <g id="Group_5189" data-name="Group 5189" transform="translate(1.48 1.6)">
      <path id="Path_4382" data-name="Path 4382" d="M21.5,8.09l3.2,3.2,7.12-7.12L29.58,1.93,24.7,6.81l-3.2-3.2-8,8-4-4L1.18,15.93l2.24,2.24L9.5,12.09l4,4Z" transform="translate(-1.18 -1.05)" fill="#388e3c"/>
      <path id="Path_4383" data-name="Path 4383" d="M17.5,1.6H10.3l7.2,7.2Z" transform="translate(14.02 -1.6)" fill="#388e3c"/>
    </g>
  </g>
</svg>
