<svg xmlns="http://www.w3.org/2000/svg" width="33.797" height="30.801" viewBox="0 0 33.797 30.801">
  <g id="dumbbell-iron-array-svgrepo-com" transform="translate(-2.473 19.326) rotate(-40)">
    <g id="Group_5184" data-name="Group 5184">
      <g id="Group_5181" data-name="Group 5181">
        <rect id="Rectangle_1922" data-name="Rectangle 1922" width="4.864" height="2.575" transform="translate(12.821 7.876)" fill="#ebebeb"/>
        <path id="Path_4344" data-name="Path 4344" d="M16,127.157v.3a1.138,1.138,0,0,1-1.142,1.137H1.142A1.138,1.138,0,0,1,0,127.457v-.3a1.138,1.138,0,0,1,1.142-1.137H14.853A1.138,1.138,0,0,1,16,127.157Z" transform="translate(0 -118.144)" fill="#ebebeb"/>
        <path id="Path_4345" data-name="Path 4345" d="M29.845,39.624c0,.447-.009.885-.019,1.309a21.855,21.855,0,0,1-.571,4.688,3.425,3.425,0,0,1-.338.833c-.1.162-.2.257-.309.276a.1.1,0,0,1-.052.01h-2.9c-.2,0-.4-.271-.576-.752a19.158,19.158,0,0,1-.69-5.054c-.01-.424-.019-.861-.019-1.309s0-.857.019-1.266c.09-2.675.447-4.831.914-5.568a.6.6,0,0,1,.252-.252.255.255,0,0,1,.1-.024h2.9a.1.1,0,0,1,.052.009c.109.019.209.114.309.276a3.473,3.473,0,0,1,.338.838,22.175,22.175,0,0,1,.571,4.721C29.84,38.767,29.845,39.191,29.845,39.624Z" transform="translate(-22.844 -30.482)" fill="#424242"/>
        <path id="Path_4346" data-name="Path 4346" d="M77.24,39.625c0,.447,0,.885-.019,1.309a24.94,24.94,0,0,1-.495,4.688,3.5,3.5,0,0,1-.324.895c-.09.147-.186.224-.281.224a.071.071,0,0,1-.043-.01c-.528-.124-.961-2.579-1.056-5.8-.014-.424-.019-.861-.019-1.309s0-.857.019-1.266c.09-3.236.523-5.711,1.056-5.835a.071.071,0,0,1,.043-.01c.1,0,.19.076.281.224a3.478,3.478,0,0,1,.324.9,24.517,24.517,0,0,1,.495,4.721C77.235,38.768,77.24,39.192,77.24,39.625Z" transform="translate(-70.315 -30.483)" fill="#222323"/>
        <g id="Group_5180" data-name="Group 5180" transform="translate(5.587)">
          <path id="Path_4347" data-name="Path 4347" d="M95.587,9.142c0,.443,0,.88-.019,1.309,0,.262-.009.524-.019.781-.143,3.85-.671,6.763-1.318,7.034a.194.194,0,0,1-.1.024H90.847c-.366,0-.7-.852-.952-2.256a.292.292,0,0,1-.014-.062,37.536,37.536,0,0,1-.466-5.521c-.014-.428-.019-.866-.019-1.309s0-.852.014-1.266a37.972,37.972,0,0,1,.471-5.559.291.291,0,0,1,.014-.062C90.147.852,90.48,0,90.846,0H94.13a.193.193,0,0,1,.1.024c.647.271,1.18,3.2,1.318,7.067.01.257.019.519.024.785C95.582,8.29,95.587,8.714,95.587,9.142Z" transform="translate(-89.395)" fill="#424242"/>
          <path id="Path_4348" data-name="Path 4348" d="M147.965,9.142c0,.443,0,.88-.019,1.309,0,.257-.009.509-.019.757-.148,4.059-.723,7.081-1.413,7.081a.193.193,0,0,1-.1-.024c-.69-.29-1.247-3.584-1.337-7.814-.014-.428-.019-.866-.019-1.309s0-.852.014-1.266c.1-4.25.652-7.562,1.342-7.852a.193.193,0,0,1,.1-.024c.695,0,1.271,3.041,1.413,7.115.01.247.019.5.024.761C147.96,8.29,147.965,8.714,147.965,9.142Z" transform="translate(-141.578)" fill="#222323"/>
        </g>
        <rect id="Rectangle_1923" data-name="Rectangle 1923" width="0.923" height="2.575" transform="translate(12.55 7.876)" fill="#040000" opacity="0.1"/>
        <path id="Path_4349" data-name="Path 4349" d="M163.989,111.654v2.613a.645.645,0,0,1-.552.7l-.3.033-.2.024-1.452.171h0c-.019,0-.029-.014-.029-.038a4.645,4.645,0,0,1-.133-.914c-.024-.324-.043-.747-.043-1.29,0-.49.024-.928.057-1.285.052-.562.119-.919.119-.919,0-.019.009-.033.029-.033,0,0,0,0,0,0l1.452.171.2.024.3.038A.645.645,0,0,1,163.989,111.654Z" transform="translate(-151.196 -103.796)" fill="#ebebeb"/>
      </g>
      <g id="Group_5183" data-name="Group 5183" transform="translate(14.315)">
        <rect id="Rectangle_1924" data-name="Rectangle 1924" width="4.864" height="2.575" transform="translate(0 7.876)" fill="#ebebeb"/>
        <path id="Path_4350" data-name="Path 4350" d="M272.071,127.157v.3a1.138,1.138,0,0,1-1.142,1.137H257.218a1.114,1.114,0,0,1-.181-.014,1.137,1.137,0,0,1-.961-1.123v-.3a1.138,1.138,0,0,1,1.142-1.137h13.711A1.138,1.138,0,0,1,272.071,127.157Z" transform="translate(-254.387 -118.144)" fill="#ebebeb"/>
        <path id="Path_4351" data-name="Path 4351" d="M405.469,39.625c0,.447-.009.885-.019,1.309,0,.1-.009.2-.014.309s0,.2-.014.3c-.014.3-.033.59-.052.876-.014.143-.024.281-.038.414s-.024.257-.038.381c-.057.562-.133,1.076-.214,1.523-.019.109-.043.219-.062.319a3.568,3.568,0,0,1-.6,1.57.5.5,0,0,1-.057.048.278.278,0,0,1-.171.067h-2.9c-.01,0-.019,0-.029,0a.043.043,0,0,1-.024,0s-.01,0-.014,0a.569.569,0,0,1-.3-.276,3.259,3.259,0,0,1-.333-.833,21.5,21.5,0,0,1-.576-4.688c-.01-.424-.019-.861-.019-1.309s0-.857.019-1.266a21.811,21.811,0,0,1,.576-4.721,3.3,3.3,0,0,1,.333-.838.569.569,0,0,1,.3-.276s.009,0,.014,0a.043.043,0,0,1,.024,0,.061.061,0,0,1,.029,0h2.9a.239.239,0,0,1,.057.01.068.068,0,0,1,.033.009.5.5,0,0,1,.228.2.659.659,0,0,1,.062.1,2.7,2.7,0,0,1,.219.5,1.344,1.344,0,0,1,.048.148,9.869,9.869,0,0,1,.309,1.4c.014.071.024.143.033.214s.029.176.038.267c.033.214.057.443.081.676.01.086.019.176.029.266.019.181.033.366.048.552s.029.381.038.581q.029.45.043.914C405.464,38.768,405.469,39.192,405.469,39.625Z" transform="translate(-389.307 -30.483)" fill="#424242"/>
        <path id="Path_4352" data-name="Path 4352" d="M403.445,39.624c0,.447,0,.885-.019,1.309-.1,3.189-.519,5.63-1.042,5.8,0,0-.009,0-.014,0s-.014.009-.024,0-.01,0-.019,0a.194.194,0,0,1-.086-.024.2.2,0,0,1-.057-.038.5.5,0,0,1-.133-.157l0,0a3.348,3.348,0,0,1-.319-.895,24.482,24.482,0,0,1-.5-4.688c-.014-.424-.019-.861-.019-1.309s0-.857.019-1.266a24.084,24.084,0,0,1,.5-4.721,3.329,3.329,0,0,1,.319-.9l0,0a.5.5,0,0,1,.133-.157.2.2,0,0,1,.057-.038.194.194,0,0,1,.086-.024c.009,0,.014,0,.019,0s.014,0,.024,0,.01,0,.014,0c.524.167.952,2.627,1.042,5.835C403.44,38.767,403.445,39.191,403.445,39.624Z" transform="translate(-390.448 -30.482)" fill="#222323"/>
        <g id="Group_5182" data-name="Group 5182" transform="translate(5.711)">
          <path id="Path_4353" data-name="Path 4353" d="M329.733,9.142c0,.443,0,.88-.019,1.309a37.535,37.535,0,0,1-.466,5.521.239.239,0,0,1-.01.057,0,0,0,0,1,0,0,.931.931,0,0,1-.029.167c-.019.114-.043.224-.067.328-.019.076-.033.152-.052.228-.033.147-.071.29-.109.419v.01c-.038.124-.076.238-.109.343s-.086.209-.128.3a1.382,1.382,0,0,1-.124.224.667.667,0,0,1-.067.086.432.432,0,0,1-.062.067.225.225,0,0,1-.057.043.2.2,0,0,1-.043.024.329.329,0,0,1-.038.014.281.281,0,0,1-.067.009H325a.193.193,0,0,1-.1-.024s0,0-.01,0c-.642-.3-1.166-3.2-1.309-7.029-.009-.257-.019-.519-.019-.781-.014-.428-.019-.866-.019-1.309s0-.852.014-1.266c0-.247.01-.49.019-.728,0-.019,0-.038,0-.057.138-3.864.671-6.8,1.318-7.067A.193.193,0,0,1,325,0h3.284c.352,0,.676.785.923,2.089,0,.024.01.052.014.076a.276.276,0,0,1,.014.09,0,0,0,0,1,0,0,.238.238,0,0,1,.01.057,37.962,37.962,0,0,1,.471,5.559C329.729,8.29,329.733,8.714,329.733,9.142Z" transform="translate(-323.347)" fill="#424242"/>
          <path id="Path_4354" data-name="Path 4354" d="M323.329,9.142c0,.443,0,.88-.019,1.309-.09,4.212-.642,7.5-1.328,7.81,0,0,0,0-.009,0a.194.194,0,0,1-.1.024.321.321,0,0,1-.067-.01.175.175,0,0,1-.033-.014.149.149,0,0,1-.048-.024,1.545,1.545,0,0,1-.457-.776c-.071-.209-.143-.457-.209-.738v-.01c-.033-.138-.067-.29-.1-.447-.048-.238-.09-.495-.133-.762-.057-.362-.11-.752-.152-1.171a.538.538,0,0,0-.01-.081c-.014-.181-.033-.366-.052-.557-.043-.438-.076-.9-.1-1.38,0-.124-.014-.243-.019-.366-.014-.243-.024-.495-.033-.747s-.019-.5-.019-.757c-.014-.428-.019-.866-.019-1.309s0-.852.014-1.266c0-.176.01-.352.014-.523,0-.081,0-.162.009-.238C320.6,3.041,321.178,0,321.872,0a.193.193,0,0,1,.1.024c.5.209.933,2.027,1.171,4.635.086.976.148,2.061.171,3.217C323.324,8.29,323.329,8.714,323.329,9.142Z" transform="translate(-320.421)" fill="#222323"/>
        </g>
        <rect id="Rectangle_1925" data-name="Rectangle 1925" width="0.923" height="2.575" transform="translate(4.212 7.876)" fill="#040000" opacity="0.1"/>
        <path id="Path_4355" data-name="Path 4355" d="M310.036,112.956c0,.543-.019.966-.043,1.29a4.639,4.639,0,0,1-.133.914c0,.024-.009.038-.029.038h0l-1.451-.171-.2-.024-.3-.033a.645.645,0,0,1-.552-.7v-2.613a.645.645,0,0,1,.552-.7l.3-.038.2-.024.057,0,1.394-.167s0,0,0,0c.019,0,.029.014.029.033,0,0,.067.357.119.918C310.012,112.028,310.036,112.465,310.036,112.956Z" transform="translate(-302.431 -103.794)" fill="#ebebeb"/>
      </g>
    </g>
    <path id="Path_4356" data-name="Path 4356" d="M286.279,33.356v.3a1.138,1.138,0,0,1-1.142,1.137h-.4c0,.1-.009.2-.014.309s0,.2-.014.3c-.014.3-.033.59-.052.876-.014.138-.024.276-.038.414s-.024.257-.038.381c-.057.562-.133,1.076-.214,1.523-.019.109-.043.219-.062.319a3.567,3.567,0,0,1-.6,1.57.5.5,0,0,1-.057.048.278.278,0,0,1-.171.067h-2.9c-.01,0-.019,0-.029,0a.017.017,0,0,0-.01,0s-.01,0-.014,0-.009,0-.014,0a.017.017,0,0,1-.009,0s-.01,0-.019,0a.194.194,0,0,1-.086-.024.2.2,0,0,1-.057-.038.619.619,0,0,1-.133-.167v.009c-.014.057-.024.11-.033.162-.019.114-.043.224-.067.328-.019.076-.033.152-.052.228-.033.147-.071.286-.109.419v.01c-.038.124-.076.238-.109.343s-.086.209-.128.3a1.382,1.382,0,0,1-.124.224.668.668,0,0,1-.067.086.429.429,0,0,1-.062.067.224.224,0,0,1-.057.043.2.2,0,0,1-.043.024.333.333,0,0,1-.038.014.281.281,0,0,1-.067.01h-3.284a.223.223,0,0,1-.09-.029s0,0-.01,0,0,0-.01,0a.223.223,0,0,1-.09.029.322.322,0,0,1-.067-.01.173.173,0,0,1-.033-.014.149.149,0,0,1-.048-.024,1.544,1.544,0,0,1-.457-.776c-.071-.209-.143-.457-.209-.738v-.009c-.033-.138-.067-.29-.1-.447-.048-.238-.09-.495-.133-.761-.052-.362-.1-.752-.152-1.171a.522.522,0,0,0-.01-.081c-.014-.181-.033-.366-.052-.557-.043-.438-.076-.9-.1-1.38,0-.124-.014-.243-.019-.366-.014-.243-.024-.495-.033-.747l-.3-.033a.645.645,0,0,1-.552-.7v-.019h-2.256l2.575-2.575.528-.524.2-.2.062-.062L277.028,29l3.036-3.036c.033.148.067.3.1.466,0,.024.01.052.014.076a.565.565,0,0,0,.019.086v.01a.62.62,0,0,1,.133-.167.2.2,0,0,1,.057-.038.194.194,0,0,1,.086-.024c.01,0,.014,0,.019,0a.017.017,0,0,1,.01,0s.01,0,.014,0,.01,0,.014,0a.017.017,0,0,0,.01,0,.06.06,0,0,1,.029,0h2.9a.239.239,0,0,1,.057.01.069.069,0,0,1,.033.009.5.5,0,0,1,.228.2.659.659,0,0,1,.062.1,2.7,2.7,0,0,1,.219.5,1.344,1.344,0,0,1,.048.148,9.868,9.868,0,0,1,.309,1.4c.014.071.024.143.033.214s.029.176.038.266c.033.214.057.443.081.676.009.086.019.176.029.267.019.181.033.366.048.552s.029.385.038.581q.029.45.043.914h.4A1.138,1.138,0,0,1,286.279,33.356Z" transform="translate(-254.279 -24.342)" fill="#040000" opacity="0.1"/>
  </g>
</svg>
