<svg width="25" height="20" viewBox="0 0 25 20" fill="none" xmlns="http://www.w3.org/2000/svg">
<path d="M3.75 2.5C3.75 1.80859 4.30859 1.25 5 1.25H6.25C6.94141 1.25 7.5 1.80859 7.5 2.5V8.75V11.25V17.5C7.5 18.1914 6.94141 18.75 6.25 18.75H5C4.30859 18.75 3.75 18.1914 3.75 17.5V15H2.5C1.80859 15 1.25 14.4414 1.25 13.75V11.25C0.558594 11.25 0 10.6914 0 10C0 9.30859 0.558594 8.75 1.25 8.75V6.25C1.25 5.55859 1.80859 5 2.5 5H3.75V2.5ZM21.25 2.5V5H22.5C23.1914 5 23.75 5.55859 23.75 6.25V8.75C24.4414 8.75 25 9.30859 25 10C25 10.6914 24.4414 11.25 23.75 11.25V13.75C23.75 14.4414 23.1914 15 22.5 15H21.25V17.5C21.25 18.1914 20.6914 18.75 20 18.75H18.75C18.0586 18.75 17.5 18.1914 17.5 17.5V11.25V8.75V2.5C17.5 1.80859 18.0586 1.25 18.75 1.25H20C20.6914 1.25 21.25 1.80859 21.25 2.5ZM16.25 8.75V11.25H8.75V8.75H16.25Z" fill="white"/>
</svg>
