<svg xmlns="http://www.w3.org/2000/svg" width="20.196" height="32" viewBox="0 0 20.196 32">
  <g id="hourglass-time-watch-svgrepo-com" transform="translate(-34.3 -19.2)">
    <path id="Path_4387" data-name="Path 4387" d="M47.8,39.027h0c0-.824,1.922-1.451,2.745-1.451h0a3.775,3.775,0,0,0,3.765-3.294l.941-7.412a2.2,2.2,0,0,0-2.2-2.471H40.271a2.216,2.216,0,0,0-2.2,2.471l.941,7.412a3.775,3.775,0,0,0,3.765,3.294h0c.824,0,2.745.667,2.745,1.451h0a1.448,1.448,0,0,1-1.451,1.451h0c-1.922,0-4.784,1.412-5.02,3.294l-.941,7.412a2.2,2.2,0,0,0,2.2,2.471H53.134a2.216,2.216,0,0,0,2.2-2.471l-.941-7.412c-.235-1.882-3.137-3.294-5.02-3.294h0A1.478,1.478,0,0,1,47.8,39.027Z" transform="translate(-2.285 -3.161)" fill="#e9fbff"/>
    <path id="Path_4388" data-name="Path 4388" d="M55.4,66.1a1.484,1.484,0,0,1-1.1.471H41.674a1.509,1.509,0,0,1-1.137-.471,1.259,1.259,0,0,1-.275-1.059l.471-3.725c.235-2.078,6.549-3.294,6.549-4.039V52.725A3.048,3.048,0,0,0,47.2,52.1c-.275-.98-2-1.686-3.059-1.686A3.032,3.032,0,0,1,41.2,47.745l-.078-.627c0-.118,0-.118.039-.118H54.851c.039,0,.078.039.039.078l-.118.784a2.952,2.952,0,0,1-2.9,2.549c-1.059,0-2.824.706-3.059,1.686a1.625,1.625,0,0,0-.078.627v4.549c0,.706,6.314,1.725,6.549,4L55.753,65A1.343,1.343,0,0,1,55.4,66.1Z" transform="translate(-3.61 -16.898)" fill="#ffdeb0"/>
    <g id="Group_5206" data-name="Group 5206" transform="translate(34.3 19.2)">
      <path id="Path_4389" data-name="Path 4389" d="M52.771,90.5H35.986A1.674,1.674,0,0,0,34.3,92.186v.667a1.674,1.674,0,0,0,1.686,1.686H52.81A1.674,1.674,0,0,0,54.5,92.853v-.667A1.76,1.76,0,0,0,52.771,90.5Z" transform="translate(-34.3 -62.539)" fill="#ffd487"/>
      <path id="Path_4390" data-name="Path 4390" d="M52.771,19.2H35.986A1.674,1.674,0,0,0,34.3,20.886v.667a1.674,1.674,0,0,0,1.686,1.686H52.81A1.674,1.674,0,0,0,54.5,21.553v-.667A1.733,1.733,0,0,0,52.771,19.2Z" transform="translate(-34.3 -19.2)" fill="#ffd487"/>
    </g>
  </g>
</svg>
