<svg width="32" height="32" viewBox="0 0 32 32" fill="none" xmlns="http://www.w3.org/2000/svg">
<path d="M27.3364 2.23138H23.8207V10.815H27.3364V2.23138Z" fill="#D45947"/>
<path d="M3.35028 31H28.6489V13.1921L15.9996 3.44836L3.35028 13.1921V31Z" fill="#EFF3F5"/>
<path d="M28.6489 13.1921V16.0747L15.9996 6.59427L3.35028 16.0747V13.1921L15.9996 3.44836L28.6489 13.1921Z" fill="#DBDFE0"/>
<path d="M22.3213 14.4094H9.67196V26.9574H22.3213V14.4094Z" fill="white"/>
<path d="M16 5.25623L2.84126 15.1281L0 13L16 1L32 13L29.1587 15.1281L16 5.25623Z" fill="#F1786B"/>
<path d="M16 2.20285L0.796412 13.5979L0 13L16 1L32 13L31.2036 13.5979L16 2.20285Z" fill="#FC8C83"/>
<path d="M21.1943 15.6193H16.8822V19.8969H21.1943V15.6193ZM15.11 15.6193H10.7979V19.8969H15.11V15.6193ZM21.1943 21.4699H16.8822V25.7474H21.1943V21.4699ZM15.11 21.4699H10.7979V25.7474H15.11V21.4699Z" fill="#41B3E2"/>
</svg>
