<svg width="32" height="32" viewBox="0 0 32 32" fill="none" xmlns="http://www.w3.org/2000/svg">
<g clip-path="url(#clip0_1339_1206)">
<path d="M30.5049 10.7309C30.5049 10.7309 22.8767 15.2215 22.3511 14.6963C21.7669 14.1127 16.6709 4.77824 15.9383 4.77505C15.2064 4.77859 10.2194 14.1131 9.63488 14.6963C9.10996 15.2215 1.4817 10.7309 1.4817 10.7309C0.457448 11.2919 6.87025 27.211 6.87025 27.211C6.87025 28.4849 7.90295 29.5176 9.17648 29.5176H15.9388H22.8103C24.0839 29.5176 25.1166 28.4849 25.1166 27.211C25.1162 27.211 31.5289 11.2919 30.5049 10.7309Z" fill="#EDB20F"/>
<path d="M15.9384 4.77496C15.2065 4.7785 10.2195 14.113 9.63496 14.6962C9.11004 15.2214 1.48178 10.7308 1.48178 10.7308C0.45744 11.2919 6.87024 27.211 6.87024 27.211C6.87024 28.4849 7.90294 29.5176 9.17647 29.5176H15.9388V4.77496H15.9384Z" fill="#FFC50B"/>
<path d="M15.8829 6.98995C17.1062 6.98995 18.0979 5.99827 18.0979 4.77498C18.0979 3.55168 17.1062 2.56 15.8829 2.56C14.6596 2.56 13.6679 3.55168 13.6679 4.77498C13.6679 5.99827 14.6596 6.98995 15.8829 6.98995Z" fill="#FFC50B"/>
<path d="M25.1471 27.211C25.1471 28.4849 24.1144 29.5176 22.8403 29.5176H9.17647C7.90294 29.5176 6.87024 28.4849 6.87024 27.211C6.87024 27.211 12.1862 26.8944 15.9949 26.8944C19.8038 26.8944 25.1471 27.211 25.1471 27.211Z" fill="#B8972F"/>
<path d="M15.9384 29.5179H9.17647C7.90294 29.5179 6.87024 28.4852 6.87024 27.2113C6.87024 27.2113 12.1862 26.8947 15.9949 26.8947L15.9384 29.5179Z" fill="#C4A12E"/>
<g opacity="0.4">
<path d="M14.0878 5.21412C13.6986 4.825 14.1255 3.7475 14.5153 3.35803C14.9044 2.96916 15.8466 2.59968 16.2357 2.98889C16.6248 3.37793 14.4772 5.60359 14.0878 5.21412Z" fill="#F6E568"/>
</g>
<path d="M30.544 12.2985C31.3481 12.2985 32 11.6466 32 10.8425C32 10.0384 31.3481 9.38647 30.544 9.38647C29.7398 9.38647 29.088 10.0384 29.088 10.8425C29.088 11.6466 29.7398 12.2985 30.544 12.2985Z" fill="#FFC50B"/>
<path d="M29.3639 11.1326C29.1083 10.8766 29.3887 10.168 29.6447 9.91228C29.9004 9.65663 30.5201 9.41381 30.7758 9.66947C31.0318 9.92555 29.6203 11.3886 29.3639 11.1326Z" fill="#FFC50B"/>
<path d="M1.45603 12.2985C2.26017 12.2985 2.91206 11.6466 2.91206 10.8425C2.91206 10.0384 2.26017 9.38647 1.45603 9.38647C0.651887 9.38647 0 10.0384 0 10.8425C0 11.6466 0.651887 12.2985 1.45603 12.2985Z" fill="#FFC50B"/>
<g opacity="0.4">
<path d="M0.275035 11.1326C0.0193813 10.8766 0.300196 10.168 0.555849 9.91228C0.812193 9.65663 1.43121 9.41381 1.68755 9.66947C1.94312 9.92555 0.531292 11.3886 0.275035 11.1326Z" fill="#F6E568"/>
</g>
<path d="M15.9097 14.4286L13.3707 18.9278L15.9097 23.4271L18.4481 18.9278L15.9097 14.4286Z" fill="#087BFD"/>
<path d="M13.3707 18.9279L15.9097 23.4272L18.4481 18.9279H13.3707Z" fill="#0266D6"/>
<path d="M15.9097 14.4286L13.3707 18.9278L15.9097 23.4271V14.4286Z" fill="#24A7F1"/>
<path d="M15.9097 18.9279H13.3707L15.9097 23.4272V18.9279Z" fill="#5EB7E9"/>
</g>
<defs>
<clipPath id="clip0_1339_1206">
<rect width="32" height="32" fill="white"/>
</clipPath>
</defs>
</svg>
