<svg width="15" height="20" viewBox="0 0 15 20" fill="none" xmlns="http://www.w3.org/2000/svg">
<path d="M10.6818 15C11.0636 13.7539 11.8551 12.6914 12.6386 11.6328C12.8455 11.3555 13.0523 11.0781 13.2511 10.7969C14.0386 9.68359 14.5 8.33594 14.5 6.87891C14.5 3.07812 11.3659 0 7.5 0C3.63409 0 0.5 3.07812 0.5 6.875C0.5 8.33203 0.961364 9.68359 1.74886 10.793C1.94773 11.0742 2.15455 11.3516 2.36136 11.6289C3.14886 12.6875 3.94034 13.7539 4.31818 14.9961H10.6818V15ZM7.5 20C9.25795 20 10.6818 18.6016 10.6818 16.875V16.25H4.31818V16.875C4.31818 18.6016 5.74205 20 7.5 20ZM4.31818 6.875C4.31818 7.21875 4.03182 7.5 3.68182 7.5C3.33182 7.5 3.04545 7.21875 3.04545 6.875C3.04545 4.45703 5.03807 2.5 7.5 2.5C7.85 2.5 8.13636 2.78125 8.13636 3.125C8.13636 3.46875 7.85 3.75 7.5 3.75C5.74205 3.75 4.31818 5.14844 4.31818 6.875Z" fill="white"/>
</svg>
