<svg width="32" height="32" viewBox="0 0 32 32" fill="none" xmlns="http://www.w3.org/2000/svg">
<g clip-path="url(#clip0_1508_8362)">
<path d="M16.0278 0.571411H19.4564V2.85713H16.0278V0.571411Z" fill="#CE4050"/>
<path d="M1.17065 13.1429H30.8849V32H1.17065V13.1429Z" fill="#B8C3D5"/>
<path d="M1.17065 29.7143H30.8849V32H1.17065V29.7143Z" fill="#737F9B"/>
<path d="M0.125 13.1428L4.21071 8.57141H27.845L31.9307 13.1428H0.125Z" fill="#CE4050"/>
<path d="M22.8849 11.7143V32H9.17065V11.7143L16.0278 5.71429L22.8849 11.7143Z" fill="#D3DCE5"/>
<path d="M16.028 6.85714C15.7137 6.85714 15.4565 6.6 15.4565 6.28571V0.571429C15.4565 0.257143 15.7137 0 16.028 0C16.3423 0 16.5994 0.257143 16.5994 0.571429V6.28571C16.5994 6.6 16.3423 6.85714 16.028 6.85714Z" fill="#536882"/>
<path d="M25.8278 13.1428H22.3535L17.1306 8.57141L16.0278 7.6057L14.9249 8.57141L9.70207 13.1428H6.22778L11.4564 8.57141L16.0278 4.57141L20.5992 8.57141L25.8278 13.1428Z" fill="#D85363"/>
<path d="M13.1707 25.1429H18.8849V32H13.1707V25.1429Z" fill="#737F9B"/>
<path d="M19.4564 21.7143H17.1707V19.4286H19.4564V21.7143ZM14.885 21.7143H12.5993V19.4286H14.885V21.7143ZM19.4564 17.1429H17.1707V14.8571H19.4564V17.1429ZM14.885 17.1429H12.5993V14.8571H14.885V17.1429ZM28.0278 24V26.2857H25.7421V24H28.0278ZM28.0278 19.4286V21.7143H25.7421V19.4286H28.0278ZM6.31355 19.4286V21.7143H4.02783V19.4286H6.31355ZM6.31355 24V26.2857H4.02783V24H6.31355Z" fill="#5064AA"/>
</g>
<defs>
<clipPath id="clip0_1508_8362">
<rect width="32" height="32" fill="white"/>
</clipPath>
</defs>
</svg>
