<svg xmlns="http://www.w3.org/2000/svg" width="32" height="32" viewBox="0 0 32 32">
  <g id="star-svgrepo-com" transform="translate(-2 -2)">
    <path id="Path_4391" data-name="Path 4391" d="M28.374,22.579a13.612,13.612,0,0,1-16.585-15.5,2.032,2.032,0,0,1-.181.155,5.47,5.47,0,0,1-2.126.72l-1.018.23c-3.936.89-5.9,1.336-6.371,2.841s.873,3.074,3.556,6.212l.694.812A5.888,5.888,0,0,1,7.657,19.94a6.142,6.142,0,0,1,0,2.336l-.1,1.083c-.406,4.186-.608,6.279.617,7.209s3.068.082,6.753-1.614l.953-.439A5.458,5.458,0,0,1,18,27.791a5.458,5.458,0,0,1,2.126.723l.953.439c3.685,1.7,5.527,2.545,6.753,1.614s1.023-3.023.617-7.209Z" transform="translate(0 3.049)" fill="#fdc830"/>
    <path id="Path_4392" data-name="Path 4392" d="M9.845,7.453l-.524.941a5.87,5.87,0,0,1-1.313,1.891,2.035,2.035,0,0,0,.181-.155,13.612,13.612,0,0,0,16.585,15.5l-.029-.3a6.14,6.14,0,0,1,0-2.336A5.888,5.888,0,0,1,26.058,21.1l.694-.812c2.683-3.137,4.024-4.706,3.556-6.212s-2.436-1.951-6.371-2.841L22.919,11a5.47,5.47,0,0,1-2.127-.72,5.87,5.87,0,0,1-1.313-1.891l-.524-.941C16.928,3.818,15.915,2,14.4,2S11.872,3.818,9.845,7.453Z" transform="translate(3.6 0)" fill="#fedb78"/>
  </g>
</svg>
