<svg width="32" height="32" viewBox="0 0 32 32" fill="none" xmlns="http://www.w3.org/2000/svg">
<g clip-path="url(#clip0_1339_1182)">
<path d="M32 15.0625H30.0305C29.5669 8.05394 23.9461 2.43313 16.9375 1.9695V0H15.0625V1.9695C8.05394 2.43313 2.43313 8.05394 1.9695 15.0625H0V16.9375H1.9695C2.43313 23.9461 8.05394 29.5669 15.0625 30.0305V32H16.9375V30.0305C23.9461 29.5669 29.5669 23.9461 30.0305 16.9375H32V15.0625ZM28.1518 15.0625H24.3851C23.9514 11.1576 20.8424 8.04856 16.9375 7.61487V3.84819C22.9119 4.30481 27.6952 9.08806 28.1518 15.0625ZM22.4953 16.9375C22.0829 19.8073 19.8073 22.0829 16.9375 22.4953V20.6875H15.0625V22.4953C12.1927 22.0829 9.91706 19.8073 9.50475 16.9375H11.3125V15.0625H9.50475C9.91706 12.1927 12.1927 9.91706 15.0625 9.50475V11.3125H16.9375V9.50475C19.8073 9.91706 22.0829 12.1927 22.4953 15.0625H20.6875V16.9375H22.4953ZM15.0625 3.84819V7.61487C11.1576 8.04856 8.04856 11.1576 7.61487 15.0625H3.84819C4.30481 9.08806 9.08806 4.30481 15.0625 3.84819ZM3.84819 16.9375H7.61487C8.04856 20.8424 11.1576 23.9514 15.0625 24.3851V28.1518C9.08806 27.6952 4.30481 22.9119 3.84819 16.9375ZM16.9375 28.1518V24.3851C20.8424 23.9514 23.9514 20.8424 24.3851 16.9375H28.1518C27.6952 22.9119 22.9119 27.6952 16.9375 28.1518Z" fill="#0F7FFD"/>
<path d="M30.0305 16.9375H32V15.0625H30.0305C29.5669 8.05394 23.9461 2.43313 16.9375 1.9695V0H16V11.3125H16.9375V9.50475C19.8073 9.91706 22.0829 12.1927 22.4953 15.0625H20.6875V16.9375H22.4953C22.0829 19.8073 19.8073 22.0829 16.9375 22.4953V20.6875H16V32H16.9375V30.0305C23.9461 29.5669 29.5669 23.9461 30.0305 16.9375ZM16.9375 7.61487V3.84819C22.9119 4.30481 27.6952 9.08806 28.1518 15.0625H24.3851C23.9514 11.1576 20.8424 8.04856 16.9375 7.61487ZM16.9375 28.1518V24.3851C20.8424 23.9514 23.9514 20.8424 24.3851 16.9375H28.1518C27.6952 22.9119 22.9119 27.6952 16.9375 28.1518Z" fill="#0266D6"/>
<path d="M16 13.1875C14.4492 13.1875 13.1875 14.4492 13.1875 16C13.1875 17.5508 14.4492 18.8125 16 18.8125C17.5508 18.8125 18.8125 17.5508 18.8125 16C18.8125 14.4492 17.5508 13.1875 16 13.1875Z" fill="#FD4E26"/>
<path d="M18.8125 16C18.8125 14.4492 17.5508 13.1875 16 13.1875V18.8125C17.5508 18.8125 18.8125 17.5508 18.8125 16Z" fill="#E61E14"/>
</g>
<defs>
<clipPath id="clip0_1339_1182">
<rect width="32" height="32" fill="white"/>
</clipPath>
</defs>
</svg>
