<svg xmlns="http://www.w3.org/2000/svg" width="589.156" height="274.231" viewBox="0 0 589.156 274.231">
    <g id="aaa" transform="translate(0)" opacity="0.51">
        <g id="Group_3687" data-name="Group 3687" transform="translate(5.187 88.074)">
            <path id="Path_731" data-name="Path 731"
                  d="M77.943,147.977H7.15v-1.739H77.225l8.206-8.217H110.79l26.959-26.959H267.931L300.812,78.18l1.229,1.229L268.649,112.8H138.468l-26.959,26.959H86.149Z"
                  transform="translate(-4.044 -75.636)" fill="#24a7f1"/>
            <path id="Path_732" data-name="Path 732"
                  d="M259.091,76.941a3.27,3.27,0,1,1,0,4.625A3.274,3.274,0,0,1,259.091,76.941Z"
                  transform="translate(35.869 -75.985)" fill="#24a7f1"/>
            <ellipse id="Ellipse_360" data-name="Ellipse 360" cx="3.268" cy="3.268" rx="3.268" ry="3.268"
                     transform="translate(0 68.203)" fill="#24a7f1"/>
        </g>
        <g id="Group_3688" data-name="Group 3688" transform="translate(10.559 166.848)">
            <path id="Path_733" data-name="Path 733"
                  d="M395.692,202.759H127.181L70.1,145.689H26.6L12.519,159.759l-1.229-1.229L25.882,143.95H70.818L127.9,201.02H394.974l52.689-52.689H534.81v1.739H448.382Z"
                  transform="translate(-8.758 -143.95)" fill="#24a7f1"/>
            <ellipse id="Ellipse_361" data-name="Ellipse 361" cx="3.268" cy="3.268" rx="3.268" ry="3.268"
                     transform="translate(522.622 1.982)" fill="#24a7f1"/>
            <path id="Path_734" data-name="Path 734"
                  d="M10.061,155.091a3.27,3.27,0,1,0,4.625,0A3.274,3.274,0,0,0,10.061,155.091Z"
                  transform="translate(-9.105 -142.33)" fill="#24a7f1"/>
        </g>
        <g id="Group_3689" data-name="Group 3689" transform="translate(183.271 152.707)">
            <path id="Path_735" data-name="Path 735"
                  d="M159.349,204.115l-1.229-1.229,31.247-31.247H334.431L372.25,133.82H486.657v1.739H372.969L335.15,173.378H190.1Z"
                  transform="translate(-158.12 -131.421)" fill="#24a7f1"/>
            <path id="Path_736" data-name="Path 736"
                  d="M441.888,138.287a3.268,3.268,0,1,0-3.268-3.268A3.265,3.265,0,0,0,441.888,138.287Z"
                  transform="translate(-113.513 -131.75)" fill="#24a7f1"/>
        </g>
        <g id="Group_3690" data-name="Group 3690" transform="translate(97.097 105.906)">
            <path id="Path_737" data-name="Path 737"
                  d="M159.767,178.559h-76V176.82h75.267l34.1-34.1H322.692L371.985,93.44H556.757v1.739H372.7L323.422,144.46H193.854Z"
                  transform="translate(-83.77 -91.041)" fill="#24a7f1"/>
            <path id="Path_738" data-name="Path 738"
                  d="M492.168,97.907a3.268,3.268,0,1,0-3.268-3.268A3.265,3.265,0,0,0,492.168,97.907Z"
                  transform="translate(-19.344 -91.37)" fill="#24a7f1"/>
        </g>
        <g id="Group_3691" data-name="Group 3691" transform="translate(82.227 144.339)">
            <path id="Path_739" data-name="Path 739"
                  d="M151.26,158.4H70.94v-1.739h79.6L180.607,126.6H297.193v1.739H181.326Z"
                  transform="translate(-70.94 -124.201)" fill="#24a7f1"/>
            <path id="Path_740" data-name="Path 740"
                  d="M266.458,131.067a3.268,3.268,0,1,0-3.268-3.268A3.265,3.265,0,0,0,266.458,131.067Z"
                  transform="translate(-40.367 -124.53)" fill="#24a7f1"/>
        </g>
        <g id="Group_3692" data-name="Group 3692" transform="translate(177.406 62.674)">
            <path id="Path_741" data-name="Path 741"
                  d="M154.289,116.34l-1.229-1.229L189.871,78.3h64.152L276.183,56.14H458.336v1.739H276.914L254.753,80.039H190.589Z"
                  transform="translate(-153.06 -53.741)" fill="#24a7f1"/>
            <ellipse id="Ellipse_362" data-name="Ellipse 362" cx="3.268" cy="3.268" rx="3.268" ry="3.268"
                     transform="translate(301.845)" fill="#24a7f1"/>
        </g>
        <g id="Group_3693" data-name="Group 3693" transform="translate(216.21 105.906)">
            <path id="Path_742" data-name="Path 742" d="M187.769,110.037l-1.229-1.229L201.9,93.44h24.224v1.739H202.616Z"
                  transform="translate(-186.54 -91.041)" fill="#24a7f1"/>
            <path id="Path_743" data-name="Path 743"
                  d="M221,97.907a3.268,3.268,0,1,0-3.268-3.268A3.265,3.265,0,0,0,221,97.907Z"
                  transform="translate(-181.58 -91.37)" fill="#24a7f1"/>
        </g>
        <g id="Group_3694" data-name="Group 3694" transform="translate(305.357 117.525)">
            <path id="Path_744" data-name="Path 744"
                  d="M317.18,119.911H280.752l-15.1-15.1,1.229-1.229,14.592,14.592h35.71Z"
                  transform="translate(-263.106 -101.048)" fill="#24a7f1"/>
            <path id="Path_745" data-name="Path 745"
                  d="M269.036,102.351a3.27,3.27,0,1,0,0,4.625A3.274,3.274,0,0,0,269.036,102.351Z"
                  transform="translate(-263.455 -101.395)" fill="#24a7f1"/>
        </g>
        <g id="Group_3695" data-name="Group 3695" transform="translate(265.353 122.341)">
            <path id="Path_746" data-name="Path 746"
                  d="M318.927,156.461H243.2L228.94,142.205l1.229-1.229,13.746,13.746h74.294l47.114-47.1h68.545v1.739H366.041Z"
                  transform="translate(-228.94 -105.221)" fill="#24a7f1"/>
            <path id="Path_747" data-name="Path 747"
                  d="M406.058,112.087a3.268,3.268,0,1,0-3.268-3.268A3.265,3.265,0,0,0,406.058,112.087Z"
                  transform="translate(-201.293 -105.55)" fill="#24a7f1"/>
        </g>
        <g id="Group_3696" data-name="Group 3696" transform="translate(242.798 176.404)">
            <path id="Path_748" data-name="Path 748"
                  d="M355.494,188.709H228.314L209.48,169.875l1.229-1.24,18.324,18.336H354.775l32.58-32.58,1.229,1.229Z"
                  transform="translate(-209.48 -151.846)" fill="#24a7f1"/>
            <path id="Path_749" data-name="Path 749"
                  d="M366.136,157.776a3.27,3.27,0,1,0-4.625,0A3.274,3.274,0,0,0,366.136,157.776Z"
                  transform="translate(-185.455 -152.195)" fill="#24a7f1"/>
        </g>
        <g id="Group_3697" data-name="Group 3697" transform="translate(323.374 65.479)">
            <path id="Path_750" data-name="Path 750"
                  d="M396.154,77.816H299.086L279,57.719l1.229-1.229,19.588,19.588h96.338Z"
                  transform="translate(-279 -56.49)" fill="#24a7f1"/>
            <ellipse id="Ellipse_363" data-name="Ellipse 363" cx="3.268" cy="3.268" rx="3.268" ry="3.268"
                     transform="translate(113.724 17.188)" fill="#24a7f1"/>
        </g>
        <g id="Group_3698" data-name="Group 3698" transform="translate(449.835 91.963)">
            <path id="Path_751" data-name="Path 751" d="M389.339,96.535l-1.229-1.229L402,81.41h74.746v1.739H402.725Z"
                  transform="translate(-388.11 -79.011)" fill="#24a7f1"/>
            <path id="Path_752" data-name="Path 752"
                  d="M464.888,85.877a3.268,3.268,0,1,0-3.268-3.268A3.265,3.265,0,0,0,464.888,85.877Z"
                  transform="translate(-376.42 -79.34)" fill="#24a7f1"/>
        </g>
        <g id="Group_3699" data-name="Group 3699" transform="translate(118.029 168.435)">
            <path id="Path_753" data-name="Path 753"
                  d="M159.839,190.749H101.83v-1.739h57.279L200.73,147.39h31.885v1.739H201.448Z"
                  transform="translate(-101.83 -144.991)" fill="#24a7f1"/>
            <path id="Path_754" data-name="Path 754"
                  d="M214.978,151.857a3.268,3.268,0,1,0-3.268-3.268A3.265,3.265,0,0,0,214.978,151.857Z"
                  transform="translate(-84.356 -145.32)" fill="#24a7f1"/>
        </g>
        <g id="Group_3700" data-name="Group 3700" transform="translate(418.843 124.995)">
            <path id="Path_755" data-name="Path 755"
                  d="M504.7,142.982l-16.62-16.62H378.663L361.37,109.069l1.229-1.229,16.783,16.783H488.8l17.119,17.13Z"
                  transform="translate(-361.37 -107.84)" fill="#24a7f1"/>
            <path id="Path_756" data-name="Path 756"
                  d="M483.591,140.286a3.27,3.27,0,1,0,0-4.625A3.274,3.274,0,0,0,483.591,140.286Z"
                  transform="translate(-342.086 -103.568)" fill="#24a7f1"/>
        </g>
        <g id="Group_3701" data-name="Group 3701" transform="translate(0 43.921)">
            <path id="Path_757" data-name="Path 757"
                  d="M47.821,145.837H17.675L2.19,130.352l1.229-1.229L18.393,144.1H47.1l58.589-58.577h42.768L194.02,39.96H254.2V41.7H194.75L149.178,87.26H106.41Z"
                  transform="translate(0.354 -37.561)" fill="#24a7f1"/>
            <path id="Path_758" data-name="Path 758"
                  d="M219.928,37.89a3.268,3.268,0,1,1-3.268,3.268A3.265,3.265,0,0,1,219.928,37.89Z"
                  transform="translate(34.46 -37.89)" fill="#24a7f1"/>
            <path id="Path_759" data-name="Path 759"
                  d="M5.576,115.661a3.27,3.27,0,1,0,0,4.625A3.274,3.274,0,0,0,5.576,115.661Z"
                  transform="translate(0.005 -25.674)" fill="#24a7f1"/>
        </g>
        <g id="Group_3702" data-name="Group 3702" transform="translate(63.312 106.833)">
            <path id="Path_760" data-name="Path 760"
                  d="M83.8,121.709H54.62V119.97H83.086l25.73-25.73H134.28v1.739H109.535Z"
                  transform="translate(-54.62 -91.841)" fill="#24a7f1"/>
            <path id="Path_761" data-name="Path 761"
                  d="M123.658,98.707a3.268,3.268,0,1,0-3.268-3.268A3.265,3.265,0,0,0,123.658,98.707Z"
                  transform="translate(-44.161 -92.17)" fill="#24a7f1"/>
        </g>
        <g id="Group_3703" data-name="Group 3703" transform="translate(167.149 51.89)">
            <path id="Path_762" data-name="Path 762"
                  d="M209.347,68.172H144.21V66.433h64.419L222.12,52.954h37.031l6-6,1.229,1.229-6.514,6.514H222.838Z"
                  transform="translate(-144.21 -44.418)" fill="#24a7f1"/>
            <path id="Path_763" data-name="Path 763"
                  d="M251.746,50.346a3.27,3.27,0,1,0-4.625,0A3.274,3.274,0,0,0,251.746,50.346Z"
                  transform="translate(-127.997 -44.765)" fill="#24a7f1"/>
        </g>
        <g id="Group_3704" data-name="Group 3704" transform="translate(161.545 94.889)">
            <path id="Path_764" data-name="Path 764" d="M172.529,95.129H151.4l-9.84-9.84,1.229-1.229,9.33,9.33h20.41Z"
                  transform="translate(-139.028 -81.516)" fill="#24a7f1"/>
            <path id="Path_765" data-name="Path 765"
                  d="M144.956,82.821a3.27,3.27,0,1,0,0,4.625A3.274,3.274,0,0,0,144.956,82.821Z"
                  transform="translate(-139.375 -81.865)" fill="#24a7f1"/>
        </g>
        <g id="Group_3705" data-name="Group 3705" transform="translate(260.137 32.679)">
            <path id="Path_766" data-name="Path 766"
                  d="M471.069,57.316l-10.8-10.8H340.47L323.884,29.929H253l-27.33,27.33L224.44,56.03l27.84-27.84H324.6l16.586,16.586h119.8L472.3,56.088Z"
                  transform="translate(-224.44 -28.19)" fill="#24a7f1"/>
            <path id="Path_767" data-name="Path 767"
                  d="M435.791,55.446a3.27,3.27,0,1,0,0-4.625A3.274,3.274,0,0,0,435.791,55.446Z"
                  transform="translate(-190.982 -24.743)" fill="#24a7f1"/>
        </g>
        <g id="Group_3706" data-name="Group 3706" transform="translate(288.65 104.283)">
            <path id="Path_768" data-name="Path 768" d="M315.359,98.245l-6.549-6.537H249.04V89.97h60.49l7.058,7.047Z"
                  transform="translate(-249.04 -89.97)" fill="#24a7f1"/>
            <path id="Path_769" data-name="Path 769"
                  d="M304.821,99.236a3.27,3.27,0,1,0,0-4.625A3.274,3.274,0,0,0,304.821,99.236Z"
                  transform="translate(-240.321 -89.384)" fill="#24a7f1"/>
        </g>
        <g id="Group_3707" data-name="Group 3707" transform="translate(93.806 134.314)">
            <path id="Path_770" data-name="Path 770"
                  d="M143.6,145.488H93.181L80.93,133.238l1.229-1.229L93.9,143.75h48.98l25.8-25.8h70.086v1.739H169.4Z"
                  transform="translate(-80.93 -115.551)" fill="#24a7f1"/>
            <path id="Path_771" data-name="Path 771"
                  d="M217.418,122.417a3.268,3.268,0,1,0-3.268-3.268A3.265,3.265,0,0,0,217.418,122.417Z"
                  transform="translate(-59.745 -115.88)" fill="#24a7f1"/>
        </g>
        <g id="Group_3708" data-name="Group 3708" transform="translate(123.361 137.072)">
            <rect id="Rectangle_1417" data-name="Rectangle 1417" width="30.784" height="1.739"
                  transform="translate(0 2.399)" fill="#24a7f1"/>
            <path id="Path_772" data-name="Path 772"
                  d="M133.308,124.8a3.268,3.268,0,1,0-3.268-3.268A3.265,3.265,0,0,0,133.308,124.8Z"
                  transform="translate(-102.675 -118.26)" fill="#24a7f1"/>
        </g>
        <g id="Group_3709" data-name="Group 3709" transform="translate(290.608 171.889)">
            <path id="Path_773" data-name="Path 773"
                  d="M310.524,160.018h-49.3L250.73,149.529l1.229-1.229,9.979,9.979h48.586Z"
                  transform="translate(-250.73 -148.3)" fill="#24a7f1"/>
            <path id="Path_774" data-name="Path 774"
                  d="M302.619,161.377a3.268,3.268,0,1,0-3.268-3.268A3.265,3.265,0,0,0,302.619,161.377Z"
                  transform="translate(-242.998 -147.26)" fill="#24a7f1"/>
        </g>
        <g id="Group_3710" data-name="Group 3710" transform="translate(307.078 32.98)">
            <path id="Path_775" data-name="Path 775"
                  d="M315.879,46.044H281.305L264.94,29.679l1.229-1.229,15.855,15.855h33.855Z"
                  transform="translate(-264.94 -28.45)" fill="#24a7f1"/>
            <path id="Path_776" data-name="Path 776"
                  d="M309.188,46.6a3.268,3.268,0,1,0-3.268-3.268A3.265,3.265,0,0,0,309.188,46.6Z"
                  transform="translate(-258.423 -26.604)" fill="#24a7f1"/>
        </g>
        <g id="Group_3711" data-name="Group 3711" transform="translate(370.639 162.965)">
            <path id="Path_777" data-name="Path 777"
                  d="M340.063,161.666H319.78v-1.739h19.564l17.269-17.258h30v1.739H357.332Z"
                  transform="translate(-319.78 -140.271)" fill="#24a7f1"/>
            <ellipse id="Ellipse_364" data-name="Ellipse 364" cx="3.268" cy="3.268" rx="3.268" ry="3.268"
                     transform="translate(63.399)" fill="#24a7f1"/>
        </g>
        <g id="Group_3712" data-name="Group 3712" transform="translate(373.989 85.554)">
            <path id="Path_778" data-name="Path 778"
                  d="M376.634,85.667H333.3L322.67,75.039,323.9,73.81l10.118,10.118h42.617Z"
                  transform="translate(-322.67 -73.81)" fill="#24a7f1"/>
            <path id="Path_779" data-name="Path 779"
                  d="M369.538,87.007a3.268,3.268,0,1,0-3.268-3.268A3.265,3.265,0,0,0,369.538,87.007Z"
                  transform="translate(-315.736 -72.751)" fill="#24a7f1"/>
        </g>
        <g id="Group_3713" data-name="Group 3713" transform="translate(159.94 224.521)">
            <path id="Path_780" data-name="Path 780"
                  d="M405.029,243.421H186.484L137.99,194.939l1.229-1.229L187.2,241.682H404.3l33.774-33.762h114.2l12.4,12.4-1.229,1.229-11.892-11.892H438.792Z"
                  transform="translate(-137.99 -193.71)" fill="#24a7f1"/>
            <path id="Path_781" data-name="Path 781"
                  d="M503.631,219.866a3.27,3.27,0,1,0,0-4.625A3.274,3.274,0,0,0,503.631,219.866Z"
                  transform="translate(-79.996 -190.438)" fill="#24a7f1"/>
        </g>
        <g id="Group_3714" data-name="Group 3714" transform="translate(315.887 202.969)">
            <path id="Path_782" data-name="Path 782"
                  d="M392.256,215.824H291L272.54,197.35l1.229-1.229,17.953,17.965h99.815l36.776-36.776,1.229,1.229Z"
                  transform="translate(-272.54 -174.766)" fill="#24a7f1"/>
            <path id="Path_783" data-name="Path 783"
                  d="M410.126,180.7a3.27,3.27,0,1,0-4.625,0A3.274,3.274,0,0,0,410.126,180.7Z"
                  transform="translate(-251.548 -175.115)" fill="#24a7f1"/>
        </g>
        <g id="Group_3715" data-name="Group 3715" transform="translate(413.546 186.389)">
            <path id="Path_784" data-name="Path 784"
                  d="M391.432,183.464H356.8v-1.739h33.9l18.857-18.846H446.6v1.739H410.277Z"
                  transform="translate(-356.8 -160.481)" fill="#24a7f1"/>
            <ellipse id="Ellipse_365" data-name="Ellipse 365" cx="3.268" cy="3.268" rx="3.268" ry="3.268"
                     transform="translate(86.371)" fill="#24a7f1"/>
        </g>
        <g id="Group_3716" data-name="Group 3716" transform="translate(493.275 214.182)">
            <path id="Path_785" data-name="Path 785" d="M426.819,210.62l-1.229-1.229,22.531-22.531h22.96V188.6H448.84Z"
                  transform="translate(-425.59 -184.461)" fill="#24a7f1"/>
            <path id="Path_786" data-name="Path 786"
                  d="M465.148,191.327a3.268,3.268,0,1,0-3.268-3.268A3.265,3.265,0,0,0,465.148,191.327Z"
                  transform="translate(-419.819 -184.79)" fill="#24a7f1"/>
        </g>
        <g id="Group_3717" data-name="Group 3717" transform="translate(182.9 246.09)">
            <path id="Path_787" data-name="Path 787" d="M259.331,226.588,246.8,214.059h-89V212.32h89.72l13.039,13.039Z"
                  transform="translate(-157.8 -212.32)" fill="#24a7f1"/>
            <path id="Path_788" data-name="Path 788"
                  d="M243.971,226.766a3.27,3.27,0,1,0,0-4.625A3.274,3.274,0,0,0,243.971,226.766Z"
                  transform="translate(-144.249 -210.91)" fill="#24a7f1"/>
        </g>
        <g id="Group_3718" data-name="Group 3718" transform="translate(280.791 224.266)">
            <path id="Path_789" data-name="Path 789"
                  d="M343.721,226.963H274.493L242.26,194.719l1.229-1.229,31.734,31.734h68.5Z"
                  transform="translate(-242.26 -193.49)" fill="#24a7f1"/>
            <path id="Path_790" data-name="Path 790"
                  d="M330.109,225.337a3.268,3.268,0,1,0-3.268-3.268A3.265,3.265,0,0,0,330.109,225.337Z"
                  transform="translate(-228.81 -189.465)" fill="#24a7f1"/>
        </g>
        <g id="Group_3719" data-name="Group 3719" transform="translate(403.115 0)">
            <path id="Path_791" data-name="Path 791"
                  d="M349.04,50.255l-1.24-1.229,26.692-26.692H486.709L506.853,2.19l1.229,1.229L487.428,24.072H375.211Z"
                  transform="translate(-347.8 0.354)" fill="#24a7f1"/>
            <path id="Path_792" data-name="Path 792"
                  d="M488.216,5.576a3.27,3.27,0,1,0-4.625,0A3.274,3.274,0,0,0,488.216,5.576Z"
                  transform="translate(-326.358 0.005)" fill="#24a7f1"/>
        </g>
    </g>
</svg>
