<svg xmlns="http://www.w3.org/2000/svg" width="743.74" height="346.185" viewBox="0 0 743.74 346.185">
    <g id="aaa" transform="translate(0)" opacity="0.51">
        <g id="Group_3618" data-name="Group 3618" transform="translate(357.795 111.184)">
            <path id="Path_607" data-name="Path 607"
                  d="M290.047,166.29h89.368V164.1H290.954L280.6,153.722H248.582l-34.032-34.032H50.21L8.7,78.18,7.15,79.731,49.3,121.884H213.642l34.032,34.032h32.013Z"
                  transform="translate(-3.938 -74.968)" fill="#4b5363"/>
            <path id="Path_608" data-name="Path 608"
                  d="M265.18,77.192a4.128,4.128,0,1,0,0,5.838A4.133,4.133,0,0,0,265.18,77.192Z"
                  transform="translate(-258.135 -75.985)" fill="#4b5363"/>
            <ellipse id="Ellipse_274" data-name="Ellipse 274" cx="4.126" cy="4.126" rx="4.126" ry="4.126"
                     transform="translate(371.146 86.098)" fill="#4b5363"/>
        </g>
        <g id="Group_3619" data-name="Group 3619" transform="translate(62.41 210.625)">
            <path id="Path_609" data-name="Path 609"
                  d="M186.91,218.189H525.874l72.059-72.045h54.911l17.777,17.762,1.551-1.551L653.752,143.95H597.026l-72.059,72.045H187.817L121.3,149.481H11.29v2.195H120.4Z"
                  transform="translate(-7.369 -143.95)" fill="#4b5363"/>
            <ellipse id="Ellipse_275" data-name="Ellipse 275" cx="4.126" cy="4.126" rx="4.126" ry="4.126"
                     transform="translate(0 2.502)" fill="#4b5363"/>
            <path id="Path_610" data-name="Path 610"
                  d="M16.15,155.342a4.128,4.128,0,1,1-5.838,0A4.133,4.133,0,0,1,16.15,155.342Z"
                  transform="translate(650.644 -139.233)" fill="#4b5363"/>
        </g>
        <g id="Group_3620" data-name="Group 3620" transform="translate(93.721 192.775)">
            <path id="Path_611" data-name="Path 611"
                  d="M571.309,222.559l1.551-1.551-39.446-39.446H350.288L302.546,133.82H158.12v2.195H301.639l47.742,47.742H532.492Z"
                  transform="translate(-154.199 -130.791)" fill="#4b5363"/>
            <path id="Path_612" data-name="Path 612"
                  d="M442.746,140a4.126,4.126,0,1,1,4.126-4.126A4.121,4.121,0,0,1,442.746,140Z"
                  transform="translate(-438.62 -131.75)" fill="#4b5363"/>
        </g>
        <g id="Group_3621" data-name="Group 3621" transform="translate(20.155 133.694)">
            <path id="Path_613" data-name="Path 613"
                  d="M584.922,200.893H680.86V198.7H585.844L542.8,155.652H379.25L317.023,93.44H83.77v2.195H316.116l62.212,62.212H541.892Z"
                  transform="translate(-79.849 -90.411)" fill="#4b5363"/>
            <path id="Path_614" data-name="Path 614"
                  d="M493.026,99.622a4.126,4.126,0,1,1,4.126-4.126A4.121,4.121,0,0,1,493.026,99.622Z"
                  transform="translate(-488.9 -91.37)" fill="#4b5363"/>
        </g>
        <g id="Group_3622" data-name="Group 3622" transform="translate(350.398 182.211)">
            <path id="Path_615" data-name="Path 615"
                  d="M255.163,166.748h101.4v-2.195H256.07L218.117,126.6H70.94v2.195H217.209Z"
                  transform="translate(-67.019 -123.571)" fill="#4b5363"/>
            <path id="Path_616" data-name="Path 616"
                  d="M267.316,132.782a4.126,4.126,0,1,1,4.126-4.126A4.121,4.121,0,0,1,267.316,132.782Z"
                  transform="translate(-263.19 -124.53)" fill="#4b5363"/>
        </g>
        <g id="Group_3623" data-name="Group 3623" transform="translate(130.49 79.119)">
            <path id="Path_617" data-name="Path 617"
                  d="M536.884,132.135l1.551-1.551L491.966,84.115H410.981L383.006,56.14H153.06v2.195H382.084L410.059,86.31h81Z"
                  transform="translate(-149.139 -53.111)" fill="#4b5363"/>
            <ellipse id="Ellipse_276" data-name="Ellipse 276" cx="4.126" cy="4.126" rx="4.126" ry="4.126"
                     transform="translate(0)" fill="#4b5363"/>
        </g>
        <g id="Group_3624" data-name="Group 3624" transform="translate(416.912 133.694)">
            <path id="Path_618" data-name="Path 618" d="M234.955,114.392l1.551-1.551-19.387-19.4H186.54v2.195h29.672Z"
                  transform="translate(-182.619 -90.411)" fill="#4b5363"/>
            <path id="Path_619" data-name="Path 619"
                  d="M221.856,99.622a4.126,4.126,0,1,1,4.126-4.126A4.121,4.121,0,0,1,221.856,99.622Z"
                  transform="translate(-217.73 -91.37)" fill="#4b5363"/>
        </g>
        <g id="Group_3625" data-name="Group 3625" transform="translate(290 148.362)">
            <path id="Path_620" data-name="Path 620"
                  d="M265.65,124.2h45.986L330.7,105.131l-1.551-1.551L310.729,122H265.65Z"
                  transform="translate(-265.65 -100.383)" fill="#4b5363"/>
            <path id="Path_621" data-name="Path 621"
                  d="M264.662,102.6a4.128,4.128,0,1,1,0,5.838A4.133,4.133,0,0,1,264.662,102.6Z"
                  transform="translate(-203.445 -101.395)" fill="#4b5363"/>
        </g>
        <g id="Group_3626" data-name="Group 3626" transform="translate(146.145 154.441)">
            <path id="Path_622" data-name="Path 622"
                  d="M374.039,169.276h95.6l18-18-1.551-1.551-17.353,17.353H374.946L315.47,107.62H228.94v2.195h85.623Z"
                  transform="translate(-225.019 -104.591)" fill="#4b5363"/>
            <path id="Path_623" data-name="Path 623"
                  d="M406.916,113.8a4.126,4.126,0,1,1,4.126-4.126A4.121,4.121,0,0,1,406.916,113.8Z"
                  transform="translate(-402.79 -105.55)" fill="#4b5363"/>
        </g>
        <g id="Group_3627" data-name="Group 3627" transform="translate(207.94 222.689)">
            <path id="Path_624" data-name="Path 624"
                  d="M251.252,197.713H411.8l23.776-23.776-1.551-1.566-23.132,23.147H252.16L211.031,154.39l-1.551,1.551Z"
                  transform="translate(-206.283 -151.178)" fill="#4b5363"/>
            <path id="Path_625" data-name="Path 625"
                  d="M361.762,159.24a4.128,4.128,0,1,1,5.838,0A4.133,4.133,0,0,1,361.762,159.24Z"
                  transform="translate(-360.555 -152.195)" fill="#4b5363"/>
        </g>
        <g id="Group_3628" data-name="Group 3628" transform="translate(183.704 82.66)">
            <path id="Path_626" data-name="Path 626"
                  d="M279,83.412H401.537l25.356-25.371-1.551-1.551L400.616,81.217H279Z"
                  transform="translate(-275.079 -56.49)" fill="#4b5363"/>
            <ellipse id="Ellipse_277" data-name="Ellipse 277" cx="4.126" cy="4.126" rx="4.126" ry="4.126"
                     transform="translate(0 21.698)" fill="#4b5363"/>
        </g>
        <g id="Group_3629" data-name="Group 3629" transform="translate(60.069 116.092)">
            <path id="Path_627" data-name="Path 627" d="M498.445,100.5,500,98.953,482.467,81.41H388.11V83.6h93.436Z"
                  transform="translate(-384.189 -78.381)" fill="#4b5363"/>
            <path id="Path_628" data-name="Path 628"
                  d="M465.746,87.592a4.126,4.126,0,1,1,4.126-4.126A4.121,4.121,0,0,1,465.746,87.592Z"
                  transform="translate(-461.62 -79.34)" fill="#4b5363"/>
        </g>
        <g id="Group_3630" data-name="Group 3630" transform="translate(425.721 212.63)">
            <path id="Path_629" data-name="Path 629"
                  d="M193.7,202.126h73.23v-2.195H194.622L142.081,147.39H101.83v2.195h39.344Z"
                  transform="translate(-97.909 -144.361)" fill="#4b5363"/>
            <path id="Path_630" data-name="Path 630"
                  d="M215.836,153.572a4.126,4.126,0,1,1,4.126-4.126A4.121,4.121,0,0,1,215.836,153.572Z"
                  transform="translate(-211.71 -145.32)" fill="#4b5363"/>
        </g>
        <g id="Group_3631" data-name="Group 3631" transform="translate(29.321 157.792)">
            <path id="Path_631" data-name="Path 631"
                  d="M362.921,152.2,383.9,131.221h138.12l21.83-21.83L542.3,107.84l-21.186,21.186H382.981l-21.61,21.625Z"
                  transform="translate(-358.173 -107.84)" fill="#4b5363"/>
            <path id="Path_632" data-name="Path 632"
                  d="M489.68,141.75a4.128,4.128,0,1,1,0-5.838A4.133,4.133,0,0,1,489.68,141.75Z"
                  transform="translate(-482.635 -95.398)" fill="#4b5363"/>
        </g>
        <g id="Group_3632" data-name="Group 3632" transform="translate(418.478 55.445)">
            <path id="Path_633" data-name="Path 633"
                  d="M262.716,173.617h38.056l19.547-19.547-1.551-1.551-18.9,18.9H263.623L189.661,97.476h-53.99L78.156,39.96H2.19v2.195H77.234l57.53,57.516h53.99Z"
                  transform="translate(1.731 -36.931)" fill="#4b5363"/>
            <path id="Path_634" data-name="Path 634"
                  d="M220.786,37.89a4.126,4.126,0,1,0,4.126,4.126A4.121,4.121,0,0,0,220.786,37.89Z"
                  transform="translate(-216.66 -37.89)" fill="#4b5363"/>
            <path id="Path_635" data-name="Path 635"
                  d="M1.2,115.912a4.128,4.128,0,1,1,0,5.838A4.133,4.133,0,0,1,1.2,115.912Z"
                  transform="translate(317.015 -2.314)" fill="#4b5363"/>
        </g>
        <g id="Group_3633" data-name="Group 3633" transform="translate(559.334 134.864)">
            <path id="Path_636" data-name="Path 636"
                  d="M118.339,128.916h36.842v-2.195H119.247L86.765,94.24H54.62v2.195H85.858Z"
                  transform="translate(-50.699 -91.211)" fill="#4b5363"/>
            <path id="Path_637" data-name="Path 637"
                  d="M124.516,100.422a4.126,4.126,0,1,1,4.126-4.126A4.121,4.121,0,0,1,124.516,100.422Z"
                  transform="translate(-120.39 -92.17)" fill="#4b5363"/>
        </g>
        <g id="Group_3634" data-name="Group 3634" transform="translate(375.308 65.505)">
            <path id="Path_638" data-name="Path 638"
                  d="M216.211,73.74h82.228V71.545H217.118L200.087,54.529H153.34l-7.579-7.579L144.21,48.5l8.223,8.223H199.18Z"
                  transform="translate(-141.013 -43.753)" fill="#4b5363"/>
            <path id="Path_639" data-name="Path 639"
                  d="M247.372,51.81a4.128,4.128,0,1,1,5.838,0A4.133,4.133,0,0,1,247.372,51.81Z"
                  transform="translate(-246.165 -44.765)" fill="#4b5363"/>
        </g>
        <g id="Group_3635" data-name="Group 3635" transform="translate(497.517 119.787)">
            <path id="Path_640" data-name="Path 640"
                  d="M141.56,98.033h26.673l12.422-12.422L179.1,84.06,167.326,95.838H141.56Z"
                  transform="translate(-141.56 -80.848)" fill="#4b5363"/>
            <path id="Path_641" data-name="Path 641"
                  d="M140.582,83.072a4.128,4.128,0,1,1,0,5.838A4.133,4.133,0,0,1,140.582,83.072Z"
                  transform="translate(-105.335 -81.865)" fill="#4b5363"/>
        </g>
        <g id="Group_3636" data-name="Group 3636" transform="translate(99.259 41.253)">
            <path id="Path_642" data-name="Path 642"
                  d="M225.991,64.959l13.636-13.636h151.23l20.937-20.937h89.485l34.5,34.5,1.551-1.551L502.187,28.19h-91.3L389.95,49.127H238.72l-14.28,14.28Z"
                  transform="translate(-221.243 -28.19)" fill="#4b5363"/>
            <path id="Path_643" data-name="Path 643"
                  d="M441.88,56.91a4.128,4.128,0,1,1,0-5.838A4.133,4.133,0,0,1,441.88,56.91Z"
                  transform="translate(-434.835 -18.152)" fill="#4b5363"/>
        </g>
        <g id="Group_3637" data-name="Group 3637" transform="translate(290.885 131.645)">
            <path id="Path_644" data-name="Path 644" d="M250.591,100.417l8.267-8.252h75.454V89.97H257.951l-8.91,8.9Z"
                  transform="translate(-245.843 -89.97)" fill="#4b5363"/>
            <path id="Path_645" data-name="Path 645"
                  d="M310.91,100.7a4.128,4.128,0,1,1,0-5.838A4.133,4.133,0,0,1,310.91,100.7Z"
                  transform="translate(-303.865 -88.263)" fill="#4b5363"/>
        </g>
        <g id="Group_3638" data-name="Group 3638" transform="translate(422.151 169.555)">
            <path id="Path_646" data-name="Path 646"
                  d="M201.068,152.714h63.646l15.465-15.465-1.551-1.551-14.822,14.822H201.975L169.406,117.95H80.93v2.195H168.5Z"
                  transform="translate(-77.009 -114.921)" fill="#4b5363"/>
            <path id="Path_647" data-name="Path 647"
                  d="M218.276,124.132a4.126,4.126,0,1,1,4.126-4.126A4.121,4.121,0,0,1,218.276,124.132Z"
                  transform="translate(-214.15 -115.88)" fill="#4b5363"/>
        </g>
        <g id="Group_3639" data-name="Group 3639" transform="translate(545.215 173.038)">
            <rect id="Rectangle_1413" data-name="Rectangle 1413" width="38.861" height="2.195"
                  transform="translate(3.936 3.029)" fill="#4b5363"/>
            <path id="Path_648" data-name="Path 648"
                  d="M134.166,126.512a4.126,4.126,0,1,1,4.126-4.126A4.121,4.121,0,0,1,134.166,126.512Z"
                  transform="translate(-130.04 -118.26)" fill="#4b5363"/>
        </g>
        <g id="Group_3640" data-name="Group 3640" transform="translate(297.492 216.99)">
            <path id="Path_649" data-name="Path 649"
                  d="M250.73,163.092h62.242l13.241-13.241-1.551-1.551-12.6,12.6H250.73Z"
                  transform="translate(-246.823 -148.3)" fill="#4b5363"/>
            <path id="Path_650" data-name="Path 650"
                  d="M303.476,163.092a4.126,4.126,0,1,1,4.126-4.126A4.121,4.121,0,0,1,303.476,163.092Z"
                  transform="translate(-299.35 -145.271)" fill="#4b5363"/>
        </g>
        <g id="Group_3641" data-name="Group 3641" transform="translate(287.879 41.633)">
            <path id="Path_651" data-name="Path 651"
                  d="M264.94,50.66h43.645L329.245,30l-1.551-1.551L307.678,48.466H264.94Z"
                  transform="translate(-261.033 -28.45)" fill="#4b5363"/>
            <path id="Path_652" data-name="Path 652"
                  d="M310.046,48.312a4.126,4.126,0,1,1,4.126-4.126A4.121,4.121,0,0,1,310.046,48.312Z"
                  transform="translate(-305.92 -23.073)" fill="#4b5363"/>
        </g>
        <g id="Group_3642" data-name="Group 3642" transform="translate(187.566 205.724)">
            <path id="Path_653" data-name="Path 653"
                  d="M378.539,166.651h25.6v-2.195h-24.7l-21.8-21.786H319.78v2.195h36.959Z"
                  transform="translate(-315.859 -139.641)" fill="#4b5363"/>
            <ellipse id="Ellipse_278" data-name="Ellipse 278" cx="4.126" cy="4.126" rx="4.126" ry="4.126"
                     transform="translate(0)" fill="#4b5363"/>
        </g>
        <g id="Group_3643" data-name="Group 3643" transform="translate(199.579 108.001)">
            <path id="Path_654" data-name="Path 654"
                  d="M322.67,88.778h54.707l13.417-13.417-1.551-1.551L376.469,86.583h-53.8Z"
                  transform="translate(-318.749 -73.81)" fill="#4b5363"/>
            <path id="Path_655" data-name="Path 655"
                  d="M370.4,88.722a4.126,4.126,0,1,1,4.126-4.126A4.121,4.121,0,0,1,370.4,88.722Z"
                  transform="translate(-366.27 -70.726)" fill="#4b5363"/>
        </g>
        <g id="Group_3644" data-name="Group 3644" transform="translate(0 283.431)">
            <path id="Path_656" data-name="Path 656"
                  d="M339.522,256.464H615.411l61.218-61.2-1.551-1.551L614.5,254.269H340.444l-42.636-42.621H153.646L137.99,227.3l1.551,1.551,15.012-15.012H296.9Z"
                  transform="translate(-134.793 -193.71)" fill="#4b5363"/>
            <path id="Path_657" data-name="Path 657"
                  d="M509.72,221.33a4.128,4.128,0,1,1,0-5.838A4.133,4.133,0,0,1,509.72,221.33Z"
                  transform="translate(-502.675 -184.181)" fill="#4b5363"/>
        </g>
        <g id="Group_3645" data-name="Group 3645" transform="translate(143.577 256.224)">
            <path id="Path_658" data-name="Path 658"
                  d="M319.609,225.93H447.428l23.308-23.322-1.551-1.551-22.664,22.679H320.516L274.091,177.31l-1.551,1.551Z"
                  transform="translate(-269.343 -174.098)" fill="#4b5363"/>
            <path id="Path_659" data-name="Path 659"
                  d="M405.752,182.16a4.128,4.128,0,1,1,5.838,0A4.133,4.133,0,0,1,405.752,182.16Z"
                  transform="translate(-404.545 -175.115)" fill="#4b5363"/>
        </g>
        <g id="Group_3646" data-name="Group 3646" transform="translate(104.402 235.294)">
            <path id="Path_660" data-name="Path 660"
                  d="M426.445,188.865h43.718v-2.195h-42.8L403.562,162.88H356.8v2.195h45.855Z"
                  transform="translate(-352.879 -159.851)" fill="#4b5363"/>
            <ellipse id="Ellipse_279" data-name="Ellipse 279" cx="4.126" cy="4.126" rx="4.126" ry="4.126"
                     transform="translate(0)" fill="#4b5363"/>
        </g>
        <g id="Group_3647" data-name="Group 3647" transform="translate(59.688 270.38)">
            <path id="Path_661" data-name="Path 661"
                  d="M481.467,216.854l1.551-1.551L454.575,186.86H425.59v2.195h28.078Z"
                  transform="translate(-421.669 -183.831)" fill="#4b5363"/>
            <path id="Path_662" data-name="Path 662"
                  d="M466.006,193.042a4.126,4.126,0,1,1,4.126-4.126A4.121,4.121,0,0,1,466.006,193.042Z"
                  transform="translate(-461.88 -184.79)" fill="#4b5363"/>
        </g>
        <g id="Group_3648" data-name="Group 3648" transform="translate(379.917 310.66)">
            <path id="Path_663" data-name="Path 663"
                  d="M159.351,230.331l15.816-15.816H287.521V212.32H174.26L157.8,228.78Z"
                  transform="translate(-154.588 -212.32)" fill="#4b5363"/>
            <path id="Path_664" data-name="Path 664"
                  d="M250.06,228.23a4.128,4.128,0,1,1,0-5.838A4.133,4.133,0,0,1,250.06,228.23Z"
                  transform="translate(-243.015 -208.214)" fill="#4b5363"/>
        </g>
        <g id="Group_3649" data-name="Group 3649" transform="translate(257.27 283.109)">
            <path id="Path_665" data-name="Path 665"
                  d="M242.26,235.745h87.393l40.69-40.7-1.551-1.551-40.061,40.061H242.26Z"
                  transform="translate(-238.339 -193.49)" fill="#4b5363"/>
            <path id="Path_666" data-name="Path 666"
                  d="M330.966,227.052a4.126,4.126,0,1,1,4.126-4.126A4.121,4.121,0,0,1,330.966,227.052Z"
                  transform="translate(-326.84 -181.768)" fill="#4b5363"/>
        </g>
        <g id="Group_3650" data-name="Group 3650" transform="translate(29.321 0)">
            <path id="Path_667" data-name="Path 667"
                  d="M548.571,62.866l1.566-1.551-33.7-33.7H374.78L349.351,2.19,347.8,3.741l26.073,26.073H515.534Z"
                  transform="translate(-344.603 1.022)" fill="#4b5363"/>
            <path id="Path_668" data-name="Path 668"
                  d="M483.842,7.04a4.128,4.128,0,1,1,5.838,0A4.133,4.133,0,0,1,483.842,7.04Z"
                  transform="translate(-482.635 0.005)" fill="#4b5363"/>
        </g>
    </g>
</svg>
