<svg xmlns="http://www.w3.org/2000/svg" width="276" height="246.646" viewBox="0 0 276 246.646">
  <g id="EkhtibaratLogo" transform="translate(-5.533 148.051)">
    <path id="Path_1" data-name="Path 1" d="M563.728,80.269v36.775c-31.4,20.937-63.11,19.317-63.11,19.317s-31.705,1.62-63.171-19.317V80.269L500.618,114.1ZM437.508,68.931l63.11,33.955,95.838-51.413-25.87-13.918-58.3,31.316-11.431-6.119L559.216,31.5l-25.93-13.918ZM404.9,51.413l21.117,11.338,95.6-51.413L500.618,0Zm13.236,29.336V52.673h-5.415V80.809a8.032,8.032,0,0,0-5.234,7.559v15.9H423.61v-15.9A8.044,8.044,0,0,0,418.136,80.749Z" transform="translate(-351.145 -148.051)" fill="#46008c"/>
    <g id="Group_5" data-name="Group 5" transform="translate(5.533 15.211)">
      <g id="Group_4" data-name="Group 4">
        <path id="Path_2" data-name="Path 2" d="M57.573,101.767H5.7V69.428h9.342V93.361H48.156V58.977h9.418v42.79ZM25.6,54.736a6.684,6.684,0,0,1-4.1-1.59,8.29,8.29,0,0,1-1.595-4.09A6.077,6.077,0,0,1,21.5,45.193a5.637,5.637,0,0,1,4.1-1.742,4.16,4.16,0,0,1,1.823.3,4.382,4.382,0,0,1,1.063.606,4.316,4.316,0,0,1,.911.833,4.892,4.892,0,0,1,1.747,3.862,5.579,5.579,0,0,1-.38,2.121A6.611,6.611,0,0,1,29.4,53.145,6.1,6.1,0,0,1,25.6,54.736Zm12.608-.151a6.684,6.684,0,0,1-4.1-1.59A8.29,8.29,0,0,1,32.51,48.9a6.077,6.077,0,0,1,1.595-3.862,5.637,5.637,0,0,1,4.1-1.742,4.16,4.16,0,0,1,1.823.3,4.38,4.38,0,0,1,1.063.606,4.316,4.316,0,0,1,.911.833A4.892,4.892,0,0,1,43.751,48.9a5.579,5.579,0,0,1-.38,2.121A6.612,6.612,0,0,1,42,52.994,6.1,6.1,0,0,1,38.206,54.584Z" transform="translate(-5.7 -36.56)" fill="#46008c"/>
        <path id="Path_3" data-name="Path 3" d="M86.4,99.532V34.4h9.342V99.607Z" transform="translate(-25.109 -34.4)" fill="#46008c"/>
        <path id="Path_4" data-name="Path 4" d="M117.466,106.79v18.176H108.2V64h9.266v42.79Z" transform="translate(-30.352 -41.583)" fill="#46008c"/>
        <path id="Path_5" data-name="Path 5" d="M132.7,99.607V34.4h9.342V91.2h6.228v8.331H132.7Z" transform="translate(-36.244 -34.4)" fill="#46008c"/>
        <path id="Path_6" data-name="Path 6" d="M167.481,117.831H151V109.5h16.481Z" transform="translate(-40.646 -52.623)" fill="#46008c"/>
        <path id="Path_7" data-name="Path 7" d="M171,106.79V98.459h12.684V64h9.342V98.459h6.987v8.331Zm10.329,14.238a6.684,6.684,0,0,1-4.1-1.59,8.29,8.29,0,0,1-1.595-4.09,6.078,6.078,0,0,1,1.595-3.862,5.638,5.638,0,0,1,4.1-1.742,4.16,4.16,0,0,1,1.823.3,4.38,4.38,0,0,1,1.063.606,4.318,4.318,0,0,1,.912.833,4.893,4.893,0,0,1,1.747,3.862,5.578,5.578,0,0,1-.38,2.121,6.61,6.61,0,0,1-1.367,1.969A6.1,6.1,0,0,1,181.329,121.028Z" transform="translate(-45.456 -41.583)" fill="#46008c"/>
        <path id="Path_8" data-name="Path 8" d="M224.181,117.831H207.7V109.5h16.481Z" transform="translate(-54.282 -52.623)" fill="#46008c"/>
        <path id="Path_9" data-name="Path 9" d="M234.7,54.736a6.683,6.683,0,0,1-4.1-1.59A8.289,8.289,0,0,1,229,49.056a6.077,6.077,0,0,1,1.595-3.862,5.638,5.638,0,0,1,4.1-1.742,4.16,4.16,0,0,1,1.823.3,4.378,4.378,0,0,1,1.063.606,4.317,4.317,0,0,1,.912.833,4.893,4.893,0,0,1,1.747,3.862,5.582,5.582,0,0,1-.38,2.121,6.618,6.618,0,0,1-1.367,1.969A6.1,6.1,0,0,1,234.7,54.736Zm-5.544,47.031V93.436h14.962V58.977h9.342V93.436h6.987v8.331ZM247.3,54.584a6.683,6.683,0,0,1-4.1-1.59,8.289,8.289,0,0,1-1.595-4.09,6.077,6.077,0,0,1,1.595-3.862,5.637,5.637,0,0,1,4.1-1.742,4.161,4.161,0,0,1,1.823.3,4.382,4.382,0,0,1,1.063.606,4.32,4.32,0,0,1,.912.833,4.892,4.892,0,0,1,1.747,3.862,5.579,5.579,0,0,1-.38,2.121,6.609,6.609,0,0,1-1.367,1.969A6.517,6.517,0,0,1,247.3,54.584Z" transform="translate(-59.405 -36.56)" fill="#46008c"/>
        <path id="Path_10" data-name="Path 10" d="M286.281,117.831H269.8V109.5h16.481Z" transform="translate(-69.218 -52.623)" fill="#46008c"/>
        <path id="Path_11" data-name="Path 11" d="M319.529,101.816H291.276l-.076-8.331h25.291v-20.6c-.228-2.121-.759-3.484-1.671-4.165a4.89,4.89,0,0,0-2.962-1.06h-15.19V58.874h17.924c2.2,0,4.633,1.06,7.215,3.257,2.658,2.2,4.1,5.68,4.253,10.527V93.409h5.393v8.331H319.529Zm-10.1-47.031a6.683,6.683,0,0,1-4.1-1.59,8.29,8.29,0,0,1-1.6-4.09,6.077,6.077,0,0,1,1.6-3.862,5.637,5.637,0,0,1,4.1-1.742,4.16,4.16,0,0,1,1.823.3,4.384,4.384,0,0,1,1.063.606,4.322,4.322,0,0,1,.911.833,4.892,4.892,0,0,1,1.747,3.862,5.579,5.579,0,0,1-.38,2.121,6.612,6.612,0,0,1-1.367,1.969A6.1,6.1,0,0,1,309.428,54.784Z" transform="translate(-74.364 -36.608)" fill="#46008c"/>
        <path id="Path_12" data-name="Path 12" d="M356.8,99.532V34.4h9.342V99.607Z" transform="translate(-90.142 -34.4)" fill="#46008c"/>
      </g>
    </g>
  </g>
</svg>
