<svg xmlns="http://www.w3.org/2000/svg" width="190" height="60" viewBox="0 0 190 60">
  <g id="EkhtibaratLogo" transform="translate(-5.4)">
    <path id="Path_1" data-name="Path 1" d="M474.77,35.311V51.489a50.278,50.278,0,0,1-27.763,8.5,50.387,50.387,0,0,1-27.789-8.5V35.311L447.008,50.2Zm-55.526-4.988,27.763,14.937,42.16-22.617-11.38-6.123L452.142,30.3l-5.029-2.692,25.672-13.75L461.379,7.733ZM404.9,22.617l9.29,4.988L456.244,4.988,447.008,0Zm5.823,12.905V23.171h-2.382V35.549a3.533,3.533,0,0,0-2.3,3.325v6.994h7.093V38.874A3.539,3.539,0,0,0,410.723,35.523Z" transform="translate(-293.768)" fill="#fff"/>
    <g id="Group_5" data-name="Group 5" transform="translate(5.479 9.079)">
      <g id="Group_4" data-name="Group 4">
        <path id="Path_2" data-name="Path 2" d="M23.776,63.674H5.7V52.4H8.955v8.34H20.495V48.763h3.282V63.674ZM12.634,47.285a2.329,2.329,0,0,1-1.429-.554,2.889,2.889,0,0,1-.556-1.425A2.118,2.118,0,0,1,11.2,43.96a1.964,1.964,0,0,1,1.429-.607,1.45,1.45,0,0,1,.635.106,1.527,1.527,0,0,1,.371.211,1.5,1.5,0,0,1,.318.29,1.7,1.7,0,0,1,.609,1.346,1.944,1.944,0,0,1-.132.739,2.3,2.3,0,0,1-.476.686A2.125,2.125,0,0,1,12.634,47.285Zm4.393-.053a2.329,2.329,0,0,1-1.429-.554,2.889,2.889,0,0,1-.556-1.425,2.118,2.118,0,0,1,.556-1.346,1.964,1.964,0,0,1,1.429-.607,1.45,1.45,0,0,1,.635.106,1.527,1.527,0,0,1,.371.211,1.5,1.5,0,0,1,.318.29,1.7,1.7,0,0,1,.609,1.346,1.944,1.944,0,0,1-.132.739,2.3,2.3,0,0,1-.476.686A2.125,2.125,0,0,1,17.027,47.232Z" transform="translate(-5.7 -40.951)" fill="#fff"/>
        <path id="Path_3" data-name="Path 3" d="M86.4,57.1V34.4h3.255V57.123Z" transform="translate(-65.042 -34.4)" fill="#fff"/>
        <path id="Path_4" data-name="Path 4" d="M111.429,78.911v6.334H108.2V64h3.229V78.911Z" transform="translate(-81.072 -56.188)" fill="#fff"/>
        <path id="Path_5" data-name="Path 5" d="M132.7,57.123V34.4h3.255V54.193h2.17v2.9H132.7Z" transform="translate(-99.088 -34.4)" fill="#fff"/>
        <path id="Path_6" data-name="Path 6" d="M156.743,112.4H151v-2.9h5.743Z" transform="translate(-112.545 -89.68)" fill="#fff"/>
        <path id="Path_7" data-name="Path 7" d="M171,78.911v-2.9h4.42V64h3.255V76.008h2.435v2.9Zm3.6,4.962a2.329,2.329,0,0,1-1.429-.554,2.889,2.889,0,0,1-.556-1.425,2.118,2.118,0,0,1,.556-1.346,1.964,1.964,0,0,1,1.429-.607,1.45,1.45,0,0,1,.635.106,1.527,1.527,0,0,1,.371.211,1.5,1.5,0,0,1,.318.29,1.7,1.7,0,0,1,.609,1.346,1.944,1.944,0,0,1-.132.739,2.3,2.3,0,0,1-.476.686A2.126,2.126,0,0,1,174.6,83.873Z" transform="translate(-127.252 -56.188)" fill="#fff"/>
        <path id="Path_8" data-name="Path 8" d="M213.443,112.4H207.7v-2.9h5.743Z" transform="translate(-154.239 -89.68)" fill="#fff"/>
        <path id="Path_9" data-name="Path 9" d="M230.985,47.285a2.329,2.329,0,0,1-1.429-.554A2.888,2.888,0,0,1,229,45.306a2.118,2.118,0,0,1,.556-1.346,1.964,1.964,0,0,1,1.429-.607,1.45,1.45,0,0,1,.635.106,1.527,1.527,0,0,1,.371.211,1.5,1.5,0,0,1,.318.29,1.7,1.7,0,0,1,.609,1.346,1.944,1.944,0,0,1-.132.739,2.3,2.3,0,0,1-.476.686A2.125,2.125,0,0,1,230.985,47.285Zm-1.932,16.389v-2.9h5.214V48.763h3.255V60.771h2.435v2.9Zm6.325-16.442a2.329,2.329,0,0,1-1.429-.554,2.889,2.889,0,0,1-.556-1.425,2.118,2.118,0,0,1,.556-1.346,1.964,1.964,0,0,1,1.429-.607,1.45,1.45,0,0,1,.635.106,1.527,1.527,0,0,1,.37.211,1.5,1.5,0,0,1,.318.29,1.7,1.7,0,0,1,.609,1.346,1.944,1.944,0,0,1-.132.739,2.3,2.3,0,0,1-.476.686A2.271,2.271,0,0,1,235.378,47.232Z" transform="translate(-169.901 -40.951)" fill="#fff"/>
        <path id="Path_10" data-name="Path 10" d="M275.543,112.4H269.8v-2.9h5.743Z" transform="translate(-199.903 -89.68)" fill="#fff"/>
        <path id="Path_11" data-name="Path 11" d="M301.072,63.821h-9.845l-.026-2.9h8.813V53.74a2.016,2.016,0,0,0-.582-1.452,1.7,1.7,0,0,0-1.032-.369h-5.293V48.857h6.246a4.013,4.013,0,0,1,2.514,1.135,4.69,4.69,0,0,1,1.482,3.668v7.231h1.879v2.9h-4.155Zm-3.52-16.389a2.329,2.329,0,0,1-1.429-.554,2.889,2.889,0,0,1-.556-1.425,2.118,2.118,0,0,1,.556-1.346,1.964,1.964,0,0,1,1.429-.607,1.45,1.45,0,0,1,.635.106,1.527,1.527,0,0,1,.371.211,1.5,1.5,0,0,1,.318.29,1.7,1.7,0,0,1,.609,1.346,1.945,1.945,0,0,1-.132.739,2.3,2.3,0,0,1-.476.686A2.126,2.126,0,0,1,297.552,47.432Z" transform="translate(-215.639 -41.098)" fill="#fff"/>
        <path id="Path_12" data-name="Path 12" d="M356.8,57.1V34.4h3.255V57.123Z" transform="translate(-263.878 -34.4)" fill="#fff"/>
      </g>
    </g>
    <g id="Group_7" data-name="Group 7" transform="translate(5.4 44.944)">
      <g id="Group_6" data-name="Group 6" transform="translate(0)">
        <path id="Path_13" data-name="Path 13" d="M11.275,170.3v.9H6.406v3.325h4.129v.9H6.406v3.4h4.87v.9H5.4V170.3Z" transform="translate(-5.4 -170.3)" fill="#fff"/>
        <path id="Path_14" data-name="Path 14" d="M50.943,170.3l-2.991,3.616,3.414,5.806H50.175l-2.885-5.014-1.985,2.4v2.613H44.3V170.3h1.006v5.41l4.42-5.41Z" transform="translate(-34.005 -170.3)" fill="#fff"/>
        <path id="Path_15" data-name="Path 15" d="M92.211,170.3v9.422H91.2v-4.3h-4.5v4.3H85.7V170.3h1.006v4.223h4.5V170.3Z" transform="translate(-64.448 -170.3)" fill="#fff"/>
        <path id="Path_16" data-name="Path 16" d="M132.258,170.3v.9h-2.726v8.524h-1.006V171.2H125.8v-.9Z" transform="translate(-93.935 -170.3)" fill="#fff"/>
        <path id="Path_17" data-name="Path 17" d="M166.706,170.3v9.422H165.7V170.3Z" transform="translate(-123.275 -170.3)" fill="#fff"/>
        <path id="Path_18" data-name="Path 18" d="M188.526,170.3h3.546a2.947,2.947,0,0,1,2.011.686,2.346,2.346,0,0,1,.768,1.847,2.2,2.2,0,0,1-.4,1.293,2.117,2.117,0,0,1-1.006.792,2.107,2.107,0,0,1,1.112.844,2.252,2.252,0,0,1,.423,1.4,2.442,2.442,0,0,1-.767,1.927,2.97,2.97,0,0,1-2.038.686H188.5V170.3Zm3.467.9h-2.461v3.272h2.461a2.016,2.016,0,0,0,1.35-.422,1.5,1.5,0,0,0,.529-1.214,1.448,1.448,0,0,0-.5-1.214A2.3,2.3,0,0,0,191.994,171.2Zm.106,4.17h-2.567v3.457H192.1a1.894,1.894,0,0,0,1.376-.475,1.847,1.847,0,0,0,0-2.534A2.005,2.005,0,0,0,192.1,175.367Z" transform="translate(-140.041 -170.3)" fill="#fff"/>
        <path id="Path_19" data-name="Path 19" d="M230.714,170.3l3.467,9.422H233.1l-.741-2.138h-4.129l-.741,2.138H226.4l3.467-9.422Zm-.423,1.425-1.773,4.988h3.52Z" transform="translate(-167.91 -170.3)" fill="#fff"/>
        <path id="Path_20" data-name="Path 20" d="M270.226,170.3h3.626a2.838,2.838,0,0,1,2.011.713,2.409,2.409,0,0,1,.768,1.9,2.524,2.524,0,0,1-.556,1.663,2.562,2.562,0,0,1-1.509.871l2.25,4.275h-1.191l-2.144-4.2h-2.276v4.2H270.2V170.3Zm3.546.9h-2.514v3.457h2.514a2.053,2.053,0,0,0,1.376-.449,1.557,1.557,0,0,0,.5-1.267,1.667,1.667,0,0,0-.529-1.293A2.028,2.028,0,0,0,273.773,171.2Z" transform="translate(-200.118 -170.3)" fill="#fff"/>
        <path id="Path_21" data-name="Path 21" d="M311.814,170.3l3.467,9.422H314.2l-.741-2.111h-4.129l-.741,2.138H307.5l3.467-9.422h.847Zm-.423,1.425-1.773,4.988h3.52Z" transform="translate(-227.546 -170.3)" fill="#fff"/>
        <path id="Path_22" data-name="Path 22" d="M354.258,170.3v.9h-2.726v8.524h-1.006V171.2H347.8v-.9Z" transform="translate(-257.18 -170.3)" fill="#fff"/>
      </g>
    </g>
  </g>
</svg>
