<svg xmlns="http://www.w3.org/2000/svg" width="150.548" height="57" viewBox="0 0 150.548 57">
  <g id="Group_3431" data-name="Group 3431" transform="translate(17701.32 279.5)">
    <path id="Marketplace" d="M-49.669,10.809l-.711-.941a5.768,5.768,0,0,0-.757-.757.9.9,0,0,1-.413-.8,1.538,1.538,0,0,1,.321-.872,1.683,1.683,0,0,1,.9-.39,1.563,1.563,0,0,1,.711.275l.849.849.849,1.033.229.413.138.436a1.967,1.967,0,0,1-.275.8,1.059,1.059,0,0,1-.941.436A1.343,1.343,0,0,1-49.669,10.809Zm-4.039-.229-.757-.8a1.6,1.6,0,0,1-.321-.8,1.2,1.2,0,0,1,.321-.849,1.759,1.759,0,0,1,.9-.321,1.319,1.319,0,0,1,.8.321,4.953,4.953,0,0,0,.62.757l.757.643a1.021,1.021,0,0,1,.413.918q0,1.17-1.056,1.17A2.41,2.41,0,0,1-53.708,10.58ZM-56.531-4.269a3.276,3.276,0,0,0-2.295,1.125l-1.606,1.79,1.262-.161,1.125-.046a16.886,16.886,0,0,1,2.387.161,10.7,10.7,0,0,1,2.088.5,2.534,2.534,0,0,1,1.928,2.731q0,3.029-3.316,4.75a14.059,14.059,0,0,1-6.506,1.721,9.827,9.827,0,0,1-6.426-2.421,13.349,13.349,0,0,1-3.672-4.1A14.912,14.912,0,0,1-72.32-.138a.984.984,0,0,1,.092-.425,1.319,1.319,0,0,1,.321-.4,1.6,1.6,0,0,1,.8-.3,1.3,1.3,0,0,1,1.079.688A11.891,11.891,0,0,0-66.548,4a7.846,7.846,0,0,0,5.083,1.962,10.75,10.75,0,0,0,5.083-1.251q2.375-1.251,2.375-2.88,0-.62-1.4-.849L-56.393.9-58.045.8a14.735,14.735,0,0,0-2.1.138,4.708,4.708,0,0,0-1.549.459l-.528.229-.367.115q-.849,0-1.079-1.125l-.023-.5a5.925,5.925,0,0,1,2.226-4.429,9.863,9.863,0,0,1,2.49-1.733,5.744,5.744,0,0,1,2.444-.585,7.513,7.513,0,0,1,4.223,1.423l2.731,1.767,1.652.9a4.6,4.6,0,0,0,2.2.528,3.461,3.461,0,0,1,1.492.229.721.721,0,0,1,.436.666,1.244,1.244,0,0,1-.482.8A3.127,3.127,0,0,1-45.355,0a12.435,12.435,0,0,1-6.759-2.134Q-55.452-4.269-56.531-4.269ZM-40.182-16.5l-1.079-.987-.666-.849a1.513,1.513,0,0,1-.275-.849,1.628,1.628,0,0,1,.275-.7,1,1,0,0,1,.941-.47.912.912,0,0,1,.849.482,7.249,7.249,0,0,0,.757.941l.826.849a1.492,1.492,0,0,1,.39.826l-.069.459-.344.413a1.6,1.6,0,0,1-.8.321.861.861,0,0,1-.39-.092Zm-3.144.574-1.469-1.515a2.086,2.086,0,0,1-.321-.8,1.472,1.472,0,0,1,.287-.723,1.021,1.021,0,0,1,.929-.448,1.343,1.343,0,0,1,.9.482l1.354,1.4a1.7,1.7,0,0,1,.344.849,1.184,1.184,0,0,1-.39.849,1.675,1.675,0,0,1-.849.321A1.3,1.3,0,0,1-43.326-15.927ZM-44.657,0l-.551-.069a1.169,1.169,0,0,1-.436-.3,1.363,1.363,0,0,1-.413-.9q0-.9,1.033-.9h5.072a3.3,3.3,0,0,0,1.561-.275.98.98,0,0,0,.413-.8,8.381,8.381,0,0,0-.275-2.02,16.659,16.659,0,0,0-.918-2.57A23.22,23.22,0,0,0-40.3-10.121a5.906,5.906,0,0,0-.872-1.308,2.1,2.1,0,0,1-.711-1.262l.069-.436a.964.964,0,0,1,.333-.448,1.953,1.953,0,0,1,.861-.333q.413,0,1.377,1.033A19.129,19.129,0,0,1-37-8.721a14.008,14.008,0,0,1,1.365,5.485A2.927,2.927,0,0,1-36.9-.528a5.861,5.861,0,0,1-1.48.551,8.331,8.331,0,0,1-1.939.207l-.826-.023L-42.959.092H-43.6A2.962,2.962,0,0,1-44.657,0ZM-26.1-1.308l-.413-1.331L-27-4.314-27.482-6.7q-.275-1.4-.39-1.836-.023-.046-.344-1.285l-2.02-8.7-1.928-8.835a1.278,1.278,0,0,1,.275-.987,1.95,1.95,0,0,1,.9-.367,1.15,1.15,0,0,1,.7.2,3.116,3.116,0,0,1,.539,1.48l.688,3.3.941,4.36.711,3.167,1.17,4.911,1.652,6.678q.046.275.08.413t.1.39a2.372,2.372,0,0,0,.184.666l.3.941.138.5a1.142,1.142,0,0,1-.39.8,2.138,2.138,0,0,1-.849.321A1.3,1.3,0,0,1-26.1-1.308Zm8.294,9.34a2.024,2.024,0,0,1-1.377-.551,2.566,2.566,0,0,1-.459-1.239q0-.78.9-.9a2.955,2.955,0,0,1,1.079.344,1.948,1.948,0,0,0,1.606-.711,3.538,3.538,0,0,0,.551-2.295L-15.585.9a5.125,5.125,0,0,0-.057-.769q-.057-.379-.2-.975-.092-.574-.2-1.021t-.333-1.2q-.344-1.331-.987-3.075l-.069-.459a1.235,1.235,0,0,1,.207-.62,1.7,1.7,0,0,1,1.056-.482q.62,0,1.446,1.974a30.28,30.28,0,0,1,1.125,3.855q.092.413.2,1.1t.126.941q.115,1.262.115,2.524a5.924,5.924,0,0,1-1.193,3.855A4.022,4.022,0,0,1-17.811,8.032Zm14.329-9.34-.413-1.331-.482-1.675L-4.858-6.7q-.275-1.4-.39-1.836-.023-.046-.344-1.285l-2.02-8.7L-9.54-27.355a1.278,1.278,0,0,1,.275-.987,1.95,1.95,0,0,1,.9-.367,1.15,1.15,0,0,1,.7.2,3.116,3.116,0,0,1,.539,1.48l.688,3.3.941,4.36.711,3.167,1.17,4.911,1.652,6.678q.046.275.08.413t.1.39a2.372,2.372,0,0,0,.184.666l.3.941.138.5a1.142,1.142,0,0,1-.39.8A2.138,2.138,0,0,1-2.4-.574,1.3,1.3,0,0,1-3.481-1.308Zm11.254-.3A2.522,2.522,0,0,1,6.258-.229L5.019,0,3.55.092,1.806.046H.5L.062,0q-.9,0-.9-.8A1.563,1.563,0,0,1-.4-1.744,1.459,1.459,0,0,1,.682-2.157l.826.046H3.872a1.571,1.571,0,0,1,.3-.046,1.929,1.929,0,0,0,.872-.184A1.088,1.088,0,0,0,5.707-3.1a18.6,18.6,0,0,0-.574-4.659L4.583-9.18l-.574-1.767-.8-1.744a3.829,3.829,0,0,1-.184-.711q0-1.079,1.125-1.079a1.144,1.144,0,0,1,.987.528l.367.5a2.171,2.171,0,0,1,.275.6l.229.643.275.551a2.917,2.917,0,0,1,.3.711l.207.6L7.13-9.34l.252.872.321.643.252.6.252.6.275.757a6.77,6.77,0,0,0,.344.964l.734,1.285q.826,1.377,1.4,1.469h2.295a1,1,0,0,1,1.147,1.125Q14.405,0,13.258,0L11.812.046h-.666a2.006,2.006,0,0,0-.5.046A4.173,4.173,0,0,1,9.081-.184,4.471,4.471,0,0,1,7.773-1.606ZM7.819,6.15l-.528-.78-.413-.528a1.6,1.6,0,0,1-.321-.8L6.625,3.6a1.428,1.428,0,0,1,.252-.413,2.138,2.138,0,0,1,.849-.321,1.4,1.4,0,0,1,.757.275l.3.344.3.413.62.849a1.4,1.4,0,0,1,.275.757.942.942,0,0,1-.344.78,2.112,2.112,0,0,1-.918.39A1,1,0,0,1,7.819,6.15ZM13.588,0l-.551-.069a1.169,1.169,0,0,1-.436-.3,1.363,1.363,0,0,1-.413-.9q0-.9,1.033-.9h5.072a2.223,2.223,0,0,1,1.809.849c.393.545.337,1.193-.237,1.331a8.331,8.331,0,0,1-1.939.207L17.1.207,15.286.092h-.643A2.962,2.962,0,0,1,13.588,0ZM54.1,11.8a17.093,17.093,0,0,1-1.79-.092,11.592,11.592,0,0,1-1.675-.3,11.835,11.835,0,0,1-3.121-1.262A5.691,5.691,0,0,1,44.595,4.75,9.767,9.767,0,0,1,47.131-1.79,16.664,16.664,0,0,1,53.66-6.334q-.666-.275-1.113-.482T51.48-7.344A23.9,23.9,0,0,1,49.3-8.652q-1.01-.643-1.836-1.285-.964-.688-.987-.711-.115-.092-.528-.436a19.66,19.66,0,0,1-1.492-1.469,1.5,1.5,0,0,0-.574-.551q-.275,0-.459.551v.8l-.046.413q0,.3.023.631a5.316,5.316,0,0,0,.092.677,8.517,8.517,0,0,0,.39,1.285,12.07,12.07,0,0,0,1.125,2.111,2.815,2.815,0,0,1,.666,1.17,1.254,1.254,0,0,1-.321.8,1.588,1.588,0,0,1-.849.344q-.459,0-1.285-.9a18.169,18.169,0,0,1-1.492-2.639,8.947,8.947,0,0,1-.711-3.488,5.14,5.14,0,0,1,.757-3.236,2.582,2.582,0,0,1,.929-.654,2.969,2.969,0,0,1,1.182-.241,2.068,2.068,0,0,1,1.561.62l1.079,1.125a36.6,36.6,0,0,0,5.691,4.085,16.34,16.34,0,0,0,5.967,2.065l1.147-.115,1.239-.069,2.318.092a.544.544,0,0,1,.344.092l.39.3a.947.947,0,0,1,.436.826q0,1.147-1.285,1.147l-.688.023-.987.069-.872.023-.459.069-1.538-.092A16.75,16.75,0,0,0,50.412-1.8,8.092,8.092,0,0,0,46.936,4.75a3.9,3.9,0,0,0,2.02,3.465,7.833,7.833,0,0,0,2.283.918,12.059,12.059,0,0,0,2.857.321,7.4,7.4,0,0,0,1.985-.3,19.391,19.391,0,0,0,2.6-.987,12.392,12.392,0,0,0,2.169-1.136,5.276,5.276,0,0,0,1.136-.975,1.739,1.739,0,0,1,1.125-.9l.413.069a1.769,1.769,0,0,1,.482.287.926.926,0,0,1,.321.792,1.75,1.75,0,0,1-.149.585,3.743,3.743,0,0,1-.516.861q-.62,1.079-3.924,2.559A14.316,14.316,0,0,1,54.1,11.8ZM52.9-14.894l-.344-.229-.482-.3-.941-.367q-.482-.138-.482-1.033,0-1.17,1.125-1.17a1.888,1.888,0,0,1,.574.115,8.292,8.292,0,0,1,.987.436l.5.321.482.344a1.329,1.329,0,0,1,.5.941,1.4,1.4,0,0,1-.413.849,1.961,1.961,0,0,1-.849.321l-.321-.046ZM73.91-1.308,73.5-2.639l-.482-1.675L72.533-6.7q-.275-1.4-.39-1.836-.023-.046-.344-1.285l-2.02-8.7-1.928-8.835a1.278,1.278,0,0,1,.275-.987,1.95,1.95,0,0,1,.9-.367,1.15,1.15,0,0,1,.7.2,3.116,3.116,0,0,1,.539,1.48l.688,3.3.941,4.36L72.6-16.2l1.17,4.911,1.652,6.678q.046.275.08.413t.1.39a2.372,2.372,0,0,0,.184.666l.3.941.138.5a1.142,1.142,0,0,1-.39.8,2.138,2.138,0,0,1-.849.321A1.3,1.3,0,0,1,73.91-1.308Z" transform="translate(-17628 -238)" fill="#fff" stroke="#fff" stroke-linecap="round" stroke-width="2"/>
    <text id="Marketplace-2" data-name="Marketplace" transform="translate(-17602.5 -244.5)" fill="#f05563" stroke="#f05563" stroke-linecap="round" stroke-width="2" font-size="32" font-family="Undefined, خط هشام فري" letter-spacing="0.05em"><tspan x="-13" y="0">ت</tspan></text>
  </g>
</svg>
