<svg id="Component_6_20" data-name="Component 6 – 20" xmlns="http://www.w3.org/2000/svg" width="120" height="120" viewBox="0 0 120 120">
  <g id="Layer_17" data-name="Layer 17">
    <g id="Layer_3" data-name="Layer 3">
      <circle id="Ellipse_15" data-name="Ellipse 15" cx="60" cy="60" r="60" fill="#f0f5f7"/>
    </g>
    <g id="Group_4916" data-name="Group 4916" transform="translate(26.51 20.525)">
      <g id="lock" fill="#9fd9f1">
        <path d="M 57.41191864013672 75.29922485351562 L 9.568650245666504 75.29922485351562 C 4.981739521026611 75.29922485351562 1.250006198883057 71.56748962402344 1.250006198883057 66.98056793212891 L 1.250006198883057 38.27461242675781 C 1.250006198883057 33.68769073486328 4.981739521026611 29.95595741271973 9.568650245666504 29.95595741271973 L 11.96081733703613 29.95595741271973 L 13.21081733703613 29.95595741271973 L 13.21081733703613 28.70595741271973 L 13.21081733703613 21.52946853637695 C 13.21081733703613 18.79240226745605 13.74701690673828 16.13737869262695 14.80450630187988 13.63815689086914 C 15.82618427276611 11.22357940673828 17.28894996643066 9.054556846618652 19.15216255187988 7.191345691680908 C 21.01537322998047 5.328134536743164 23.18439483642578 3.865367889404297 25.59897232055664 2.843690156936646 C 28.09819602966309 1.786201357841492 30.75321769714355 1.250001311302185 33.49028396606445 1.250001311302185 C 36.22735214233398 1.250001311302185 38.88237380981445 1.786201357841492 41.38159561157227 2.843690156936646 C 43.79617309570312 3.865367889404297 45.96519470214844 5.328134536743164 47.82840728759766 7.191345691680908 C 49.69161605834961 9.054556846618652 51.15438461303711 11.22357940673828 52.17606353759766 13.63815689086914 C 53.23356246948242 16.13737869262695 53.76975250244141 18.79240226745605 53.76975250244141 21.52946853637695 L 53.76975250244141 28.70595741271973 L 53.76975250244141 29.95595741271973 L 55.01975250244141 29.95595741271973 L 57.41191864013672 29.95595741271973 C 61.99884033203125 29.95595741271973 65.73057556152344 33.68769073486328 65.73057556152344 38.27461242675781 L 65.73057556152344 66.98056793212891 C 65.73057556152344 71.56748962402344 61.99884033203125 75.29922485351562 57.41191864013672 75.29922485351562 Z M 33.49028396606445 8.318656921386719 C 26.20581817626953 8.318656921386719 20.27947235107422 14.2450008392334 20.27947235107422 21.52946853637695 L 20.27947235107422 28.70595741271973 L 20.27947235107422 29.95595741271973 L 21.52947235107422 29.95595741271973 L 45.45110702514648 29.95595741271973 L 46.70110702514648 29.95595741271973 L 46.70110702514648 28.70595741271973 L 46.70110702514648 21.52946853637695 C 46.70110702514648 14.2450008392334 40.77474975585938 8.318656921386719 33.49028396606445 8.318656921386719 Z" stroke="none"/>
        <path d="M 33.49028396606445 2.5 C 28.409423828125 2.5 23.63128280639648 4.479988098144531 20.03604888916016 8.075233459472656 C 16.44079971313477 11.67047119140625 14.46081161499023 16.44861221313477 14.46081161499023 21.52947235107422 L 14.46081161499023 31.20595550537109 L 9.568649291992188 31.20595550537109 C 5.670978546142578 31.20595550537109 2.5 34.3769416809082 2.5 38.27461242675781 L 2.5 66.98056793212891 C 2.5 70.87823486328125 5.670978546142578 74.04922485351562 9.568649291992188 74.04922485351562 L 57.41191864013672 74.04922485351562 C 61.30958938598633 74.04922485351562 64.48056793212891 70.87823486328125 64.48056793212891 66.98056793212891 L 64.48056793212891 38.27461242675781 C 64.48056793212891 34.3769416809082 61.30958938598633 31.20595550537109 57.41191864013672 31.20595550537109 L 52.51975250244141 31.20595550537109 L 52.51975250244141 21.52947235107422 C 52.51975250244141 16.44861221313477 50.53976440429688 11.67047119140625 46.94451904296875 8.075233459472656 C 43.34928131103516 4.479988098144531 38.57114410400391 2.5 33.49028396606445 2.5 M 47.95110702514648 31.20595550537109 L 19.02947235107422 31.20595550537109 L 19.02947235107422 21.52947235107422 C 19.02947235107422 13.55574035644531 25.51656723022461 7.068649291992188 33.49028396606445 7.068649291992188 C 41.46401214599609 7.068649291992188 47.95110702514648 13.55574035644531 47.95110702514648 21.52947235107422 L 47.95110702514648 31.20595550537109 M 33.49028396606445 0 C 45.3763427734375 0 55.01975250244141 9.643409729003906 55.01975250244141 21.52947235107422 L 55.01975250244141 28.70595550537109 L 57.41191864013672 28.70595550537109 C 62.68962478637695 28.70595550537109 66.98056793212891 32.99689483642578 66.98056793212891 38.27461242675781 L 66.98056793212891 66.98056793212891 C 66.98056793212891 72.25827026367188 62.68962478637695 76.54922485351562 57.41191864013672 76.54922485351562 L 9.568649291992188 76.54922485351562 C 4.290943145751953 76.54922485351562 0 72.25827026367188 0 66.98056793212891 L 0 38.27461242675781 C 0 32.99689483642578 4.290943145751953 28.70595550537109 9.568649291992188 28.70595550537109 L 11.96081161499023 28.70595550537109 L 11.96081161499023 21.52947235107422 C 11.96081161499023 9.643409729003906 21.60422515869141 0 33.49028396606445 0 Z M 45.45110702514648 28.70595550537109 L 45.45110702514648 21.52947235107422 C 45.45110702514648 14.92111968994141 40.09863662719727 9.568649291992188 33.49028396606445 9.568649291992188 C 26.88193130493164 9.568649291992188 21.52947235107422 14.92111968994141 21.52947235107422 21.52947235107422 L 21.52947235107422 28.70595550537109 L 45.45110702514648 28.70595550537109 Z" stroke="none" fill="#427297"/>
      </g>
      <g id="Group_4914" data-name="Group 4914" transform="translate(2.755 70.182) rotate(-90)">
        <path id="Path_4189" data-name="Path 4189" d="M5.682.214A1.594,1.594,0,0,0,3.5.8L.2,6.472a1.641,1.641,0,0,0,.586,2.18,1.711,1.711,0,0,0,.82.211,1.617,1.617,0,0,0,1.383-.8L6.268,2.394A1.57,1.57,0,0,0,5.682.214Z" transform="translate(7.675 0) rotate(60)" fill="#427297"/>
        <path id="Path_4190" data-name="Path 4190" d="M2.417.223A1.57,1.57,0,0,0,.237.809H.214A1.594,1.594,0,0,0,.8,2.989a1.618,1.618,0,0,0,.8.211A1.547,1.547,0,0,0,2.98,2.4H3A1.57,1.57,0,0,0,2.417.223Z" transform="translate(13.944 2.966) rotate(60)" fill="#427297"/>
      </g>
    </g>
  </g>
</svg>
