<svg xmlns="http://www.w3.org/2000/svg" width="15" height="15" viewBox="0 0 15 15">
  <g id="Group_3785" data-name="Group 3785" transform="translate(189.658 -2.561)">
    <circle id="Ellipse_1" data-name="Ellipse 1" cx="7.5" cy="7.5" r="7.5" transform="translate(-189.658 2.561)" fill="#eff2fb"/>
    <path id="Path_3986" data-name="Path 3986" d="M-4.176-4.487a1.774,1.774,0,0,0,.2-.768,1.219,1.219,0,0,0-.2-.677,4.917,4.917,0,0,0-.785-.836q-.3-.271-.452-.418A2.2,2.2,0,0,1-6.1-8.767a1.693,1.693,0,0,1,.508-1.265,1.8,1.8,0,0,1,1.31-.5,2.343,2.343,0,0,1,1.581.61v.768a2.442,2.442,0,0,0-1.536-.689,1.115,1.115,0,0,0-.807.3,1.026,1.026,0,0,0-.311.773,1.478,1.478,0,0,0,.486,1.061q.1.1.35.327a5.448,5.448,0,0,1,.977,1.1,1.875,1.875,0,0,1,.265.977,1.941,1.941,0,0,1-.192.813Zm.813.982v.023q0,.486-.463.486a.434.434,0,0,1-.486-.5.432.432,0,0,1,.486-.463A.4.4,0,0,1-3.363-3.5Z" transform="translate(-177.762 16.823)" fill="#1e1e1e"/>
  </g>
</svg>
