<svg xmlns="http://www.w3.org/2000/svg" xmlns:xlink="http://www.w3.org/1999/xlink" width="360" height="285.154" viewBox="0 0 360 285.154">
  <defs>
    <clipPath id="clip-path">
      <path id="bg_copy" data-name="bg copy" d="M1213,937.154h360V652H1213V937.154Z" fill="#ebebeb"/>
    </clipPath>
  </defs>
  <g id="image" transform="translate(-1213 -652)">
    <g id="bg_copy-2" data-name="bg copy">
      <path id="bg_copy-3" data-name="bg copy" d="M1213,937.154h360V652H1213V937.154Z" fill="#f8f8fa"/>
      <g id="enterprise_icn" transform="translate(1323.22 724.001)">
        <g id="Group_79" data-name="Group 79">
          <g id="Group_64" data-name="Group 64" transform="translate(24.761)">
            <path id="Path_79" data-name="Path 79" d="M118,413.533V352.757h-9L124.757,337l15.757,15.757h-9v60.776" transform="translate(-79.737 -337)" fill="#f5d882"/>
            <path id="Path_80" data-name="Path 80" d="M131,407.278V357.757h-9L137.757,342l15.757,15.757h-9v49.522" transform="translate(-63.475 -330.745)" fill="#ffc247"/>
            <path id="Path_81" data-name="Path 81" d="M105,403.525V360.757H96L111.757,345l15.757,15.757h-9v42.769" transform="translate(-96 -326.992)" fill="#ffa426"/>
          </g>
          <g id="Group_78" data-name="Group 78" transform="translate(0 22.51)">
            <g id="Group_65" data-name="Group 65">
              <path id="Path_82" data-name="Path 82" d="M116.514,378.514,94,401.023l-9-9V347Z" transform="translate(-85 -347)" fill="#834caf"/>
              <path id="Path_83" data-name="Path 83" d="M164.514,347v45.02l-9,9L133,378.514Z" transform="translate(-24.953 -347)" fill="#834caf"/>
              <path id="Path_84" data-name="Path 84" d="M124.016,372.255l-20.259,20.259-4.5,4.5L88,385.761l2.251-2.251L112.761,361Z" transform="translate(-81.247 -329.486)" fill="#4f008d"/>
              <path id="Path_85" data-name="Path 85" d="M164.016,385.761l-11.255,11.255-4.5-4.5L128,372.255,139.255,361l22.51,22.51Z" transform="translate(-31.208 -329.486)" fill="#4f008d"/>
              <path id="Path_86" data-name="Path 86" d="M135.72,426.979l-6.753-6.753-6.753-6.753-6.775-6.776L95,386.259,115.259,366l4.5,4.5h22.51l-20.259,20.259s6.753,6.753,13.506,0l4.5-4.5s5.6,7,13.483,4.434l.023.068,15.757,15.757,4.5,4.5s3.376,3.376,0,6.753c-3.106,3.106-6.19.518-6.685.068.45.5,3.039,3.579-.068,6.685s-6.19.518-6.685.068c.45.5,3.039,3.579-.068,6.685s-6.19.518-6.685.068c.45.5,3.039,3.579-.068,6.685-3.376,3.376-6.753,0-6.753,0l-4.322-4.322Z" transform="translate(-72.49 -323.231)" fill="#e09380"/>
              <path id="Path_87" data-name="Path 87" d="M113.323,390.09l6.753,6.753-4.322,4.3-.068.068c-.5.45-3.6,3.039-6.685-.068a4.639,4.639,0,0,1-.068-6.685l.068-.068Z" transform="translate(-56.846 -293.095)" fill="#ffcdbe"/>
              <path id="Path_88" data-name="Path 88" d="M112,397.389l4.322-4.3,6.73,6.73-4.3,4.322s-3.376,3.376-6.753,0a4.639,4.639,0,0,1-.068-6.685Z" transform="translate(-53.093 -289.342)" fill="#ffbeaa"/>
              <path id="Path_89" data-name="Path 89" d="M110.323,387.09l6.753,6.753-4.322,4.3-.068.068c-.5.45-3.6,3.039-6.685-.068a4.639,4.639,0,0,1-.068-6.685l.068-.068Z" transform="translate(-60.599 -296.848)" fill="#ffbeaa"/>
              <path id="Path_90" data-name="Path 90" d="M109.689,395.222c-.5.45-3.6,3.039-6.685-.068-3.376-3.376,0-6.753,0-6.753l4.3-4.322,6.775,6.776-4.322,4.3Z" transform="translate(-64.355 -300.614)" fill="#ffcdbe"/>
              <path id="Path_91" data-name="Path 91" d="M138.491,390.693c-7.878,2.566-13.483-4.434-13.483-4.434l-4.5,4.5c-6.753,6.753-13.506,0-13.506,0L127.259,370.5h22.51l4.5-4.5,20.259,20.259-20.259,20.259-15.757-15.757Z" transform="translate(-57.478 -323.231)" fill="#ffcdbe"/>
            </g>
            <g id="Group_77" data-name="Group 77" transform="translate(18.008 38.707)">
              <g id="Group_76" data-name="Group 76">
                <g id="Group_66" data-name="Group 66" transform="translate(90.039 60.336)">
                  <rect id="Rectangle_27" data-name="Rectangle 27" width="14" height="4" transform="translate(-0.047 0.259)" fill="#4f008d"/>
                </g>
                <g id="Group_67" data-name="Group 67" transform="translate(88.448 45.238)">
                  <rect id="Rectangle_28" data-name="Rectangle 28" width="12.733" height="4.501" transform="translate(0 9.004) rotate(-45)" fill="#4f008d"/>
                </g>
                <g id="Group_68" data-name="Group 68" transform="translate(88.448 67.748)">
                  <rect id="Rectangle_29" data-name="Rectangle 29" width="4.501" height="12.733" transform="translate(0 3.183) rotate(-45)" fill="#4f008d"/>
                </g>
                <g id="Group_69" data-name="Group 69" transform="translate(0 60.336)">
                  <rect id="Rectangle_30" data-name="Rectangle 30" width="14" height="4" transform="translate(-0.008 0.259)" fill="#4f008d"/>
                </g>
                <g id="Group_70" data-name="Group 70" transform="translate(2.91 67.748)">
                  <rect id="Rectangle_31" data-name="Rectangle 31" width="12.733" height="4.501" transform="translate(0 9.004) rotate(-45)" fill="#4f008d"/>
                </g>
                <g id="Group_71" data-name="Group 71" transform="translate(2.91 45.238)">
                  <rect id="Rectangle_32" data-name="Rectangle 32" width="4.501" height="12.733" transform="translate(0 3.183) rotate(-45)" fill="#4f008d"/>
                </g>
                <g id="Group_72" data-name="Group 72" transform="translate(9.663 0.219)">
                  <rect id="Rectangle_33" data-name="Rectangle 33" width="6.367" height="4.501" transform="translate(0 4.502) rotate(-45)" fill="#7e8596"/>
                </g>
                <g id="Group_73" data-name="Group 73" transform="translate(85.979)">
                  <rect id="Rectangle_34" data-name="Rectangle 34" width="4.501" height="6.367" transform="translate(0 3.183) rotate(-45)" fill="#7e8596"/>
                </g>
                <g id="Group_74" data-name="Group 74" transform="translate(36.675 45.238)">
                  <rect id="Rectangle_35" data-name="Rectangle 35" width="4.501" height="19.1" transform="translate(0 3.183) rotate(-45)" fill="#ffdecf"/>
                </g>
                <g id="Group_75" data-name="Group 75" transform="translate(29.922 38.485)">
                  <rect id="Rectangle_36" data-name="Rectangle 36" width="4.501" height="6.367" transform="translate(0 3.183) rotate(-45)" fill="#ffdecf"/>
                </g>
              </g>
            </g>
          </g>
        </g>
        <g id="Group_84" data-name="Group 84">
          <g id="Group_83" data-name="Group 83" transform="translate(0 22.51)">
            <g id="Group_82" data-name="Group 82">
              <g id="Group_81" data-name="Group 81">
                <g id="Group_80" data-name="Group 80" transform="translate(6.753 31.514)">
                  <path id="Path_92" data-name="Path 92" d="M121,377l20.259,20.259s3.376,3.376,0,6.753-6.753,0-6.753,0" transform="translate(-46.718 -340.984)" fill="none" stroke="#000" stroke-linejoin="round" stroke-width="2"/>
                  <path id="Path_93" data-name="Path 93" d="M124,398.255s3.376,3.376,6.753,0,0-6.753,0-6.753l-4.5-4.5" transform="translate(-42.965 -328.475)" fill="none" stroke="#000" stroke-linejoin="round" stroke-width="2"/>
                  <path id="Path_94" data-name="Path 94" d="M121,401.255s3.376,3.376,6.753,0,0-6.753,0-6.753l-4.5-4.5" transform="translate(-46.718 -324.722)" fill="none" stroke="#000" stroke-linejoin="round" stroke-width="2"/>
                  <path id="Path_95" data-name="Path 95" d="M149.023,426.776l4.5,4.5s3.376,3.376,0,6.753-6.753,0-6.753,0L95,386.259,115.259,366l4.5,4.5h22.51" transform="translate(-79.243 -354.745)" fill="none" stroke="#000" stroke-linejoin="round" stroke-width="2"/>
                  <path id="Path_96" data-name="Path 96" d="M107.314,384.083,103,388.4s-3.376,3.376,0,6.753,6.753,0,6.753,0" transform="translate(-71.111 -332.124)" fill="none" stroke="#000" stroke-linejoin="round" stroke-width="2"/>
                  <path id="Path_97" data-name="Path 97" d="M112.754,398.255s-3.376,3.376-6.753,0,0-6.753,0-6.753l4.5-4.5" transform="translate(-67.358 -328.475)" fill="none" stroke="#000" stroke-linejoin="round" stroke-width="2"/>
                  <path id="Path_98" data-name="Path 98" d="M115.754,401.255s-3.376,3.376-6.753,0,0-6.753,0-6.753l4.5-4.5" transform="translate(-63.605 -324.722)" fill="none" stroke="#000" stroke-linejoin="round" stroke-width="2"/>
                  <path id="Path_99" data-name="Path 99" d="M116.5,393l-4.5,4.5s-3.376,3.376,0,6.753,6.753,0,6.753,0l4.313-4.315" transform="translate(-59.853 -320.969)" fill="none" stroke="#000" stroke-linejoin="round" stroke-width="2"/>
                  <path id="Path_100" data-name="Path 100" d="M154.271,406.518l20.259-20.259L154.271,366l-4.5,4.5h-22.51L107,390.761s6.753,6.753,13.506,0l4.5-4.5s9,11.255,20.259,0l4.5-4.5" transform="translate(-64.231 -354.745)" fill="none" stroke="#000" stroke-linejoin="round" stroke-width="2"/>
                  <path id="Path_101" data-name="Path 101" d="M128,372.255,139.255,361l24.761,24.761-11.255,11.255-4.5-4.5" transform="translate(-37.961 -361)" fill="none" stroke="#000" stroke-linejoin="round" stroke-width="2"/>
                  <path id="Path_102" data-name="Path 102" d="M124.016,372.255,112.761,361,88,385.761l11.255,11.255,4.5-4.5" transform="translate(-88 -361)" fill="none" stroke="#000" stroke-linejoin="round" stroke-width="2"/>
                </g>
                <path id="Path_103" data-name="Path 103" d="M133,378.514,164.514,347v45.02l-9,9" transform="translate(-24.953 -347)" fill="none" stroke="#000" stroke-linejoin="round" stroke-width="2"/>
                <path id="Path_104" data-name="Path 104" d="M116.514,378.514,85,347v45.02l9,9" transform="translate(-85 -347)" fill="none" stroke="#000" stroke-linejoin="round" stroke-width="2"/>
              </g>
              <line id="Line_24" data-name="Line 24" x2="14" transform="translate(108 101.302)" fill="none" stroke="#000" stroke-linejoin="round" stroke-width="2"/>
              <line id="Line_25" data-name="Line 25" y1="9" x2="9" transform="translate(108 85.302)" fill="none" stroke="#000" stroke-linejoin="round" stroke-width="2"/>
              <line id="Line_26" data-name="Line 26" x2="9" y2="9" transform="translate(108 108.302)" fill="none" stroke="#000" stroke-linejoin="round" stroke-width="2"/>
              <line id="Line_27" data-name="Line 27" x1="14" transform="translate(18 101.302)" fill="none" stroke="#000" stroke-linejoin="round" stroke-width="2"/>
              <line id="Line_28" data-name="Line 28" x1="9" y2="9" transform="translate(23 108.302)" fill="none" stroke="#000" stroke-linejoin="round" stroke-width="2"/>
              <line id="Line_29" data-name="Line 29" x1="9" y1="9" transform="translate(23 85.302)" fill="none" stroke="#000" stroke-linejoin="round" stroke-width="2"/>
              <line id="Line_30" data-name="Line 30" y1="5" x2="5" transform="translate(29 40.302)" fill="none" stroke="#000" stroke-linejoin="round" stroke-width="2"/>
              <line id="Line_31" data-name="Line 31" x1="4.502" y1="4.502" transform="translate(105.578 40.299)" fill="none" stroke="#000" stroke-linejoin="round" stroke-width="2"/>
              <line id="Line_32" data-name="Line 32" x1="14" y1="14" transform="translate(56 85.302)" fill="none" stroke="#000" stroke-linejoin="round" stroke-width="2"/>
              <line id="Line_33" data-name="Line 33" x1="4" y1="5" transform="translate(50 78.302)" fill="none" stroke="#000" stroke-linejoin="round" stroke-width="2"/>
            </g>
          </g>
          <path id="Path_105" data-name="Path 105" d="M118,400.027V352.757h-9L124.757,337l15.757,15.757h-9v38.267" transform="translate(-54.976 -337)" fill="none" stroke="#000" stroke-linejoin="round" stroke-width="2"/>
          <path id="Path_106" data-name="Path 106" d="M131,393.773V357.757h-9L137.757,342l15.757,15.757h-9v20.259" transform="translate(-38.714 -330.745)" fill="none" stroke="#000" stroke-linejoin="round" stroke-width="2"/>
          <path id="Path_107" data-name="Path 107" d="M105,374.263V360.757H96L111.757,345l15.757,15.757h-9V390.02" transform="translate(-71.239 -326.992)" fill="none" stroke="#000" stroke-linejoin="round" stroke-width="2"/>
          <line id="Line_34" data-name="Line 34" x2="5" transform="translate(74 60.812)" fill="none" stroke="#000" stroke-linejoin="round" stroke-width="2"/>
        </g>
      </g>
    </g>
  </g>
</svg>
