<svg xmlns="http://www.w3.org/2000/svg" width="15.033" height="14.473" viewBox="0 0 15.033 14.473">
  <path id="Shape" d="M11.245,14.035,7.516,10.342,3.788,14.035A1.933,1.933,0,0,1,1.106,13.8a1.889,1.889,0,0,1-.242-2.657L4.592,7.445.442,3.335A1.889,1.889,0,0,1,.684.678,1.933,1.933,0,0,1,3.366.438l4.15,4.111L11.666.438a1.933,1.933,0,0,1,2.682.24,1.889,1.889,0,0,1,.242,2.657l-4.15,4.11,3.729,3.694a1.889,1.889,0,0,1-.243,2.657,2.256,2.256,0,0,1-1.562.677A1.563,1.563,0,0,1,11.245,14.035Z" fill="#a4a4a4"/>
</svg>
