<svg id="Component_6_14" data-name="Component 6 – 14" xmlns="http://www.w3.org/2000/svg" width="170" height="170" viewBox="0 0 170 170">
  <g id="Layer_17" data-name="Layer 17">
    <g id="Layer_3" data-name="Layer 3">
      <circle id="Ellipse_15" data-name="Ellipse 15" cx="85" cy="85" r="85" fill="#f0f5f7"/>
    </g>
    <g id="Layer_19" data-name="Layer 19" transform="translate(26.882 31.869)">
      <g id="Group_27" data-name="Group 27" transform="translate(2.256 2.269)">
        <g id="Group_26" data-name="Group 26" transform="translate(50.118 25.699)">
          <path id="Path_30" data-name="Path 30" d="M238.7,185.522v24.7a5.744,5.744,0,0,0,11.455,0v-24.7a5.744,5.744,0,0,0-11.455,0Z" transform="translate(-238.7 -180.214)" fill="#fff"/>
          <circle id="Ellipse_16" data-name="Ellipse 16" cx="5.711" cy="5.711" r="5.711" transform="translate(0.033 45.218)" fill="#fff"/>
        </g>
        <path id="Path_31" data-name="Path 31" d="M143.618,173.733a5.711,5.711,0,1,1-4.06,1.661A5.711,5.711,0,0,1,143.618,173.733Zm35.1-29.883L161.249,113.7a19.689,19.689,0,0,0-34.631-1.1l-18.062,31.211h.033v.066L91.423,173.5a19.623,19.623,0,0,0,16.07,31.045H179.81v-.066a19.258,19.258,0,0,0,9.828-2.623,19.59,19.59,0,0,0,7.172-26.795l-18.062-31.244Zm-29.385-10.027v24.7a5.744,5.744,0,0,1-11.455,0v-24.7a5.744,5.744,0,0,1,11.455,0Z" transform="translate(-87.756 -102.816)" fill="#9fd9f1"/>
      </g>
      <path id="Path_32" data-name="Path 32" d="M194.231,169.367l-18.062-31.244-.232-.332L158.7,108.074a21.35,21.35,0,0,0-8.6-9.131,21.947,21.947,0,0,0-29.982,7.969l-18.062,31.211-.2.4-16.9,29.186a21.914,21.914,0,0,0,18,34.531h72.316l.465-.066a21.848,21.848,0,0,0,18.494-32.8Zm-10.26,25.965a17.432,17.432,0,0,1-8.7,2.324h0l-.465.066H102.955a17.432,17.432,0,0,1-17.432-17.4,17.166,17.166,0,0,1,3.221-10.094l.1-.166,17.133-29.584h.033a1.66,1.66,0,0,0,.166-.432l17.9-30.846a17.332,17.332,0,0,1,23.74-6.309,17.1,17.1,0,0,1,6.873,7.238l.066.133,17.432,30.148.266.332,17.863,30.879a17.332,17.332,0,0,1-6.342,23.707Z" transform="translate(-80.962 -95.982)" fill="#427297"/>
      <path id="Path_33" data-name="Path 33" d="M120.206,297.89a2.258,2.258,0,0,0-3.088.83l-4.682,8.035a2.324,2.324,0,0,0,.83,3.088,2.424,2.424,0,0,0,1.162.3,2.291,2.291,0,0,0,1.959-1.129l4.648-8.035a2.225,2.225,0,0,0-.83-3.088Z" transform="translate(-101.799 -230.648)" fill="#427297"/>
      <path id="Path_34" data-name="Path 34" d="M139.411,280.765a2.225,2.225,0,0,0-3.088.83h-.033a2.258,2.258,0,0,0,.83,3.088,2.291,2.291,0,0,0,1.129.3,2.191,2.191,0,0,0,1.959-1.129h.033a2.225,2.225,0,0,0-.83-3.088Z" transform="translate(-117.717 -219.2)" fill="#427297"/>
    </g>
  </g>
</svg>
