<svg xmlns="http://www.w3.org/2000/svg" width="20" height="20" viewBox="0 0 20 20">
    <g id="Group_4817" data-name="Group 4817" transform="translate(-352.887 -163.016)">
        <g id="hundred-points" transform="translate(349.391 159.515)">
            <path id="Path_4182" data-name="Path 4182"
                  d="M24.706,81.7a35.791,35.791,0,0,1,12.549-1.649.166.166,0,0,1,.026.327c-2.838.583-9.993,2.094-11.994,2.881a.659.659,0,0,1-.833-.319c-.05-.1-.1-.207-.155-.311A.657.657,0,0,1,24.706,81.7Z"
                  transform="translate(-17.305 -63.857)" fill="#eab316"/>
            <path id="Path_4183" data-name="Path 4183"
                  d="M4.487,95.067c2.811-.7,14.61-3.658,19.179-3.61a.165.165,0,0,1,.035.327c-3.553.769-15.8,3.611-18.612,4.986a.661.661,0,0,1-.914-.39l-.132-.4a.679.679,0,0,1,.445-.919Z"
                  transform="translate(-0.419 -73.418)" fill="#eab316"/>
            <path id="Path_4183_-_Outline" data-name="Path 4183 - Outline"
                  d="M4.386,96.5a.745.745,0,0,1-.707-.513l-.132-.395a.839.839,0,0,1,.046-.676.711.711,0,0,1,.457-.349l.109-.027c1.52-.379,5.079-1.266,8.875-2.07a57.42,57.42,0,0,1,10.1-1.516h.112a.248.248,0,0,1,.052.491c-2.994.648-15.711,3.569-18.593,4.98A.726.726,0,0,1,4.386,96.5Zm18.75-5.38c-2.088,0-7.069.621-18.938,3.581l-.109.027A.548.548,0,0,0,3.737,95a.676.676,0,0,0-.034.544l.132.395a.581.581,0,0,0,.551.4.562.562,0,0,0,.249-.058,26.585,26.585,0,0,1,3.606-1.256c1.46-.431,3.289-.926,5.436-1.47,4.074-1.034,8.053-1.934,9.588-2.266a.083.083,0,0,0-.018-.164Z"
                  transform="translate(-0.001 -73.001)" fill="#eab316"/>
            <path id="Path_4184" data-name="Path 4184"
                  d="M4.409,7.857c-.578.245-.494-.9-.094-1.211A30.2,30.2,0,0,1,9.946,4.031a.407.407,0,0,1,.521.544,134.86,134.86,0,0,0-5.148,13.1c-.084.268-.633.283-.661,0-.149-1.521.909-5.714,3.158-10.616a.242.242,0,0,0-.284-.321A21.686,21.686,0,0,0,4.409,7.857Z"
                  transform="translate(-0.416 -0.417)" fill="#eab316"/>
            <path id="Path_4184_-_Outline" data-name="Path 4184 - Outline"
                  d="M9.68,3.5a.488.488,0,0,1,.409.226.48.48,0,0,1,.036.464l-.086.195A133.286,133.286,0,0,0,4.98,17.28a.441.441,0,0,1-.437.265.346.346,0,0,1-.385-.279,6.674,6.674,0,0,1,.115-1.633,22.583,22.583,0,0,1,.568-2.438A47.187,47.187,0,0,1,7.324,6.607a.133.133,0,0,0-.01-.13.175.175,0,0,0-.144-.08h0a.164.164,0,0,0-.036,0A21.855,21.855,0,0,0,4.025,7.516a.465.465,0,0,1-.18.04.324.324,0,0,1-.31-.249,1.129,1.129,0,0,1,0-.609,1,1,0,0,1,.307-.535A25.542,25.542,0,0,1,8.885,3.78L9.5,3.537A.491.491,0,0,1,9.68,3.5ZM4.543,17.379a.288.288,0,0,0,.28-.149A133.438,133.438,0,0,1,9.888,4.319l.086-.195a.317.317,0,0,0-.024-.307A.318.318,0,0,0,9.56,3.69l-.615.243a25.493,25.493,0,0,0-5,2.36,1.059,1.059,0,0,0-.257.96c.047.137.127.137.153.137a.3.3,0,0,0,.115-.027A22,22,0,0,1,7.1,6.24a.331.331,0,0,1,.074-.008h0a.34.34,0,0,1,.283.156.3.3,0,0,1,.021.288A47.019,47.019,0,0,0,5,13.24a13.117,13.117,0,0,0-.677,4.009C4.332,17.345,4.448,17.379,4.543,17.379Z"
                  transform="translate(0 0)" fill="#eab316"/>
            <path id="Path_4185" data-name="Path 4185"
                  d="M48.536,8.308a2.321,2.321,0,0,0-.3-.064c-4.955-.172-7.267,1.4-7.35,1.468a.66.66,0,0,0-.1.929.585.585,0,0,0,.469.253.089.089,0,0,1,.089.066,6.814,6.814,0,0,1-.124,3.335c-.626,2.35-1.993,3.649-2.7,3.649a.411.411,0,0,1-.112-.015c-.288-.076-.582-.531-.749-1.157a6.909,6.909,0,0,1,.114-3.393A6.261,6.261,0,0,1,39.7,10.072a2.727,2.727,0,0,0,.749-.907s0,0,0-.007c.083-.159.468-.906.018-.916-1.625,0-3.4,1.985-4.134,4.753-.812,3.054-.055,5.905,1.691,6.37a1.925,1.925,0,0,0,.5.064c1.625,0,3.4-1.985,4.134-4.753a8.245,8.245,0,0,0,.1-4.183.268.268,0,0,1,.174-.326A15.212,15.212,0,0,1,45.212,9.7a.147.147,0,0,1,.139.235A8.87,8.87,0,0,0,43.908,13c-.812,3.054-.055,5.905,1.691,6.37a1.925,1.925,0,0,0,.5.064c1.625,0,3.4-1.985,4.134-4.753.81-3.054.053-5.907-1.692-6.37Zm.253,5.986c-.625,2.35-1.99,3.649-2.7,3.649a.411.411,0,0,1-.112-.015c-.288-.076-.582-.531-.749-1.157a6.909,6.909,0,0,1,.114-3.393c.625-2.349,1.99-3.649,2.7-3.649a.419.419,0,0,1,.112.015C48.76,9.906,49.463,11.758,48.788,14.295Z"
                  transform="translate(-27.139 -3.948)" fill="#eab316"/>
            <path id="Path_4185_-_Outline" data-name="Path 4185 - Outline"
                  d="M47.065,7.731h0c.247,0,.5,0,.751.013a1.912,1.912,0,0,1,.319.066h0A2.2,2.2,0,0,1,49.3,8.6,4,4,0,0,1,50,10.083a7.049,7.049,0,0,1,.213,1.961,9.867,9.867,0,0,1-1.059,4.165,7.486,7.486,0,0,1-1.017,1.521A3.456,3.456,0,0,1,45.677,19.1a2.017,2.017,0,0,1-.517-.067A2.2,2.2,0,0,1,44,18.239a4,4,0,0,1-.7-1.482,7.042,7.042,0,0,1-.213-1.961,9.577,9.577,0,0,1,.326-2.238,8.944,8.944,0,0,1,1.457-3.086h0a.059.059,0,0,0,.007-.065.066.066,0,0,0-.059-.038h-.01a14.74,14.74,0,0,0-2.265.459.187.187,0,0,0-.121.225,6.977,6.977,0,0,1,.224,1.971,9.515,9.515,0,0,1-.326,2.256,9.67,9.67,0,0,1-.734,1.927,7.486,7.486,0,0,1-1.017,1.521A3.456,3.456,0,0,1,38.1,19.095a2.017,2.017,0,0,1-.517-.067,2.2,2.2,0,0,1-1.158-.79,4,4,0,0,1-.7-1.482,7.042,7.042,0,0,1-.213-1.961,9.886,9.886,0,0,1,1.06-4.165,7.486,7.486,0,0,1,1.017-1.521,3.456,3.456,0,0,1,2.462-1.367h0a.277.277,0,0,1,.251.13c.1.163.03.468-.2.905l-.006.012a2.789,2.789,0,0,1-.77.931,6.226,6.226,0,0,0-1.9,3.263,6.826,6.826,0,0,0-.114,3.351c.157.589.434,1.031.69,1.1h0a.327.327,0,0,0,.09.012,2.149,2.149,0,0,0,1.315-.913,7.027,7.027,0,0,0,1.3-2.675,6.644,6.644,0,0,0,.124-3.292c0-.005,0-.005-.006-.005h-.012a.67.67,0,0,1-.526-.284.742.742,0,0,1,.111-1.045A6.577,6.577,0,0,1,42.1,8.452a13.266,13.266,0,0,1,2.056-.5A18.139,18.139,0,0,1,47.065,7.731Zm-1.389,11.2a3.3,3.3,0,0,0,2.338-1.31,8.527,8.527,0,0,0,1.716-3.382,8.218,8.218,0,0,0,.112-4.114A2.737,2.737,0,0,0,48.1,7.971h0a1.7,1.7,0,0,0-.283-.061c-.249-.009-.5-.013-.744-.013h0a15.572,15.572,0,0,0-4.909.712,6.612,6.612,0,0,0-1.641.751.577.577,0,0,0-.087.812.512.512,0,0,0,.4.222h.012A.171.171,0,0,1,41,10.52v0a6.809,6.809,0,0,1-.124,3.377,8.254,8.254,0,0,1-.593,1.578,6.239,6.239,0,0,1-.743,1.16,2.258,2.258,0,0,1-1.443.973.492.492,0,0,1-.134-.018c-.321-.085-.63-.551-.807-1.215a6.994,6.994,0,0,1,.114-3.436,7.82,7.82,0,0,1,.881-2.1A4.7,4.7,0,0,1,39.23,9.589a2.626,2.626,0,0,0,.725-.879l.006-.012c.277-.534.223-.7.2-.742-.012-.02-.036-.047-.112-.049a3.3,3.3,0,0,0-2.337,1.31A8.527,8.527,0,0,0,36,12.6a8.211,8.211,0,0,0-.113,4.114,2.739,2.739,0,0,0,1.746,2.155,1.852,1.852,0,0,0,.475.062,3.3,3.3,0,0,0,2.338-1.31,8.526,8.526,0,0,0,1.716-3.382,8.143,8.143,0,0,0,.1-4.14.352.352,0,0,1,.227-.426,14.886,14.886,0,0,1,2.3-.466l.033,0a.23.23,0,0,1,.207.13A.226.226,0,0,1,45,9.573,8.778,8.778,0,0,0,43.57,12.6a8.21,8.21,0,0,0-.113,4.114A2.739,2.739,0,0,0,45.2,18.87,1.852,1.852,0,0,0,45.677,18.931Zm1.949-9.7a.5.5,0,0,1,.134.018.927.927,0,0,1,.5.46,3.276,3.276,0,0,1,.357.987,5.948,5.948,0,0,1,.109,1.427,8.094,8.094,0,0,1-.273,1.777,8.253,8.253,0,0,1-.592,1.578,6.234,6.234,0,0,1-.742,1.16,2.255,2.255,0,0,1-1.442.974.492.492,0,0,1-.134-.018c-.321-.085-.63-.551-.807-1.215a6.994,6.994,0,0,1,.114-3.436,8.252,8.252,0,0,1,.592-1.577,6.237,6.237,0,0,1,.742-1.16A2.257,2.257,0,0,1,47.625,9.23Zm-1.95,8.214a2.146,2.146,0,0,0,1.314-.913,7.024,7.024,0,0,0,1.3-2.675,6.979,6.979,0,0,0,.162-3.128c-.172-.823-.494-1.256-.737-1.321a.336.336,0,0,0-.091-.012,2.148,2.148,0,0,0-1.316.914,7.025,7.025,0,0,0-1.3,2.674,6.826,6.826,0,0,0-.114,3.351c.157.589.434,1.031.69,1.1h0A.327.327,0,0,0,45.675,17.444Z"
                  transform="translate(-26.722 -3.53)" fill="#eab316"/>
        </g>
    </g>
</svg>
