<svg xmlns="http://www.w3.org/2000/svg" width="31.283" height="20.027" viewBox="0 0 31.283 20.027">
    <g id="Group_3999" data-name="Group 3999" transform="translate(-7799 -12709.448)">
        <g id="Apple_Pay_Mark_RGB_041619" transform="translate(7799 12709.448)">
            <path id="XMLID_4_"
                  d="M28.481,0h-26c-.09,0-.18,0-.27,0a3.928,3.928,0,0,0-.588.052,1.987,1.987,0,0,0-.559.184,1.879,1.879,0,0,0-.822.822,1.977,1.977,0,0,0-.184.559A3.9,3.9,0,0,0,0,2.211c0,.09,0,.18,0,.27,0,.107,0,.214,0,.321V17.226c0,.107,0,.214,0,.321,0,.09,0,.18,0,.27a3.9,3.9,0,0,0,.052.588,1.977,1.977,0,0,0,.184.559,1.879,1.879,0,0,0,.822.822,1.979,1.979,0,0,0,.559.185,3.958,3.958,0,0,0,.588.052l.27,0H28.8l.271,0a3.968,3.968,0,0,0,.588-.052,1.98,1.98,0,0,0,.559-.185,1.879,1.879,0,0,0,.822-.822,1.965,1.965,0,0,0,.184-.559,3.9,3.9,0,0,0,.052-.588c0-.09,0-.18,0-.27,0-.107,0-.214,0-.321V2.8c0-.107,0-.214,0-.321,0-.09,0-.18,0-.27a3.9,3.9,0,0,0-.052-.588,1.966,1.966,0,0,0-.184-.559A1.879,1.879,0,0,0,30.22.241a1.988,1.988,0,0,0-.559-.184A3.939,3.939,0,0,0,29.073,0c-.09,0-.18,0-.271,0Z"
                  transform="translate(0)"/>
            <path id="XMLID_3_"
                  d="M31.346,3.532h.316c.086,0,.171,0,.257,0a3.337,3.337,0,0,1,.488.041,1.318,1.318,0,0,1,.375.123,1.212,1.212,0,0,1,.53.531,1.3,1.3,0,0,1,.122.375,3.319,3.319,0,0,1,.041.488c0,.085,0,.17,0,.257,0,.105,0,.21,0,.316V20.09c0,.105,0,.21,0,.318,0,.085,0,.17,0,.255a3.315,3.315,0,0,1-.042.489,1.3,1.3,0,0,1-.122.373,1.212,1.212,0,0,1-.531.531,1.307,1.307,0,0,1-.373.122,3.394,3.394,0,0,1-.486.042l-.261,0H5.348l-.255,0a3.4,3.4,0,0,1-.488-.041,1.311,1.311,0,0,1-.375-.123,1.212,1.212,0,0,1-.529-.53,1.311,1.311,0,0,1-.122-.375,3.3,3.3,0,0,1-.042-.487c0-.086,0-.171,0-.256V5.349c0-.086,0-.171,0-.256A3.305,3.305,0,0,1,3.578,4.6,1.309,1.309,0,0,1,3.7,4.23a1.212,1.212,0,0,1,.53-.53A1.315,1.315,0,0,1,4.6,3.578a3.333,3.333,0,0,1,.489-.041c.086,0,.171,0,.256,0h26"
                  transform="translate(-2.865 -2.864)" fill="#fff"/>
            <g id="Group_3969" data-name="Group 3969" transform="translate(4.24 5.491)">
                <g id="Group_3967" data-name="Group 3967">
                    <path id="Path_4000" data-name="Path 4000"
                          d="M40.18,30.3a1.746,1.746,0,0,0,.4-1.245,1.731,1.731,0,0,0-1.148.594,1.634,1.634,0,0,0-.411,1.2A1.445,1.445,0,0,0,40.18,30.3"
                          transform="translate(-35.88 -29.055)"/>
                    <path id="Path_4001" data-name="Path 4001"
                          d="M27.132,38.972c-.639-.038-1.183.363-1.488.363s-.773-.344-1.278-.334a1.885,1.885,0,0,0-1.6.973,4.019,4.019,0,0,0,.487,3.9c.324.477.715,1,1.23.983.487-.019.677-.315,1.269-.315s.763.315,1.278.306c.534-.01.868-.477,1.193-.955a4.237,4.237,0,0,0,.534-1.1,1.733,1.733,0,0,1-1.04-1.575,1.767,1.767,0,0,1,.839-1.48,1.827,1.827,0,0,0-1.421-.773"
                          transform="translate(-22.435 -37.095)"/>
                </g>
                <g id="Group_3968" data-name="Group 3968" transform="translate(7.578 0.546)">
                    <path id="Path_4002" data-name="Path 4002"
                          d="M65.215,31.944A2.246,2.246,0,0,1,67.571,34.3a2.271,2.271,0,0,1-2.392,2.362H63.642V39.1H62.53v-7.16Zm-1.573,3.781h1.275a1.424,1.424,0,1,0,0-2.843h-1.28Z"
                          transform="translate(-62.53 -31.944)"/>
                    <path id="Path_4003" data-name="Path 4003"
                          d="M90.74,45.541c0-.913.7-1.474,1.94-1.543l1.429-.084v-.4c0-.581-.392-.928-1.047-.928a1,1,0,0,0-1.1.764H90.948c.06-.943.863-1.637,2.153-1.637,1.265,0,2.074.67,2.074,1.717v3.6H94.149v-.858h-.025a1.865,1.865,0,0,1-1.647.948A1.582,1.582,0,0,1,90.74,45.541Zm3.369-.471v-.412l-1.285.079c-.64.045-1,.328-1,.774s.377.754.953.754A1.251,1.251,0,0,0,94.109,45.07Z"
                          transform="translate(-85.408 -39.864)"/>
                    <path id="Path_4004" data-name="Path 4004"
                          d="M117.128,49.349v-.868a1.983,1.983,0,0,0,.347.02.869.869,0,0,0,.928-.744c0-.01.094-.318.094-.323l-1.885-5.225h1.161l1.32,4.247h.02l1.32-4.247h1.131L119.608,47.7c-.446,1.265-.962,1.672-2.044,1.672A4.14,4.14,0,0,1,117.128,49.349Z"
                          transform="translate(-106.39 -40.269)"/>
                </g>
            </g>
        </g>
    </g>
</svg>
