<svg xmlns="http://www.w3.org/2000/svg" width="30.454" height="27.412" viewBox="0 0 30.454 27.412">
  <g id="Group_5495" data-name="Group 5495" transform="translate(0 0.001)">
    <path id="Path_4417" data-name="Path 4417" d="M7.087,24.832a3.544,3.544,0,0,1-2.523-3.508c.01-.578-.9-1.076-.956-.494a3.451,3.451,0,0,1-1.562-2.67c.324.089.413-.943.067-1.029a5.593,5.593,0,0,1-1.24-.959,3.544,3.544,0,0,1,1.01-5.462c.081-.044.183-.06.229-.157.357-.088.267-1.123-.067-1.03A3.443,3.443,0,0,1,3.608,6.852c.073.637.965.074.956-.494A3.587,3.587,0,0,1,6.937,2.886a1.352,1.352,0,0,1,.153-.035c.1.093.08.21.064.325-.15,1.09.825.57,1.094-.493a3.89,3.89,0,0,1,1.4-1.9,3.537,3.537,0,0,1,5.524,2.38,4.569,4.569,0,0,1,.051.693c0,1.974.115,19.985-.111,20.94a3.526,3.526,0,0,1-3.266,2.739A3.575,3.575,0,0,1,8.337,25.2c-.025-.067-.06-.131-.09-.2" transform="translate(0 -0.137)" fill="#ff82bd"/>
    <path id="Union_12" data-name="Union 12" d="M5.061,22.155a.358.358,0,0,0,.07-.356,4.568,4.568,0,0,1,.652-2.963.519.519,0,0,1,.692-.266.533.533,0,0,1,.187.742,3.869,3.869,0,0,0-.441,3.011c-.079,0-.157.006-.236.006A2.2,2.2,0,0,1,5.061,22.155Zm7.629-4.286A3.15,3.15,0,0,0,9.97,16.3c-.041,0-.081,0-.122,0a.674.674,0,0,1-.483-.123.486.486,0,0,1-.205-.526.471.471,0,0,1,.465-.363A4.319,4.319,0,0,1,13.187,16.8q0,1.211,0,2.422A4.94,4.94,0,0,0,12.69,17.869Zm-11.107.284A2.977,2.977,0,0,1,2.224,16.6a.744.744,0,0,1,.285-.246.486.486,0,0,1,.6.124.445.445,0,0,1-.013.631,2.387,2.387,0,0,0-.562,1.541A3.1,3.1,0,0,1,1.582,18.153ZM.02,15.482a2.767,2.767,0,0,1,.067-1.029c.346.086.693.168,1.038.259a.475.475,0,0,1,.4.553.467.467,0,0,1-.515.406H1A3.711,3.711,0,0,1,.02,15.482Zm6.531-.117A2.455,2.455,0,0,1,5.025,13.6a1.431,1.431,0,0,1-.068-.59,1.419,1.419,0,0,1,.082-.6.5.5,0,0,1,.625-.341.49.49,0,0,1,.345.591A1.521,1.521,0,0,0,6.78,14.37a1.62,1.62,0,0,1,.236.159c.179.159.293.349.144.583a.456.456,0,0,1-.609.253Zm2.59-4.812c.008-.294.238-.466.631-.47a3.3,3.3,0,0,0,3.375-2.895.332.332,0,0,1,.041-.085q0,1.238,0,2.476a4.735,4.735,0,0,1-1.936,1.271,5.27,5.27,0,0,1-1.46.243H9.775A.581.581,0,0,1,9.141,10.554Zm-5.2-1.3c-.033-.3.159-.516.5-.563.566-.077.764-.309.761-.886V7.773c0-.485.137-.712.453-.728s.545.275.561.739c0,.053,0,.105,0,.158A1.765,1.765,0,0,1,4.537,9.7H4.506A.539.539,0,0,1,3.941,9.253ZM.02,6.846a3.453,3.453,0,0,1,1.018-.189.482.482,0,0,1,.118.95c-.353.1-.712.18-1.069.268A2.8,2.8,0,0,1,.02,6.846ZM9,6.035a.514.514,0,0,1-.066-.712c.355-.527.291-.871-.235-1.259a.5.5,0,0,1-.145-.78.466.466,0,0,1,.6-.105,1.7,1.7,0,0,1,1,1.383,1.881,1.881,0,0,1-.431,1.371A.573.573,0,0,1,9.3,6.15.471.471,0,0,1,9,6.035ZM2.333,5.847a2.866,2.866,0,0,1-.751-1.672,3.235,3.235,0,0,1,.956-.494A2.411,2.411,0,0,0,3.08,5.2a.484.484,0,0,1-.342.83A.555.555,0,0,1,2.333,5.847ZM5.8,3.518A4.655,4.655,0,0,1,5.128.5.331.331,0,0,0,5.064.174,2.458,2.458,0,0,1,6.222.005,3.859,3.859,0,0,0,6.66,3.013.5.5,0,0,1,6.5,3.73a.5.5,0,0,1-.258.076A.515.515,0,0,1,5.8,3.518Z" transform="translate(2.026 2.541)" fill="#bb3586" stroke="rgba(0,0,0,0)" stroke-width="1"/>
    <g id="Group_5464" data-name="Group 5464" transform="translate(16.24 -0.001)">
      <path id="Path_4418" data-name="Path 4418" d="M255.96,8.13q0-3.788-.007-7.577a.5.5,0,0,1,.558-.547c.6-.006,1.2-.012,1.807,0a1.276,1.276,0,0,1,1.251,1.125c.1.795.18,1.593.247,2.392a.564.564,0,0,0,.332.495,1.121,1.121,0,0,0,1.585-.242A13.425,13.425,0,0,1,263.1,2.646a1.29,1.29,0,0,1,1.756.085q1.3,1.275,2.578,2.578a1.282,1.282,0,0,1,.085,1.755q-.762.972-1.56,1.915a.315.315,0,0,0-.054.419.439.439,0,0,1,.02.06c.365.886.366.877,1.315.948.589.044,1.177.11,1.763.184a1.277,1.277,0,0,1,1.154,1.257q.021,1.854,0,3.709A1.277,1.277,0,0,1,269,16.817c-.806.1-1.615.177-2.424.247a.5.5,0,0,0-.423.3A1.154,1.154,0,0,0,266.406,19a11.67,11.67,0,0,1,1.09,1.316,1.3,1.3,0,0,1-.105,1.828q-1.237,1.252-2.489,2.489a1.3,1.3,0,0,1-1.827.111c-.638-.5-1.266-1.021-1.888-1.544a.31.31,0,0,0-.419-.051.7.7,0,0,1-.115.05c-.833.345-.825.346-.9,1.247-.048.61-.113,1.219-.188,1.826a1.28,1.28,0,0,1-1.218,1.126c-.623.021-1.247.012-1.871,0a.5.5,0,0,1-.528-.545" transform="translate(-255.951 0.001)" fill="#3db9ff"/>
      <path id="Path_4419" data-name="Path 4419" d="M255.938,128.026a5.769,5.769,0,0,1,3.738,1.034,5.363,5.363,0,0,1,2.271,3.662,5.529,5.529,0,0,1-3.522,6.094,5.963,5.963,0,0,1-2.486.361c0-1.721-.009-3.442-.009-5.164q0-2.994.009-5.987" transform="translate(-255.929 -119.895)" fill="#0d72bb"/>
    </g>
  </g>
</svg>
