<svg width="36" height="36" viewBox="0 0 36 36" fill="none" xmlns="http://www.w3.org/2000/svg">
<rect width="36" height="36" rx="18" fill="#E3F0FF"/>
<g clip-path="url(#clip0_383_16872)">
<path d="M18.4018 12.5441C15.8624 12.5441 13.324 12.5455 10.7869 12.5484C10.5978 12.5484 10.5507 12.5022 10.5541 12.3148C10.5661 11.6123 10.5541 10.9099 10.5593 10.2083C10.5565 10.0366 10.5882 9.86619 10.6525 9.70702C10.7168 9.54785 10.8123 9.40319 10.9335 9.28161C11.0547 9.16003 11.199 9.06399 11.358 8.99918C11.5169 8.93438 11.6873 8.90212 11.8589 8.90432C16.214 8.90432 20.5694 8.90432 24.925 8.90432C25.097 8.90177 25.2677 8.9338 25.427 8.9985C25.5863 9.06321 25.731 9.15927 25.8524 9.28097C25.9739 9.40268 26.0697 9.54756 26.1341 9.707C26.1985 9.86644 26.2302 10.0372 26.2273 10.2091C26.2273 10.9184 26.2221 11.6277 26.2316 12.337C26.2316 12.5082 26.1888 12.5484 26.0211 12.5484C23.4816 12.5427 20.9433 12.5427 18.4061 12.5484" fill="#24A7F1"/>
<path d="M17.7327 27.1028C15.7956 27.1028 13.8585 27.1028 11.9256 27.1028C11.7426 27.1155 11.5589 27.0886 11.3871 27.0243C11.2153 26.9599 11.0592 26.8599 10.9295 26.7301C10.7997 26.6004 10.6994 26.4441 10.635 26.2723C10.5707 26.1004 10.544 25.9172 10.5567 25.7342C10.5567 24.0443 10.5567 22.3605 10.5481 20.6707C10.5481 20.4799 10.5977 20.4358 10.7834 20.44H17.7139C17.879 20.44 17.9449 20.4631 17.9449 20.6539C17.9369 22.7314 17.9369 24.8092 17.9449 26.8872C17.9449 27.0584 17.9107 27.1095 17.7447 27.1095L17.7327 27.1028ZM18.8356 26.9123C18.8396 24.8235 18.8396 22.7323 18.8356 20.6389C18.8356 20.4618 18.8972 20.4334 19.0546 20.4334H26.0305C26.1871 20.4334 26.2333 20.4705 26.2333 20.6305C26.2247 22.3538 26.2333 24.0762 26.2333 25.7977C26.2366 25.9688 26.2055 26.1385 26.1418 26.2973C26.0781 26.4562 25.9831 26.6004 25.8625 26.7218C25.7419 26.8432 25.5982 26.9395 25.4397 27.0042C25.2813 27.0689 25.1115 27.1017 24.9404 27.0995H22.3967C21.2647 27.0995 20.1336 27.0943 19.0059 27.0995C18.839 27.1037 18.8356 27.0329 18.8356 26.9123ZM19.0504 19.5493C18.8895 19.5493 18.8356 19.5124 18.8356 19.3421C18.8396 17.4387 18.8396 15.5375 18.8356 13.6386C18.8356 13.4863 18.8647 13.4347 19.0341 13.4347C21.3637 13.4381 23.6958 13.4381 26.0305 13.4347C26.1871 13.4347 26.2333 13.4702 26.2333 13.6302C26.2247 15.5388 26.2247 17.4475 26.2333 19.3555C26.2333 19.5189 26.1794 19.5493 26.0305 19.5493H19.0504ZM10.7569 19.5493C10.6037 19.5493 10.5507 19.5198 10.5541 19.3555C10.5581 17.4469 10.5581 15.5382 10.5541 13.6302C10.5541 13.4702 10.5994 13.4347 10.7526 13.4347C13.0861 13.4381 15.4197 13.4381 17.7532 13.4347C17.9184 13.4347 17.9517 13.4871 17.9517 13.6386C17.9517 15.5389 17.9432 17.4384 17.9517 19.3421C17.9517 19.5132 17.8936 19.5493 17.7327 19.5493H10.7569Z" fill="#FFDE81"/>
<path d="M22.4855 22.2512C23.0177 22.2512 23.5491 22.2512 24.0804 22.2512C24.1438 22.2429 24.2082 22.248 24.2695 22.266C24.3308 22.284 24.3877 22.3146 24.4366 22.3558C24.4855 22.397 24.5252 22.4479 24.5533 22.5053C24.5814 22.5627 24.5972 22.6254 24.5998 22.6892C24.5998 22.9596 24.3944 23.1436 24.0719 23.1444C23.0086 23.1444 21.9451 23.1444 20.8813 23.1444C20.8176 23.1527 20.7529 23.1476 20.6914 23.1293C20.6298 23.1111 20.5727 23.0802 20.5238 23.0387C20.4749 22.9971 20.4353 22.9457 20.4074 22.8879C20.3795 22.8301 20.364 22.7671 20.3619 22.7029C20.3568 22.4326 20.5655 22.2529 20.8898 22.252H22.4847" fill="#06152B"/>
<path d="M22.4691 25.0798C21.9377 25.0798 21.4064 25.0798 20.875 25.0798C20.8124 25.0888 20.7486 25.0844 20.6879 25.0668C20.6271 25.0493 20.5707 25.0191 20.5225 24.9781C20.4743 24.9372 20.4353 24.8865 20.4082 24.8294C20.3811 24.7722 20.3664 24.71 20.3651 24.6467C20.3638 24.5835 20.376 24.5207 20.4008 24.4625C20.4256 24.4044 20.4625 24.3521 20.509 24.3092C20.5555 24.2664 20.6106 24.2339 20.6706 24.2139C20.7306 24.1939 20.7942 24.1869 20.8571 24.1934C21.9409 24.1877 23.0246 24.1877 24.1084 24.1934C24.1708 24.1872 24.2338 24.1941 24.2933 24.2139C24.3527 24.2336 24.4074 24.2656 24.4537 24.3079C24.5 24.3501 24.5369 24.4016 24.562 24.4591C24.5871 24.5165 24.5998 24.5786 24.5993 24.6413C24.5988 24.7039 24.5851 24.7658 24.5592 24.8228C24.5332 24.8799 24.4955 24.9308 24.4486 24.9723C24.4016 25.0139 24.3465 25.0451 24.2867 25.0639C24.2269 25.0827 24.1638 25.0887 24.1016 25.0815C23.5565 25.0815 23.0107 25.0815 22.4656 25.0815" fill="#06152B"/>
<path d="M12.7956 21.6864C12.9146 21.7075 13.0217 21.7715 13.0968 21.8661C13.4211 22.1938 13.7514 22.5155 14.0722 22.8466C14.1578 22.9322 14.2031 22.9322 14.2887 22.8466C14.6147 22.5103 14.9475 22.1818 15.2795 21.8515C15.3188 21.8034 15.3674 21.7638 15.4225 21.7351C15.4775 21.7063 15.5379 21.6891 15.5998 21.6844C15.6617 21.6797 15.724 21.6876 15.7827 21.7076C15.8415 21.7277 15.8956 21.7594 15.9417 21.801C15.9887 21.8449 16.0257 21.8985 16.05 21.958C16.0743 22.0176 16.0854 22.0817 16.0825 22.1459C16.0797 22.2101 16.063 22.273 16.0335 22.3302C16.004 22.3873 15.9625 22.4374 15.9118 22.477C15.5935 22.8004 15.2752 23.1238 14.9475 23.4378C14.8388 23.5422 14.8175 23.5995 14.9407 23.7159C15.2829 24.0368 15.6072 24.373 15.9357 24.7067C15.9976 24.7635 16.0422 24.8365 16.0644 24.9175C16.0866 24.9985 16.0855 25.0841 16.0613 25.1644C16.0371 25.2448 15.9907 25.3168 15.9275 25.372C15.8643 25.4273 15.7868 25.4636 15.7039 25.4768C15.6264 25.4889 15.5472 25.4806 15.474 25.4527C15.4007 25.4248 15.336 25.3782 15.2863 25.3176C14.9561 24.9856 14.6207 24.6596 14.2964 24.3217C14.2023 24.2241 14.1526 24.2361 14.0637 24.3217C13.7334 24.6639 13.3946 24.9968 13.0575 25.3313C12.9994 25.3994 12.9215 25.4476 12.8346 25.4691C12.7477 25.4906 12.6563 25.4843 12.5732 25.4511C12.492 25.423 12.4211 25.3714 12.3695 25.3028C12.3178 25.2342 12.2877 25.1518 12.2831 25.0661C12.2781 24.9952 12.2898 24.9241 12.3173 24.8585C12.3448 24.793 12.3873 24.7348 12.4414 24.6887C12.7529 24.3781 13.0523 24.0547 13.3826 23.7613C13.5537 23.609 13.5212 23.5285 13.374 23.3908C13.048 23.0862 12.7383 22.7628 12.4234 22.4496C12.3543 22.3873 12.3073 22.3041 12.2897 22.2127C12.2721 22.1213 12.2848 22.0266 12.3259 21.9431C12.3651 21.8537 12.433 21.7799 12.5189 21.7334C12.6047 21.6869 12.7036 21.6703 12.7999 21.6864" fill="#06152B"/>
<path d="M12.7272 18.4539C12.6433 18.4541 12.5611 18.4312 12.4895 18.3875C12.4179 18.3439 12.3598 18.2813 12.3216 18.2067C12.2828 18.1342 12.2657 18.052 12.2724 17.9701C12.2791 17.8882 12.3092 17.8099 12.3592 17.7446C12.3848 17.7104 12.4134 17.6786 12.4448 17.6496L15.2846 14.809C15.3366 14.7458 15.4042 14.6972 15.4807 14.6681C15.5573 14.639 15.6401 14.6303 15.721 14.643C15.8 14.6561 15.874 14.6906 15.935 14.7426C15.996 14.7946 16.0416 14.8623 16.0669 14.9384C16.0923 15.0144 16.0964 15.096 16.0789 15.1742C16.0613 15.2524 16.0228 15.3243 15.9674 15.3823C15.8014 15.5662 15.6191 15.7356 15.4437 15.911C14.6623 16.6925 13.8811 17.4742 13.1002 18.2563C13.0062 18.3681 12.8724 18.4389 12.7272 18.4539Z" fill="#06152B"/>
<path d="M15.8898 17.8071C15.8787 17.9544 15.8106 18.0916 15.6999 18.1895C15.5892 18.2874 15.4447 18.3382 15.2971 18.3312C15.1496 18.3241 15.0106 18.2598 14.9097 18.1519C14.8088 18.0439 14.754 17.9009 14.7569 17.7532C14.7585 17.6774 14.7752 17.6027 14.8061 17.5334C14.8369 17.4642 14.8814 17.4019 14.9368 17.3501C14.9922 17.2983 15.0574 17.2582 15.1285 17.232C15.1997 17.2059 15.2754 17.1943 15.3511 17.1979C15.4268 17.2015 15.501 17.2203 15.5694 17.253C15.6377 17.2858 15.6988 17.332 15.7491 17.3887C15.7993 17.4455 15.8376 17.5118 15.8618 17.5837C15.8859 17.6555 15.8955 17.7315 15.8898 17.8071Z" fill="#06152B"/>
<path d="M12.4712 15.3009C12.4713 15.2265 12.4863 15.1529 12.5153 15.0844C12.5443 15.0159 12.5867 14.9539 12.64 14.902C12.6934 14.8502 12.7566 14.8096 12.8259 14.7825C12.8952 14.7555 12.9692 14.7427 13.0436 14.7447C13.1181 14.7462 13.1916 14.7624 13.2598 14.7923C13.328 14.8222 13.3897 14.8653 13.4413 14.919C13.4929 14.9728 13.5335 15.0362 13.5606 15.1056C13.5877 15.175 13.6008 15.249 13.5993 15.3235C13.5978 15.398 13.5816 15.4715 13.5517 15.5398C13.5218 15.608 13.4788 15.6697 13.425 15.7213C13.3713 15.7729 13.3079 15.8134 13.2385 15.8405C13.1691 15.8676 13.095 15.8808 13.0205 15.8793C12.9461 15.8784 12.8726 15.8626 12.8044 15.8328C12.7363 15.803 12.6748 15.7598 12.6236 15.7058C12.5724 15.6518 12.5327 15.588 12.5066 15.5183C12.4806 15.4486 12.4688 15.3744 12.472 15.3" fill="#06152B"/>
<path d="M22.0398 15.2599C22.0398 15.04 22.0347 14.8201 22.0398 14.6011C22.037 14.4899 22.0775 14.382 22.1529 14.3002C22.2283 14.2184 22.3326 14.1692 22.4436 14.163C22.5003 14.1552 22.5579 14.1593 22.6129 14.175C22.6679 14.1906 22.7191 14.2175 22.7631 14.2539C22.8072 14.2904 22.8432 14.3355 22.869 14.3866C22.8947 14.4377 22.9095 14.4935 22.9125 14.5506C22.9373 14.9955 22.9356 15.443 22.9271 15.8888C22.9271 16.0599 22.9699 16.1044 23.1376 16.0984C23.4841 16.0847 23.8323 16.0916 24.1797 16.0984C24.5082 16.0984 24.7059 16.2772 24.7008 16.5553C24.6956 16.8334 24.5083 16.9891 24.1874 16.9917C23.8451 16.9917 23.5029 17.0071 23.1675 16.9865C22.9596 16.9737 22.9254 17.0524 22.9305 17.2347C22.9425 17.6385 22.9416 18.0432 22.9305 18.4462C22.9377 18.5229 22.925 18.6001 22.8935 18.6703C22.8619 18.7405 22.8127 18.8014 22.7507 18.8469C22.6886 18.8924 22.6157 18.9211 22.5393 18.93C22.4628 18.939 22.3854 18.9279 22.3144 18.898C22.2244 18.863 22.1484 18.7992 22.0983 18.7166C22.0482 18.634 22.0267 18.5371 22.0372 18.4411C22.0372 18.0133 22.0321 17.5906 22.0372 17.1654C22.0372 17.0251 22.0013 16.984 21.8593 16.9883C21.4913 16.9985 21.1226 16.9934 20.7538 16.9883C20.6915 16.9944 20.6287 16.9874 20.5693 16.9677C20.5099 16.9481 20.4552 16.9162 20.4089 16.8742C20.3625 16.8322 20.3255 16.7809 20.3002 16.7237C20.2748 16.6665 20.2617 16.6046 20.2617 16.5421C20.2617 16.4795 20.2748 16.4176 20.3002 16.3604C20.3255 16.3032 20.3625 16.252 20.4089 16.2099C20.4552 16.1679 20.5099 16.136 20.5693 16.1164C20.6287 16.0967 20.6915 16.0897 20.7538 16.0959C21.1226 16.0907 21.4913 16.0873 21.8593 16.0959C22.0021 16.0959 22.0432 16.0565 22.0355 15.917C22.0244 15.698 22.0355 15.4781 22.0355 15.2582" fill="#06152B"/>
<path d="M27.117 18.0221C27.117 20.6186 27.117 23.214 27.117 25.8082C27.1208 26.3457 26.9233 26.8651 26.5634 27.2643C26.2035 27.6635 25.7072 27.9135 25.1722 27.9652C24.9611 27.9877 24.7488 27.9983 24.5365 27.9969H11.9384C11.4731 28.0123 11.0149 27.8798 10.6297 27.6184C10.2444 27.3571 9.95193 26.9803 9.79423 26.5423C9.71045 26.3238 9.66725 26.0919 9.66675 25.8578C9.66675 20.6192 9.66675 15.3797 9.66675 10.1393C9.6779 9.61999 9.87506 9.1219 10.2224 8.73564C10.5697 8.34937 11.0441 8.10058 11.5594 8.03452C11.7701 8.01037 11.9821 7.99894 12.1942 8.00029H24.8111C25.3598 7.9729 25.8987 8.15216 26.3217 8.5027C26.7446 8.85324 27.0207 9.34958 27.0956 9.89377C27.111 9.99884 27.117 10.1051 27.1136 10.2112C27.1136 12.8146 27.1136 15.4179 27.1136 18.0213M18.4026 12.5445C20.942 12.5445 23.4804 12.5445 26.0176 12.5445C26.1887 12.5445 26.2306 12.5008 26.228 12.3331C26.2186 11.6238 26.228 10.9145 26.2238 10.2052C26.2271 10.033 26.1958 9.86187 26.1316 9.70203C26.0674 9.54219 25.9717 9.3969 25.8502 9.27483C25.7287 9.15275 25.5838 9.05638 25.4243 8.99147C25.2647 8.92655 25.0937 8.89442 24.9215 8.89698C20.5664 8.89698 16.2113 8.89698 11.8563 8.89698C11.6839 8.89475 11.5128 8.92727 11.3533 8.99261C11.1938 9.05794 11.049 9.15475 10.9277 9.27724C10.8064 9.39974 10.711 9.54543 10.6473 9.7056C10.5835 9.86577 10.5527 10.0371 10.5566 10.2095C10.5566 10.9119 10.5634 11.6144 10.5515 12.316C10.5515 12.5034 10.5951 12.5505 10.7842 12.5496C13.3236 12.5428 15.862 12.5413 18.3992 12.5453M22.5369 20.4367C21.3741 20.4367 20.2113 20.4367 19.0486 20.4367C18.892 20.4367 18.8287 20.4657 18.8295 20.6437C18.8364 22.7354 18.8364 24.8271 18.8295 26.9188C18.8295 27.0386 18.8338 27.1087 18.9955 27.1079C20.9737 27.101 22.9519 27.1079 24.9292 27.1019C25.1013 27.1058 25.2723 27.0747 25.432 27.0104C25.5916 26.9461 25.7365 26.85 25.8578 26.7279C25.9792 26.6059 26.0744 26.4604 26.1378 26.3004C26.2011 26.1404 26.2312 25.9691 26.2263 25.7971C26.2263 24.0739 26.2263 22.3515 26.2315 20.6283C26.2315 20.4657 26.1853 20.4281 26.0287 20.429C24.8659 20.4349 23.7031 20.429 22.5403 20.429M14.2537 20.429C13.0978 20.429 11.9435 20.4332 10.7859 20.4247C10.6002 20.4247 10.5506 20.4666 10.5515 20.6565C10.56 22.3447 10.5557 24.0319 10.5566 25.7201C10.5439 25.9031 10.5706 26.0868 10.635 26.2586C10.6993 26.4304 10.7997 26.5865 10.9294 26.7162C11.0592 26.846 11.2152 26.9464 11.3871 27.0107C11.5589 27.075 11.7425 27.1017 11.9256 27.0891C13.8618 27.0891 15.7972 27.0891 17.7335 27.0933C17.914 27.0933 17.9534 27.0437 17.9534 26.87C17.9471 24.792 17.9471 22.714 17.9534 20.636C17.9534 20.4461 17.8884 20.4204 17.7232 20.4213C16.5673 20.4281 15.4131 20.4213 14.2554 20.4213M14.2469 19.5306C15.4096 19.5306 16.5733 19.5306 17.7361 19.5306C17.8969 19.5306 17.9534 19.4963 17.9525 19.3226C17.9462 17.422 17.9462 15.5211 17.9525 13.62C17.9525 13.4677 17.9226 13.4138 17.7557 13.4146C15.4228 13.4203 13.0895 13.4203 10.7559 13.4146C10.6002 13.4146 10.5549 13.4488 10.5549 13.6114C10.5612 15.5194 10.5612 17.4275 10.5549 19.3355C10.5549 19.5015 10.6054 19.5314 10.7577 19.5306C11.9204 19.5246 13.0841 19.5306 14.2469 19.5306ZM22.5198 19.5306C23.6903 19.5306 24.8599 19.5306 26.0278 19.5306C26.1801 19.5306 26.2323 19.5023 26.2315 19.3355C26.2246 17.4275 26.2246 15.5197 26.2315 13.6123C26.2315 13.4506 26.1878 13.4146 26.0312 13.4146C23.6983 13.4198 21.365 13.4198 19.0315 13.4146C18.8655 13.4146 18.8338 13.4668 18.8347 13.62C18.8392 15.5206 18.8392 17.4215 18.8347 19.3226C18.8347 19.4938 18.8886 19.5323 19.0511 19.5314C20.2071 19.5254 21.3613 19.5314 22.5189 19.5314" fill="#06152B"/>
</g>
<defs>
<clipPath id="clip0_383_16872">
<rect width="17.4503" height="20" fill="white" transform="translate(9.66675 8)"/>
</clipPath>
</defs>
</svg>