<svg xmlns="http://www.w3.org/2000/svg" width="15.429" height="12" viewBox="0 0 15.429 12">
    <path id="credit-card"
          d="M4.5,40.143a.643.643,0,1,1,0,1.286H3.214a.643.643,0,1,1,0-1.286Zm5.143,0a.643.643,0,1,1,0,1.286h-3a.643.643,0,1,1,0-1.286ZM13.714,32a1.715,1.715,0,0,1,1.714,1.714v8.571A1.716,1.716,0,0,1,13.714,44h-12A1.715,1.715,0,0,1,0,42.286V33.714A1.714,1.714,0,0,1,1.714,32Zm0,1.286h-12a.428.428,0,0,0-.429.429v.857H14.143v-.857A.429.429,0,0,0,13.714,33.286Zm.429,3.857H1.286v5.143a.429.429,0,0,0,.429.429h12a.43.43,0,0,0,.429-.429Z"
          transform="translate(0 -32)"/>
</svg>
