<svg xmlns="http://www.w3.org/2000/svg" width="18.121" height="18.759" viewBox="0 0 18.121 18.759">
    <path id="Union_9" data-name="Union 9"
          d="M11.474,0l6.648,2.732v13.3l-6.648,2.732ZM4.69,16.755a.683.683,0,0,1-.683-.683V11.519a.683.683,0,1,1,1.366,0v3.87h4.6a.683.683,0,0,1,0,1.366ZM6.875,10.2H.911a.911.911,0,1,1,0-1.821H6.875V6.238l3.1,3.051-3.1,3.051ZM4.007,6.875V2.322a.683.683,0,0,1,.683-.683H9.971a.683.683,0,0,1,0,1.366h-4.6v3.87a.683.683,0,0,1-1.366,0Z"
          fill="#46008c"/>
</svg>
