<?xml version="1.0" encoding="utf-8"?><!-- Uploaded to: SVG Repo, www.svgrepo.com, Generator: SVG Repo Mixer Tools -->
<svg width="800px" height="800px" viewBox="0 0 24 24" fill="none" xmlns="http://www.w3.org/2000/svg">
    <path d="M19.5404 18.6947C20.0401 18.3741 20.6836 18.4316 21.6521 17.8965C22.269 17.5559 21.9175 17.3459 21.7185 17.2464C18.2115 15.5503 17.652 12.9278 17.6277 12.731C17.5967 12.4944 17.5636 12.3087 17.8223 12.0699C18.0722 11.8377 19.1844 11.15 19.4918 10.9355C20.0003 10.5795 20.2259 10.2235 20.06 9.7857C19.9451 9.48498 19.662 9.36999 19.3635 9.36999C19.2706 9.36999 19.1756 9.38105 19.0849 9.40095C18.5255 9.52257 17.9815 9.80339 17.6675 9.87857C17.6255 9.88963 17.5857 9.89405 17.5525 9.89405C17.3867 9.89405 17.3248 9.81887 17.338 9.61765C17.3778 9.00514 17.4619 7.81108 17.3646 6.69442C17.2319 5.15762 16.7366 4.39696 16.1484 3.72475C15.8654 3.40191 14.5453 2 12.0024 2C9.46609 2 8.13936 3.40191 7.85632 3.72475C7.26814 4.39917 6.77283 5.15983 6.64015 6.69442C6.54286 7.81108 6.63131 9.00514 6.66669 9.61765C6.67774 9.81003 6.62025 9.89405 6.4522 9.89405C6.41903 9.89405 6.38144 9.88963 6.33721 9.87857C6.02322 9.80339 5.47926 9.52257 4.91982 9.40095C4.82916 9.38105 4.73408 9.36999 4.64121 9.36999C4.3427 9.36999 4.05966 9.48277 3.94468 9.7857C3.77883 10.2235 4.00217 10.5795 4.51296 10.9355C4.82032 11.15 5.93256 11.8377 6.18243 12.0699C6.44114 12.3109 6.40797 12.4967 6.37702 12.731C6.35048 12.9278 5.79325 15.5503 2.28626 17.2464C2.08062 17.3459 1.73125 17.5559 2.34818 17.8965C3.31669 18.4294 3.96015 18.3719 4.45989 18.6947C4.88444 18.9689 4.63458 19.5593 4.94194 19.7716C5.32005 20.0347 6.44335 19.7539 7.8917 20.2315C9.10345 20.6317 9.84421 21.7617 12.0001 21.7617C14.1517 21.7617 14.9145 20.6273 16.1086 20.2315C17.5569 19.7539 18.678 20.0347 19.0584 19.7716C19.3657 19.5593 19.1158 18.9689 19.5404 18.6947Z"
          stroke="#000000" stroke-linejoin="round"/>
</svg>