<svg width="270" height="55" viewBox="0 0 270 55" fill="none" xmlns="http://www.w3.org/2000/svg">
    <path d="M98.2261 23.678H35.9417V30.7721H98.2261V23.678Z" fill="url(#paint0_linear_1_4)"/>
    <path d="M54.363 27.225C54.363 42.2533 42.1857 54.4501 27.1815 54.4501C12.1773 54.4501 0 42.2533 0 27.225C0 12.1968 12.1773 0 27.1815 0C42.1857 0 54.363 12.1968 54.363 27.225Z"
          fill="url(#paint1_linear_1_4)"/>
    <path d="M72.3494 3.54703H262.061C265.975 3.54703 269.143 6.7207 269.143 10.6411V43.7779C269.143 47.6983 265.975 50.8719 262.061 50.8719H72.3494C68.4352 50.8719 65.2666 47.6983 65.2666 43.7779V10.6411C65.2666 6.7207 68.4352 3.54703 72.3494 3.54703Z"
          fill="url(#paint2_linear_1_4)"/>
    <path d="M49.9518 27.225C49.9518 39.8263 39.7626 50.063 27.1815 50.063C14.6003 50.063 4.3801 39.8263 4.3801 27.225C4.3801 14.6237 14.6003 4.38712 27.1815 4.38712C39.7626 4.38712 49.9518 14.5926 49.9518 27.225Z"
          fill="white"/>
    <path fill-rule="evenodd" clip-rule="evenodd"
          d="M29.4803 18.8242C30.1948 18.8242 30.8782 18.8242 31.5927 18.8242H31.8722V15.1527C31.4995 15.1216 31.0956 15.0593 30.7229 15.0282C30.0084 14.9971 29.2939 14.966 28.5483 14.966C27.4611 14.966 26.4049 15.246 25.504 15.8994C24.4478 16.6462 23.8887 17.7041 23.6712 18.9486C23.578 19.4776 23.5469 20.0065 23.5469 20.5355C23.5469 21.3444 23.5469 22.1845 23.5469 22.9935V23.3046H20.0367V27.4117H23.5159V37.7106H27.7717V27.4428H31.251C31.4373 26.0738 31.5927 24.7359 31.7791 23.3357H31.0024C30.0084 23.3357 27.7407 23.3357 27.7407 23.3357C27.7407 23.3357 27.7407 21.3133 27.7717 20.411C27.8028 19.1975 28.5173 18.8242 29.4803 18.7931V18.8242Z"
          fill="url(#paint3_linear_1_4)"/>
    <defs>
        <linearGradient id="paint0_linear_1_4" x1="67.0994" y1="23.678" x2="67.0994" y2="30.7721"
                        gradientUnits="userSpaceOnUse">
            <stop stop-color="#1E4FAD"/>
            <stop offset="1" stop-color="#002F8A"/>
        </linearGradient>
        <linearGradient id="paint1_linear_1_4" x1="27.1815" y1="0" x2="27.1815" y2="54.4501"
                        gradientUnits="userSpaceOnUse">
            <stop stop-color="#1E4FAD"/>
            <stop offset="1" stop-color="#002F8A"/>
        </linearGradient>
        <linearGradient id="paint2_linear_1_4" x1="167.189" y1="3.54703" x2="167.189" y2="50.903"
                        gradientUnits="userSpaceOnUse">
            <stop stop-color="#1E4FAD"/>
            <stop offset="1" stop-color="#002F8A"/>
        </linearGradient>
        <linearGradient id="paint3_linear_1_4" x1="25.97" y1="4.57381" x2="25.97" y2="47.7605"
                        gradientUnits="userSpaceOnUse">
            <stop stop-color="#1E4FAD"/>
            <stop offset="1" stop-color="#002F8A"/>
        </linearGradient>
    </defs>
</svg>
