<svg xmlns="http://www.w3.org/2000/svg" width="32.819" height="28" viewBox="0 0 32.819 28">
    <path id="flag"
          d="M4.688,3.066A2.216,2.216,0,0,0,2.344,1,2.216,2.216,0,0,0,0,3.066V26.934A2.216,2.216,0,0,0,2.344,29a2.216,2.216,0,0,0,2.344-2.066V22.726l4.71-2.1a14.624,14.624,0,0,1,8.974.865c3.238,1.427,7,2.662,10.381,1.539L31.3,22.19a2.1,2.1,0,0,0,1.524-1.937V4.269a2.27,2.27,0,0,0-3.282-1.788l-.7.31c-3.392,1.5-7.384,2.559-10.776,1.061-2.571-1.136-5.524-2.482-8.315-1.868L4.688,3.1Z"
          transform="translate(0 -1)" fill="#fff"/>
</svg>
