<svg id="Google__G__Logo" xmlns="http://www.w3.org/2000/svg" width="18.968" height="19.355" viewBox="0 0 18.968 19.355">
    <path id="Path_23" data-name="Path 23"
          d="M-1089.33-687.239v3.748h5.208a4.462,4.462,0,0,1-1.944,2.912l3.141,2.437a9.455,9.455,0,0,0,2.886-7.117,11.13,11.13,0,0,0-.176-1.979Z"
          transform="translate(1099.007 695.157)" fill="#4285f4"/>
    <path id="Path_24" data-name="Path 24"
          d="M-1171.145-651.791l-.708.542-2.507,1.953h0a9.676,9.676,0,0,0,8.639,5.34,9.237,9.237,0,0,0,6.4-2.34l-3.141-2.437a5.764,5.764,0,0,1-3.264.933,5.778,5.778,0,0,1-5.42-3.985Z"
          transform="translate(1175.399 663.31)" fill="#34a853"/>
    <path id="Path_25" data-name="Path 25"
          d="M-1183.539-712.61a9.558,9.558,0,0,0-1.038,4.337,9.558,9.558,0,0,0,1.038,4.337c0,.009,3.22-2.5,3.22-2.5a5.794,5.794,0,0,1-.308-1.839,5.8,5.8,0,0,1,.308-1.839Z"
          transform="translate(1184.577 717.95)" fill="#fbbc05"/>
    <path id="Path_26" data-name="Path 26"
          d="M-1165.723-761.318a5.28,5.28,0,0,1,3.7,1.443l2.771-2.771a9.284,9.284,0,0,0-6.475-2.525,9.66,9.66,0,0,0-8.639,5.34l3.22,2.5A5.777,5.777,0,0,1-1165.723-761.318Z"
          transform="translate(1175.4 765.171)" fill="#ea4335"/>
</svg>
