<svg id="hundred-points" xmlns="http://www.w3.org/2000/svg" width="30" height="30" viewBox="0 0 30 30">
  <path id="Path_4182" data-name="Path 4182" d="M24.945,82.553a53.687,53.687,0,0,1,18.824-2.474.248.248,0,0,1,.04.491c-4.257.875-14.989,3.141-17.991,4.321a.989.989,0,0,1-1.249-.478c-.074-.151-.154-.31-.233-.466A.985.985,0,0,1,24.945,82.553Z" transform="translate(-19.088 -61.037)" fill="#00c48c"/>
  <path id="Path_4183" data-name="Path 4183" d="M4.732,96.872c4.217-1.051,21.916-5.486,28.768-5.414a.248.248,0,0,1,.052.491c-5.33,1.153-23.706,5.417-27.918,7.48a.991.991,0,0,1-1.371-.585l-.2-.593a1.018,1.018,0,0,1,.667-1.378Z" transform="translate(-3.873 -69.651)" fill="#00c48c"/>
  <path id="Path_4183_-_Outline" data-name="Path 4183 - Outline" d="M4.831,99.275a1.118,1.118,0,0,1-1.061-.769l-.2-.592A1.259,1.259,0,0,1,3.64,96.9a1.067,1.067,0,0,1,.686-.524l.164-.041c2.28-.568,7.619-1.9,13.313-3.1,7.127-1.508,12.226-2.273,15.154-2.273h.169a.372.372,0,0,1,.078.736c-4.491.971-23.567,5.353-27.89,7.47A1.089,1.089,0,0,1,4.831,99.275ZM32.956,91.2c-3.132,0-10.6.932-28.407,5.371l-.164.041a.822.822,0,0,0-.529.4,1.014,1.014,0,0,0-.051.816l.2.592a.871.871,0,0,0,.826.6A.844.844,0,0,0,5.2,98.94a39.878,39.878,0,0,1,5.409-1.884c2.19-.646,4.933-1.388,8.155-2.205,6.112-1.55,12.08-2.9,14.382-3.4a.124.124,0,0,0-.027-.246Z" transform="translate(-3.497 -69.275)" fill="#00c48c"/>
  <path id="Path_4184" data-name="Path 4184" d="M4.616,9.785c-.868.367-.741-1.351-.141-1.817,1.738-1.351,5.987-2.94,8.446-3.922a.611.611,0,0,1,.781.816A202.29,202.29,0,0,0,5.98,24.508c-.126.4-.95.424-.992,0C4.765,22.23,6.351,15.94,9.725,8.587A.362.362,0,0,0,9.3,8.106,32.53,32.53,0,0,0,4.616,9.785Z" transform="translate(-3.871 -3.877)" fill="#00c48c"/>
  <path id="Path_4184_-_Outline" data-name="Path 4184 - Outline" d="M12.773,3.5a.732.732,0,0,1,.613.339.72.72,0,0,1,.054.7l-.129.292A199.929,199.929,0,0,0,5.723,24.169a.661.661,0,0,1-.656.4.518.518,0,0,1-.577-.419A10.011,10.011,0,0,1,4.662,21.7a33.875,33.875,0,0,1,.851-3.657A70.781,70.781,0,0,1,9.238,8.16a.2.2,0,0,0-.015-.195.263.263,0,0,0-.216-.12h0a.246.246,0,0,0-.055.006A32.783,32.783,0,0,0,4.289,9.523a.7.7,0,0,1-.269.061.485.485,0,0,1-.464-.374A1.693,1.693,0,0,1,3.563,8.3a1.493,1.493,0,0,1,.461-.8c1.55-1.205,5.021-2.575,7.555-3.575l.921-.365A.736.736,0,0,1,12.773,3.5ZM5.067,24.318a.432.432,0,0,0,.419-.223,200.158,200.158,0,0,1,7.6-19.368l.129-.292a.476.476,0,0,0-.035-.46.477.477,0,0,0-.586-.19l-.922.365C9.15,5.144,5.7,6.506,4.176,7.689a1.588,1.588,0,0,0-.386,1.44c.071.206.191.206.23.206a.455.455,0,0,0,.173-.041A33,33,0,0,1,8.9,7.61.5.5,0,0,1,9.006,7.6h0a.51.51,0,0,1,.425.234.444.444,0,0,1,.032.432,70.529,70.529,0,0,0-3.711,9.846,19.676,19.676,0,0,0-1.016,6.014C4.751,24.267,4.923,24.318,5.067,24.318Z" transform="translate(-3.496 -3.501)" fill="#00c48c"/>
  <path id="Path_4185" data-name="Path 4185" d="M54.8,8.347a3.482,3.482,0,0,0-.456-.1c-7.432-.258-10.9,2.1-11.025,2.2a.99.99,0,0,0-.149,1.393.877.877,0,0,0,.7.379.133.133,0,0,1,.134.1,10.221,10.221,0,0,1-.186,5c-.94,3.525-2.99,5.474-4.048,5.474a.616.616,0,0,1-.169-.022c-.431-.114-.873-.8-1.123-1.735a10.364,10.364,0,0,1,.171-5.09,9.391,9.391,0,0,1,2.891-4.961,4.09,4.09,0,0,0,1.123-1.361s0-.007,0-.01c.124-.238.7-1.359.027-1.373-2.437,0-5.1,2.977-6.2,7.13-1.217,4.581-.082,8.858,2.536,9.555a2.888,2.888,0,0,0,.744.1c2.437,0,5.1-2.977,6.2-7.13a12.368,12.368,0,0,0,.154-6.275.4.4,0,0,1,.26-.488,22.817,22.817,0,0,1,3.421-.694.221.221,0,0,1,.208.352,13.3,13.3,0,0,0-2.164,4.586c-1.217,4.581-.082,8.858,2.536,9.555a2.888,2.888,0,0,0,.744.1c2.437,0,5.1-2.977,6.2-7.13C58.552,13.32,57.417,9.041,54.8,8.347Zm.379,8.979c-.937,3.525-2.985,5.474-4.043,5.474a.616.616,0,0,1-.169-.022c-.431-.114-.873-.8-1.123-1.735a10.363,10.363,0,0,1,.171-5.09c.937-3.523,2.985-5.474,4.046-5.474a.629.629,0,0,1,.169.022C55.136,10.744,56.19,13.521,55.178,17.326Z" transform="translate(-27.949 -7.058)" fill="#00c48c"/>
  <path id="Path_4185_-_Outline" data-name="Path 4185 - Outline" d="M52.844,7.731h0c.37,0,.749.007,1.126.02a2.868,2.868,0,0,1,.478.1h.006a3.3,3.3,0,0,1,1.737,1.184,6,6,0,0,1,1.058,2.224,10.574,10.574,0,0,1,.32,2.942,14.8,14.8,0,0,1-1.589,6.248,11.229,11.229,0,0,1-1.526,2.281,5.184,5.184,0,0,1-3.694,2.05,3.025,3.025,0,0,1-.776-.1,3.3,3.3,0,0,1-1.737-1.185,6,6,0,0,1-1.057-2.224,10.562,10.562,0,0,1-.319-2.941,14.366,14.366,0,0,1,.49-3.357,13.415,13.415,0,0,1,2.185-4.629h0a.089.089,0,0,0,.01-.1.1.1,0,0,0-.088-.056h-.015a22.11,22.11,0,0,0-3.4.689.28.28,0,0,0-.181.338,10.465,10.465,0,0,1,.336,2.956,14.272,14.272,0,0,1-.489,3.383,14.5,14.5,0,0,1-1.1,2.891,11.227,11.227,0,0,1-1.526,2.281,5.184,5.184,0,0,1-3.694,2.05,3.026,3.026,0,0,1-.776-.1,3.3,3.3,0,0,1-1.737-1.185,6,6,0,0,1-1.057-2.224,10.562,10.562,0,0,1-.319-2.941A14.829,14.829,0,0,1,37.1,12.079,11.23,11.23,0,0,1,38.628,9.8a5.184,5.184,0,0,1,3.694-2.05h0a.416.416,0,0,1,.377.194c.145.245.046.7-.3,1.358a.137.137,0,0,1-.009.018,4.183,4.183,0,0,1-1.154,1.4A9.34,9.34,0,0,0,38.4,15.609a10.24,10.24,0,0,0-.171,5.026c.236.884.651,1.546,1.035,1.647h0a.49.49,0,0,0,.135.018,3.223,3.223,0,0,0,1.973-1.37,10.541,10.541,0,0,0,1.956-4.012,9.967,9.967,0,0,0,.186-4.939c0-.008-.007-.008-.009-.008h-.017a1,1,0,0,1-.789-.425,1.114,1.114,0,0,1,.167-1.568A9.866,9.866,0,0,1,45.4,8.812a19.9,19.9,0,0,1,3.084-.746A27.209,27.209,0,0,1,52.844,7.731Zm-2.083,16.8a4.948,4.948,0,0,0,3.507-1.966,12.79,12.79,0,0,0,2.573-5.072,12.326,12.326,0,0,0,.168-6.171c-.467-1.76-1.4-2.908-2.619-3.232h-.005A2.548,2.548,0,0,0,53.961,8c-.373-.013-.749-.02-1.116-.02h0a23.358,23.358,0,0,0-7.363,1.068,9.918,9.918,0,0,0-2.462,1.126.866.866,0,0,0-.13,1.218.767.767,0,0,0,.6.334H43.5a.256.256,0,0,1,.248.19v0a10.214,10.214,0,0,1-.186,5.065,12.383,12.383,0,0,1-.889,2.366,9.358,9.358,0,0,1-1.114,1.739,3.387,3.387,0,0,1-2.165,1.46.738.738,0,0,1-.2-.027c-.481-.128-.944-.826-1.21-1.823a10.492,10.492,0,0,1,.171-5.153A11.729,11.729,0,0,1,39.477,12.4a7.046,7.046,0,0,1,1.614-1.882A3.939,3.939,0,0,0,42.179,9.2a.133.133,0,0,1,.009-.018c.416-.8.335-1.055.3-1.114C42.47,8.039,42.434,8,42.32,8a4.949,4.949,0,0,0-3.506,1.966,12.79,12.79,0,0,0-2.573,5.072,12.316,12.316,0,0,0-.17,6.17c.467,1.76,1.4,2.908,2.618,3.233a2.778,2.778,0,0,0,.712.093,4.948,4.948,0,0,0,3.507-1.966,12.79,12.79,0,0,0,2.573-5.072,12.214,12.214,0,0,0,.154-6.21.528.528,0,0,1,.34-.638,22.329,22.329,0,0,1,3.444-.7.363.363,0,0,1,.05,0,.344.344,0,0,1,.311.2.339.339,0,0,1-.037.358A13.166,13.166,0,0,0,47.6,15.036a12.316,12.316,0,0,0-.17,6.17c.467,1.76,1.4,2.908,2.618,3.233A2.777,2.777,0,0,0,50.761,24.532ZM53.684,9.979a.754.754,0,0,1,.2.027,1.39,1.39,0,0,1,.747.69,4.915,4.915,0,0,1,.536,1.481,8.921,8.921,0,0,1,.164,2.141,12.142,12.142,0,0,1-.41,2.665,12.379,12.379,0,0,1-.887,2.366,9.351,9.351,0,0,1-1.113,1.739,3.383,3.383,0,0,1-2.163,1.46.739.739,0,0,1-.2-.027c-.481-.128-.944-.826-1.21-1.823a10.492,10.492,0,0,1,.171-5.153,12.378,12.378,0,0,1,.887-2.365,9.356,9.356,0,0,1,1.113-1.74A3.385,3.385,0,0,1,53.684,9.979ZM50.758,22.3a3.219,3.219,0,0,0,1.971-1.37,10.536,10.536,0,0,0,1.952-4.012,10.468,10.468,0,0,0,.243-4.691c-.257-1.234-.74-1.885-1.105-1.982a.5.5,0,0,0-.137-.018A3.221,3.221,0,0,0,51.71,11.6a10.538,10.538,0,0,0-1.953,4.011,10.24,10.24,0,0,0-.171,5.026c.236.884.651,1.546,1.035,1.647h0A.49.49,0,0,0,50.758,22.3Z" transform="translate(-27.573 -6.682)" fill="#00c48c"/>
</svg>
