<svg xmlns="http://www.w3.org/2000/svg" width="13" height="13" viewBox="0 0 13 13">
  <g id="Icons8_flat_clock" transform="translate(-4 -4)">
    <path id="Subtraction_6" data-name="Subtraction 6" d="M6.5,13A6.5,6.5,0,0,1,1.9,1.9,6.5,6.5,0,1,1,11.1,11.1,6.459,6.459,0,0,1,6.5,13Zm0-11.7a5.2,5.2,0,1,0,5.2,5.2A5.207,5.207,0,0,0,6.5,1.3Z" transform="translate(4 4)" fill="#00acc1"/>
    <path id="Subtraction_5" data-name="Subtraction 5" d="M2.429,6.438h0L.745,4.75A.634.634,0,0,1,.316,3.577V0H.952V3.575a.639.639,0,0,1,.318.552.547.547,0,0,1-.01.106L2.946,5.921l-.516.516Zm-1.8-2.63a.318.318,0,1,0,.318.317A.318.318,0,0,0,.634,3.808Z" transform="translate(9.714 6.223)"/>
  </g>
</svg>
