<svg width="270" height="55" viewBox="0 0 270 55" fill="none" xmlns="http://www.w3.org/2000/svg">
    <path d="M99.1139 23.678H36.8295V30.7721H99.1139V23.678Z" fill="url(#paint0_linear_1_51)"/>
    <path d="M55.2197 27.225C55.2197 42.2533 43.0424 54.4501 28.0382 54.4501C13.034 54.4501 0.85672 42.2533 0.85672 27.225C0.85672 12.1968 13.034 0 28.0382 0C43.0424 0 55.2197 12.1968 55.2197 27.225Z"
          fill="url(#paint1_linear_1_51)"/>
    <path d="M73.2061 3.54703H262.917C266.831 3.54703 270 6.7207 270 10.6411V43.7779C270 47.6983 266.831 50.8719 262.917 50.8719H73.2061C69.2919 50.8719 66.1234 47.6983 66.1234 43.7779V10.6411C66.1234 6.7207 69.2919 3.54703 73.2061 3.54703Z"
          fill="url(#paint2_linear_1_51)"/>
    <path d="M50.8396 27.225C50.8396 39.8263 40.6504 50.063 28.0693 50.063C15.4881 50.063 5.26788 39.8575 5.26788 27.225C5.26788 14.5926 15.4571 4.38712 28.0693 4.38712C40.6815 4.38712 50.8396 14.5926 50.8396 27.225Z"
          fill="white"/>
    <path d="M38.4448 21.78C38.2895 20.3488 37.7614 19.0731 36.6741 18.0463C35.5558 16.9884 34.189 16.4906 32.6668 16.4284C30.0885 16.3039 23.9998 16.2106 21.8564 16.5528C19.4023 16.9573 17.818 18.3886 17.1345 20.7844C16.6064 22.6512 16.7307 31.2077 17.0103 33.0434C17.4141 35.5637 18.9052 37.1816 21.3904 37.8039C23.0989 38.2395 31.5796 38.1773 33.4745 37.8973C35.9907 37.4928 37.6061 35.9993 38.2584 33.5412C38.7555 31.6433 38.5691 23.5224 38.4138 21.78H38.4448ZM36.4567 32.7012C36.1771 34.5991 34.9035 35.7815 32.9775 35.9993C31.2068 36.186 23.3475 36.3104 21.7321 35.8437C20.1789 35.4081 19.278 34.3191 19.0295 32.7634C18.781 31.2699 18.7188 23.7402 19.0295 21.7178C19.3091 19.8198 20.5827 18.6375 22.4776 18.4197C24.4037 18.2019 31.3621 18.1708 33.226 18.4508C35.1209 18.7308 36.3014 20.0065 36.5188 21.9356C36.7052 23.7402 36.7674 30.741 36.4878 32.67L36.4567 32.7012ZM27.7276 21.5933C24.6211 21.5933 22.1359 24.1136 22.1359 27.1939C22.1359 30.2742 24.6211 32.7945 27.7276 32.7945C30.834 32.7945 33.3502 30.3054 33.3502 27.1939C33.3502 24.0825 30.8651 21.5933 27.7586 21.5933H27.7276ZM27.6654 30.8343C25.6773 30.8343 24.093 29.1852 24.093 27.1939C24.093 25.2026 25.7084 23.5847 27.7276 23.5847C29.7468 23.5847 31.331 25.2026 31.331 27.225C31.331 29.2475 29.7157 30.8343 27.6654 30.8343ZM34.8413 21.4067C34.8413 22.1223 34.2511 22.7135 33.5366 22.7135C32.8221 22.7135 32.2319 22.1534 32.2319 21.4067C32.2319 20.6599 32.8221 20.0687 33.5677 20.0999C34.2822 20.0999 34.8724 20.691 34.8724 21.4067H34.8413Z"
          fill="url(#paint3_linear_1_51)"/>
    <defs>
        <linearGradient id="paint0_linear_1_51" x1="105.109" y1="-71.7808" x2="45.9209" y2="85.4709"
                        gradientUnits="userSpaceOnUse">
            <stop offset="0.01" stop-color="#3542E0"/>
            <stop offset="0.17" stop-color="#3741DE"/>
            <stop offset="0.27" stop-color="#3F3FDA"/>
            <stop offset="0.36" stop-color="#4E3CD2"/>
            <stop offset="0.43" stop-color="#6237C7"/>
            <stop offset="0.5" stop-color="#7D31B9"/>
            <stop offset="0.56" stop-color="#9D29A7"/>
            <stop offset="0.62" stop-color="#C82091"/>
            <stop offset="0.76" stop-color="#F62B37"/>
            <stop offset="1" stop-color="#FFC658"/>
        </linearGradient>
        <linearGradient id="paint1_linear_1_51" x1="70.1307" y1="-84.9421" x2="10.9422" y2="72.3095"
                        gradientUnits="userSpaceOnUse">
            <stop offset="0.01" stop-color="#3542E0"/>
            <stop offset="0.17" stop-color="#3741DE"/>
            <stop offset="0.27" stop-color="#3F3FDA"/>
            <stop offset="0.36" stop-color="#4E3CD2"/>
            <stop offset="0.43" stop-color="#6237C7"/>
            <stop offset="0.5" stop-color="#7D31B9"/>
            <stop offset="0.56" stop-color="#9D29A7"/>
            <stop offset="0.62" stop-color="#C82091"/>
            <stop offset="0.76" stop-color="#F62B37"/>
            <stop offset="1" stop-color="#FFC658"/>
        </linearGradient>
        <linearGradient id="paint2_linear_1_51" x1="192.805" y1="-38.7996" x2="133.647" y2="118.483"
                        gradientUnits="userSpaceOnUse">
            <stop offset="0.01" stop-color="#3542E0"/>
            <stop offset="0.17" stop-color="#3741DE"/>
            <stop offset="0.27" stop-color="#3F3FDA"/>
            <stop offset="0.36" stop-color="#4E3CD2"/>
            <stop offset="0.43" stop-color="#6237C7"/>
            <stop offset="0.5" stop-color="#7D31B9"/>
            <stop offset="0.56" stop-color="#9D29A7"/>
            <stop offset="0.62" stop-color="#C82091"/>
            <stop offset="0.76" stop-color="#F62B37"/>
            <stop offset="1" stop-color="#FFC658"/>
        </linearGradient>
        <linearGradient id="paint3_linear_1_51" x1="35.7733" y1="15.3705" x2="18.5882" y2="40.5164"
                        gradientUnits="userSpaceOnUse">
            <stop offset="0.01" stop-color="#3542E0"/>
            <stop offset="0.17" stop-color="#3741DE"/>
            <stop offset="0.27" stop-color="#3F3FDA"/>
            <stop offset="0.36" stop-color="#4E3CD2"/>
            <stop offset="0.43" stop-color="#6237C7"/>
            <stop offset="0.5" stop-color="#7D31B9"/>
            <stop offset="0.56" stop-color="#9D29A7"/>
            <stop offset="0.62" stop-color="#C82091"/>
            <stop offset="0.76" stop-color="#F62B37"/>
            <stop offset="1" stop-color="#FFC658"/>
        </linearGradient>
    </defs>
</svg>
