<svg xmlns="http://www.w3.org/2000/svg" width="30" height="29.997" viewBox="0 0 30 29.997">
  <path id="layer-group-solid" d="M45.623.328a3.278,3.278,0,0,1,2.754,0L61.186,6.246a1.409,1.409,0,0,1,0,2.555L48.377,14.719a3.278,3.278,0,0,1-2.754,0L32.814,8.8a1.409,1.409,0,0,1,0-2.555ZM58.068,12.3l3.117,1.441a1.409,1.409,0,0,1,0,2.555L48.377,22.219a3.278,3.278,0,0,1-2.754,0L32.814,16.3a1.409,1.409,0,0,1,0-2.555L35.932,12.3l8.906,4.113a5.162,5.162,0,0,0,4.324,0L58.068,12.3ZM49.162,23.918,58.068,19.8l3.117,1.441a1.409,1.409,0,0,1,0,2.555L48.377,29.719a3.278,3.278,0,0,1-2.754,0L32.814,23.8a1.409,1.409,0,0,1,0-2.555L35.932,19.8l8.906,4.113A5.162,5.162,0,0,0,49.162,23.918Z" transform="translate(-32 -0.025)" fill="#ff6a39"/>
</svg>
