<svg xmlns="http://www.w3.org/2000/svg" width="22.687" height="34.385" viewBox="0 0 22.687 34.385">
  <g id="lightbulb" transform="translate(-102.718 -24.967)">
    <path id="Path_4431" data-name="Path 4431" d="M125.929,36.661a11.329,11.329,0,1,0-22.646,0,11.874,11.874,0,0,0,2.751,7.64h0l2.477,4.49c.647,1.2.887,1.971,1.971,1.971h8.076c1.084,0,1.4-.814,1.971-1.971l2.65-4.49h0A11.874,11.874,0,0,0,125.929,36.661Z" transform="translate(-0.523)" fill="#ffe46a"/>
    <path id="Path_4432" data-name="Path 4432" d="M103.46,38.085a13.269,13.269,0,0,1,11.561-13.074q-.489-.044-.98-.044a11.513,11.513,0,0,0-11.323,11.694,11.933,11.933,0,0,0,1.509,5.835A13,13,0,0,1,103.46,38.085Z" transform="translate(0 0)" fill="#fff0b7"/>
    <path id="Path_4433" data-name="Path 4433" d="M182.6,105.123a11.919,11.919,0,0,0-1.773-6.285,11.8,11.8,0,0,1,.362,2.9c0,7.684-7.44,13.942-16.735,14.2l.728,1.319c.647,1.2.887,1.971,1.971,1.971h8.076c1.084,0,1.4-.814,1.971-1.971l2.65-4.49h0a11.874,11.874,0,0,0,2.751-7.64Z" transform="translate(-57.191 -68.437)" fill="#ffda00"/>
    <path id="Path_4434" data-name="Path 4434" d="M198.324,180.58l.033-.029a.711.711,0,0,0,.233-.8c-.58-1.19-2.352-1.568-3.643-1.173q-.1.03-.19.065a2.95,2.95,0,0,0-2.354-.263,2.6,2.6,0,0,0-.271.1,2.375,2.375,0,0,0-1.419-.325,2.444,2.444,0,0,0-2.119,1.968l-.082.051c.707,1.143,2.57,4.419,2.689,5.829.15,1.778,0,6.606,0,6.654l.882.028c.006-.2.153-4.927,0-6.757a12.052,12.052,0,0,0-1.483-3.864c-.427-.816-.842-1.532-1.093-1.955a1.567,1.567,0,0,1,1.294-1.075,1.414,1.414,0,0,1,.533.054,1.669,1.669,0,0,0-.171.268,1.42,1.42,0,0,0,.289,1.7,1.182,1.182,0,0,0,1.039.221,1.032,1.032,0,0,0,.725-.616,1.32,1.32,0,0,0-.027-.938,2.256,2.256,0,0,0-.3-.563,2.07,2.07,0,0,1,1,.055,1.527,1.527,0,0,0-.286.482,1.315,1.315,0,0,0,.157,1.164,1.052,1.052,0,0,0,.835.482h.033A1.057,1.057,0,0,0,195.4,181a1.289,1.289,0,0,0,.34-1,1.516,1.516,0,0,0-.233-.652,2.378,2.378,0,0,1,2.162.6c-.23.383-.7,1.185-1.19,2.118A12.054,12.054,0,0,0,195,185.931c-.155,1.829-.008,6.556,0,6.757l.882-.028c0-.049-.152-4.876,0-6.654.107-1.269,1.627-4.05,2.445-5.426Zm-5.934-.233c-.021.053-.1.076-.121.082a.3.3,0,0,1-.253-.042.546.546,0,0,1-.07-.628.825.825,0,0,1,.136-.19,1.412,1.412,0,0,1,.273.457A.516.516,0,0,1,192.391,180.346Zm2.368.048a.2.2,0,0,1-.135.072.192.192,0,0,1-.133-.095.437.437,0,0,1-.057-.368.726.726,0,0,1,.236-.312.739.739,0,0,1,.2.4A.411.411,0,0,1,194.759,180.394Z" transform="translate(-79.482 -141.912)" fill="#faaf63"/>
    <path id="Path_4435" data-name="Path 4435" d="M195.463,402.7H186.78a.885.885,0,0,0-.883.883v.512a.885.885,0,0,0,.883.883h2.8c-.836.311-1.719,1.051-1.719,1.909v.344c.671.754,1.3,2.066,2.487,2.066h1.61c.938,0,1.6-1.012,2.416-2.066v-.344a2.367,2.367,0,0,0-1.659-1.909h2.744a.885.885,0,0,0,.883-.883v-.512A.885.885,0,0,0,195.463,402.7Z" transform="translate(-77.06 -349.946)" fill="#6b83a5"/>
    <path id="Path_4436" data-name="Path 4436" d="M188.236,374.021h-9.93a.885.885,0,0,1-.883-.883v-.512a.885.885,0,0,1,.883-.883h9.93a.885.885,0,0,1,.883.883v.512A.885.885,0,0,1,188.236,374.021Zm-.515,3.672v-.512a.885.885,0,0,0-.883-.883H179.7a.885.885,0,0,0-.883.883v.512a.885.885,0,0,0,.883.883h7.134a.885.885,0,0,0,.883-.883Z" transform="translate(-69.209 -321.266)" fill="#abbddb"/>
  </g>
</svg>
