<svg width="36" height="36" viewBox="0 0 36 36" fill="none" xmlns="http://www.w3.org/2000/svg">
<rect width="36" height="36" rx="18" fill="#E3F0FF"/>
<g clip-path="url(#clip0_383_16957)">
<path d="M17.9141 28C18.6165 28 19.1859 27.4306 19.1859 26.7282C19.1859 26.0258 18.6165 25.4564 17.9141 25.4564C17.2117 25.4564 16.6423 26.0258 16.6423 26.7282C16.6423 27.4306 17.2117 28 17.9141 28Z" fill="url(#paint0_radial_383_16957)"/>
<path d="M19.4772 22.4746H16.4064C15.9112 22.4746 15.5098 22.876 15.5098 23.3712V26.3975C15.5098 26.8927 15.9112 27.2942 16.4064 27.2942H19.4772C19.9724 27.2942 20.3738 26.8927 20.3738 26.3975V23.3712C20.3738 22.876 19.9724 22.4746 19.4772 22.4746Z" fill="url(#paint1_linear_383_16957)"/>
<path d="M19.4772 22.4746H16.4064C15.9112 22.4746 15.5098 22.876 15.5098 23.3712V26.3975C15.5098 26.8927 15.9112 27.2942 16.4064 27.2942H19.4772C19.9724 27.2942 20.3738 26.8927 20.3738 26.3975V23.3712C20.3738 22.876 19.9724 22.4746 19.4772 22.4746Z" fill="url(#paint2_linear_383_16957)"/>
<path d="M19.4772 22.4746H16.4064C15.9112 22.4746 15.5098 22.876 15.5098 23.3712V26.3975C15.5098 26.8927 15.9112 27.2942 16.4064 27.2942H19.4772C19.9724 27.2942 20.3738 26.8927 20.3738 26.3975V23.3712C20.3738 22.876 19.9724 22.4746 19.4772 22.4746Z" fill="url(#paint3_radial_383_16957)"/>
<path d="M19.4772 22.4746H16.4064C15.9112 22.4746 15.5098 22.876 15.5098 23.3712V26.3975C15.5098 26.8927 15.9112 27.2942 16.4064 27.2942H19.4772C19.9724 27.2942 20.3738 26.8927 20.3738 26.3975V23.3712C20.3738 22.876 19.9724 22.4746 19.4772 22.4746Z" fill="url(#paint4_linear_383_16957)"/>
<g filter="url(#filter0_i_383_16957)">
<path d="M17.8416 23.0463H17.8803C18.2792 23.0442 19.1959 23.0291 19.5639 22.9624C19.9584 22.8906 20.0093 22.6934 20.0796 22.385C20.5114 20.4812 21.2359 19.7496 21.7208 19.2604C21.7954 19.1851 21.8642 19.1148 21.9259 19.0481C22.1361 18.8171 22.3183 18.6134 22.4567 18.4563C23.2854 17.5764 23.839 16.4736 24.0495 15.2834C24.26 14.0932 24.1181 12.8674 23.6414 11.7567C23.1647 10.646 22.3739 9.69871 21.3662 9.03133C20.3584 8.36395 19.1777 8.00551 17.969 8.00006C16.7603 7.99461 15.5764 8.34239 14.5627 9.00066C13.549 9.65893 12.7496 10.599 12.2629 11.7054C11.7762 12.8117 11.6233 14.0362 11.8231 15.2283C12.0228 16.4203 12.5664 17.5281 13.3872 18.4154C13.5306 18.5775 13.7257 18.7963 13.9553 19.0481C14.0215 19.1209 14.0899 19.1917 14.1604 19.2604C14.6446 19.7496 15.3698 20.4819 15.8016 22.385C15.8719 22.6934 15.9228 22.8906 16.3173 22.9624C16.6839 23.0291 17.4263 23.0442 17.8022 23.0456L17.8416 23.0463Z" fill="url(#paint5_radial_383_16957)"/>
<path d="M17.8416 23.0463H17.8803C18.2792 23.0442 19.1959 23.0291 19.5639 22.9624C19.9584 22.8906 20.0093 22.6934 20.0796 22.385C20.5114 20.4812 21.2359 19.7496 21.7208 19.2604C21.7954 19.1851 21.8642 19.1148 21.9259 19.0481C22.1361 18.8171 22.3183 18.6134 22.4567 18.4563C23.2854 17.5764 23.839 16.4736 24.0495 15.2834C24.26 14.0932 24.1181 12.8674 23.6414 11.7567C23.1647 10.646 22.3739 9.69871 21.3662 9.03133C20.3584 8.36395 19.1777 8.00551 17.969 8.00006C16.7603 7.99461 15.5764 8.34239 14.5627 9.00066C13.549 9.65893 12.7496 10.599 12.2629 11.7054C11.7762 12.8117 11.6233 14.0362 11.8231 15.2283C12.0228 16.4203 12.5664 17.5281 13.3872 18.4154C13.5306 18.5775 13.7257 18.7963 13.9553 19.0481C14.0215 19.1209 14.0899 19.1917 14.1604 19.2604C14.6446 19.7496 15.3698 20.4819 15.8016 22.385C15.8719 22.6934 15.9228 22.8906 16.3173 22.9624C16.6839 23.0291 17.4263 23.0442 17.8022 23.0456L17.8416 23.0463Z" fill="url(#paint6_radial_383_16957)"/>
</g>
<path d="M19.0573 13.9451C20.3758 13.9451 21.4445 12.8764 21.4445 11.558C21.4445 10.2396 20.3758 9.17078 19.0573 9.17078C17.7389 9.17078 16.6702 10.2396 16.6702 11.558C16.6702 12.8764 17.7389 13.9451 19.0573 13.9451Z" fill="url(#paint7_linear_383_16957)"/>
<g filter="url(#filter1_i_383_16957)">
<path d="M17.6349 23.0442C17.6098 21.4862 17.4857 20.4605 17.2963 19.7461C17.0789 18.9233 16.7741 18.5123 16.4513 18.1874L16.4477 18.1831L16.4434 18.1795C16.1322 17.8851 15.9164 17.5041 15.8241 17.0857C15.7318 16.6674 15.7671 16.231 15.9255 15.8329C16.084 15.4349 16.3582 15.0935 16.7127 14.8531C17.0673 14.6126 17.4858 14.484 17.9142 14.484C18.3427 14.484 18.7612 14.6126 19.1158 14.8531C19.4703 15.0935 19.7445 15.4349 19.9029 15.8329C20.0614 16.231 20.0967 16.6674 20.0044 17.0857C19.9121 17.5041 19.6963 17.8851 19.3851 18.1795L19.3808 18.1831L19.3765 18.1874C19.0601 18.5073 18.751 18.8903 18.5308 19.7066C18.34 20.4132 18.2152 21.4425 18.19 23.0428C18.4067 23.0392 18.6656 23.0327 18.9081 23.0213C18.9339 21.4662 19.0558 20.5136 19.2237 19.8938C19.4044 19.2217 19.6376 18.9434 19.8822 18.6959C20.2965 18.3023 20.5832 17.7936 20.7055 17.2354C20.8277 16.6772 20.7798 16.0951 20.5679 15.5644C20.356 15.0337 19.9898 14.5787 19.5167 14.2582C19.0437 13.9377 18.4853 13.7664 17.9139 13.7664C17.3424 13.7664 16.7841 13.9377 16.311 14.2582C15.8379 14.5787 15.4718 15.0337 15.2599 15.5644C15.048 16.0951 15.0001 16.6772 15.1223 17.2354C15.2445 17.7936 15.5313 18.3023 15.9456 18.6959C16.1845 18.9377 16.4205 19.2396 16.6034 19.9297C16.7698 20.5602 16.8903 21.5106 16.9168 23.0213C17.1657 23.0356 17.4276 23.0413 17.6341 23.0442H17.6349Z" fill="#FFAD55"/>
</g>
<g filter="url(#filter2_f_383_16957)">
<path d="M18.6394 22.8813C18.6394 19.4591 19.1637 18.9125 19.7261 18.3451C20.0895 18.0014 20.3414 17.5566 20.4492 17.0681C20.557 16.5797 20.5158 16.0701 20.3308 15.6054C20.1458 15.1406 19.8257 14.7421 19.4117 14.4613C18.9977 14.1805 18.509 14.0304 18.0088 14.0304C17.5086 14.0304 17.02 14.1805 16.606 14.4613C16.192 14.7421 15.8719 15.1406 15.6869 15.6054C15.5019 16.0701 15.4607 16.5797 15.5685 17.0681C15.6763 17.5566 15.9282 18.0014 16.2916 18.3451C16.854 18.9125 17.3755 19.8952 17.3755 22.8813" stroke="url(#paint8_linear_383_16957)" stroke-width="1.5625"/>
</g>
<g filter="url(#filter3_f_383_16957)">
<path d="M19.8953 23.8946L15.8269 24.532C15.6175 24.5648 15.4744 24.7612 15.5072 24.9706C15.54 25.18 15.7363 25.3231 15.9457 25.2903L20.0141 24.6528C20.2235 24.62 20.3666 24.4237 20.3338 24.2143C20.301 24.0049 20.1047 23.8618 19.8953 23.8946Z" fill="#7E6693"/>
</g>
<g filter="url(#filter4_f_383_16957)">
<path d="M19.8953 25.5953L15.8269 26.2327C15.6175 26.2655 15.4744 26.4619 15.5072 26.6712C15.54 26.8806 15.7363 27.0238 15.9457 26.991L20.0141 26.3535C20.2235 26.3207 20.3666 26.1244 20.3338 25.915C20.301 25.7056 20.1047 25.5624 19.8953 25.5953Z" fill="#7E6693"/>
</g>
<path d="M20.4191 25.4073L15.304 26.2087C15.0884 26.2425 14.941 26.4447 14.9748 26.6604C15.0085 26.876 15.2108 27.0234 15.4264 26.9897L20.5415 26.1882C20.7571 26.1544 20.9046 25.9522 20.8708 25.7365C20.837 25.5209 20.6348 25.3735 20.4191 25.4073Z" fill="url(#paint9_linear_383_16957)"/>
<path d="M20.4191 25.4073L15.304 26.2087C15.0884 26.2425 14.941 26.4447 14.9748 26.6604C15.0085 26.876 15.2108 27.0234 15.4264 26.9897L20.5415 26.1882C20.7571 26.1544 20.9046 25.9522 20.8708 25.7365C20.837 25.5209 20.6348 25.3735 20.4191 25.4073Z" fill="url(#paint10_linear_383_16957)"/>
<path d="M20.4191 25.4073L15.304 26.2087C15.0884 26.2425 14.941 26.4447 14.9748 26.6604C15.0085 26.876 15.2108 27.0234 15.4264 26.9897L20.5415 26.1882C20.7571 26.1544 20.9046 25.9522 20.8708 25.7365C20.837 25.5209 20.6348 25.3735 20.4191 25.4073Z" fill="url(#paint11_linear_383_16957)"/>
<path d="M20.4191 25.4073L15.304 26.2087C15.0884 26.2425 14.941 26.4447 14.9748 26.6604C15.0085 26.876 15.2108 27.0234 15.4264 26.9897L20.5415 26.1882C20.7571 26.1544 20.9046 25.9522 20.8708 25.7365C20.837 25.5209 20.6348 25.3735 20.4191 25.4073Z" fill="url(#paint12_radial_383_16957)"/>
<path d="M20.4191 23.7021L15.304 24.5035C15.0884 24.5373 14.941 24.7395 14.9748 24.9552C15.0085 25.1708 15.2108 25.3182 15.4264 25.2845L20.5415 24.483C20.7571 24.4492 20.9046 24.247 20.8708 24.0313C20.837 23.8157 20.6348 23.6683 20.4191 23.7021Z" fill="url(#paint13_linear_383_16957)"/>
<path d="M20.4191 23.7021L15.304 24.5035C15.0884 24.5373 14.941 24.7395 14.9748 24.9552C15.0085 25.1708 15.2108 25.3182 15.4264 25.2845L20.5415 24.483C20.7571 24.4492 20.9046 24.247 20.8708 24.0313C20.837 23.8157 20.6348 23.6683 20.4191 23.7021Z" fill="url(#paint14_linear_383_16957)"/>
<path d="M20.4191 23.7021L15.304 24.5035C15.0884 24.5373 14.941 24.7395 14.9748 24.9552C15.0085 25.1708 15.2108 25.3182 15.4264 25.2845L20.5415 24.483C20.7571 24.4492 20.9046 24.247 20.8708 24.0313C20.837 23.8157 20.6348 23.6683 20.4191 23.7021Z" fill="url(#paint15_linear_383_16957)"/>
<path d="M20.4191 23.7021L15.304 24.5035C15.0884 24.5373 14.941 24.7395 14.9748 24.9552C15.0085 25.1708 15.2108 25.3182 15.4264 25.2845L20.5415 24.483C20.7571 24.4492 20.9046 24.247 20.8708 24.0313C20.837 23.8157 20.6348 23.6683 20.4191 23.7021Z" fill="url(#paint16_radial_383_16957)"/>
</g>
<defs>
<filter id="filter0_i_383_16957" x="11.7378" y="8" width="13.969" height="15.9838" filterUnits="userSpaceOnUse" color-interpolation-filters="sRGB">
<feFlood flood-opacity="0" result="BackgroundImageFix"/>
<feBlend mode="normal" in="SourceGraphic" in2="BackgroundImageFix" result="shape"/>
<feColorMatrix in="SourceAlpha" type="matrix" values="0 0 0 0 0 0 0 0 0 0 0 0 0 0 0 0 0 0 127 0" result="hardAlpha"/>
<feOffset dx="1.5625" dy="0.9375"/>
<feGaussianBlur stdDeviation="3.125"/>
<feComposite in2="hardAlpha" operator="arithmetic" k2="-1" k3="1"/>
<feColorMatrix type="matrix" values="0 0 0 0 0.992157 0 0 0 0 0.666667 0 0 0 0 0.309804 0 0 0 1 0"/>
<feBlend mode="normal" in2="shape" result="effect1_innerShadow_383_16957"/>
</filter>
<filter id="filter1_i_383_16957" x="15.0562" y="13.7664" width="7.27808" height="9.27783" filterUnits="userSpaceOnUse" color-interpolation-filters="sRGB">
<feFlood flood-opacity="0" result="BackgroundImageFix"/>
<feBlend mode="normal" in="SourceGraphic" in2="BackgroundImageFix" result="shape"/>
<feColorMatrix in="SourceAlpha" type="matrix" values="0 0 0 0 0 0 0 0 0 0 0 0 0 0 0 0 0 0 127 0" result="hardAlpha"/>
<feOffset dx="1.5625"/>
<feGaussianBlur stdDeviation="1.5625"/>
<feComposite in2="hardAlpha" operator="arithmetic" k2="-1" k3="1"/>
<feColorMatrix type="matrix" values="0 0 0 0 1 0 0 0 0 0.572549 0 0 0 0 0.254902 0 0 0 1 0"/>
<feBlend mode="normal" in2="shape" result="effect1_innerShadow_383_16957"/>
</filter>
<filter id="filter2_f_383_16957" x="13.166" y="11.6866" width="9.68555" height="12.7572" filterUnits="userSpaceOnUse" color-interpolation-filters="sRGB">
<feFlood flood-opacity="0" result="BackgroundImageFix"/>
<feBlend mode="normal" in="SourceGraphic" in2="BackgroundImageFix" result="shape"/>
<feGaussianBlur stdDeviation="0.78125" result="effect1_foregroundBlur_383_16957"/>
</filter>
<filter id="filter3_f_383_16957" x="13.9399" y="22.3274" width="7.96094" height="4.53003" filterUnits="userSpaceOnUse" color-interpolation-filters="sRGB">
<feFlood flood-opacity="0" result="BackgroundImageFix"/>
<feBlend mode="normal" in="SourceGraphic" in2="BackgroundImageFix" result="shape"/>
<feGaussianBlur stdDeviation="0.78125" result="effect1_foregroundBlur_383_16957"/>
</filter>
<filter id="filter4_f_383_16957" x="13.9399" y="24.0281" width="7.96094" height="4.53003" filterUnits="userSpaceOnUse" color-interpolation-filters="sRGB">
<feFlood flood-opacity="0" result="BackgroundImageFix"/>
<feBlend mode="normal" in="SourceGraphic" in2="BackgroundImageFix" result="shape"/>
<feGaussianBlur stdDeviation="0.78125" result="effect1_foregroundBlur_383_16957"/>
</filter>
<radialGradient id="paint0_radial_383_16957" cx="0" cy="0" r="1" gradientUnits="userSpaceOnUse" gradientTransform="translate(18.2505 27.4512) rotate(96.6541) scale(0.677032 1.56812)">
<stop offset="0.268" stop-color="#AC90C6"/>
<stop offset="1" stop-color="#8E6AAA"/>
</radialGradient>
<linearGradient id="paint1_linear_383_16957" x1="20.3738" y1="25.0784" x2="15.5098" y2="25.0784" gradientUnits="userSpaceOnUse">
<stop stop-color="#CDC2D1"/>
<stop offset="1" stop-color="#947C8D"/>
</linearGradient>
<linearGradient id="paint2_linear_383_16957" x1="15.2695" y1="25.445" x2="16.4573" y2="25.445" gradientUnits="userSpaceOnUse">
<stop stop-color="#8A7B88"/>
<stop offset="1" stop-color="#8A7B88" stop-opacity="0"/>
</linearGradient>
<radialGradient id="paint3_radial_383_16957" cx="0" cy="0" r="1" gradientUnits="userSpaceOnUse" gradientTransform="translate(18.9449 22.8103) rotate(88.6357) scale(0.591684 2.63424)">
<stop offset="0.229" stop-color="#EDE2EB"/>
<stop offset="1" stop-color="#C8BCCB" stop-opacity="0"/>
</radialGradient>
<linearGradient id="paint4_linear_383_16957" x1="19.0575" y1="27.2942" x2="19.0575" y2="26.3861" gradientUnits="userSpaceOnUse">
<stop stop-color="#7E5F9E"/>
<stop offset="1" stop-color="#7E5F9E" stop-opacity="0"/>
</linearGradient>
<radialGradient id="paint5_radial_383_16957" cx="0" cy="0" r="1" gradientUnits="userSpaceOnUse" gradientTransform="translate(20.5594 12.3995) rotate(138.066) scale(7.11111 5.86375)">
<stop offset="0.286" stop-color="#FFEC87"/>
<stop offset="1" stop-color="#FFCD4B"/>
</radialGradient>
<radialGradient id="paint6_radial_383_16957" cx="0" cy="0" r="1" gradientUnits="userSpaceOnUse" gradientTransform="translate(21.2316 16.2097) rotate(-147.604) scale(10.4596 10.0607)">
<stop offset="0.622" stop-color="#FFB239" stop-opacity="0"/>
<stop offset="1" stop-color="#FFB239"/>
</radialGradient>
<linearGradient id="paint7_linear_383_16957" x1="18.2224" y1="12.3283" x2="20.677" y2="10.416" gradientUnits="userSpaceOnUse">
<stop stop-color="white" stop-opacity="0"/>
<stop offset="0.594" stop-color="white"/>
</linearGradient>
<linearGradient id="paint8_linear_383_16957" x1="20.6772" y1="14.4588" x2="17.8037" y2="21.304" gradientUnits="userSpaceOnUse">
<stop stop-color="#FFBF5C"/>
<stop offset="1" stop-color="#FFBF5C" stop-opacity="0"/>
</linearGradient>
<linearGradient id="paint9_linear_383_16957" x1="17.791" y1="25.8256" x2="17.9819" y2="26.6778" gradientUnits="userSpaceOnUse">
<stop stop-color="#B1969A"/>
<stop offset="1" stop-color="#DAD2E2"/>
</linearGradient>
<linearGradient id="paint10_linear_383_16957" x1="18.5979" y1="26.476" x2="18.5087" y2="25.9157" gradientUnits="userSpaceOnUse">
<stop stop-color="#8A68A9"/>
<stop offset="1" stop-color="#DEC2E3" stop-opacity="0"/>
</linearGradient>
<linearGradient id="paint11_linear_383_16957" x1="14.9133" y1="26.7223" x2="16.8719" y2="26.3079" gradientUnits="userSpaceOnUse">
<stop stop-color="#958387"/>
<stop offset="1" stop-color="#958387" stop-opacity="0"/>
</linearGradient>
<radialGradient id="paint12_radial_383_16957" cx="0" cy="0" r="1" gradientUnits="userSpaceOnUse" gradientTransform="translate(19.8416 25.7715) rotate(81.4165) scale(0.600751 3.55575)">
<stop offset="0.127" stop-color="#FCF0FC"/>
<stop offset="1" stop-color="#E5C9E3" stop-opacity="0"/>
</radialGradient>
<linearGradient id="paint13_linear_383_16957" x1="17.7911" y1="24.1211" x2="17.9819" y2="24.9726" gradientUnits="userSpaceOnUse">
<stop stop-color="#B1969A"/>
<stop offset="1" stop-color="#DAD2E2"/>
</linearGradient>
<linearGradient id="paint14_linear_383_16957" x1="18.5979" y1="24.7708" x2="18.5087" y2="24.2105" gradientUnits="userSpaceOnUse">
<stop stop-color="#8A68A9"/>
<stop offset="1" stop-color="#DEC2E3" stop-opacity="0"/>
</linearGradient>
<linearGradient id="paint15_linear_383_16957" x1="14.9134" y1="25.0178" x2="16.8719" y2="24.6027" gradientUnits="userSpaceOnUse">
<stop stop-color="#958387"/>
<stop offset="1" stop-color="#958387" stop-opacity="0"/>
</linearGradient>
<radialGradient id="paint16_radial_383_16957" cx="0" cy="0" r="1" gradientUnits="userSpaceOnUse" gradientTransform="translate(19.8416 24.0663) rotate(81.4165) scale(0.60075 3.55573)">
<stop offset="0.127" stop-color="#FCF0FC"/>
<stop offset="1" stop-color="#E5C9E3" stop-opacity="0"/>
</radialGradient>
<clipPath id="clip0_383_16957">
<rect width="20" height="20" fill="white" transform="translate(8 8)"/>
</clipPath>
</defs>
</svg>
