<svg id="Mada-01" xmlns="http://www.w3.org/2000/svg" width="48.047" height="16.022" viewBox="0 0 48.047 16.022">
    <rect id="Rectangle_1456" data-name="Rectangle 1456" width="20.324" height="6.771" transform="translate(0 9.239)"
          fill="#84b740"/>
    <rect id="Rectangle_1457" data-name="Rectangle 1457" width="20.324" height="6.777" transform="translate(0 0)"
          fill="#259bd6"/>
    <path id="Path_3993" data-name="Path 3993"
          d="M723.482,507.126l-.09.018a2.965,2.965,0,0,1-.658.084c-.531,0-1.159-.272-1.159-1.551,0-.658.109-1.533,1.1-1.533h.006a2.977,2.977,0,0,1,.724.139l.078.024Zm.163-6.378-.163.03v2.366l-.145-.042-.042-.012a3.332,3.332,0,0,0-.9-.157c-1.979,0-2.4,1.5-2.4,2.752a2.44,2.44,0,0,0,2.649,2.709,5.37,5.37,0,0,0,1.768-.247.781.781,0,0,0,.664-.857V500.5c-.471.085-.959.169-1.436.247"
          transform="translate(-682.833 -492.492)" fill="#27292d"/>
    <path id="Path_3994" data-name="Path 3994"
          d="M822.109,544.566l-.084.024-.3.078a3.145,3.145,0,0,1-.73.115c-.465,0-.742-.229-.742-.622,0-.253.115-.682.875-.682h.984Zm-.694-4.266a6.678,6.678,0,0,0-2.016.35l-.507.151.169,1.147.495-.163a5.819,5.819,0,0,1,1.647-.278c.217,0,.881,0,.881.718v.314h-.923c-1.684,0-2.462.537-2.462,1.69,0,.984.718,1.575,1.925,1.575a6.222,6.222,0,0,0,1.34-.181l.024-.006.024.006.151.024c.471.085.959.169,1.436.26V542.14c0-1.219-.736-1.841-2.185-1.841"
          transform="translate(-775.577 -529.89)" fill="#27292d"/>
    <path id="Path_3995" data-name="Path 3995"
          d="M627.809,544.566l-.084.024-.3.078a3.1,3.1,0,0,1-.73.115c-.465,0-.742-.229-.742-.622,0-.253.115-.682.869-.682h.984v1.086Zm-.688-4.266a6.647,6.647,0,0,0-2.016.35l-.507.151.169,1.147.495-.163a5.817,5.817,0,0,1,1.647-.278c.217,0,.881,0,.881.718v.314h-.923c-1.684,0-2.468.537-2.468,1.69,0,.984.718,1.575,1.931,1.575a6.221,6.221,0,0,0,1.34-.181l.024-.006.024.006.145.024c.477.084.959.169,1.436.266v-3.766c.006-1.231-.73-1.846-2.178-1.846"
          transform="translate(-593.002 -529.891)" fill="#27292d"/>
    <path id="Path_3996" data-name="Path 3996"
          d="M487.46,540.406a4.073,4.073,0,0,0-1.635.362l-.06.03-.054-.042a2.476,2.476,0,0,0-1.466-.356,6,6,0,0,0-1.732.26c-.513.157-.712.4-.712.869v4.3h1.605v-3.977l.078-.024a2.044,2.044,0,0,1,.706-.127.635.635,0,0,1,.7.73v3.4h1.581v-3.47a1.168,1.168,0,0,0-.048-.35l-.054-.1.109-.048a1.9,1.9,0,0,1,.785-.163.639.639,0,0,1,.7.73v3.4h1.575v-3.56c0-1.261-.676-1.871-2.076-1.871"
          transform="translate(-459.008 -529.984)" fill="#27292d"/>
    <path id="Path_3997" data-name="Path 3997"
          d="M695.295,372.217a5.477,5.477,0,0,1-.935-.084l-.09-.018v-2.323a1.135,1.135,0,0,0-.042-.332l-.048-.1.1-.042c.024-.012.048-.018.078-.03l.018-.012.109-.036a.154.154,0,0,1,.042-.012,3.747,3.747,0,0,1,.827-.1h.006c.984,0,1.1.875,1.1,1.533-.006,1.279-.64,1.551-1.165,1.551m-.006-4.417h-.042a2.843,2.843,0,0,0-2.209.748,1.51,1.51,0,0,0-.29.9h0v2.4a.708.708,0,0,1-.048.3l-.054.1h-2.915v-1.666h-.006a2.483,2.483,0,0,0-2.577-2.722h-1.466c-.06.428-.109.73-.169,1.159h1.46c.766,0,1.171.652,1.171,1.653v1.678l-.1-.054a1.109,1.109,0,0,0-.344-.048h-2.522c-.048.32-.109.736-.175,1.153h7.754c.266-.054.573-.1.839-.145a4.368,4.368,0,0,0,1.623.3,2.879,2.879,0,0,0,.072-5.751"
          transform="translate(-649.946 -367.8)" fill="#27292d"/>
    <path id="Path_3998" data-name="Path 3998"
          d="M490.755,375.14h.072c1.684,0,2.468-.555,2.468-1.925a1.763,1.763,0,0,0-1.925-1.768H489.82a.668.668,0,0,1-.742-.712c0-.3.115-.676.875-.676h3.391c.072-.441.109-.718.175-1.159h-3.524c-1.641,0-2.468.688-2.468,1.834s.718,1.726,1.925,1.726H491a.732.732,0,0,1,.742.754.758.758,0,0,1-.869.778h-.259l-4.966-.012h-.905c-.766,0-1.3-.434-1.3-1.442v-.694c0-1.05.416-1.7,1.3-1.7h1.472c.066-.447.109-.73.169-1.153h-2.01a2.518,2.518,0,0,0-2.577,2.764h0v.784a2.382,2.382,0,0,0,2.577,2.595h1.466l2.691.006h2.221Z"
          transform="translate(-459.008 -368.834)" fill="#27292d"/>
</svg>
