<svg id="Mastercard-01" xmlns="http://www.w3.org/2000/svg" width="25.788" height="20.027" viewBox="0 0 25.788 20.027">
    <path id="XMLID_1775_"
          d="M247.384,658.169v-1.331a.777.777,0,0,0-.839-.839.863.863,0,0,0-.753.379.777.777,0,0,0-.708-.379.712.712,0,0,0-.618.311v-.266H244v2.125h.465V657c0-.379.2-.555.51-.555s.465.2.465.555v1.173h.456V657a.49.49,0,0,1,.51-.555c.311,0,.465.2.465.555v1.173Zm6.889-2.129h-.753V655.4h-.465v.641h-.42v.42h.42v.974c0,.487.2.776.731.776a1.292,1.292,0,0,0,.577-.153l-.135-.4a.768.768,0,0,1-.4.113c-.221,0-.311-.135-.311-.352v-.952h.753l0-.424Zm3.943-.045a.632.632,0,0,0-.555.311v-.266H257.2v2.125h.465v-1.2c0-.352.153-.555.442-.555a1.321,1.321,0,0,1,.289.045l.135-.442a1.446,1.446,0,0,0-.311-.023Zm-5.96.221a1.537,1.537,0,0,0-.866-.221c-.532,0-.884.266-.884.686,0,.352.266.555.731.618l.221.023c.244.045.379.113.379.221,0,.153-.176.266-.487.266a1.231,1.231,0,0,1-.708-.221l-.221.352a1.578,1.578,0,0,0,.907.266c.618,0,.975-.289.975-.686,0-.379-.289-.577-.731-.641l-.221-.023c-.2-.023-.352-.068-.352-.2,0-.153.153-.244.4-.244a1.677,1.677,0,0,1,.668.176l.189-.375Zm12.362-.221a.632.632,0,0,0-.555.311v-.266H263.6v2.125h.465v-1.2c0-.352.153-.555.442-.555a1.32,1.32,0,0,1,.289.045l.135-.438a1.211,1.211,0,0,0-.311-.027Zm-5.937,1.11a1.063,1.063,0,0,0,1.132,1.105,1.106,1.106,0,0,0,.753-.244l-.221-.379a.873.873,0,0,1-.555.2.626.626,0,0,1-.641-.686.649.649,0,0,1,.641-.686.909.909,0,0,1,.555.2l.221-.379a1.106,1.106,0,0,0-.753-.244,1.075,1.075,0,0,0-1.132,1.114Zm4.3,0v-1.065h-.465v.266a.806.806,0,0,0-.668-.311,1.106,1.106,0,0,0,0,2.211.755.755,0,0,0,.668-.311v.266h.465V657.1Zm-1.705,0a.642.642,0,1,1,1.281,0,.642.642,0,1,1-1.281,0Zm-5.563-1.11a1.106,1.106,0,0,0,.023,2.211,1.347,1.347,0,0,0,.866-.289l-.221-.334a1.044,1.044,0,0,1-.618.221.6.6,0,0,1-.641-.51h1.57v-.176a.982.982,0,0,0-.979-1.123Zm0,.4a.518.518,0,0,1,.532.51h-1.105a.56.56,0,0,1,.573-.51Zm11.545.708v-1.9h-.465v1.105a.806.806,0,0,0-.668-.311,1.106,1.106,0,0,0,0,2.211.755.755,0,0,0,.668-.311v.266h.465V657.1Zm-1.71,0a.642.642,0,1,1,1.281,0,.642.642,0,1,1-1.281,0ZM250,657.1v-1.065h-.465v.266a.806.806,0,0,0-.668-.311,1.106,1.106,0,0,0,0,2.211.755.755,0,0,0,.668-.311v.266H250V657.1Zm-1.723,0a.642.642,0,1,1,1.281,0,.642.642,0,1,1-1.281,0Z"
          transform="translate(-242.71 -638.182)"/>
    <g id="Group_3966" data-name="Group 3966" transform="translate(0 0)">
        <rect id="rect19" width="6.979" height="12.538" transform="translate(9.393 1.71)" fill="#eb662b"/>
        <path id="XMLID_330_"
              d="M225.258,285.977a7.992,7.992,0,0,1,3.036-6.271,7.977,7.977,0,1,0,0,12.542A7.965,7.965,0,0,1,225.258,285.977Z"
              transform="translate(-215.4 -278)" fill="#d72e2b"/>
        <path id="path22"
              d="M514.094,285.977a7.968,7.968,0,0,1-12.894,6.271,7.994,7.994,0,0,0,0-12.542A7.906,7.906,0,0,1,506.118,278,7.988,7.988,0,0,1,514.094,285.977Z"
              transform="translate(-488.306 -278)" fill="#e9a140"/>
    </g>
</svg>
