<svg width="240" height="24" viewBox="0 0 240 24" fill="none" xmlns="http://www.w3.org/2000/svg">
<path d="M36.6357 23.9481V22.3533C36.647 22.2185 36.6287 22.0827 36.5822 21.9556C36.5356 21.8286 36.462 21.7132 36.3663 21.6175C36.2706 21.5218 36.1552 21.4481 36.0281 21.4016C35.901 21.3551 35.7653 21.3368 35.6304 21.3481C35.4538 21.3403 35.2781 21.378 35.1201 21.4575C34.9621 21.537 34.8272 21.6556 34.7282 21.8021C34.6416 21.6564 34.5168 21.5371 34.3673 21.457C34.2177 21.377 34.0492 21.3393 33.8799 21.3481C33.735 21.3421 33.5909 21.3732 33.4613 21.4384C33.3318 21.5036 33.221 21.6007 33.1394 21.7207V21.402H32.5811V23.9481H33.1382V22.5474C33.1382 22.0933 33.3779 21.8824 33.7493 21.8824C34.1207 21.8824 34.3064 22.1221 34.3064 22.5474V23.9529H34.8528V22.5474C34.8413 22.462 34.8487 22.3751 34.8745 22.2928C34.9004 22.2106 34.944 22.135 35.0023 22.0716C35.0607 22.0081 35.1323 21.9582 35.212 21.9255C35.2918 21.8928 35.3778 21.8781 35.4639 21.8824C35.8365 21.8824 36.021 22.1221 36.021 22.5474V23.9529L36.6357 23.9481ZM44.89 21.3971H43.9878V20.6304H43.4306V21.3984H42.9274V21.9016H43.4306V23.0686C43.4306 23.6521 43.6702 23.9984 44.3065 23.9984C44.5481 23.9921 44.7849 23.9293 44.9978 23.8151L44.8361 23.3358C44.6918 23.4242 44.526 23.471 44.3568 23.4712C44.092 23.4712 43.9842 23.3095 43.9842 23.0495V21.9088H44.8864V21.4008L44.89 21.3971ZM49.6144 21.3432C49.4805 21.341 49.3484 21.3743 49.2316 21.4398C49.1148 21.5052 49.0174 21.6006 48.9495 21.7159V21.3971H48.3971V23.9433H48.9542V22.5055C48.9542 22.0838 49.1375 21.8405 49.4838 21.8405C49.6009 21.8456 49.717 21.8637 49.8301 21.8944L49.9919 21.3648C49.869 21.3422 49.7441 21.333 49.6192 21.3372L49.6144 21.3432ZM42.4733 21.608C42.1612 21.4189 41.8001 21.3268 41.4356 21.3432C40.7982 21.3432 40.3764 21.662 40.3764 22.1652C40.3764 22.587 40.6952 22.8302 41.2523 22.9057L41.5171 22.9333C41.8095 22.9872 41.9712 23.0687 41.9712 23.1981C41.9712 23.3814 41.7603 23.5168 41.3877 23.5168C41.0844 23.5178 40.7882 23.4253 40.5394 23.252L40.2746 23.6737C40.5958 23.8885 40.975 23.9997 41.3613 23.9924C42.1018 23.9924 42.5296 23.6462 42.5296 23.1705C42.5296 22.7164 42.1833 22.4792 41.6537 22.4025L41.3889 22.3749C41.1493 22.3473 40.9671 22.2934 40.9671 22.1353C40.9671 21.9519 41.1505 21.8429 41.4464 21.8429C41.725 21.8569 41.9975 21.9287 42.2468 22.0538L42.4733 21.6045V21.608ZM57.2852 21.3432C57.1513 21.341 57.0192 21.3743 56.9024 21.4398C56.7856 21.5052 56.6882 21.6006 56.6202 21.7159V21.3971H56.0655V23.9433H56.6226V22.5055C56.6226 22.0838 56.8059 21.8405 57.1522 21.8405C57.2693 21.8455 57.3854 21.8637 57.4985 21.8944L57.6602 21.3696C57.5379 21.3428 57.4127 21.3319 57.2876 21.3372L57.2852 21.3432ZM50.1716 22.6732C50.1641 22.8518 50.1944 23.0301 50.2603 23.1962C50.3263 23.3624 50.4265 23.5128 50.5545 23.6377C50.6824 23.7626 50.8352 23.8592 51.0029 23.9211C51.1707 23.9831 51.3495 24.009 51.5279 23.9972C51.8544 24.0144 52.1758 23.9103 52.4302 23.7049L52.1654 23.2507C51.9782 23.4053 51.7431 23.4901 51.5004 23.4904C51.394 23.4934 51.2882 23.4738 51.19 23.4328C51.0919 23.3918 51.0035 23.3304 50.9309 23.2527C50.8582 23.175 50.803 23.0827 50.7687 22.982C50.7345 22.8812 50.7221 22.7744 50.7323 22.6685C50.7263 22.5635 50.7417 22.4584 50.7775 22.3595C50.8133 22.2606 50.8687 22.17 50.9405 22.0931C51.0123 22.0163 51.0989 21.9548 51.1952 21.9124C51.2914 21.87 51.3952 21.8476 51.5004 21.8465C51.7425 21.8502 51.9765 21.9345 52.1654 22.0861L52.4302 21.632C52.1758 21.4266 51.8544 21.3225 51.5279 21.3397C51.3491 21.33 51.1703 21.3578 51.0028 21.4212C50.8353 21.4846 50.6829 21.5822 50.5553 21.7078C50.4276 21.8334 50.3276 21.9842 50.2615 22.1507C50.1955 22.3171 50.1648 22.4955 50.1716 22.6744V22.6732ZM55.3238 22.6732V21.3971H54.7666V21.7159C54.6724 21.5946 54.5507 21.4976 54.4115 21.4328C54.2723 21.3679 54.1196 21.3373 53.9662 21.3432C53.6218 21.3536 53.295 21.4977 53.055 21.7449C52.8151 21.9922 52.6809 22.3233 52.6809 22.6679C52.6809 23.0124 52.8151 23.3434 53.055 23.5907C53.295 23.838 53.6218 23.9821 53.9662 23.9924C54.1204 24.0039 54.2748 23.9756 54.415 23.9104C54.5551 23.8451 54.6761 23.7451 54.7666 23.6198V23.9385H55.3238V22.6672V22.6732ZM53.2809 22.6732C53.2737 22.568 53.2882 22.4625 53.3235 22.3631C53.3588 22.2638 53.4141 22.1728 53.4861 22.0957C53.5581 22.0186 53.6451 21.9571 53.7418 21.9151C53.8385 21.8731 53.9429 21.8514 54.0483 21.8514C54.1538 21.8514 54.2581 21.8731 54.3548 21.9151C54.4515 21.9571 54.5385 22.0186 54.6105 22.0957C54.6825 22.1728 54.7378 22.2638 54.7732 22.3631C54.8085 22.4625 54.823 22.568 54.8158 22.6732C54.823 22.7784 54.8085 22.884 54.7732 22.9834C54.7378 23.0827 54.6825 23.1737 54.6105 23.2508C54.5385 23.3279 54.4515 23.3893 54.3548 23.4314C54.2581 23.4734 54.1538 23.495 54.0483 23.495C53.9429 23.495 53.8385 23.4734 53.7418 23.4314C53.6451 23.3893 53.5581 23.3279 53.4861 23.2508C53.4141 23.1737 53.3588 23.0827 53.3235 22.9834C53.2882 22.884 53.2737 22.7784 53.2809 22.6732ZM46.6154 21.3432C46.2706 21.3566 45.9447 21.5038 45.7068 21.7537C45.4689 22.0035 45.3378 22.3363 45.3414 22.6812C45.345 23.0262 45.483 23.3562 45.726 23.601C45.9691 23.8459 46.298 23.9863 46.6429 23.9924C47.0186 24.0013 47.3855 23.8788 47.6805 23.6461L47.4158 23.246C47.2038 23.4115 46.9442 23.5044 46.6753 23.5108C46.4937 23.5252 46.3133 23.4701 46.1708 23.3567C46.0282 23.2433 45.934 23.0799 45.9072 22.8997H47.7884V22.6888C47.8127 22.521 47.8006 22.35 47.7527 22.1874C47.7048 22.0248 47.6223 21.8744 47.5109 21.7466C47.3995 21.6188 47.2618 21.5166 47.1072 21.447C46.9527 21.3774 46.7849 21.342 46.6154 21.3432ZM46.6154 21.8225C46.6975 21.8203 46.7792 21.8344 46.8558 21.864C46.9325 21.8936 47.0025 21.9381 47.0617 21.9949C47.121 22.0518 47.1684 22.1198 47.2012 22.1951C47.234 22.2704 47.2516 22.3515 47.2528 22.4336H45.9288C45.944 22.2635 46.0235 22.1056 46.151 21.9921C46.2786 21.8785 46.4447 21.8179 46.6154 21.8225ZM60.4484 22.6709V20.3943H59.8912V21.7183C59.7971 21.597 59.6753 21.5 59.5361 21.4352C59.3969 21.3704 59.2443 21.3397 59.0909 21.3457C58.7465 21.356 58.4196 21.5001 58.1797 21.7474C57.9397 21.9946 57.8055 22.3256 57.8055 22.6702C57.8055 23.0148 57.9397 23.3458 58.1797 23.5931C58.4196 23.8404 58.7465 23.9845 59.0909 23.9948C59.245 24.0063 59.3995 23.978 59.5396 23.9128C59.6797 23.8475 59.8008 23.7475 59.8912 23.6222V23.9409H60.4484V22.6672V22.6709ZM58.3995 22.6709C58.3923 22.5657 58.4068 22.4601 58.4421 22.3607C58.4774 22.2614 58.5328 22.1703 58.6048 22.0933C58.6767 22.0162 58.7637 21.9547 58.8605 21.9127C58.9572 21.8707 59.0615 21.849 59.167 21.849C59.2724 21.849 59.3767 21.8707 59.4734 21.9127C59.5701 21.9547 59.6572 22.0162 59.7292 22.0933C59.8011 22.1703 59.8565 22.2614 59.8918 22.3607C59.9271 22.4601 59.9416 22.5657 59.9344 22.6709C59.9416 22.7761 59.9271 22.8816 59.8918 22.9809C59.8565 23.0803 59.8011 23.1713 59.7292 23.2484C59.6572 23.3254 59.5701 23.3869 59.4734 23.4289C59.3767 23.471 59.2724 23.4926 59.167 23.4926C59.0615 23.4926 58.9572 23.471 58.8605 23.4289C58.7637 23.3869 58.6767 23.3254 58.6048 23.2484C58.5328 23.1713 58.4774 23.0803 58.4421 22.9809C58.4068 22.8816 58.3923 22.7761 58.3995 22.6709ZM39.7702 22.6672V21.3911H39.213V21.7099C39.1188 21.5887 38.9971 21.4916 38.8579 21.4268C38.7187 21.3619 38.566 21.3313 38.4126 21.3372C38.0682 21.3476 37.7414 21.4917 37.5014 21.739C37.2615 21.9862 37.1273 22.3173 37.1273 22.6619C37.1273 23.0064 37.2615 23.3374 37.5014 23.5847C37.7414 23.832 38.0682 23.9761 38.4126 23.9864C38.5668 23.9979 38.7212 23.9696 38.8614 23.9044C39.0015 23.8391 39.1225 23.7391 39.213 23.6138V23.9325H39.7702V22.6672ZM37.7057 22.6672C37.6985 22.562 37.713 22.4565 37.7483 22.3571C37.7836 22.2578 37.839 22.1668 37.9109 22.0897C37.9829 22.0126 38.0699 21.9511 38.1666 21.9091C38.2634 21.8671 38.3677 21.8454 38.4731 21.8454C38.5786 21.8454 38.6829 21.8671 38.7796 21.9091C38.8763 21.9511 38.9634 22.0126 39.0353 22.0897C39.1073 22.1668 39.1627 22.2578 39.198 22.3571C39.2333 22.4565 39.2478 22.562 39.2406 22.6672C39.2478 22.7724 39.2333 22.878 39.198 22.9774C39.1627 23.0767 39.1073 23.1677 39.0353 23.2448C38.9634 23.3219 38.8763 23.3833 38.7796 23.4254C38.6829 23.4674 38.5786 23.4891 38.4731 23.4891C38.3677 23.4891 38.2634 23.4674 38.1666 23.4254C38.0699 23.3833 37.9829 23.3219 37.9109 23.2448C37.839 23.1677 37.7836 23.0767 37.7483 22.9774C37.713 22.878 37.6985 22.7724 37.7057 22.6672Z" fill="black"/>
<path d="M50.6522 2.04889H42.29V17.0717H50.6522V2.04889Z" fill="#EB662B"/>
<path d="M42.8471 9.5579C42.8468 8.11211 43.174 6.68506 43.804 5.38375C44.434 4.08244 45.3505 2.94066 46.4848 2.0441C45.0748 0.935612 43.3814 0.246208 41.5982 0.0546689C39.8149 -0.13687 38.0138 0.177179 36.4006 0.960949C34.7874 1.74472 33.4273 2.96657 32.4757 4.48683C31.5242 6.00708 31.0195 7.7644 31.0195 9.5579C31.0195 11.3514 31.5242 13.1088 32.4757 14.629C33.4273 16.1493 34.7874 17.3711 36.4006 18.1549C38.0138 18.9386 39.8149 19.2527 41.5982 19.0612C43.3814 18.8696 45.0748 18.1802 46.4848 17.0717C45.3487 16.1768 44.4309 15.0353 43.8008 13.7337C43.1706 12.432 42.8445 11.0041 42.8471 9.5579Z" fill="#D72E2B"/>
<path d="M61.9342 9.55791C61.936 11.3504 61.4332 13.1072 60.4833 14.6273C59.5333 16.1473 58.1746 17.3693 56.5627 18.1532C54.9507 18.9372 53.1506 19.2516 51.3684 19.0603C49.5861 18.869 47.8938 18.1799 46.4849 17.0717C47.619 16.1751 48.5355 15.0333 49.1656 13.732C49.7956 12.4307 50.1229 11.0037 50.1229 9.55791C50.1229 8.11211 49.7956 6.68508 49.1656 5.38379C48.5355 4.08251 47.619 2.94075 46.4849 2.0441C48.162 0.717089 50.2389 -0.00334143 52.3775 1.16519e-05C54.9112 0.00381542 57.3399 1.01205 59.1314 2.80372C60.9228 4.59539 61.9307 7.02427 61.9342 9.55791Z" fill="#E9A140"/>
<path d="M99.5067 2.7528L91.7185 21.3402H86.6394L82.8124 6.51149C82.7776 6.16527 82.6548 5.83372 82.4555 5.54846C82.2562 5.2632 81.9872 5.03376 81.6741 4.88198C80.1663 4.15921 78.5739 3.62827 76.9341 3.30158L77.0539 2.75159H85.2291C85.7622 2.75361 86.2772 2.94534 86.6818 3.29244C87.0864 3.63954 87.3542 4.11933 87.4373 4.64591L89.4587 15.402L94.4743 2.76117H99.5067V2.7528ZM119.419 15.275C119.438 10.3624 112.638 10.1024 112.687 7.90497C112.696 7.23759 113.335 6.53067 114.724 6.34735C116.349 6.18954 117.987 6.47437 119.464 7.17169L120.302 3.22607C118.866 2.68465 117.343 2.40546 115.808 2.40173C111.058 2.40173 107.712 4.92389 107.682 8.5448C107.652 11.2144 110.066 12.7157 111.892 13.5988C113.766 14.5118 114.395 15.0905 114.384 15.9052C114.375 17.1514 112.893 17.7025 111.509 17.7205C109.79 17.7568 108.09 17.3512 106.572 16.5427L105.699 20.6165C107.405 21.2749 109.219 21.6078 111.048 21.5978C116.08 21.6374 119.38 19.1344 119.41 15.2774M131.962 21.333H136.407L132.531 2.75518H128.419C127.978 2.75093 127.547 2.87988 127.181 3.12511C126.815 3.37035 126.531 3.72043 126.368 4.1295L119.154 21.3342H124.199L125.199 18.5568H131.372L131.962 21.333ZM126.594 14.7574L129.126 7.77919L130.578 14.7574H126.594ZM106.367 2.75518L102.401 21.3306H97.592L101.566 2.7528L106.367 2.75518Z" fill="#1C32C2"/>
<path d="M175.759 13.4822H151.407V21.5951H175.759V13.4822Z" fill="#84B740"/>
<path d="M175.759 2.41217H151.407V10.5323H175.759V2.41217Z" fill="#259BD6"/>
<path d="M200.112 19.9464L200.005 19.968C199.746 20.0309 199.482 20.0647 199.216 20.0686C198.58 20.0686 197.827 19.7427 197.827 18.2103C197.827 17.4219 197.958 16.3735 199.145 16.3735H199.153C199.448 16.3928 199.739 16.4487 200.02 16.54L200.113 16.5688L200.112 19.9464ZM200.308 12.3044L200.112 12.3404V15.1753L199.939 15.1249L199.888 15.1106C199.539 14.9986 199.176 14.9354 198.81 14.9225C196.439 14.9225 195.934 16.7197 195.934 18.2198C195.884 18.6519 195.932 19.0897 196.073 19.5012C196.213 19.9127 196.444 20.2876 196.748 20.5986C197.052 20.9096 197.422 21.1488 197.83 21.2988C198.239 21.4488 198.675 21.5059 199.108 21.4657C199.826 21.486 200.542 21.3859 201.227 21.1698C201.466 21.1349 201.683 21.0084 201.832 20.8169C201.98 20.6254 202.048 20.3838 202.022 20.1429V12.0073C201.458 12.1091 200.873 12.2098 200.302 12.3032" fill="#27292D"/>
<path d="M207.161 19.9967L207.06 20.0255L206.701 20.119C206.416 20.1991 206.122 20.2454 205.826 20.2568C205.269 20.2568 204.937 19.9824 204.937 19.5115C204.937 19.2083 205.075 18.6943 205.986 18.6943H207.165L207.161 19.9967ZM206.329 14.8853C205.508 14.9001 204.693 15.0416 203.914 15.3047L203.307 15.4856L203.509 16.8599L204.102 16.6645C204.74 16.4592 205.405 16.3471 206.075 16.3315C206.335 16.3315 207.131 16.3315 207.131 17.1918V17.568H206.025C204.007 17.568 203.075 18.2114 203.075 19.5929C203.075 20.772 203.936 21.4801 205.382 21.4801C205.923 21.4664 206.462 21.3936 206.987 21.2632L207.016 21.256L207.045 21.2632L207.226 21.2919C207.79 21.3938 208.375 21.4944 208.946 21.6035V17.09C208.946 15.6294 208.064 14.8841 206.328 14.8841" fill="#27292D"/>
<path d="M193.112 19.9955L193.012 20.0243L192.652 20.1178C192.367 20.1985 192.073 20.2447 191.777 20.2556C191.22 20.2556 190.888 19.9812 190.888 19.5103C190.888 19.2072 191.026 18.6931 191.93 18.6931H193.109V19.9944L193.112 19.9955ZM192.288 14.8841C191.466 14.8984 190.651 15.0399 189.872 15.3035L189.265 15.4844L189.467 16.8587L190.06 16.6634C190.699 16.458 191.363 16.3459 192.034 16.3303C192.294 16.3303 193.089 16.3303 193.089 17.1906V17.5668H191.984C189.966 17.5668 189.026 18.2103 189.026 19.5918C189.026 20.7708 189.887 21.4789 191.34 21.4789C191.882 21.4652 192.42 21.3924 192.946 21.262L192.974 21.2549L193.003 21.262L193.177 21.2908C193.748 21.3914 194.326 21.4933 194.897 21.6095V17.0971C194.905 15.6222 194.023 14.8853 192.288 14.8853" fill="#27292D"/>
<path d="M185.498 14.8997C184.822 14.9071 184.155 15.0548 183.539 15.3335L183.467 15.3694L183.402 15.3191C182.875 14.9976 182.261 14.8486 181.646 14.8926C180.942 14.8943 180.243 14.9992 179.57 15.204C178.956 15.3921 178.717 15.6833 178.717 16.2453V21.3974H180.64V16.6323L180.734 16.6035C181.005 16.5033 181.291 16.4518 181.58 16.4514C181.696 16.4379 181.814 16.4516 181.925 16.4914C182.035 16.5311 182.135 16.5959 182.216 16.6806C182.297 16.7653 182.358 16.8676 182.393 16.9796C182.428 17.0916 182.437 17.2102 182.418 17.3261V21.3999H184.313V17.2422C184.315 17.1003 184.296 16.9589 184.255 16.8228L184.191 16.703L184.321 16.6454C184.617 16.5142 184.938 16.4476 185.262 16.4502C185.378 16.4377 185.496 16.4521 185.606 16.4922C185.716 16.5323 185.815 16.5971 185.896 16.6816C185.977 16.766 186.037 16.8679 186.073 16.9794C186.108 17.091 186.118 17.2091 186.101 17.3248V21.3987H187.988V17.1332C187.988 15.6222 187.178 14.8913 185.5 14.8913" fill="#27292D"/>
<path d="M205.744 7.7046C205.368 7.70317 204.993 7.66948 204.624 7.60393L204.516 7.58236V4.79898C204.519 4.66462 204.502 4.53057 204.465 4.40118L204.408 4.28136L204.528 4.23104C204.556 4.21667 204.585 4.20948 204.621 4.1951L204.643 4.18073L204.773 4.13758C204.789 4.13042 204.806 4.12559 204.824 4.12321C205.148 4.04657 205.481 4.00637 205.815 4.00339H205.822C207.001 4.00339 207.14 5.05182 207.14 5.84023C207.133 7.3727 206.373 7.6986 205.744 7.6986M205.737 2.40624H205.686C205.207 2.36 204.723 2.41596 204.267 2.57045C203.811 2.72494 203.392 2.97443 203.04 3.30246C202.811 3.61544 202.689 3.99343 202.692 4.38082V7.25645C202.699 7.37902 202.68 7.50168 202.635 7.61593L202.57 7.73575H199.077V5.73956H199.07C199.111 5.31582 199.061 4.88816 198.923 4.48543C198.785 4.0827 198.562 3.71431 198.269 3.40514C197.977 3.09596 197.621 2.8532 197.226 2.69328C196.832 2.53335 196.408 2.45999 195.982 2.47812H194.226C194.154 2.99095 194.095 3.35279 194.023 3.86681H195.773C196.69 3.86681 197.176 4.64801 197.176 5.84739V7.85796L197.056 7.79323C196.922 7.75253 196.783 7.73316 196.644 7.73575H193.622C193.564 8.11917 193.491 8.6176 193.412 9.11724H202.703C203.022 9.05254 203.389 8.99743 203.708 8.94352C204.328 9.18583 204.988 9.30781 205.653 9.30296C206.539 9.27178 207.379 8.90079 207.998 8.26694C208.618 7.6331 208.97 6.78503 208.981 5.89869C208.992 5.01236 208.661 4.15577 208.058 3.50661C207.454 2.85744 206.624 2.46554 205.739 2.4122" fill="#27292D"/>
<path d="M189.446 9.96796H189.532C191.55 9.96796 192.49 9.30295 192.49 7.66144C192.492 7.36641 192.432 7.07421 192.314 6.80368C192.196 6.53315 192.023 6.29029 191.806 6.09072C191.589 5.89115 191.332 5.73931 191.053 5.64499C190.773 5.55066 190.477 5.51592 190.183 5.54304H188.326C188.209 5.55638 188.091 5.54381 187.979 5.50618C187.868 5.46855 187.766 5.40679 187.681 5.32533C187.596 5.24387 187.53 5.14471 187.488 5.03489C187.446 4.92506 187.428 4.80727 187.437 4.68993C187.437 4.33047 187.575 3.87996 188.485 3.87996H192.548C192.634 3.35156 192.679 3.01967 192.758 2.49127H188.535C186.569 2.49127 185.578 3.31564 185.578 4.68876C185.578 6.06188 186.439 6.7568 187.885 6.7568H189.74C189.858 6.75513 189.976 6.77748 190.085 6.82247C190.195 6.86747 190.294 6.93419 190.377 7.01861C190.46 7.10304 190.525 7.20342 190.569 7.3137C190.612 7.42397 190.632 7.54184 190.629 7.66023C190.634 7.79356 190.609 7.92634 190.557 8.04914C190.505 8.17194 190.426 8.28174 190.327 8.37074C190.228 8.45973 190.11 8.52575 189.982 8.56406C189.854 8.60237 189.719 8.61206 189.587 8.59243H189.277L183.327 8.57806H182.243C181.325 8.57806 180.685 8.05803 180.685 6.85026V6.01872C180.685 4.76063 181.183 3.98183 182.243 3.98183H184.006C184.085 3.44625 184.137 3.10714 184.209 2.60031H181.801C181.372 2.58821 180.946 2.66743 180.551 2.83269C180.156 2.99794 179.801 3.24544 179.509 3.55873C179.216 3.87203 178.994 4.24393 178.857 4.64971C178.72 5.05548 178.671 5.48582 178.713 5.9121V6.85147C178.674 7.26763 178.727 7.68729 178.868 8.08073C179.009 8.47418 179.235 8.83183 179.529 9.12841C179.824 9.425 180.18 9.65326 180.572 9.79709C180.965 9.94092 181.384 9.99679 181.801 9.96076H183.557L186.781 9.96796H189.443H189.446Z" fill="#27292D"/>
</svg>
