<svg width="38" height="24" viewBox="0 0 38 24" fill="none" xmlns="http://www.w3.org/2000/svg">
<path d="M34.6507 0.00238037H3.49272C3.38486 0.00238037 3.27701 0.00238037 3.16915 0.00238037C2.93304 0.00544899 2.69749 0.0262798 2.46451 0.0646962C2.2315 0.104538 2.00573 0.178854 1.79461 0.285199C1.37038 0.501174 1.02552 0.846041 0.80954 1.27027C0.703029 1.48132 0.628705 1.70712 0.589037 1.94016C0.54772 2.17532 0.524484 2.4133 0.519531 2.652C0.519531 2.75986 0.519531 2.86771 0.519531 2.97557C0.519531 3.10379 0.519531 3.23202 0.519531 3.36025V20.6457C0.519531 20.7739 0.519531 20.9022 0.519531 21.0304C0.519531 21.1382 0.519531 21.2461 0.519531 21.354C0.522472 21.5901 0.543304 21.8256 0.581847 22.0586C0.621515 22.2917 0.695839 22.5175 0.802349 22.7285C1.01833 23.1527 1.36319 23.4976 1.78742 23.7136C1.99841 23.8205 2.22421 23.8952 2.45732 23.9353C2.69032 23.9736 2.92586 23.9944 3.16196 23.9976H3.48553H35.0329H35.3577C35.5938 23.9943 35.8293 23.9735 36.0623 23.9353C36.2954 23.8952 36.5212 23.8204 36.7322 23.7136C37.1565 23.4976 37.5013 23.1527 37.7173 22.7285C37.824 22.5175 37.8984 22.2917 37.9378 22.0586C37.9764 21.8256 37.9972 21.5901 38.0001 21.354C38.0001 21.2461 38.0001 21.1382 38.0001 21.0304C38.0001 20.9022 38.0001 20.7739 38.0001 20.6457V3.35785C38.0001 3.22962 38.0001 3.1014 38.0001 2.97317C38.0001 2.86532 38.0001 2.75746 38.0001 2.64961C37.9972 2.41349 37.9764 2.17793 37.9378 1.94496C37.8983 1.71186 37.824 1.48603 37.7173 1.27506C37.5018 0.851645 37.1578 0.507261 36.7346 0.29119C36.5235 0.184862 36.2977 0.110548 36.0647 0.0706882C35.8319 0.0303127 35.5964 0.00747928 35.3601 0.00238037C35.2522 0.00238037 35.1444 0.00238037 35.0353 0.00238037H34.6507Z" fill="black"/>
<path d="M34.6505 0.802917H35.0292C35.1323 0.802917 35.2341 0.802917 35.3372 0.802917C35.5331 0.80495 35.7285 0.821372 35.922 0.852051C36.0783 0.878352 36.2298 0.928042 36.3714 0.999452C36.6451 1.13905 36.8675 1.36184 37.0065 1.63579C37.0778 1.77728 37.1271 1.92883 37.1527 2.08519C37.1835 2.27865 37.1999 2.47412 37.2019 2.67C37.2019 2.77186 37.2019 2.87372 37.2019 2.97798C37.2019 3.10381 37.2019 3.22964 37.2019 3.35667V20.6457C37.2019 20.7716 37.2019 20.8974 37.2019 21.0268C37.2019 21.1287 37.2019 21.2305 37.2019 21.3324C37.1996 21.5287 37.1828 21.7246 37.1515 21.9184C37.1257 22.0739 37.0764 22.2247 37.0053 22.3654C36.8659 22.6395 36.6431 22.8624 36.369 23.0017C36.2282 23.0727 36.0775 23.122 35.922 23.148C35.7293 23.1787 35.5347 23.1955 35.3396 23.1983H35.0268H3.49498H3.18939C2.99353 23.196 2.79808 23.1796 2.60458 23.1492C2.4482 23.123 2.29669 23.0733 2.15519 23.0017C1.88213 22.8623 1.66022 22.6399 1.52124 22.3666C1.45013 22.225 1.40084 22.0735 1.37504 21.9172C1.34386 21.7242 1.32703 21.5291 1.32471 21.3336C1.32471 21.2305 1.32471 21.1287 1.32471 21.0268V2.98038C1.32471 2.87732 1.32471 2.77545 1.32471 2.67359C1.3263 2.47571 1.34273 2.27822 1.37384 2.08279C1.40018 1.92852 1.44946 1.77907 1.52004 1.63939C1.65933 1.36588 1.88168 1.14353 2.15519 1.00425C2.29491 0.933766 2.44435 0.884491 2.59859 0.858043C2.79245 0.827288 2.98832 0.810866 3.1846 0.808909C3.28766 0.808909 3.38952 0.808909 3.49138 0.808909H34.6493" fill="white"/>
<path d="M10.7539 8.07469C11.1009 7.65823 11.2728 7.12335 11.2332 6.5827C10.6999 6.63344 10.207 6.88852 9.8575 7.29454C9.68369 7.48931 9.55058 7.71687 9.466 7.96383C9.38141 8.21079 9.34706 8.47217 9.36496 8.7326C9.63149 8.73724 9.8955 8.68028 10.1364 8.56617C10.3773 8.45205 10.5886 8.28386 10.7539 8.07469Z" fill="black"/>
<path d="M11.2298 8.83206C10.4641 8.78652 9.81213 9.26707 9.44663 9.26707C9.08112 9.26707 8.52028 8.85483 7.91509 8.86681C7.5216 8.87726 7.13767 8.99036 6.80135 9.19488C6.46503 9.39941 6.18799 9.68827 5.99768 10.0328C5.68668 10.7967 5.57702 11.6275 5.67921 12.4459C5.7814 13.2642 6.09201 14.0426 6.5813 14.7065C6.96957 15.2782 7.43814 15.9049 8.0553 15.8845C8.63892 15.8618 8.86661 15.507 9.57605 15.507C10.2855 15.507 10.4904 15.8845 11.1076 15.8738C11.7475 15.8618 12.1478 15.3021 12.5373 14.7293C12.8132 14.3231 13.0287 13.8791 13.1772 13.4111C12.8093 13.2506 12.4957 12.9869 12.2745 12.6519C12.0534 12.3169 11.934 11.925 11.9309 11.5236C11.9357 11.1673 12.0303 10.8179 12.2061 10.5079C12.3818 10.1978 12.633 9.93715 12.9363 9.75002C12.7426 9.47524 12.4883 9.24875 12.193 9.08811C11.8977 8.92746 11.5693 8.83698 11.2334 8.82367" fill="black"/>
<path d="M17.9003 7.23703C18.276 7.21813 18.6516 7.27822 19.0027 7.41342C19.3538 7.54862 19.6727 7.75593 19.9387 8.02198C20.2048 8.28802 20.4121 8.60688 20.5473 8.95799C20.6825 9.3091 20.7426 9.68465 20.7237 10.0604C20.7394 10.4394 20.6758 10.8175 20.5368 11.1705C20.3978 11.5234 20.1866 11.8435 19.9167 12.11C19.6468 12.3765 19.3242 12.5837 18.9695 12.7182C18.6148 12.8527 18.2359 12.9115 17.8571 12.891H16.0152V15.8127H14.6826V7.23224L17.9003 7.23703ZM16.0152 11.7681H17.5432C17.7754 11.7819 18.0079 11.748 18.2266 11.6687C18.4452 11.5893 18.6453 11.466 18.8146 11.3065C18.9839 11.147 19.1188 10.9545 19.211 10.741C19.3032 10.5274 19.3507 10.2972 19.3507 10.0646C19.3507 9.832 19.3032 9.60185 19.211 9.38828C19.1188 9.17472 18.9839 8.98225 18.8146 8.82272C18.6453 8.66318 18.4452 8.53994 18.2266 8.46056C18.0079 8.38118 17.7754 8.34734 17.5432 8.36111H16.0092L16.0152 11.7681Z" fill="black"/>
<path d="M21.0723 14.0402C21.0723 12.9461 21.9111 12.2738 23.3971 12.1911L25.1096 12.0905V11.6111C25.1096 10.9148 24.6399 10.499 23.8549 10.499C23.5609 10.4616 23.2634 10.5344 23.0199 10.7035C22.7764 10.8726 22.6043 11.1259 22.5367 11.4146H21.3215C21.3934 10.2845 22.3557 9.45282 23.9017 9.45282C25.4176 9.45282 26.3871 10.2557 26.3871 11.5104V15.8246H25.1576V14.7964H25.1276C24.9306 15.1453 24.6435 15.4348 24.2963 15.6347C23.949 15.8345 23.5545 15.9374 23.1539 15.9325C22.89 15.9584 22.6237 15.9288 22.3721 15.8455C22.1204 15.7621 21.889 15.6269 21.6929 15.4486C21.4967 15.2703 21.3401 15.0528 21.2332 14.8102C21.1263 14.5676 21.0715 14.3053 21.0723 14.0402ZM25.1096 13.4758V12.9821L23.5697 13.0767C22.8027 13.1307 22.3713 13.4698 22.3713 14.0043C22.3713 14.5388 22.8231 14.9079 23.5134 14.9079C23.7127 14.921 23.9127 14.8941 24.1015 14.8288C24.2904 14.7636 24.4642 14.6612 24.6129 14.5278C24.7617 14.3944 24.8822 14.2326 24.9675 14.0519C25.0528 13.8713 25.1011 13.6754 25.1096 13.4758Z" fill="black"/>
<path d="M27.551 18.1183V17.0781C27.6886 17.0983 27.8278 17.1063 27.9668 17.1021C28.2308 17.1227 28.4927 17.042 28.6993 16.8764C28.9059 16.7108 29.0416 16.4727 29.0789 16.2105C29.0789 16.1985 29.1916 15.8294 29.1916 15.8234L26.9326 9.56189H28.3239L29.9058 14.6514H29.9298L31.5116 9.56189H32.867L30.523 16.1422C29.9885 17.6582 29.3701 18.1459 28.0735 18.1459C27.899 18.1459 27.7245 18.1367 27.551 18.1183Z" fill="black"/>
</svg>
