<svg width="30" height="34" viewBox="0 0 30 34" fill="none" xmlns="http://www.w3.org/2000/svg">
<g clip-path="url(#clip0_3904_3296)">
<path d="M18.6708 29.9386C18.1354 31.1256 17.7816 32.4138 17.646 33.7647L28.9749 31.3565C29.5103 30.1697 29.8639 28.8812 29.9997 27.5303L18.6708 29.9386Z" fill="#06152B"/>
<path d="M28.975 24.1416C29.5103 22.9549 29.8642 21.6664 29.9998 20.3155L21.1749 22.1924V18.5843L28.9747 16.9268C29.51 15.74 29.8639 14.4516 29.9995 13.1007L21.1746 14.976V2.00017C19.8224 2.75941 18.6215 3.77005 17.6452 4.96216V15.7264L14.1159 16.4766V0.235352C12.7636 0.994332 11.5627 2.00524 10.5865 3.19735V17.2265L2.68955 18.9046C2.1542 20.0913 1.80007 21.3798 1.66423 22.7307L10.5865 20.8346V25.3783L1.02454 27.4103C0.489197 28.597 0.135326 29.8855 -0.000244141 31.2364L10.0085 29.1094C10.8232 28.94 11.5235 28.4583 11.9788 27.7954L13.8143 25.0741V25.0735C14.0049 24.792 14.1159 24.4525 14.1159 24.0869V20.0844L17.6452 19.3342V26.5504L28.9747 24.1411L28.975 24.1416Z" fill="#06152B"/>
</g>
<defs>
<clipPath id="clip0_3904_3296">
<rect width="30" height="33.5294" fill="white" transform="translate(0 0.235321)"/>
</clipPath>
</defs>
</svg>
