<svg width="15" height="16" viewBox="0 0 15 16" fill="none" xmlns="http://www.w3.org/2000/svg">
<g clip-path="url(#clip0_4263_7029)">
<path d="M8.90943 14.1742C8.65397 14.7407 8.4851 15.3554 8.42041 16L13.8265 14.8508C14.082 14.2845 14.2507 13.6697 14.3155 13.025L8.90943 14.1742Z" fill="#300378"/>
<path d="M13.8268 11.4079C14.0822 10.8416 14.2511 10.2268 14.3158 9.58212L10.1046 10.4778V8.75601L13.8267 7.96504C14.0821 7.39872 14.251 6.78388 14.3157 6.13924L10.1045 7.03412V0.842159C9.45923 1.20447 8.88616 1.68674 8.42031 2.2556V7.39223L6.73612 7.7502V0C6.09085 0.362181 5.51778 0.844578 5.05193 1.41345V8.10805L1.28355 8.90882C1.02809 9.47515 0.859096 10.09 0.794276 10.7346L5.05193 9.82981V11.9981L0.48902 12.9677C0.233558 13.534 0.0646933 14.1489 0 14.7935L4.7761 13.7785C5.16489 13.6977 5.49906 13.4678 5.71631 13.1515L6.59222 11.8529V11.8526C6.68315 11.7183 6.73612 11.5563 6.73612 11.3818V9.47184L8.42031 9.11386V12.5574L13.8267 11.4077L13.8268 11.4079Z" fill="#300378"/>
</g>
<defs>
<clipPath id="clip0_4263_7029">
<rect width="14.3158" height="16" fill="white"/>
</clipPath>
</defs>
</svg>
