<svg width="27" height="28" viewBox="0 0 27 28" fill="none" xmlns="http://www.w3.org/2000/svg">
<g clip-path="url(#clip0_3904_6814)">
<path d="M16.5655 24.8049C16.1184 25.7961 15.8229 26.8719 15.7097 28L25.1704 25.9889C25.6174 24.9979 25.9127 23.9219 26.0262 22.7938L16.5655 24.8049Z" fill="white"/>
<path d="M25.1703 19.9639C25.6173 18.9728 25.9128 17.8969 26.0261 16.7687L18.6565 18.3361V15.323L25.17 13.9389C25.6171 12.9478 25.9126 11.8718 26.0258 10.7437L18.6563 12.3097V1.47381C17.527 2.10785 16.5242 2.95182 15.7089 3.94734V12.9364L12.7616 13.5629V3.05176e-05C11.6324 0.633846 10.6295 1.47804 9.81427 2.47356V14.1891L3.2196 15.5905C2.77254 16.5815 2.47681 17.6575 2.36337 18.7856L9.81427 17.2022V20.9966L1.82917 22.6935C1.38212 23.6846 1.0866 24.7605 0.973389 25.8886L9.33156 24.1124C10.012 23.9709 10.5967 23.5687 10.9769 23.0151L12.5098 20.7426V20.7421C12.6689 20.507 12.7616 20.2235 12.7616 19.9182V16.5757L15.7089 15.9493V21.9754L25.17 19.9634L25.1703 19.9639Z" fill="white"/>
</g>
<defs>
<clipPath id="clip0_3904_6814">
<rect width="25.0527" height="28" fill="white" transform="translate(0.973633)"/>
</clipPath>
</defs>
</svg>
