<svg xmlns="http://www.w3.org/2000/svg" width="30.996" height="30" viewBox="0 0 30.996 30">
  <g id="sparkles_icon" transform="translate(151.684 -10.079)">
    <path id="Path_4397" data-name="Path 4397" d="M72.163,62.449c-9.428,1.4-10.332,2.536-11.448,14.37C59.6,64.985,58.7,63.849,49.269,62.449c9.427-1.4,10.332-2.536,11.447-14.37C61.831,59.913,62.736,61.048,72.163,62.449Z" transform="translate(-192.851 -38)" fill="#0266d6"/>
    <path id="Path_4398" data-name="Path 4398" d="M121.937,45.944c-4.374.65-4.792,1.176-5.31,6.666-.517-5.49-.937-6.017-5.31-6.666,4.373-.65,4.793-1.176,5.31-6.666C117.144,44.768,117.563,45.294,121.937,45.944Z" transform="translate(-263 -29.159)" fill="#0266d6"/>
    <path id="Path_4399" data-name="Path 4399" d="M123.768,47.093c-5.128.762-5.619,1.379-6.226,7.815-.607-6.436-1.1-7.054-6.226-7.815,5.127-.762,5.619-1.379,6.226-7.815C118.149,45.714,118.64,46.331,123.768,47.093Z" transform="translate(-261.167 -14.83)" fill="#0266d6"/>
  </g>
</svg>
