<svg xmlns="http://www.w3.org/2000/svg" width="24" height="24" viewBox="0 0 24 24">
  <g id="Group_5175" data-name="Group 5175" transform="translate(-229 -204)">
    <circle id="Ellipse_550" data-name="Ellipse 550" cx="12" cy="12" r="12" transform="translate(229 204)" fill="#fdc830"/>
    <circle id="Ellipse_551" data-name="Ellipse 551" cx="8.571" cy="8.571" r="8.571" transform="translate(232.429 207.429)" fill="#ef7816"/>
    <path id="Polygon_5" data-name="Polygon 5" d="M6.383,1.41a.5.5,0,0,1,.948,0L8.46,4.769a.5.5,0,0,0,.461.341l3.435.092a.5.5,0,0,1,.3.889L9.888,8.321a.5.5,0,0,0-.167.525L10.7,12.33a.5.5,0,0,1-.774.541L7.15,10.86a.5.5,0,0,0-.586,0l-2.78,2.011a.5.5,0,0,1-.774-.541l.984-3.484a.5.5,0,0,0-.167-.525L1.058,6.091a.5.5,0,0,1,.3-.889L4.794,5.11a.5.5,0,0,0,.461-.341Z" transform="translate(234.143 209.143)" fill="#ffc91d"/>
  </g>
</svg>
