<svg id="Component_6_26" data-name="Component 6 – 26" xmlns="http://www.w3.org/2000/svg" width="120" height="120"
     viewBox="0 0 120 120">
    <g id="Layer_15" data-name="Layer 15">
        <g id="Layer_3" data-name="Layer 3">
            <circle id="Ellipse_20" data-name="Ellipse 20" cx="60" cy="60" r="60" fill="#f0f5f7"/>
        </g>
        <g id="bin-trash-notification-alert-warning" transform="translate(27.575 18.984)">
            <path id="Path_58" data-name="Path 58"
                  d="M183.563,125.9a4.123,4.123,0,0,0-4.1-4.1H127.5a4.1,4.1,0,0,0,0,8.2h51.96A4.1,4.1,0,0,0,183.563,125.9Z"
                  transform="translate(-122.053 -112.237)" fill="#9fd9f1"/>
            <path id="Path_59" data-name="Path 59"
                  d="M183.563,160.9a4.124,4.124,0,0,0-4.1-4.1H127.5a4.1,4.1,0,0,0,0,8.2h51.96A4.1,4.1,0,0,0,183.563,160.9Z"
                  transform="translate(-122.053 -139.035)" fill="#9fd9f1"/>
            <path id="Path_60" data-name="Path 60"
                  d="M228.551,90.55a5.489,5.489,0,0,0-5.181-3.75H217.58a5.438,5.438,0,0,0-5.178,3.75L210.9,95h19.15Z"
                  transform="translate(-189.046 -85.44)" fill="#fff"/>
            <path id="Path_61" data-name="Path 61"
                  d="M186.346,229.91a2.711,2.711,0,0,1,2.625-1.313l3.889-36.8H140.9l4.688,44.624a8.2,8.2,0,0,0,8.156,7.336h24.774a2.726,2.726,0,0,1,.4-1.406Zm-27.681.186a2.742,2.742,0,0,1-5.46,0V205.487a2.742,2.742,0,1,1,5.46,0Zm10.946,0a2.743,2.743,0,0,1-5.463,0V205.487a2.743,2.743,0,1,1,5.463,0Zm5.46,0V205.487a2.742,2.742,0,1,1,5.483,0V230.1a2.742,2.742,0,1,1-5.483,0Z"
                  transform="translate(-135.453 -165.832)" fill="#9fd9f1"/>
            <g id="Group_30" data-name="Group 30">
                <path id="Path_62" data-name="Path 62"
                      d="M181.931,156.82l-7.523-12.468a4.018,4.018,0,0,0-1.735-1.57l3.633-34.595a5.46,5.46,0,0,0,2.344-9.421,5.461,5.461,0,0,0-3.585-9.563H159.642l-1.172-3.516A6.82,6.82,0,0,0,151.979,81h-5.79a6.821,6.821,0,0,0-6.492,4.688L138.525,89.2H123.1a5.461,5.461,0,0,0-3.585,9.563,5.46,5.46,0,0,0,2.344,9.421l4.57,43.547a9.563,9.563,0,0,0,9.515,8.555h23.7a3.262,3.262,0,0,0,.258.657,4.077,4.077,0,0,0,3.563,2.085h14.952a4.1,4.1,0,0,0,4.1-4.1A3.912,3.912,0,0,0,181.931,156.82ZM142.3,86.532a4.1,4.1,0,0,1,3.89-2.79h5.79a4.1,4.1,0,0,1,3.89,2.79l.891,2.671H141.408Zm-19.2,5.413h51.962a2.742,2.742,0,0,1,0,5.461H123.1a2.742,2.742,0,1,1,0-5.461Zm-2.742,10.922a2.766,2.766,0,0,1,2.742-2.719h51.962a2.742,2.742,0,0,1,0,5.461H123.1A2.765,2.765,0,0,1,120.361,102.868Zm39.586,53.953a4.313,4.313,0,0,0-.328.75H135.947a6.843,6.843,0,0,1-6.8-6.116l-4.524-43.1h48.915L169.955,142.5a3.958,3.958,0,0,0-2.578,1.875Zm19.664,2.789a1.362,1.362,0,0,1-1.2.68H163.463a1.359,1.359,0,0,1-1.36-1.36,1.509,1.509,0,0,1,.188-.7l7.429-12.445a1.386,1.386,0,0,1,1.172-.68,1.429,1.429,0,0,1,1.2.657l7.5,12.468A1.335,1.335,0,0,1,179.612,159.609Z"
                      transform="translate(-117.655 -81)" fill="#427297"/>
                <path id="Path_63" data-name="Path 63"
                      d="M238.3,232.7a4.1,4.1,0,0,0-4.1,4.1v24.609a4.1,4.1,0,0,0,8.2,0V236.8A4.1,4.1,0,0,0,238.3,232.7Zm1.384,28.711a1.382,1.382,0,0,1-2.742,0V236.8a1.383,1.383,0,1,1,2.742,0Z"
                      transform="translate(-206.884 -197.145)" fill="#427297"/>
                <path id="Path_64" data-name="Path 64"
                      d="M191.7,232.7a4.1,4.1,0,0,0-4.1,4.1v24.609a4.1,4.1,0,0,0,8.2,0V236.8A4.1,4.1,0,0,0,191.7,232.7Zm1.357,28.711a1.382,1.382,0,0,1-2.742,0V236.8a1.383,1.383,0,1,1,2.742,0Z"
                      transform="translate(-171.207 -197.145)" fill="#427297"/>
                <path id="Path_65" data-name="Path 65"
                      d="M285,265.512a4.1,4.1,0,0,0,4.1-4.1V236.8a4.1,4.1,0,0,0-8.2,0v24.609A4.1,4.1,0,0,0,285,265.512ZM283.644,236.8a1.359,1.359,0,1,1,2.717,0v24.609a1.359,1.359,0,1,1-2.717,0Z"
                      transform="translate(-242.638 -197.145)" fill="#427297"/>
                <circle id="Ellipse_21" data-name="Ellipse 21" cx="1.359" cy="1.359" r="1.359"
                        transform="translate(51.948 75.211)" fill="#d9222f"/>
                <path id="Path_66" data-name="Path 66"
                      d="M340.581,366.8a1.344,1.344,0,0,0-.986.4,1.365,1.365,0,0,0-.4.986v4.1a1.381,1.381,0,0,0,2.739,0v-4.1a1.346,1.346,0,0,0-.388-.977A1.361,1.361,0,0,0,340.581,366.8Z"
                      transform="translate(-287.274 -299.816)" fill="#d9222f"/>
            </g>
        </g>
    </g>
</svg>
