<svg id="Visa" xmlns="http://www.w3.org/2000/svg" width="49.645" height="16.022" viewBox="0 0 49.645 16.022">
    <g id="VISA_Logo" transform="translate(0 0)">
        <path id="Path_3999" data-name="Path 3999"
              d="M219.139,384.595l-6.5,15.513H208.4l-3.194-12.376a1.7,1.7,0,0,0-.95-1.36,16.7,16.7,0,0,0-3.956-1.319l.1-.459h6.823a1.873,1.873,0,0,1,1.843,1.581l1.687,8.977,4.186-10.55h4.2Zm16.619,10.451c.016-4.1-5.66-4.317-5.619-6.151.008-.557.541-1.147,1.7-1.3a7.555,7.555,0,0,1,3.956.688l.7-3.293a10.711,10.711,0,0,0-3.751-.688c-3.964,0-6.757,2.105-6.782,5.127-.025,2.228,1.99,3.481,3.514,4.218,1.564.762,2.089,1.245,2.08,1.925-.008,1.04-1.245,1.5-2.4,1.515a8.386,8.386,0,0,1-4.12-.983l-.729,3.4a12.213,12.213,0,0,0,4.464.819c4.2.033,6.954-2.056,6.979-5.275m10.476,5.054h3.71l-3.235-15.505h-3.432a1.825,1.825,0,0,0-1.712,1.147l-6.02,14.359h4.21l.835-2.318h5.152Zm-4.48-5.488,2.113-5.824,1.212,5.824Zm-16.881-10.017L221.555,400.1h-4.014l3.317-15.505Z"
              transform="translate(-200.3 -384.3)" fill="#1c32c2"/>
    </g>
</svg>
