<svg xmlns="http://www.w3.org/2000/svg" viewBox="0 0 512 512">
    <g id="Layer_17" data-name="Layer 17">
        <g id="Layer_3-2" data-name="Layer 3">
            <circle cx="256" cy="256" r="256" fill="#f0f5f7"/>
        </g>
        <g id="Layer_19" data-name="Layer 19">
            <g>
                <g>
                    <path d="M238.7,196.2v74.4a17.3,17.3,0,0,0,34.5,0V196.2a17.3,17.3,0,0,0-34.5,0Z" fill="#fff"/>
                    <ellipse cx="256" cy="333.6" rx="17.2" ry="17.2" fill="#fff"/>
                </g>
                <path d="M256,316.4a17.2,17.2,0,1,1-17.3,17.2A17.2,17.2,0,0,1,256,316.4Zm105.7-90-52.6-90.8a59.3,59.3,0,0,0-104.3-3.3l-54.4,94h.1v.2L98.8,315.7a59.1,59.1,0,0,0,48.4,93.5H365V409a58,58,0,0,0,29.6-7.9,59,59,0,0,0,21.6-80.7l-54.4-94.1Zm-88.5-30.2v74.4a17.3,17.3,0,0,1-34.5,0V196.2a17.3,17.3,0,0,1,34.5,0Z"
                      fill="#9fd9f1"/>
            </g>
            <path d="M422.1,317l-54.4-94.1-.7-1-51.9-89.5a64.3,64.3,0,0,0-25.9-27.5,66.1,66.1,0,0,0-90.3,24l-54.4,94-.6,1.2L93,312a66,66,0,0,0,54.2,104H365l1.4-.2A65.8,65.8,0,0,0,422.1,317Zm-30.9,78.2a52.5,52.5,0,0,1-26.2,7h0l-1.4.2H147.2A52.5,52.5,0,0,1,94.7,350a51.7,51.7,0,0,1,9.7-30.4l.3-.5L156.3,230h.1a5,5,0,0,0,.5-1.3l53.9-92.9a52.2,52.2,0,0,1,71.5-19A51.5,51.5,0,0,1,303,138.6l.2.4,52.5,90.8.8,1,53.8,93A52.2,52.2,0,0,1,391.2,395.2Z"
                  fill="#427297"/>
            <path d="M136.4,298.5a6.8,6.8,0,0,0-9.3,2.5L113,325.2a7,7,0,0,0,2.5,9.3,7.3,7.3,0,0,0,3.5.9,6.9,6.9,0,0,0,5.9-3.4l14-24.2A6.7,6.7,0,0,0,136.4,298.5Z"
                  fill="#0089fe"/>
            <path d="M146.3,281.4a6.7,6.7,0,0,0-9.3,2.5h-.1a6.8,6.8,0,0,0,2.5,9.3,6.9,6.9,0,0,0,3.4.9,6.6,6.6,0,0,0,5.9-3.4h.1A6.7,6.7,0,0,0,146.3,281.4Z"
                  fill="#0089fe"/>
        </g>
    </g>
</svg>
