<svg xmlns="http://www.w3.org/2000/svg" xmlns:xlink="http://www.w3.org/1999/xlink" width="1400" height="580" viewBox="0 0 1400 580">
  <defs>
    <linearGradient id="linear-gradient" x1="1" x2="-0.074" y2="1.044" gradientUnits="objectBoundingBox">
      <stop offset="0" stop-color="#23afff"/>
      <stop offset="1" stop-color="#885bc2"/>
    </linearGradient>
    <clipPath id="clip-path">
      <rect id="Rectangle_1418" data-name="Rectangle 1418" width="1400" height="580" transform="translate(0 662)" fill="url(#linear-gradient)"/>
    </clipPath>
  </defs>
  <g id="Mask_Group_5" data-name="Mask Group 5" transform="translate(0 -662)" opacity="0.2" clip-path="url(#clip-path)">
    <g id="aaa" transform="translate(592.154 983.763)" opacity="0.51">
      <g id="Group_3654" data-name="Group 3654" transform="translate(250.361 77.799)">
        <path id="Path_669" data-name="Path 669" d="M205.1,139.834h62.534V138.3h-61.9l-7.249-7.259h-22.4l-23.814-23.814H37.281L8.235,78.18,7.15,79.265l29.5,29.5H151.64l23.814,23.814h22.4Z" transform="translate(-4.903 -75.933)" fill="#24a7f1"/>
        <path id="Path_670" data-name="Path 670" d="M263.065,76.83a2.889,2.889,0,1,0,0,4.085A2.892,2.892,0,0,0,263.065,76.83Z" transform="translate(-258.135 -75.985)" fill="#24a7f1"/>
        <ellipse id="Ellipse_354" data-name="Ellipse 354" cx="2.887" cy="2.887" rx="2.887" ry="2.887" transform="translate(259.704 60.246)" fill="#24a7f1"/>
      </g>
      <g id="Group_3655" data-name="Group 3655" transform="translate(43.67 147.382)">
        <path id="Path_671" data-name="Path 671" d="M134.177,195.9H371.362l50.422-50.412h38.423l12.439,12.429,1.085-1.085-12.89-12.879H421.15l-50.422,50.412H134.812L88.27,147.82H11.29v1.536H87.635Z" transform="translate(-8.546 -143.95)" fill="#24a7f1"/>
        <ellipse id="Ellipse_355" data-name="Ellipse 355" cx="2.887" cy="2.887" rx="2.887" ry="2.887" transform="translate(0 1.751)" fill="#24a7f1"/>
        <path id="Path_672" data-name="Path 672" d="M14.035,154.98a2.889,2.889,0,1,1-4.085,0A2.892,2.892,0,0,1,14.035,154.98Z" transform="translate(452.544 -143.708)" fill="#24a7f1"/>
      </g>
      <g id="Group_3656" data-name="Group 3656" transform="translate(65.58 134.891)">
        <path id="Path_673" data-name="Path 673" d="M447.243,195.914l1.085-1.085-27.6-27.6H292.587L259.18,133.82H158.12v1.536H258.545l33.407,33.407H420.081Z" transform="translate(-155.376 -131.701)" fill="#24a7f1"/>
        <path id="Path_674" data-name="Path 674" d="M441.507,137.524a2.887,2.887,0,1,1,2.887-2.887A2.884,2.884,0,0,1,441.507,137.524Z" transform="translate(-438.62 -131.75)" fill="#24a7f1"/>
      </g>
      <g id="Group_3657" data-name="Group 3657" transform="translate(14.103 93.55)">
        <path id="Path_675" data-name="Path 675" d="M434.444,168.628h67.131v-1.536H435.089l-30.12-30.12H290.527L246.985,93.44H83.77v1.536H246.35l43.532,43.532H404.334Z" transform="translate(-81.026 -91.321)" fill="#24a7f1"/>
        <path id="Path_676" data-name="Path 676" d="M491.787,97.144a2.887,2.887,0,1,1,2.887-2.887A2.884,2.884,0,0,1,491.787,97.144Z" transform="translate(-488.9 -91.37)" fill="#24a7f1"/>
      </g>
      <g id="Group_3658" data-name="Group 3658" transform="translate(245.186 127.5)">
        <path id="Path_677" data-name="Path 677" d="M199.847,154.693H270.8v-1.536H200.482L173.925,126.6H70.94v1.536H173.29Z" transform="translate(-68.196 -124.481)" fill="#24a7f1"/>
        <path id="Path_678" data-name="Path 678" d="M266.077,130.3a2.887,2.887,0,1,1,2.887-2.887A2.884,2.884,0,0,1,266.077,130.3Z" transform="translate(-263.19 -124.53)" fill="#24a7f1"/>
      </g>
      <g id="Group_3659" data-name="Group 3659" transform="translate(91.308 55.362)">
        <path id="Path_679" data-name="Path 679" d="M421.635,109.316l1.085-1.085L390.2,75.715H333.536L313.961,56.14H153.06v1.536H313.316l19.575,19.575h56.678Z" transform="translate(-150.316 -54.021)" fill="#24a7f1"/>
        <ellipse id="Ellipse_356" data-name="Ellipse 356" cx="2.887" cy="2.887" rx="2.887" ry="2.887" transform="translate(0)" fill="#24a7f1"/>
      </g>
      <g id="Group_3660" data-name="Group 3660" transform="translate(291.728 93.55)">
        <path id="Path_680" data-name="Path 680" d="M220.418,108.1l1.085-1.085L207.938,93.44h-21.4v1.536H207.3Z" transform="translate(-183.796 -91.321)" fill="#24a7f1"/>
        <path id="Path_681" data-name="Path 681" d="M220.617,97.144a2.887,2.887,0,1,1,2.887-2.887A2.884,2.884,0,0,1,220.617,97.144Z" transform="translate(-217.73 -91.37)" fill="#24a7f1"/>
      </g>
      <g id="Group_3661" data-name="Group 3661" transform="translate(202.923 103.814)">
        <path id="Path_682" data-name="Path 682" d="M265.65,118.005h32.178l13.34-13.34-1.085-1.085-12.89,12.89H265.65Z" transform="translate(-265.65 -101.343)" fill="#24a7f1"/>
        <path id="Path_683" data-name="Path 683" d="M264.3,102.24a2.889,2.889,0,1,1,0,4.085A2.892,2.892,0,0,1,264.3,102.24Z" transform="translate(-221.464 -101.395)" fill="#24a7f1"/>
      </g>
      <g id="Group_3662" data-name="Group 3662" transform="translate(102.263 108.068)">
        <path id="Path_684" data-name="Path 684" d="M330.471,150.763h66.9l12.593-12.593-1.085-1.085-12.142,12.142H331.106L289.488,107.62H228.94v1.536h59.913Z" transform="translate(-226.196 -105.501)" fill="#24a7f1"/>
        <path id="Path_685" data-name="Path 685" d="M405.677,111.324a2.887,2.887,0,1,1,2.887-2.887A2.884,2.884,0,0,1,405.677,111.324Z" transform="translate(-402.79 -105.55)" fill="#24a7f1"/>
      </g>
      <g id="Group_3663" data-name="Group 3663" transform="translate(145.503 155.823)">
        <path id="Path_686" data-name="Path 686" d="M238.71,184.7H351.052l16.637-16.637-1.085-1.1-16.186,16.2H239.344L210.565,154.39l-1.085,1.085Z" transform="translate(-207.243 -152.143)" fill="#24a7f1"/>
        <path id="Path_687" data-name="Path 687" d="M361.4,157.125a2.889,2.889,0,1,1,4.085,0A2.892,2.892,0,0,1,361.4,157.125Z" transform="translate(-360.555 -152.195)" fill="#24a7f1"/>
      </g>
      <g id="Group_3664" data-name="Group 3664" transform="translate(128.544 57.84)">
        <path id="Path_688" data-name="Path 688" d="M279,75.328h85.744l17.743-17.753L381.4,56.49l-17.3,17.3H279Z" transform="translate(-276.256 -56.49)" fill="#24a7f1"/>
        <ellipse id="Ellipse_357" data-name="Ellipse 357" cx="2.887" cy="2.887" rx="2.887" ry="2.887" transform="translate(0 15.183)" fill="#24a7f1"/>
      </g>
      <g id="Group_3665" data-name="Group 3665" transform="translate(42.032 81.234)">
        <path id="Path_689" data-name="Path 689" d="M465.315,94.771l1.085-1.085L454.135,81.41H388.11v1.536h65.38Z" transform="translate(-385.366 -79.291)" fill="#24a7f1"/>
        <path id="Path_690" data-name="Path 690" d="M464.507,85.114a2.887,2.887,0,1,1,2.887-2.887A2.884,2.884,0,0,1,464.507,85.114Z" transform="translate(-461.62 -79.34)" fill="#24a7f1"/>
      </g>
      <g id="Group_3666" data-name="Group 3666" transform="translate(297.891 148.785)">
        <path id="Path_691" data-name="Path 691" d="M166.115,185.691h51.241v-1.536h-50.6L129.995,147.39H101.83v1.536h27.53Z" transform="translate(-99.086 -145.271)" fill="#24a7f1"/>
        <path id="Path_692" data-name="Path 692" d="M214.6,151.094a2.887,2.887,0,1,1,2.887-2.887A2.884,2.884,0,0,1,214.6,151.094Z" transform="translate(-211.71 -145.32)" fill="#24a7f1"/>
      </g>
      <g id="Group_3667" data-name="Group 3667" transform="translate(20.517 110.412)">
        <path id="Path_693" data-name="Path 693" d="M362.455,138.882,377.137,124.2h96.647l15.275-15.275-1.085-1.085-14.825,14.825H376.492L361.37,137.8Z" transform="translate(-359.133 -107.84)" fill="#24a7f1"/>
        <path id="Path_694" data-name="Path 694" d="M487.565,139.635a2.889,2.889,0,1,1,0-4.085A2.892,2.892,0,0,1,487.565,139.635Z" transform="translate(-482.635 -107.2)" fill="#24a7f1"/>
      </g>
      <g id="Group_3668" data-name="Group 3668" transform="translate(292.824 38.797)">
        <path id="Path_695" data-name="Path 695" d="M184.489,133.485h26.629L224.8,119.807l-1.085-1.085-13.228,13.228h-25.36L133.37,80.206H95.592L55.346,39.96H2.19V41.5H54.7L94.957,81.741h37.778Z" transform="translate(0.554 -37.841)" fill="#24a7f1"/>
        <path id="Path_696" data-name="Path 696" d="M219.547,37.89a2.887,2.887,0,1,0,2.887,2.887A2.884,2.884,0,0,0,219.547,37.89Z" transform="translate(-216.66 -37.89)" fill="#24a7f1"/>
        <path id="Path_697" data-name="Path 697" d="M.84,115.55a2.889,2.889,0,1,1,0,4.085A2.892,2.892,0,0,1,.84,115.55Z" transform="translate(221.828 -36.061)" fill="#24a7f1"/>
      </g>
      <g id="Group_3669" data-name="Group 3669" transform="translate(391.385 94.369)">
        <path id="Path_698" data-name="Path 698" d="M99.207,118.5h25.779v-1.536H99.841L77.113,94.24H54.62v1.536H76.478Z" transform="translate(-51.876 -92.121)" fill="#24a7f1"/>
        <path id="Path_699" data-name="Path 699" d="M123.277,97.944a2.887,2.887,0,1,1,2.887-2.887A2.884,2.884,0,0,1,123.277,97.944Z" transform="translate(-120.39 -92.17)" fill="#24a7f1"/>
      </g>
      <g id="Group_3670" data-name="Group 3670" transform="translate(262.616 45.836)">
        <path id="Path_700" data-name="Path 700" d="M194.591,65.7h57.538V64.16h-56.9L183.309,52.253H150.6l-5.3-5.3-1.085,1.085,5.754,5.754h32.711Z" transform="translate(-141.973 -44.713)" fill="#24a7f1"/>
        <path id="Path_701" data-name="Path 701" d="M247.01,49.695a2.889,2.889,0,1,1,4.085,0A2.892,2.892,0,0,1,247.01,49.695Z" transform="translate(-246.165 -44.765)" fill="#24a7f1"/>
      </g>
      <g id="Group_3671" data-name="Group 3671" transform="translate(348.13 83.819)">
        <path id="Path_702" data-name="Path 702" d="M141.56,93.837h18.664l8.692-8.692-1.085-1.085L159.589,92.3H141.56Z" transform="translate(-141.56 -81.813)" fill="#24a7f1"/>
        <path id="Path_703" data-name="Path 703" d="M140.22,82.71a2.889,2.889,0,1,1,0,4.085A2.892,2.892,0,0,1,140.22,82.71Z" transform="translate(-115.556 -81.865)" fill="#24a7f1"/>
      </g>
      <g id="Group_3672" data-name="Group 3672" transform="translate(69.455 28.866)">
        <path id="Path_704" data-name="Path 704" d="M225.525,53.918l9.542-9.542H340.888l14.651-14.651h62.616L442.3,53.867l1.085-1.085L418.789,28.19H354.9L340.253,42.841H234.432l-9.992,9.992Z" transform="translate(-222.203 -28.19)" fill="#24a7f1"/>
        <path id="Path_705" data-name="Path 705" d="M439.765,54.795a2.889,2.889,0,1,1,0-4.085A2.892,2.892,0,0,1,439.765,54.795Z" transform="translate(-434.835 -27.674)" fill="#24a7f1"/>
      </g>
      <g id="Group_3673" data-name="Group 3673" transform="translate(203.543 92.117)">
        <path id="Path_706" data-name="Path 706" d="M250.125,97.28l5.785-5.774h52.8V89.97H255.275l-6.235,6.225Z" transform="translate(-246.803 -89.97)" fill="#24a7f1"/>
        <path id="Path_707" data-name="Path 707" d="M308.795,98.585a2.889,2.889,0,1,1,0-4.085A2.892,2.892,0,0,1,308.795,98.585Z" transform="translate(-303.865 -89.882)" fill="#24a7f1"/>
      </g>
      <g id="Group_3674" data-name="Group 3674" transform="translate(295.393 118.644)">
        <path id="Path_708" data-name="Path 708" d="M164.995,142.276H209.53l10.822-10.822-1.085-1.085L208.9,140.74H165.629l-22.79-22.79H80.93v1.536H142.2Z" transform="translate(-78.186 -115.831)" fill="#24a7f1"/>
        <path id="Path_709" data-name="Path 709" d="M217.037,121.654a2.887,2.887,0,1,1,2.887-2.887A2.884,2.884,0,0,1,217.037,121.654Z" transform="translate(-214.15 -115.88)" fill="#24a7f1"/>
      </g>
      <g id="Group_3675" data-name="Group 3675" transform="translate(381.506 121.08)">
        <rect id="Rectangle_1416" data-name="Rectangle 1416" width="27.192" height="1.536" transform="translate(2.754 2.119)" fill="#24a7f1"/>
        <path id="Path_710" data-name="Path 710" d="M132.927,124.034a2.887,2.887,0,1,1,2.887-2.887A2.884,2.884,0,0,1,132.927,124.034Z" transform="translate(-130.04 -118.26)" fill="#24a7f1"/>
      </g>
      <g id="Group_3676" data-name="Group 3676" transform="translate(208.165 151.835)">
        <path id="Path_711" data-name="Path 711" d="M250.73,158.651h43.553l9.265-9.265-1.085-1.085-8.815,8.815H250.73Z" transform="translate(-247.996 -148.3)" fill="#24a7f1"/>
        <path id="Path_712" data-name="Path 712" d="M302.237,160.614a2.887,2.887,0,1,1,2.887-2.887A2.884,2.884,0,0,1,302.237,160.614Z" transform="translate(-299.35 -148.144)" fill="#24a7f1"/>
      </g>
      <g id="Group_3677" data-name="Group 3677" transform="translate(201.439 29.132)">
        <path id="Path_713" data-name="Path 713" d="M264.94,43.991h30.54l14.456-14.456-1.085-1.085L294.845,42.456H264.94Z" transform="translate(-262.206 -28.45)" fill="#24a7f1"/>
        <path id="Path_714" data-name="Path 714" d="M308.807,45.834a2.887,2.887,0,1,1,2.887-2.887A2.884,2.884,0,0,1,308.807,45.834Z" transform="translate(-305.92 -28.174)" fill="#24a7f1"/>
      </g>
      <g id="Group_3678" data-name="Group 3678" transform="translate(131.247 143.952)">
        <path id="Path_715" data-name="Path 715" d="M360.9,159.45h17.917v-1.536H361.531L346.276,142.67h-26.5v1.536h25.861Z" transform="translate(-317.036 -140.551)" fill="#24a7f1"/>
        <ellipse id="Ellipse_358" data-name="Ellipse 358" cx="2.887" cy="2.887" rx="2.887" ry="2.887" transform="translate(0)" fill="#24a7f1"/>
      </g>
      <g id="Group_3679" data-name="Group 3679" transform="translate(139.652 75.572)">
        <path id="Path_716" data-name="Path 716" d="M322.67,84.284h38.28l9.388-9.388-1.085-1.085-8.938,8.938H322.67Z" transform="translate(-319.926 -73.81)" fill="#24a7f1"/>
        <path id="Path_717" data-name="Path 717" d="M369.157,86.244a2.887,2.887,0,1,1,2.887-2.887A2.884,2.884,0,0,1,369.157,86.244Z" transform="translate(-366.27 -73.651)" fill="#24a7f1"/>
      </g>
      <g id="Group_3680" data-name="Group 3680" transform="translate(0 198.326)">
        <path id="Path_718" data-name="Path 718" d="M279.009,237.621H472.058L514.894,194.8l-1.085-1.085-42.385,42.375H279.654L249.82,206.262H148.945L137.99,217.217l1.085,1.085,10.5-10.5h99.606Z" transform="translate(-135.753 -193.71)" fill="#24a7f1"/>
        <path id="Path_719" data-name="Path 719" d="M507.6,219.215a2.889,2.889,0,1,1,0-4.085A2.892,2.892,0,0,1,507.6,219.215Z" transform="translate(-502.675 -193.22)" fill="#24a7f1"/>
      </g>
      <g id="Group_3681" data-name="Group 3681" transform="translate(100.466 179.289)">
        <path id="Path_720" data-name="Path 720" d="M305.476,211.331h89.44l16.309-16.319-1.085-1.085L394.281,209.8h-88.17L273.625,177.31,272.54,178.4Z" transform="translate(-270.303 -175.063)" fill="#24a7f1"/>
        <path id="Path_721" data-name="Path 721" d="M405.39,180.045a2.889,2.889,0,1,1,4.085,0A2.892,2.892,0,0,1,405.39,180.045Z" transform="translate(-404.545 -175.115)" fill="#24a7f1"/>
      </g>
      <g id="Group_3682" data-name="Group 3682" transform="translate(73.054 164.643)">
        <path id="Path_722" data-name="Path 722" d="M405.533,181.063h30.591v-1.536H406.178L389.521,162.88H356.8v1.536h32.086Z" transform="translate(-354.056 -160.761)" fill="#24a7f1"/>
        <ellipse id="Ellipse_359" data-name="Ellipse 359" cx="2.887" cy="2.887" rx="2.887" ry="2.887" transform="translate(0)" fill="#24a7f1"/>
      </g>
      <g id="Group_3683" data-name="Group 3683" transform="translate(41.766 189.194)">
        <path id="Path_723" data-name="Path 723" d="M464.689,207.848l1.085-1.085-19.9-19.9H425.59V188.4h19.647Z" transform="translate(-422.846 -184.741)" fill="#24a7f1"/>
        <path id="Path_724" data-name="Path 724" d="M464.767,190.564a2.887,2.887,0,1,1,2.887-2.887A2.884,2.884,0,0,1,464.767,190.564Z" transform="translate(-461.88 -184.79)" fill="#24a7f1"/>
      </g>
      <g id="Group_3684" data-name="Group 3684" transform="translate(265.841 217.379)">
        <path id="Path_725" data-name="Path 725" d="M158.885,224.923l11.067-11.067h78.618V212.32H169.318L157.8,223.838Z" transform="translate(-155.553 -212.32)" fill="#24a7f1"/>
        <path id="Path_726" data-name="Path 726" d="M247.945,226.115a2.889,2.889,0,1,1,0-4.085A2.892,2.892,0,0,1,247.945,226.115Z" transform="translate(-243.015 -212.109)" fill="#24a7f1"/>
      </g>
      <g id="Group_3685" data-name="Group 3685" transform="translate(180.021 198.101)">
        <path id="Path_727" data-name="Path 727" d="M242.26,223.058h61.152l28.472-28.482L330.8,193.49l-28.032,28.032H242.26Z" transform="translate(-239.516 -193.49)" fill="#24a7f1"/>
        <path id="Path_728" data-name="Path 728" d="M329.727,224.574a2.887,2.887,0,1,1,2.887-2.887A2.884,2.884,0,0,1,329.727,224.574Z" transform="translate(-326.84 -192.888)" fill="#24a7f1"/>
      </g>
      <g id="Group_3686" data-name="Group 3686" transform="translate(20.517 0)">
        <path id="Path_729" data-name="Path 729" d="M488.287,44.647l1.1-1.085L465.8,19.984H366.679L348.885,2.19,347.8,3.275l18.244,18.244h99.125Z" transform="translate(-345.563 0.057)" fill="#24a7f1"/>
        <path id="Path_730" data-name="Path 730" d="M483.48,4.925a2.889,2.889,0,1,1,4.085,0A2.892,2.892,0,0,1,483.48,4.925Z" transform="translate(-482.635 0.005)" fill="#24a7f1"/>
      </g>
    </g>
    <g id="aaa-2" data-name="aaa" transform="translate(-52.416 635.374)" opacity="0.51">
      <g id="Group_3687" data-name="Group 3687" transform="translate(5.187 88.074)">
        <path id="Path_731" data-name="Path 731" d="M77.943,147.977H7.15v-1.739H77.225l8.206-8.217H110.79l26.959-26.959H267.931L300.812,78.18l1.229,1.229L268.649,112.8H138.468l-26.959,26.959H86.149Z" transform="translate(-4.044 -75.636)" fill="#24a7f1"/>
        <path id="Path_732" data-name="Path 732" d="M259.091,76.941a3.27,3.27,0,1,1,0,4.625A3.274,3.274,0,0,1,259.091,76.941Z" transform="translate(35.869 -75.985)" fill="#24a7f1"/>
        <ellipse id="Ellipse_360" data-name="Ellipse 360" cx="3.268" cy="3.268" rx="3.268" ry="3.268" transform="translate(0 68.203)" fill="#24a7f1"/>
      </g>
      <g id="Group_3688" data-name="Group 3688" transform="translate(10.559 166.848)">
        <path id="Path_733" data-name="Path 733" d="M395.692,202.759H127.181L70.1,145.689H26.6L12.519,159.759l-1.229-1.229L25.882,143.95H70.818L127.9,201.02H394.974l52.689-52.689H534.81v1.739H448.382Z" transform="translate(-8.758 -143.95)" fill="#24a7f1"/>
        <ellipse id="Ellipse_361" data-name="Ellipse 361" cx="3.268" cy="3.268" rx="3.268" ry="3.268" transform="translate(522.622 1.982)" fill="#24a7f1"/>
        <path id="Path_734" data-name="Path 734" d="M10.061,155.091a3.27,3.27,0,1,0,4.625,0A3.274,3.274,0,0,0,10.061,155.091Z" transform="translate(-9.105 -142.33)" fill="#24a7f1"/>
      </g>
      <g id="Group_3689" data-name="Group 3689" transform="translate(183.271 152.707)">
        <path id="Path_735" data-name="Path 735" d="M159.349,204.115l-1.229-1.229,31.247-31.247H334.431L372.25,133.82H486.657v1.739H372.969L335.15,173.378H190.1Z" transform="translate(-158.12 -131.421)" fill="#24a7f1"/>
        <path id="Path_736" data-name="Path 736" d="M441.888,138.287a3.268,3.268,0,1,0-3.268-3.268A3.265,3.265,0,0,0,441.888,138.287Z" transform="translate(-113.513 -131.75)" fill="#24a7f1"/>
      </g>
      <g id="Group_3690" data-name="Group 3690" transform="translate(97.097 105.906)">
        <path id="Path_737" data-name="Path 737" d="M159.767,178.559h-76V176.82h75.267l34.1-34.1H322.692L371.985,93.44H556.757v1.739H372.7L323.422,144.46H193.854Z" transform="translate(-83.77 -91.041)" fill="#24a7f1"/>
        <path id="Path_738" data-name="Path 738" d="M492.168,97.907a3.268,3.268,0,1,0-3.268-3.268A3.265,3.265,0,0,0,492.168,97.907Z" transform="translate(-19.344 -91.37)" fill="#24a7f1"/>
      </g>
      <g id="Group_3691" data-name="Group 3691" transform="translate(82.227 144.339)">
        <path id="Path_739" data-name="Path 739" d="M151.26,158.4H70.94v-1.739h79.6L180.607,126.6H297.193v1.739H181.326Z" transform="translate(-70.94 -124.201)" fill="#24a7f1"/>
        <path id="Path_740" data-name="Path 740" d="M266.458,131.067a3.268,3.268,0,1,0-3.268-3.268A3.265,3.265,0,0,0,266.458,131.067Z" transform="translate(-40.367 -124.53)" fill="#24a7f1"/>
      </g>
      <g id="Group_3692" data-name="Group 3692" transform="translate(177.406 62.674)">
        <path id="Path_741" data-name="Path 741" d="M154.289,116.34l-1.229-1.229L189.871,78.3h64.152L276.183,56.14H458.336v1.739H276.914L254.753,80.039H190.589Z" transform="translate(-153.06 -53.741)" fill="#24a7f1"/>
        <ellipse id="Ellipse_362" data-name="Ellipse 362" cx="3.268" cy="3.268" rx="3.268" ry="3.268" transform="translate(301.845)" fill="#24a7f1"/>
      </g>
      <g id="Group_3693" data-name="Group 3693" transform="translate(216.21 105.906)">
        <path id="Path_742" data-name="Path 742" d="M187.769,110.037l-1.229-1.229L201.9,93.44h24.224v1.739H202.616Z" transform="translate(-186.54 -91.041)" fill="#24a7f1"/>
        <path id="Path_743" data-name="Path 743" d="M221,97.907a3.268,3.268,0,1,0-3.268-3.268A3.265,3.265,0,0,0,221,97.907Z" transform="translate(-181.58 -91.37)" fill="#24a7f1"/>
      </g>
      <g id="Group_3694" data-name="Group 3694" transform="translate(305.357 117.525)">
        <path id="Path_744" data-name="Path 744" d="M317.18,119.911H280.752l-15.1-15.1,1.229-1.229,14.592,14.592h35.71Z" transform="translate(-263.106 -101.048)" fill="#24a7f1"/>
        <path id="Path_745" data-name="Path 745" d="M269.036,102.351a3.27,3.27,0,1,0,0,4.625A3.274,3.274,0,0,0,269.036,102.351Z" transform="translate(-263.455 -101.395)" fill="#24a7f1"/>
      </g>
      <g id="Group_3695" data-name="Group 3695" transform="translate(265.353 122.341)">
        <path id="Path_746" data-name="Path 746" d="M318.927,156.461H243.2L228.94,142.205l1.229-1.229,13.746,13.746h74.294l47.114-47.1h68.545v1.739H366.041Z" transform="translate(-228.94 -105.221)" fill="#24a7f1"/>
        <path id="Path_747" data-name="Path 747" d="M406.058,112.087a3.268,3.268,0,1,0-3.268-3.268A3.265,3.265,0,0,0,406.058,112.087Z" transform="translate(-201.293 -105.55)" fill="#24a7f1"/>
      </g>
      <g id="Group_3696" data-name="Group 3696" transform="translate(242.798 176.404)">
        <path id="Path_748" data-name="Path 748" d="M355.494,188.709H228.314L209.48,169.875l1.229-1.24,18.324,18.336H354.775l32.58-32.58,1.229,1.229Z" transform="translate(-209.48 -151.846)" fill="#24a7f1"/>
        <path id="Path_749" data-name="Path 749" d="M366.136,157.776a3.27,3.27,0,1,0-4.625,0A3.274,3.274,0,0,0,366.136,157.776Z" transform="translate(-185.455 -152.195)" fill="#24a7f1"/>
      </g>
      <g id="Group_3697" data-name="Group 3697" transform="translate(323.374 65.479)">
        <path id="Path_750" data-name="Path 750" d="M396.154,77.816H299.086L279,57.719l1.229-1.229,19.588,19.588h96.338Z" transform="translate(-279 -56.49)" fill="#24a7f1"/>
        <ellipse id="Ellipse_363" data-name="Ellipse 363" cx="3.268" cy="3.268" rx="3.268" ry="3.268" transform="translate(113.724 17.188)" fill="#24a7f1"/>
      </g>
      <g id="Group_3698" data-name="Group 3698" transform="translate(449.835 91.963)">
        <path id="Path_751" data-name="Path 751" d="M389.339,96.535l-1.229-1.229L402,81.41h74.746v1.739H402.725Z" transform="translate(-388.11 -79.011)" fill="#24a7f1"/>
        <path id="Path_752" data-name="Path 752" d="M464.888,85.877a3.268,3.268,0,1,0-3.268-3.268A3.265,3.265,0,0,0,464.888,85.877Z" transform="translate(-376.42 -79.34)" fill="#24a7f1"/>
      </g>
      <g id="Group_3699" data-name="Group 3699" transform="translate(118.029 168.435)">
        <path id="Path_753" data-name="Path 753" d="M159.839,190.749H101.83v-1.739h57.279L200.73,147.39h31.885v1.739H201.448Z" transform="translate(-101.83 -144.991)" fill="#24a7f1"/>
        <path id="Path_754" data-name="Path 754" d="M214.978,151.857a3.268,3.268,0,1,0-3.268-3.268A3.265,3.265,0,0,0,214.978,151.857Z" transform="translate(-84.356 -145.32)" fill="#24a7f1"/>
      </g>
      <g id="Group_3700" data-name="Group 3700" transform="translate(418.843 124.995)">
        <path id="Path_755" data-name="Path 755" d="M504.7,142.982l-16.62-16.62H378.663L361.37,109.069l1.229-1.229,16.783,16.783H488.8l17.119,17.13Z" transform="translate(-361.37 -107.84)" fill="#24a7f1"/>
        <path id="Path_756" data-name="Path 756" d="M483.591,140.286a3.27,3.27,0,1,0,0-4.625A3.274,3.274,0,0,0,483.591,140.286Z" transform="translate(-342.086 -103.568)" fill="#24a7f1"/>
      </g>
      <g id="Group_3701" data-name="Group 3701" transform="translate(0 43.921)">
        <path id="Path_757" data-name="Path 757" d="M47.821,145.837H17.675L2.19,130.352l1.229-1.229L18.393,144.1H47.1l58.589-58.577h42.768L194.02,39.96H254.2V41.7H194.75L149.178,87.26H106.41Z" transform="translate(0.354 -37.561)" fill="#24a7f1"/>
        <path id="Path_758" data-name="Path 758" d="M219.928,37.89a3.268,3.268,0,1,1-3.268,3.268A3.265,3.265,0,0,1,219.928,37.89Z" transform="translate(34.46 -37.89)" fill="#24a7f1"/>
        <path id="Path_759" data-name="Path 759" d="M5.576,115.661a3.27,3.27,0,1,0,0,4.625A3.274,3.274,0,0,0,5.576,115.661Z" transform="translate(0.005 -25.674)" fill="#24a7f1"/>
      </g>
      <g id="Group_3702" data-name="Group 3702" transform="translate(63.312 106.833)">
        <path id="Path_760" data-name="Path 760" d="M83.8,121.709H54.62V119.97H83.086l25.73-25.73H134.28v1.739H109.535Z" transform="translate(-54.62 -91.841)" fill="#24a7f1"/>
        <path id="Path_761" data-name="Path 761" d="M123.658,98.707a3.268,3.268,0,1,0-3.268-3.268A3.265,3.265,0,0,0,123.658,98.707Z" transform="translate(-44.161 -92.17)" fill="#24a7f1"/>
      </g>
      <g id="Group_3703" data-name="Group 3703" transform="translate(167.149 51.89)">
        <path id="Path_762" data-name="Path 762" d="M209.347,68.172H144.21V66.433h64.419L222.12,52.954h37.031l6-6,1.229,1.229-6.514,6.514H222.838Z" transform="translate(-144.21 -44.418)" fill="#24a7f1"/>
        <path id="Path_763" data-name="Path 763" d="M251.746,50.346a3.27,3.27,0,1,0-4.625,0A3.274,3.274,0,0,0,251.746,50.346Z" transform="translate(-127.997 -44.765)" fill="#24a7f1"/>
      </g>
      <g id="Group_3704" data-name="Group 3704" transform="translate(161.545 94.889)">
        <path id="Path_764" data-name="Path 764" d="M172.529,95.129H151.4l-9.84-9.84,1.229-1.229,9.33,9.33h20.41Z" transform="translate(-139.028 -81.516)" fill="#24a7f1"/>
        <path id="Path_765" data-name="Path 765" d="M144.956,82.821a3.27,3.27,0,1,0,0,4.625A3.274,3.274,0,0,0,144.956,82.821Z" transform="translate(-139.375 -81.865)" fill="#24a7f1"/>
      </g>
      <g id="Group_3705" data-name="Group 3705" transform="translate(260.137 32.679)">
        <path id="Path_766" data-name="Path 766" d="M471.069,57.316l-10.8-10.8H340.47L323.884,29.929H253l-27.33,27.33L224.44,56.03l27.84-27.84H324.6l16.586,16.586h119.8L472.3,56.088Z" transform="translate(-224.44 -28.19)" fill="#24a7f1"/>
        <path id="Path_767" data-name="Path 767" d="M435.791,55.446a3.27,3.27,0,1,0,0-4.625A3.274,3.274,0,0,0,435.791,55.446Z" transform="translate(-190.982 -24.743)" fill="#24a7f1"/>
      </g>
      <g id="Group_3706" data-name="Group 3706" transform="translate(288.65 104.283)">
        <path id="Path_768" data-name="Path 768" d="M315.359,98.245l-6.549-6.537H249.04V89.97h60.49l7.058,7.047Z" transform="translate(-249.04 -89.97)" fill="#24a7f1"/>
        <path id="Path_769" data-name="Path 769" d="M304.821,99.236a3.27,3.27,0,1,0,0-4.625A3.274,3.274,0,0,0,304.821,99.236Z" transform="translate(-240.321 -89.384)" fill="#24a7f1"/>
      </g>
      <g id="Group_3707" data-name="Group 3707" transform="translate(93.806 134.314)">
        <path id="Path_770" data-name="Path 770" d="M143.6,145.488H93.181L80.93,133.238l1.229-1.229L93.9,143.75h48.98l25.8-25.8h70.086v1.739H169.4Z" transform="translate(-80.93 -115.551)" fill="#24a7f1"/>
        <path id="Path_771" data-name="Path 771" d="M217.418,122.417a3.268,3.268,0,1,0-3.268-3.268A3.265,3.265,0,0,0,217.418,122.417Z" transform="translate(-59.745 -115.88)" fill="#24a7f1"/>
      </g>
      <g id="Group_3708" data-name="Group 3708" transform="translate(123.361 137.072)">
        <rect id="Rectangle_1417" data-name="Rectangle 1417" width="30.784" height="1.739" transform="translate(0 2.399)" fill="#24a7f1"/>
        <path id="Path_772" data-name="Path 772" d="M133.308,124.8a3.268,3.268,0,1,0-3.268-3.268A3.265,3.265,0,0,0,133.308,124.8Z" transform="translate(-102.675 -118.26)" fill="#24a7f1"/>
      </g>
      <g id="Group_3709" data-name="Group 3709" transform="translate(290.608 171.889)">
        <path id="Path_773" data-name="Path 773" d="M310.524,160.018h-49.3L250.73,149.529l1.229-1.229,9.979,9.979h48.586Z" transform="translate(-250.73 -148.3)" fill="#24a7f1"/>
        <path id="Path_774" data-name="Path 774" d="M302.619,161.377a3.268,3.268,0,1,0-3.268-3.268A3.265,3.265,0,0,0,302.619,161.377Z" transform="translate(-242.998 -147.26)" fill="#24a7f1"/>
      </g>
      <g id="Group_3710" data-name="Group 3710" transform="translate(307.078 32.98)">
        <path id="Path_775" data-name="Path 775" d="M315.879,46.044H281.305L264.94,29.679l1.229-1.229,15.855,15.855h33.855Z" transform="translate(-264.94 -28.45)" fill="#24a7f1"/>
        <path id="Path_776" data-name="Path 776" d="M309.188,46.6a3.268,3.268,0,1,0-3.268-3.268A3.265,3.265,0,0,0,309.188,46.6Z" transform="translate(-258.423 -26.604)" fill="#24a7f1"/>
      </g>
      <g id="Group_3711" data-name="Group 3711" transform="translate(370.639 162.965)">
        <path id="Path_777" data-name="Path 777" d="M340.063,161.666H319.78v-1.739h19.564l17.269-17.258h30v1.739H357.332Z" transform="translate(-319.78 -140.271)" fill="#24a7f1"/>
        <ellipse id="Ellipse_364" data-name="Ellipse 364" cx="3.268" cy="3.268" rx="3.268" ry="3.268" transform="translate(63.399)" fill="#24a7f1"/>
      </g>
      <g id="Group_3712" data-name="Group 3712" transform="translate(373.989 85.554)">
        <path id="Path_778" data-name="Path 778" d="M376.634,85.667H333.3L322.67,75.039,323.9,73.81l10.118,10.118h42.617Z" transform="translate(-322.67 -73.81)" fill="#24a7f1"/>
        <path id="Path_779" data-name="Path 779" d="M369.538,87.007a3.268,3.268,0,1,0-3.268-3.268A3.265,3.265,0,0,0,369.538,87.007Z" transform="translate(-315.736 -72.751)" fill="#24a7f1"/>
      </g>
      <g id="Group_3713" data-name="Group 3713" transform="translate(159.94 224.521)">
        <path id="Path_780" data-name="Path 780" d="M405.029,243.421H186.484L137.99,194.939l1.229-1.229L187.2,241.682H404.3l33.774-33.762h114.2l12.4,12.4-1.229,1.229-11.892-11.892H438.792Z" transform="translate(-137.99 -193.71)" fill="#24a7f1"/>
        <path id="Path_781" data-name="Path 781" d="M503.631,219.866a3.27,3.27,0,1,0,0-4.625A3.274,3.274,0,0,0,503.631,219.866Z" transform="translate(-79.996 -190.438)" fill="#24a7f1"/>
      </g>
      <g id="Group_3714" data-name="Group 3714" transform="translate(315.887 202.969)">
        <path id="Path_782" data-name="Path 782" d="M392.256,215.824H291L272.54,197.35l1.229-1.229,17.953,17.965h99.815l36.776-36.776,1.229,1.229Z" transform="translate(-272.54 -174.766)" fill="#24a7f1"/>
        <path id="Path_783" data-name="Path 783" d="M410.126,180.7a3.27,3.27,0,1,0-4.625,0A3.274,3.274,0,0,0,410.126,180.7Z" transform="translate(-251.548 -175.115)" fill="#24a7f1"/>
      </g>
      <g id="Group_3715" data-name="Group 3715" transform="translate(413.546 186.389)">
        <path id="Path_784" data-name="Path 784" d="M391.432,183.464H356.8v-1.739h33.9l18.857-18.846H446.6v1.739H410.277Z" transform="translate(-356.8 -160.481)" fill="#24a7f1"/>
        <ellipse id="Ellipse_365" data-name="Ellipse 365" cx="3.268" cy="3.268" rx="3.268" ry="3.268" transform="translate(86.371)" fill="#24a7f1"/>
      </g>
      <g id="Group_3716" data-name="Group 3716" transform="translate(493.275 214.182)">
        <path id="Path_785" data-name="Path 785" d="M426.819,210.62l-1.229-1.229,22.531-22.531h22.96V188.6H448.84Z" transform="translate(-425.59 -184.461)" fill="#24a7f1"/>
        <path id="Path_786" data-name="Path 786" d="M465.148,191.327a3.268,3.268,0,1,0-3.268-3.268A3.265,3.265,0,0,0,465.148,191.327Z" transform="translate(-419.819 -184.79)" fill="#24a7f1"/>
      </g>
      <g id="Group_3717" data-name="Group 3717" transform="translate(182.9 246.09)">
        <path id="Path_787" data-name="Path 787" d="M259.331,226.588,246.8,214.059h-89V212.32h89.72l13.039,13.039Z" transform="translate(-157.8 -212.32)" fill="#24a7f1"/>
        <path id="Path_788" data-name="Path 788" d="M243.971,226.766a3.27,3.27,0,1,0,0-4.625A3.274,3.274,0,0,0,243.971,226.766Z" transform="translate(-144.249 -210.91)" fill="#24a7f1"/>
      </g>
      <g id="Group_3718" data-name="Group 3718" transform="translate(280.791 224.266)">
        <path id="Path_789" data-name="Path 789" d="M343.721,226.963H274.493L242.26,194.719l1.229-1.229,31.734,31.734h68.5Z" transform="translate(-242.26 -193.49)" fill="#24a7f1"/>
        <path id="Path_790" data-name="Path 790" d="M330.109,225.337a3.268,3.268,0,1,0-3.268-3.268A3.265,3.265,0,0,0,330.109,225.337Z" transform="translate(-228.81 -189.465)" fill="#24a7f1"/>
      </g>
      <g id="Group_3719" data-name="Group 3719" transform="translate(403.115 0)">
        <path id="Path_791" data-name="Path 791" d="M349.04,50.255l-1.24-1.229,26.692-26.692H486.709L506.853,2.19l1.229,1.229L487.428,24.072H375.211Z" transform="translate(-347.8 0.354)" fill="#24a7f1"/>
        <path id="Path_792" data-name="Path 792" d="M488.216,5.576a3.27,3.27,0,1,0-4.625,0A3.274,3.274,0,0,0,488.216,5.576Z" transform="translate(-326.358 0.005)" fill="#24a7f1"/>
      </g>
    </g>
    <g id="Group_3720" data-name="Group 3720" transform="translate(920 686)" opacity="0.49">
      <circle id="Ellipse_366" data-name="Ellipse 366" cx="2" cy="2" r="2" transform="translate(88)" fill="#24a7f1"/>
      <circle id="Ellipse_367" data-name="Ellipse 367" cx="2" cy="2" r="2" transform="translate(70)" fill="#24a7f1"/>
      <circle id="Ellipse_368" data-name="Ellipse 368" cx="2" cy="2" r="2" transform="translate(53)" fill="#24a7f1"/>
      <circle id="Ellipse_369" data-name="Ellipse 369" cx="2" cy="2" r="2" transform="translate(35)" fill="#24a7f1"/>
      <circle id="Ellipse_370" data-name="Ellipse 370" cx="2" cy="2" r="2" transform="translate(18)" fill="#24a7f1"/>
      <circle id="Ellipse_371" data-name="Ellipse 371" cx="2" cy="2" r="2" fill="#24a7f1"/>
      <circle id="Ellipse_372" data-name="Ellipse 372" cx="2" cy="2" r="2" transform="translate(88 18)" fill="#24a7f1"/>
      <circle id="Ellipse_373" data-name="Ellipse 373" cx="2" cy="2" r="2" transform="translate(70 18)" fill="#24a7f1"/>
      <circle id="Ellipse_374" data-name="Ellipse 374" cx="2" cy="2" r="2" transform="translate(53 18)" fill="#24a7f1"/>
      <circle id="Ellipse_375" data-name="Ellipse 375" cx="2" cy="2" r="2" transform="translate(35 18)" fill="#24a7f1"/>
      <circle id="Ellipse_376" data-name="Ellipse 376" cx="2" cy="2" r="2" transform="translate(18 18)" fill="#24a7f1"/>
      <circle id="Ellipse_377" data-name="Ellipse 377" cx="2" cy="2" r="2" transform="translate(0 18)" fill="#24a7f1"/>
      <circle id="Ellipse_378" data-name="Ellipse 378" cx="2" cy="2" r="2" transform="translate(88 35)" fill="#24a7f1"/>
      <circle id="Ellipse_379" data-name="Ellipse 379" cx="2" cy="2" r="2" transform="translate(70 35)" fill="#24a7f1"/>
      <circle id="Ellipse_380" data-name="Ellipse 380" cx="2" cy="2" r="2" transform="translate(53 35)" fill="#24a7f1"/>
      <circle id="Ellipse_381" data-name="Ellipse 381" cx="2" cy="2" r="2" transform="translate(35 35)" fill="#24a7f1"/>
      <circle id="Ellipse_382" data-name="Ellipse 382" cx="2" cy="2" r="2" transform="translate(18 35)" fill="#24a7f1"/>
      <circle id="Ellipse_383" data-name="Ellipse 383" cx="2" cy="2" r="2" transform="translate(0 35)" fill="#24a7f1"/>
      <circle id="Ellipse_384" data-name="Ellipse 384" cx="2" cy="2" r="2" transform="translate(88 70)" fill="#24a7f1"/>
      <circle id="Ellipse_385" data-name="Ellipse 385" cx="2" cy="2" r="2" transform="translate(70 70)" fill="#24a7f1"/>
      <circle id="Ellipse_386" data-name="Ellipse 386" cx="2" cy="2" r="2" transform="translate(53 70)" fill="#24a7f1"/>
      <circle id="Ellipse_387" data-name="Ellipse 387" cx="2" cy="2" r="2" transform="translate(35 70)" fill="#24a7f1"/>
      <circle id="Ellipse_388" data-name="Ellipse 388" cx="2" cy="2" r="2" transform="translate(18 70)" fill="#24a7f1"/>
      <circle id="Ellipse_389" data-name="Ellipse 389" cx="2" cy="2" r="2" transform="translate(0 70)" fill="#24a7f1"/>
      <circle id="Ellipse_390" data-name="Ellipse 390" cx="2" cy="2" r="2" transform="translate(88 53)" fill="#24a7f1"/>
      <circle id="Ellipse_391" data-name="Ellipse 391" cx="2" cy="2" r="2" transform="translate(70 53)" fill="#24a7f1"/>
      <circle id="Ellipse_392" data-name="Ellipse 392" cx="2" cy="2" r="2" transform="translate(53 53)" fill="#24a7f1"/>
      <circle id="Ellipse_393" data-name="Ellipse 393" cx="2" cy="2" r="2" transform="translate(35 53)" fill="#24a7f1"/>
      <circle id="Ellipse_394" data-name="Ellipse 394" cx="2" cy="2" r="2" transform="translate(18 53)" fill="#24a7f1"/>
      <circle id="Ellipse_395" data-name="Ellipse 395" cx="2" cy="2" r="2" transform="translate(0 53)" fill="#24a7f1"/>
      <circle id="Ellipse_396" data-name="Ellipse 396" cx="2" cy="2" r="2" transform="translate(88 88)" fill="#24a7f1"/>
      <circle id="Ellipse_397" data-name="Ellipse 397" cx="2" cy="2" r="2" transform="translate(70 88)" fill="#24a7f1"/>
      <circle id="Ellipse_398" data-name="Ellipse 398" cx="2" cy="2" r="2" transform="translate(53 88)" fill="#24a7f1"/>
      <circle id="Ellipse_399" data-name="Ellipse 399" cx="2" cy="2" r="2" transform="translate(35 88)" fill="#24a7f1"/>
      <circle id="Ellipse_400" data-name="Ellipse 400" cx="2" cy="2" r="2" transform="translate(18 88)" fill="#24a7f1"/>
      <circle id="Ellipse_401" data-name="Ellipse 401" cx="2" cy="2" r="2" transform="translate(0 88)" fill="#24a7f1"/>
    </g>
    <g id="Group_3723" data-name="Group 3723" transform="translate(1315 1102)" opacity="0.49">
      <circle id="Ellipse_366-2" data-name="Ellipse 366" cx="1.5" cy="1.5" r="1.5" transform="translate(65)" fill="#24a7f1"/>
      <circle id="Ellipse_367-2" data-name="Ellipse 367" cx="1.5" cy="1.5" r="1.5" transform="translate(52)" fill="#24a7f1"/>
      <circle id="Ellipse_368-2" data-name="Ellipse 368" cx="1.5" cy="1.5" r="1.5" transform="translate(39)" fill="#24a7f1"/>
      <circle id="Ellipse_369-2" data-name="Ellipse 369" cx="1.5" cy="1.5" r="1.5" transform="translate(26)" fill="#24a7f1"/>
      <circle id="Ellipse_370-2" data-name="Ellipse 370" cx="1.5" cy="1.5" r="1.5" transform="translate(13)" fill="#24a7f1"/>
      <circle id="Ellipse_371-2" data-name="Ellipse 371" cx="1.5" cy="1.5" r="1.5" fill="#24a7f1"/>
      <circle id="Ellipse_372-2" data-name="Ellipse 372" cx="1.5" cy="1.5" r="1.5" transform="translate(65 13)" fill="#24a7f1"/>
      <circle id="Ellipse_373-2" data-name="Ellipse 373" cx="1.5" cy="1.5" r="1.5" transform="translate(52 13)" fill="#24a7f1"/>
      <circle id="Ellipse_374-2" data-name="Ellipse 374" cx="1.5" cy="1.5" r="1.5" transform="translate(39 13)" fill="#24a7f1"/>
      <circle id="Ellipse_375-2" data-name="Ellipse 375" cx="1.5" cy="1.5" r="1.5" transform="translate(26 13)" fill="#24a7f1"/>
      <circle id="Ellipse_376-2" data-name="Ellipse 376" cx="1.5" cy="1.5" r="1.5" transform="translate(13 13)" fill="#24a7f1"/>
      <circle id="Ellipse_377-2" data-name="Ellipse 377" cx="1.5" cy="1.5" r="1.5" transform="translate(0 13)" fill="#24a7f1"/>
      <circle id="Ellipse_378-2" data-name="Ellipse 378" cx="1.5" cy="1.5" r="1.5" transform="translate(65 26)" fill="#24a7f1"/>
      <circle id="Ellipse_379-2" data-name="Ellipse 379" cx="1.5" cy="1.5" r="1.5" transform="translate(52 26)" fill="#24a7f1"/>
      <circle id="Ellipse_380-2" data-name="Ellipse 380" cx="1.5" cy="1.5" r="1.5" transform="translate(39 26)" fill="#24a7f1"/>
      <circle id="Ellipse_381-2" data-name="Ellipse 381" cx="1.5" cy="1.5" r="1.5" transform="translate(26 26)" fill="#24a7f1"/>
      <circle id="Ellipse_382-2" data-name="Ellipse 382" cx="1.5" cy="1.5" r="1.5" transform="translate(13 26)" fill="#24a7f1"/>
      <circle id="Ellipse_383-2" data-name="Ellipse 383" cx="1.5" cy="1.5" r="1.5" transform="translate(0 26)" fill="#24a7f1"/>
      <circle id="Ellipse_384-2" data-name="Ellipse 384" cx="1.5" cy="1.5" r="1.5" transform="translate(65 52)" fill="#24a7f1"/>
      <circle id="Ellipse_385-2" data-name="Ellipse 385" cx="1.5" cy="1.5" r="1.5" transform="translate(52 52)" fill="#24a7f1"/>
      <circle id="Ellipse_386-2" data-name="Ellipse 386" cx="1.5" cy="1.5" r="1.5" transform="translate(39 52)" fill="#24a7f1"/>
      <circle id="Ellipse_387-2" data-name="Ellipse 387" cx="1.5" cy="1.5" r="1.5" transform="translate(26 52)" fill="#24a7f1"/>
      <circle id="Ellipse_388-2" data-name="Ellipse 388" cx="1.5" cy="1.5" r="1.5" transform="translate(13 52)" fill="#24a7f1"/>
      <circle id="Ellipse_389-2" data-name="Ellipse 389" cx="1.5" cy="1.5" r="1.5" transform="translate(0 52)" fill="#24a7f1"/>
      <circle id="Ellipse_390-2" data-name="Ellipse 390" cx="1.5" cy="1.5" r="1.5" transform="translate(65 39)" fill="#24a7f1"/>
      <circle id="Ellipse_391-2" data-name="Ellipse 391" cx="1.5" cy="1.5" r="1.5" transform="translate(52 39)" fill="#24a7f1"/>
      <circle id="Ellipse_392-2" data-name="Ellipse 392" cx="1.5" cy="1.5" r="1.5" transform="translate(39 39)" fill="#24a7f1"/>
      <circle id="Ellipse_393-2" data-name="Ellipse 393" cx="1.5" cy="1.5" r="1.5" transform="translate(26 39)" fill="#24a7f1"/>
      <circle id="Ellipse_394-2" data-name="Ellipse 394" cx="1.5" cy="1.5" r="1.5" transform="translate(13 39)" fill="#24a7f1"/>
      <circle id="Ellipse_395-2" data-name="Ellipse 395" cx="1.5" cy="1.5" r="1.5" transform="translate(0 39)" fill="#24a7f1"/>
      <circle id="Ellipse_396-2" data-name="Ellipse 396" cx="1.5" cy="1.5" r="1.5" transform="translate(65 65)" fill="#24a7f1"/>
      <circle id="Ellipse_397-2" data-name="Ellipse 397" cx="1.5" cy="1.5" r="1.5" transform="translate(52 65)" fill="#24a7f1"/>
      <circle id="Ellipse_398-2" data-name="Ellipse 398" cx="1.5" cy="1.5" r="1.5" transform="translate(39 65)" fill="#24a7f1"/>
      <circle id="Ellipse_399-2" data-name="Ellipse 399" cx="1.5" cy="1.5" r="1.5" transform="translate(26 65)" fill="#24a7f1"/>
      <circle id="Ellipse_400-2" data-name="Ellipse 400" cx="1.5" cy="1.5" r="1.5" transform="translate(13 65)" fill="#24a7f1"/>
      <circle id="Ellipse_401-2" data-name="Ellipse 401" cx="1.5" cy="1.5" r="1.5" transform="translate(0 65)" fill="#24a7f1"/>
    </g>
    <g id="Group_3721" data-name="Group 3721" transform="translate(230 1066)" opacity="0.49">
      <circle id="Ellipse_402" data-name="Ellipse 402" cx="2" cy="2" r="2" transform="translate(88)" fill="#24a7f1"/>
      <circle id="Ellipse_403" data-name="Ellipse 403" cx="2" cy="2" r="2" transform="translate(70)" fill="#24a7f1"/>
      <circle id="Ellipse_404" data-name="Ellipse 404" cx="2" cy="2" r="2" transform="translate(53)" fill="#24a7f1"/>
      <circle id="Ellipse_405" data-name="Ellipse 405" cx="2" cy="2" r="2" transform="translate(35)" fill="#24a7f1"/>
      <circle id="Ellipse_406" data-name="Ellipse 406" cx="2" cy="2" r="2" transform="translate(18)" fill="#24a7f1"/>
      <circle id="Ellipse_407" data-name="Ellipse 407" cx="2" cy="2" r="2" fill="#24a7f1"/>
      <circle id="Ellipse_408" data-name="Ellipse 408" cx="2" cy="2" r="2" transform="translate(88 18)" fill="#24a7f1"/>
      <circle id="Ellipse_409" data-name="Ellipse 409" cx="2" cy="2" r="2" transform="translate(70 18)" fill="#24a7f1"/>
      <circle id="Ellipse_410" data-name="Ellipse 410" cx="2" cy="2" r="2" transform="translate(53 18)" fill="#24a7f1"/>
      <circle id="Ellipse_411" data-name="Ellipse 411" cx="2" cy="2" r="2" transform="translate(35 18)" fill="#24a7f1"/>
      <circle id="Ellipse_412" data-name="Ellipse 412" cx="2" cy="2" r="2" transform="translate(18 18)" fill="#24a7f1"/>
      <circle id="Ellipse_413" data-name="Ellipse 413" cx="2" cy="2" r="2" transform="translate(0 18)" fill="#24a7f1"/>
      <circle id="Ellipse_414" data-name="Ellipse 414" cx="2" cy="2" r="2" transform="translate(88 35)" fill="#24a7f1"/>
      <circle id="Ellipse_415" data-name="Ellipse 415" cx="2" cy="2" r="2" transform="translate(70 35)" fill="#24a7f1"/>
      <circle id="Ellipse_416" data-name="Ellipse 416" cx="2" cy="2" r="2" transform="translate(53 35)" fill="#24a7f1"/>
      <circle id="Ellipse_417" data-name="Ellipse 417" cx="2" cy="2" r="2" transform="translate(35 35)" fill="#24a7f1"/>
      <circle id="Ellipse_418" data-name="Ellipse 418" cx="2" cy="2" r="2" transform="translate(18 35)" fill="#24a7f1"/>
      <circle id="Ellipse_419" data-name="Ellipse 419" cx="2" cy="2" r="2" transform="translate(0 35)" fill="#24a7f1"/>
      <circle id="Ellipse_420" data-name="Ellipse 420" cx="2" cy="2" r="2" transform="translate(88 70)" fill="#24a7f1"/>
      <circle id="Ellipse_421" data-name="Ellipse 421" cx="2" cy="2" r="2" transform="translate(70 70)" fill="#24a7f1"/>
      <circle id="Ellipse_422" data-name="Ellipse 422" cx="2" cy="2" r="2" transform="translate(53 70)" fill="#24a7f1"/>
      <circle id="Ellipse_423" data-name="Ellipse 423" cx="2" cy="2" r="2" transform="translate(35 70)" fill="#24a7f1"/>
      <circle id="Ellipse_424" data-name="Ellipse 424" cx="2" cy="2" r="2" transform="translate(18 70)" fill="#24a7f1"/>
      <circle id="Ellipse_425" data-name="Ellipse 425" cx="2" cy="2" r="2" transform="translate(0 70)" fill="#24a7f1"/>
      <circle id="Ellipse_426" data-name="Ellipse 426" cx="2" cy="2" r="2" transform="translate(88 53)" fill="#24a7f1"/>
      <circle id="Ellipse_427" data-name="Ellipse 427" cx="2" cy="2" r="2" transform="translate(70 53)" fill="#24a7f1"/>
      <circle id="Ellipse_428" data-name="Ellipse 428" cx="2" cy="2" r="2" transform="translate(53 53)" fill="#24a7f1"/>
      <circle id="Ellipse_429" data-name="Ellipse 429" cx="2" cy="2" r="2" transform="translate(35 53)" fill="#24a7f1"/>
      <circle id="Ellipse_430" data-name="Ellipse 430" cx="2" cy="2" r="2" transform="translate(18 53)" fill="#24a7f1"/>
      <circle id="Ellipse_431" data-name="Ellipse 431" cx="2" cy="2" r="2" transform="translate(0 53)" fill="#24a7f1"/>
      <circle id="Ellipse_432" data-name="Ellipse 432" cx="2" cy="2" r="2" transform="translate(88 88)" fill="#24a7f1"/>
      <circle id="Ellipse_433" data-name="Ellipse 433" cx="2" cy="2" r="2" transform="translate(70 88)" fill="#24a7f1"/>
      <circle id="Ellipse_434" data-name="Ellipse 434" cx="2" cy="2" r="2" transform="translate(53 88)" fill="#24a7f1"/>
      <circle id="Ellipse_435" data-name="Ellipse 435" cx="2" cy="2" r="2" transform="translate(35 88)" fill="#24a7f1"/>
      <circle id="Ellipse_436" data-name="Ellipse 436" cx="2" cy="2" r="2" transform="translate(18 88)" fill="#24a7f1"/>
      <circle id="Ellipse_437" data-name="Ellipse 437" cx="2" cy="2" r="2" transform="translate(0 88)" fill="#24a7f1"/>
    </g>
    <g id="Ellipse_438" data-name="Ellipse 438" transform="translate(-123 926)" fill="none" stroke="#24a7f1" stroke-width="1">
      <circle cx="130.5" cy="130.5" r="130.5" stroke="none"/>
      <circle cx="130.5" cy="130.5" r="130" fill="none"/>
    </g>
    <g id="Ellipse_439" data-name="Ellipse 439" transform="translate(1233 594)" fill="none" stroke="#24a7f1" stroke-width="1">
      <circle cx="107.5" cy="107.5" r="107.5" stroke="none"/>
      <circle cx="107.5" cy="107.5" r="107" fill="none"/>
    </g>
  </g>
</svg>
