<svg xmlns="http://www.w3.org/2000/svg" width="743.74" height="346.185" viewBox="0 0 743.74 346.185">
  <g id="aaa" transform="translate(0.005 0.005)" opacity="0.51">
    <g id="Group_3585" data-name="Group 3585" transform="translate(6.543 111.179)">
      <path id="Path_545" data-name="Path 545" d="M96.518,166.29H7.15V164.1H95.611l10.359-10.374h32.013l34.033-34.032H336.355L377.864,78.18l1.551,1.551-42.153,42.153H172.923l-34.032,34.032H106.877Z" transform="translate(-3.229 -74.968)" fill="#4b5363"/>
      <path id="Path_546" data-name="Path 546" d="M259.342,77.192a4.128,4.128,0,1,1,0,5.838A4.133,4.133,0,0,1,259.342,77.192Z" transform="translate(113.011 -75.985)" fill="#4b5363"/>
      <circle id="Ellipse_268" data-name="Ellipse 268" cx="4.126" cy="4.126" r="4.126" transform="translate(0 86.098)" fill="#4b5363"/>
    </g>
    <g id="Group_3586" data-name="Group 3586" transform="translate(13.324 210.62)">
      <path id="Path_547" data-name="Path 547" d="M496.553,218.189H157.589L85.529,146.145H30.618L12.841,163.907l-1.551-1.551L29.711,143.95H86.437L158.5,215.995h337.15l66.514-66.514H672.173v2.195H563.067Z" transform="translate(-8.093 -143.95)" fill="#4b5363"/>
      <circle id="Ellipse_269" data-name="Ellipse 269" cx="4.126" cy="4.126" r="4.126" transform="translate(659.749 2.502)" fill="#4b5363"/>
      <path id="Path_548" data-name="Path 548" d="M10.312,155.342a4.128,4.128,0,1,0,5.838,0A4.133,4.133,0,0,0,10.312,155.342Z" transform="translate(-9.105 -139.233)" fill="#4b5363"/>
    </g>
    <g id="Group_3587" data-name="Group 3587" transform="translate(231.353 192.77)">
      <path id="Path_549" data-name="Path 549" d="M159.671,222.559l-1.551-1.551,39.446-39.446H380.692l47.742-47.742H572.86v2.195H429.341L381.6,183.757H198.488Z" transform="translate(-158.12 -130.791)" fill="#4b5363"/>
      <path id="Path_550" data-name="Path 550" d="M442.746,140a4.126,4.126,0,1,0-4.126-4.126A4.121,4.121,0,0,0,442.746,140Z" transform="translate(-28.211 -131.75)" fill="#4b5363"/>
    </g>
    <g id="Group_3588" data-name="Group 3588" transform="translate(122.569 133.689)">
      <path id="Path_551" data-name="Path 551" d="M179.708,200.893H83.77V198.7h95.016l43.045-43.045H385.38L447.608,93.44H680.86v2.195H448.515L386.3,157.847H222.738Z" transform="translate(-83.77 -90.411)" fill="#4b5363"/>
      <path id="Path_552" data-name="Path 552" d="M493.026,99.622A4.126,4.126,0,1,0,488.9,95.5,4.121,4.121,0,0,0,493.026,99.622Z" transform="translate(103.859 -91.37)" fill="#4b5363"/>
    </g>
    <g id="Group_3589" data-name="Group 3589" transform="translate(103.797 182.206)">
      <path id="Path_553" data-name="Path 553" d="M172.335,166.748H70.94v-2.195H171.428L209.382,126.6H356.558v2.195H210.289Z" transform="translate(-70.94 -123.571)" fill="#4b5363"/>
      <path id="Path_554" data-name="Path 554" d="M267.316,132.782a4.126,4.126,0,1,0-4.126-4.126A4.121,4.121,0,0,0,267.316,132.782Z" transform="translate(18.097 -124.53)" fill="#4b5363"/>
    </g>
    <g id="Group_3590" data-name="Group 3590" transform="translate(223.95 79.114)">
      <path id="Path_555" data-name="Path 555" d="M154.611,132.135l-1.551-1.551,46.469-46.469h80.984L308.489,56.14H538.435v2.195H309.411L281.435,86.31h-81Z" transform="translate(-153.06 -53.111)" fill="#4b5363"/>
      <circle id="Ellipse_270" data-name="Ellipse 270" cx="4.126" cy="4.126" r="4.126" transform="translate(381.044)" fill="#4b5363"/>
    </g>
    <g id="Group_3591" data-name="Group 3591" transform="translate(272.935 133.689)">
      <path id="Path_556" data-name="Path 556" d="M188.091,114.392l-1.551-1.551,19.387-19.4h30.579v2.195H206.834Z" transform="translate(-186.54 -90.411)" fill="#4b5363"/>
      <path id="Path_557" data-name="Path 557" d="M221.856,99.622A4.126,4.126,0,1,0,217.73,95.5,4.121,4.121,0,0,0,221.856,99.622Z" transform="translate(-172.095 -91.37)" fill="#4b5363"/>
    </g>
    <g id="Group_3592" data-name="Group 3592" transform="translate(385.472 148.357)">
      <path id="Path_558" data-name="Path 558" d="M330.7,124.2H284.715L265.65,105.131l1.551-1.551L285.622,122H330.7Z" transform="translate(-262.438 -100.383)" fill="#4b5363"/>
      <path id="Path_559" data-name="Path 559" d="M270.5,102.6a4.128,4.128,0,1,0,0,5.838A4.133,4.133,0,0,0,270.5,102.6Z" transform="translate(-263.455 -101.395)" fill="#4b5363"/>
    </g>
    <g id="Group_3593" data-name="Group 3593" transform="translate(334.972 154.436)">
      <path id="Path_560" data-name="Path 560" d="M342.538,169.276h-95.6l-18-18,1.551-1.551,17.353,17.353h93.787l59.476-59.462h86.53v2.195H402.014Z" transform="translate(-228.94 -104.591)" fill="#4b5363"/>
      <path id="Path_561" data-name="Path 561" d="M406.916,113.8a4.126,4.126,0,1,0-4.126-4.126A4.121,4.121,0,0,0,406.916,113.8Z" transform="translate(-148.424 -105.55)" fill="#4b5363"/>
    </g>
    <g id="Group_3594" data-name="Group 3594" transform="translate(306.5 222.684)">
      <path id="Path_562" data-name="Path 562" d="M393.806,197.713H233.256L209.48,173.937l1.551-1.566,23.132,23.147H392.9l41.129-41.129,1.551,1.551Z" transform="translate(-209.48 -151.178)" fill="#4b5363"/>
      <path id="Path_563" data-name="Path 563" d="M367.6,159.24a4.128,4.128,0,1,0-5.838,0A4.133,4.133,0,0,0,367.6,159.24Z" transform="translate(-139.512 -152.195)" fill="#4b5363"/>
    </g>
    <g id="Group_3595" data-name="Group 3595" transform="translate(408.217 82.655)">
      <path id="Path_564" data-name="Path 564" d="M426.894,83.412H304.356L279,58.041l1.551-1.551,24.727,24.727H426.894Z" transform="translate(-279 -56.49)" fill="#4b5363"/>
      <circle id="Ellipse_271" data-name="Ellipse 271" cx="4.126" cy="4.126" r="4.126" transform="translate(143.563 21.698)" fill="#4b5363"/>
    </g>
    <g id="Group_3596" data-name="Group 3596" transform="translate(567.859 116.087)">
      <path id="Path_565" data-name="Path 565" d="M389.661,100.5l-1.551-1.551L405.638,81.41H500V83.6H406.56Z" transform="translate(-388.11 -78.381)" fill="#4b5363"/>
      <path id="Path_566" data-name="Path 566" d="M465.746,87.592a4.126,4.126,0,1,0-4.126-4.126A4.121,4.121,0,0,0,465.746,87.592Z" transform="translate(-354.065 -79.34)" fill="#4b5363"/>
    </g>
    <g id="Group_3597" data-name="Group 3597" transform="translate(148.993 212.625)">
      <path id="Path_567" data-name="Path 567" d="M175.06,202.126H101.83v-2.195h72.308l52.541-52.541H266.93v2.195H227.586Z" transform="translate(-101.83 -144.361)" fill="#4b5363"/>
      <path id="Path_568" data-name="Path 568" d="M215.836,153.572a4.126,4.126,0,1,0-4.126-4.126A4.121,4.121,0,0,0,215.836,153.572Z" transform="translate(-50.941 -145.32)" fill="#4b5363"/>
    </g>
    <g id="Group_3598" data-name="Group 3598" transform="translate(528.735 157.787)">
      <path id="Path_569" data-name="Path 569" d="M542.3,152.2,521.32,131.221H383.2l-21.83-21.83,1.551-1.551,21.186,21.186H522.242l21.61,21.625Z" transform="translate(-361.37 -107.84)" fill="#4b5363"/>
      <path id="Path_570" data-name="Path 570" d="M483.842,141.75a4.128,4.128,0,1,0,0-5.838A4.133,4.133,0,0,0,483.842,141.75Z" transform="translate(-305.208 -95.398)" fill="#4b5363"/>
    </g>
    <g id="Group_3599" data-name="Group 3599" transform="translate(-0.005 55.44)">
      <path id="Path_571" data-name="Path 571" d="M59.794,173.617H21.737L2.19,154.07l1.551-1.551,18.9,18.9H58.886l73.961-73.947h53.99L244.353,39.96h75.966v2.195H245.275L187.745,99.67h-53.99Z" transform="translate(1.022 -36.931)" fill="#4b5363"/>
      <path id="Path_572" data-name="Path 572" d="M220.786,37.89a4.126,4.126,0,1,1-4.126,4.126A4.121,4.121,0,0,1,220.786,37.89Z" transform="translate(100.35 -37.89)" fill="#4b5363"/>
      <path id="Path_573" data-name="Path 573" d="M7.04,115.912a4.128,4.128,0,1,0,0,5.838A4.133,4.133,0,0,0,7.04,115.912Z" transform="translate(0.005 -2.314)" fill="#4b5363"/>
    </g>
    <g id="Group_3600" data-name="Group 3600" transform="translate(79.919 134.859)">
      <path id="Path_574" data-name="Path 574" d="M91.462,128.916H54.62v-2.195H90.555L123.036,94.24h32.145v2.195H123.943Z" transform="translate(-54.62 -91.211)" fill="#4b5363"/>
      <path id="Path_575" data-name="Path 575" d="M124.516,100.422A4.126,4.126,0,1,0,120.39,96.3,4.121,4.121,0,0,0,124.516,100.422Z" transform="translate(-24.16 -92.17)" fill="#4b5363"/>
    </g>
    <g id="Group_3601" data-name="Group 3601" transform="translate(211.001 65.5)">
      <path id="Path_576" data-name="Path 576" d="M226.438,73.74H144.21V71.545h81.321l17.031-17.016h46.747l7.579-7.579,1.551,1.551-8.223,8.223H243.469Z" transform="translate(-144.21 -43.753)" fill="#4b5363"/>
      <path id="Path_577" data-name="Path 577" d="M253.21,51.81a4.128,4.128,0,1,0-5.838,0A4.133,4.133,0,0,0,253.21,51.81Z" transform="translate(-96.991 -44.765)" fill="#4b5363"/>
    </g>
    <g id="Group_3602" data-name="Group 3602" transform="translate(203.927 119.782)">
      <path id="Path_578" data-name="Path 578" d="M180.655,98.033H153.982L141.56,85.611l1.551-1.551,11.778,11.778h25.766Z" transform="translate(-138.363 -80.848)" fill="#4b5363"/>
      <path id="Path_579" data-name="Path 579" d="M146.42,83.072a4.128,4.128,0,1,0,0,5.838A4.133,4.133,0,0,0,146.42,83.072Z" transform="translate(-139.375 -81.865)" fill="#4b5363"/>
    </g>
    <g id="Group_3603" data-name="Group 3603" transform="translate(328.388 41.248)">
      <path id="Path_580" data-name="Path 580" d="M535.78,64.959,522.144,51.322H370.914L349.977,30.385H260.492l-34.5,34.5-1.551-1.551L259.585,28.19h91.3l20.937,20.937h151.23l14.28,14.28Z" transform="translate(-224.44 -28.19)" fill="#4b5363"/>
      <path id="Path_581" data-name="Path 581" d="M436.042,56.91a4.128,4.128,0,1,0,0-5.838A4.133,4.133,0,0,0,436.042,56.91Z" transform="translate(-126.999 -18.152)" fill="#4b5363"/>
    </g>
    <g id="Group_3604" data-name="Group 3604" transform="translate(364.381 131.64)">
      <path id="Path_582" data-name="Path 582" d="M332.761,100.417l-8.267-8.252H249.04V89.97H325.4l8.91,8.9Z" transform="translate(-249.04 -89.97)" fill="#4b5363"/>
      <path id="Path_583" data-name="Path 583" d="M305.072,100.7a4.128,4.128,0,1,0,0-5.838A4.133,4.133,0,0,0,305.072,100.7Z" transform="translate(-223.649 -88.263)" fill="#4b5363"/>
    </g>
    <g id="Group_3605" data-name="Group 3605" transform="translate(118.414 169.55)">
      <path id="Path_584" data-name="Path 584" d="M160.042,152.714H96.4L80.93,137.249l1.551-1.551L97.3,150.519h61.832L191.7,117.95H280.18v2.195H192.611Z" transform="translate(-80.93 -114.921)" fill="#4b5363"/>
      <path id="Path_585" data-name="Path 585" d="M218.276,124.132a4.126,4.126,0,1,0-4.126-4.126A4.121,4.121,0,0,0,218.276,124.132Z" transform="translate(-19.231 -115.88)" fill="#4b5363"/>
    </g>
    <g id="Group_3606" data-name="Group 3606" transform="translate(155.724 173.033)">
      <rect id="Rectangle_1412" data-name="Rectangle 1412" width="38.861" height="2.195" transform="translate(0 3.029)" fill="#4b5363"/>
      <path id="Path_586" data-name="Path 586" d="M134.166,126.512a4.126,4.126,0,1,0-4.126-4.126A4.121,4.121,0,0,0,134.166,126.512Z" transform="translate(-95.495 -118.26)" fill="#4b5363"/>
    </g>
    <g id="Group_3607" data-name="Group 3607" transform="translate(366.854 216.985)">
      <path id="Path_587" data-name="Path 587" d="M326.213,163.092H263.971L250.73,149.851l1.551-1.551,12.6,12.6h61.335Z" transform="translate(-250.73 -148.3)" fill="#4b5363"/>
      <path id="Path_588" data-name="Path 588" d="M303.476,163.092a4.126,4.126,0,1,0-4.126-4.126A4.121,4.121,0,0,0,303.476,163.092Z" transform="translate(-228.212 -145.271)" fill="#4b5363"/>
    </g>
    <g id="Group_3608" data-name="Group 3608" transform="translate(387.645 41.628)">
      <path id="Path_589" data-name="Path 589" d="M329.245,50.66H285.6L264.94,30l1.551-1.551,20.016,20.016h42.738Z" transform="translate(-264.94 -28.45)" fill="#4b5363"/>
      <path id="Path_590" data-name="Path 590" d="M310.046,48.312a4.126,4.126,0,1,0-4.126-4.126A4.121,4.121,0,0,0,310.046,48.312Z" transform="translate(-245.961 -23.073)" fill="#4b5363"/>
    </g>
    <g id="Group_3609" data-name="Group 3609" transform="translate(467.883 205.719)">
      <path id="Path_591" data-name="Path 591" d="M345.385,166.651h-25.6v-2.195h24.7l21.8-21.786h37.866v2.195H367.186Z" transform="translate(-319.78 -139.641)" fill="#4b5363"/>
      <circle id="Ellipse_272" data-name="Ellipse 272" cx="4.126" cy="4.126" r="4.126" transform="translate(80.033)" fill="#4b5363"/>
    </g>
    <g id="Group_3610" data-name="Group 3610" transform="translate(472.112 107.996)">
      <path id="Path_592" data-name="Path 592" d="M390.794,88.778H336.087L322.67,75.361l1.551-1.551,12.773,12.773h53.8Z" transform="translate(-322.67 -73.81)" fill="#4b5363"/>
      <path id="Path_593" data-name="Path 593" d="M370.4,88.722A4.126,4.126,0,1,0,366.27,84.6,4.121,4.121,0,0,0,370.4,88.722Z" transform="translate(-302.477 -70.726)" fill="#4b5363"/>
    </g>
    <g id="Group_3611" data-name="Group 3611" transform="translate(201.9 283.426)">
      <path id="Path_594" data-name="Path 594" d="M475.1,256.464H199.208l-61.218-61.2,1.551-1.551,60.574,60.559h274.06l42.636-42.621H660.973L676.628,227.3l-1.551,1.551-15.012-15.012H517.717Z" transform="translate(-137.99 -193.71)" fill="#4b5363"/>
      <path id="Path_595" data-name="Path 595" d="M503.882,221.33a4.128,4.128,0,1,0,0-5.838A4.133,4.133,0,0,0,503.882,221.33Z" transform="translate(30.908 -184.181)" fill="#4b5363"/>
    </g>
    <g id="Group_3612" data-name="Group 3612" transform="translate(398.765 256.219)">
      <path id="Path_596" data-name="Path 596" d="M423.667,225.93H295.848L272.54,202.608l1.551-1.551,22.664,22.679H422.76l46.425-46.425,1.551,1.551Z" transform="translate(-272.54 -174.098)" fill="#4b5363"/>
      <path id="Path_597" data-name="Path 597" d="M411.59,182.16a4.128,4.128,0,1,0-5.838,0A4.133,4.133,0,0,0,411.59,182.16Z" transform="translate(-211.404 -175.115)" fill="#4b5363"/>
    </g>
    <g id="Group_3613" data-name="Group 3613" transform="translate(522.048 235.289)">
      <path id="Path_598" data-name="Path 598" d="M400.518,188.865H356.8v-2.195h42.8L423.4,162.88h46.762v2.195H424.309Z" transform="translate(-356.8 -159.851)" fill="#4b5363"/>
      <circle id="Ellipse_273" data-name="Ellipse 273" cx="4.126" cy="4.126" r="4.126" transform="translate(109.033)" fill="#4b5363"/>
    </g>
    <g id="Group_3614" data-name="Group 3614" transform="translate(622.697 270.375)">
      <path id="Path_599" data-name="Path 599" d="M427.141,216.854,425.59,215.3l28.443-28.443h28.985v2.195H454.94Z" transform="translate(-425.59 -183.831)" fill="#4b5363"/>
      <path id="Path_600" data-name="Path 600" d="M466.006,193.042a4.126,4.126,0,1,0-4.126-4.126A4.121,4.121,0,0,0,466.006,193.042Z" transform="translate(-408.783 -184.79)" fill="#4b5363"/>
    </g>
    <g id="Group_3615" data-name="Group 3615" transform="translate(230.885 310.655)">
      <path id="Path_601" data-name="Path 601" d="M285.971,230.331l-15.816-15.816H157.8V212.32H271.061l16.46,16.46Z" transform="translate(-157.8 -212.32)" fill="#4b5363"/>
      <path id="Path_602" data-name="Path 602" d="M244.222,228.23a4.128,4.128,0,1,0,0-5.838A4.133,4.133,0,0,0,244.222,228.23Z" transform="translate(-118.334 -208.214)" fill="#4b5363"/>
    </g>
    <g id="Group_3616" data-name="Group 3616" transform="translate(354.461 283.104)">
      <path id="Path_603" data-name="Path 603" d="M370.343,235.745H282.95l-40.69-40.7,1.551-1.551,40.061,40.061h86.471Z" transform="translate(-242.26 -193.49)" fill="#4b5363"/>
      <path id="Path_604" data-name="Path 604" d="M330.966,227.052a4.126,4.126,0,1,0-4.126-4.126A4.121,4.121,0,0,0,330.966,227.052Z" transform="translate(-203.088 -181.768)" fill="#4b5363"/>
    </g>
    <g id="Group_3617" data-name="Group 3617" transform="translate(508.88 -0.005)">
      <path id="Path_605" data-name="Path 605" d="M349.366,62.866,347.8,61.315l33.7-33.7H523.157L548.586,2.19l1.551,1.551L524.064,29.814H382.4Z" transform="translate(-347.8 1.022)" fill="#4b5363"/>
      <path id="Path_606" data-name="Path 606" d="M489.68,7.04a4.128,4.128,0,1,0-5.838,0A4.133,4.133,0,0,0,489.68,7.04Z" transform="translate(-285.353 0.005)" fill="#4b5363"/>
    </g>
  </g>
</svg>
