<svg id="Group_3731" data-name="Group 3731" xmlns="http://www.w3.org/2000/svg" width="36.36" height="45" viewBox="0 0 36.36 45">
  <path id="Path_794" data-name="Path 794" d="M49.685,47.078A2.743,2.743,0,0,0,47.59,44.42V35.536h-1.3V44.42a2.738,2.738,0,1,0,2.068,4.994l5.176,5.176.917-.917L49.278,48.5A2.715,2.715,0,0,0,49.685,47.078Z" transform="translate(-28.761 -20.258)" fill="#00c48c"/>
  <path id="Path_795" data-name="Path 795" d="M44.36,18.944A18.469,18.469,0,0,0,42.73,17.5l.786-1.123.328.229a.929.929,0,0,0,.535.17.97.97,0,0,0,.165-.015.93.93,0,0,0,.6-.385l.641-.915a.938.938,0,0,0-.23-1.3l-2.283-1.6a.938.938,0,0,0-1.3.23l-.641.915a.938.938,0,0,0,.23,1.3l.327.229L41.1,16.358A18,18,0,0,0,33.165,13.7c0-.031.01-.062.01-.094v-.868c1.986-.544,3.416-2.024,3.416-3.765,0-2.2-2.282-3.99-5.086-3.99s-5.086,1.79-5.086,3.99c0,1.741,1.431,3.222,3.417,3.765V13.6c0,.032.007.062.01.094a18,18,0,0,0-7.939,2.661l-.784-1.119.327-.229a.938.938,0,0,0,.23-1.3l-.641-.915a.938.938,0,0,0-1.3-.23l-2.283,1.6a.937.937,0,0,0-.23,1.3l.641.915a.938.938,0,0,0,1.3.23l.327-.229L20.28,17.5a18.459,18.459,0,0,0-1.63,1.442,18.18,18.18,0,1,0,25.71,0ZM47.888,31.8A16.384,16.384,0,1,1,31.5,15.415,16.4,16.4,0,0,1,47.888,31.8ZM27.067,8.969c0-1.842,1.991-3.342,4.437-3.342s4.437,1.5,4.437,3.342a3.5,3.5,0,0,1-2.768,3.094v-.274a1.152,1.152,0,0,0-1.151-1.151H30.986a1.152,1.152,0,0,0-1.151,1.151v.274A3.5,3.5,0,0,1,27.067,8.969Z" transform="translate(-13.325 -4.979)" fill="#00c48c"/>
  <rect id="Rectangle_1423" data-name="Rectangle 1423" width="1.298" height="2.285" transform="translate(17.531 11.495)" fill="#00c48c"/>
  <rect id="Rectangle_1424" data-name="Rectangle 1424" width="2.285" height="1.298" transform="translate(2.855 26.172)" fill="#00c48c"/>
  <rect id="Rectangle_1425" data-name="Rectangle 1425" width="1.298" height="2.285" transform="translate(17.531 39.861)" fill="#00c48c"/>
  <rect id="Rectangle_1426" data-name="Rectangle 1426" width="2.285" height="1.298" transform="translate(31.221 26.172)" fill="#00c48c"/>
</svg>
