<svg xmlns="http://www.w3.org/2000/svg" width="47.94" height="45" viewBox="0 0 47.94 45">
  <g id="Group_3732" data-name="Group 3732" transform="translate(-2.486 -5.4)">
    <path id="Path_797" data-name="Path 797" d="M51.972,53.041l.757,8.324a1.18,1.18,0,0,1-1.715,1.16l-2.321-1.16A22.492,22.492,0,0,1,7.224,57.531,1.861,1.861,0,0,1,8.99,55.16a1.9,1.9,0,0,1,1.766,1.312A18.831,18.831,0,0,0,45.414,59.75L43.043,58.54a1.188,1.188,0,0,1-.1-2.068l7.164-4.339A1.244,1.244,0,0,1,51.972,53.041Z" transform="translate(-2.31 -23.072)" fill="#00c48c"/>
    <path id="Path_798" data-name="Path 798" d="M26.456,5.4A22.54,22.54,0,0,1,48,21.342a1.861,1.861,0,0,1-1.766,2.371A1.9,1.9,0,0,1,44.466,22.4,18.831,18.831,0,0,0,9.808,19.122l2.371,1.211a1.188,1.188,0,0,1,.1,2.068L5.066,26.74a1.212,1.212,0,0,1-1.816-.908l-.757-8.374A1.18,1.18,0,0,1,4.208,16.3l2.321,1.16A22.553,22.553,0,0,1,26.456,5.4Z" fill="#00c48c"/>
  </g>
</svg>
