<svg xmlns="http://www.w3.org/2000/svg" width="83.211" height="83.207" viewBox="0 0 83.211 83.207">
  <g id="Group_3735" data-name="Group 3735" transform="translate(0 0)">
    <path id="Path_813" data-name="Path 813" d="M52.865,43.051l-11.948-2.39V39.9h0a14.592,14.592,0,0,0,1.674-1.614,12.714,12.714,0,0,0,2.307-3.921h.685a5.482,5.482,0,0,0,2.77-10.212V17.867A11.056,11.056,0,0,0,37.329,6.847h-.32l-2.415,0h-7.93A11.056,11.056,0,0,0,15.645,17.863v6.287a5.482,5.482,0,0,0,2.77,10.212h.692a12.772,12.772,0,0,0,2.307,3.925A14.3,14.3,0,0,0,23.088,39.9h-.014v.759l-11.948,2.39A8.924,8.924,0,0,0,3.951,51.8V65.4a.987.987,0,0,0,.988.988H59.048a.987.987,0,0,0,.988-.988V51.8A8.917,8.917,0,0,0,52.865,43.051Zm-10.936.411L39.083,51.05l-4.958-4.134,5.786-3.859Zm3.657-13.194V26.12a2.769,2.769,0,0,1,2.759,2.766,2.636,2.636,0,0,1-.713,1.764,2.714,2.714,0,0,1-2.053.971h-.07v0c.045-.418.07-.839.073-1.267C45.582,30.323,45.586,30.3,45.586,30.268Zm-27.178,1.35a2.7,2.7,0,0,1-2.126-1.079,2.62,2.62,0,0,1-.64-1.656,2.77,2.77,0,0,1,2.77-2.77v4.154c0,.028,0,.056,0,.084,0,.428.028.849.073,1.267h-.08Zm0-8.25v-5.5a8.254,8.254,0,0,1,8.253-8.253h7.93l2.415,0h.32A8.219,8.219,0,0,1,45.5,17.147c.021.244.073.477.073.724v5.5H37.66a2.738,2.738,0,0,1-1.969-.842,2.667,2.667,0,0,1-.779-1.889V15.118h-.32v0H32.162v1.374a6.883,6.883,0,0,1-6.875,6.875H18.408Zm5.671,19.69,5.79,3.859L24.911,51.05l-2.846-7.589ZM15.315,63.837V59.289a1.392,1.392,0,0,0-2.784,0v4.548H6.5V51.8a6.371,6.371,0,0,1,5.125-6.249l7.909-1.583,3.744,9.982a1.026,1.026,0,0,0,1.621.428l5.706-4.756V63.367a1.411,1.411,0,0,0,.094.47Zm10.31-22.815V39.9h0V38.3a8.958,8.958,0,0,1-3.118-3.243,9.047,9.047,0,0,1-1.326-4.788V26.113h4.092A9.761,9.761,0,0,0,32.6,22.766a5.391,5.391,0,0,0,1.987,2.415v0a5.531,5.531,0,0,0,3.09.932h5.139v4.151a9.079,9.079,0,0,1-1.326,4.788A8.986,8.986,0,0,1,38.373,38.3v1.6h-.007v1.124L32,45.271ZM57.489,63.837h-6.03V59.289a1.392,1.392,0,0,0-2.784,0v4.548H33.3a1.394,1.394,0,0,0,.094-.47V49.627L39.1,54.38a1.03,1.03,0,0,0,1.621-.428l3.744-9.982,7.9,1.58A6.375,6.375,0,0,1,57.492,51.8V63.837Z" transform="translate(9.647 16.82)" fill="#24a7f1"/>
    <path id="Path_814" data-name="Path 814" d="M19.165,37.185V9.868a1.252,1.252,0,0,0-1.253-1.253H1.438A1.252,1.252,0,0,0,.185,9.868V37.185a1.252,1.252,0,0,0,1.253,1.253H17.909A1.253,1.253,0,0,0,19.165,37.185Zm-2.71-1.458H2.9v-24.4H16.451v24.4Z" transform="translate(0.309 21.211)" fill="#24a7f1"/>
    <path id="Path_815" data-name="Path 815" d="M2.721,12.948h0s2.053,0,4.092,0,4.088.007,4.088,0h0a1.392,1.392,0,0,0,0-2.784h-4.1c-1.093,0-2.432,0-4.1,0a1.392,1.392,0,0,0,0,2.784Z" transform="translate(3.146 25.048)" fill="#24a7f1"/>
    <path id="Path_816" data-name="Path 816" d="M2.721,14.508h0s2.053,0,4.092,0,4.088,0,4.088,0h0a1.392,1.392,0,0,0,0-2.784h-4.1c-1.093,0-2.432,0-4.1,0a1.392,1.392,0,0,0,0,2.784Z" transform="translate(3.146 28.916)" fill="#24a7f1"/>
    <path id="Path_817" data-name="Path 817" d="M2.721,16.067h0s2.053,0,4.092,0,4.088,0,4.088,0h0a1.392,1.392,0,0,0,0-2.784c-1.663,0-3.006,0-4.1,0s-2.432,0-4.1,0a1.392,1.392,0,0,0,0,2.784Z" transform="translate(3.146 32.785)" fill="#24a7f1"/>
    <path id="Path_818" data-name="Path 818" d="M2.721,17.633h0l4.092-.007,4.088.007h0A1.393,1.393,0,0,0,12.3,16.245a1.377,1.377,0,0,0-.609-1.124.076.076,0,0,1-.017-.014,1.357,1.357,0,0,0-.762-.261c-1.663,0-3.006-.007-4.1-.007s-2.432,0-4.1.007a1.357,1.357,0,0,0-.762.261.035.035,0,0,0-.017.014,1.377,1.377,0,0,0-.609,1.124A1.393,1.393,0,0,0,2.721,17.633Z" transform="translate(3.146 36.643)" fill="#24a7f1"/>
    <path id="Path_819" data-name="Path 819" d="M14.727,21.113a1.385,1.385,0,0,0,.985-.407L33.324,3.093H48.905a1.392,1.392,0,0,0,0-2.784H32.747a1.408,1.408,0,0,0-.985.407l-18.02,18.02a1.392,1.392,0,0,0,.985,2.376Z" transform="translate(32.914 0.617)" fill="#24a7f1"/>
    <path id="Path_820" data-name="Path 820" d="M34.695,1.923H20.457a1.392,1.392,0,0,0,0,2.784H34.695a1.392,1.392,0,0,0,0-2.784Z" transform="translate(47.121 4.618)" fill="#24a7f1"/>
    <path id="Path_821" data-name="Path 821" d="M34.695,3.482H20.457a1.392,1.392,0,0,0,0,2.784H34.695a1.392,1.392,0,0,0,0-2.784Z" transform="translate(47.121 8.484)" fill="#24a7f1"/>
    <path id="Path_822" data-name="Path 822" d="M34.695,5.041H20.457a1.392,1.392,0,0,0,0,2.784H34.695a1.392,1.392,0,0,0,0-2.784Z" transform="translate(47.121 12.349)" fill="#24a7f1"/>
    <path id="Path_823" data-name="Path 823" d="M21.7,13.166a1.394,1.394,0,0,0-1.392,1.392V29.471a1.392,1.392,0,1,0,2.784,0V14.558A1.394,1.394,0,0,0,21.7,13.166Z" transform="translate(50.195 32.495)" fill="#24a7f1"/>
    <path id="Path_824" data-name="Path 824" d="M21.7,12.569a1.394,1.394,0,0,0,1.392-1.392V9.438a1.392,1.392,0,1,0-2.784,0v1.74A1.389,1.389,0,0,0,21.7,12.569Z" transform="translate(50.195 19.8)" fill="#24a7f1"/>
    <path id="Path_825" data-name="Path 825" d="M22.567,10.355,21.45,9.022a1.391,1.391,0,1,0-2.133,1.785l1.117,1.336a1.388,1.388,0,0,0,1.962.174A1.4,1.4,0,0,0,22.567,10.355Z" transform="translate(46.945 20.985)" fill="#24a7f1"/>
    <path id="Path_826" data-name="Path 826" d="M21.163,12.8a1.148,1.148,0,0,0,.24.024,1.392,1.392,0,0,0,.244-2.763l-1.719-.3a1.39,1.39,0,0,0-.484,2.738Z" transform="translate(45.211 23.982)" fill="#24a7f1"/>
    <path id="Path_827" data-name="Path 827" d="M19.932,14.513a1.4,1.4,0,0,0,.7-.188l1.507-.87a1.393,1.393,0,1,0-1.4-2.411l-1.507.87a1.393,1.393,0,0,0,.7,2.6Z" transform="translate(45.812 26.774)" fill="#24a7f1"/>
    <path id="Path_828" data-name="Path 828" d="M22.906,13.405a1.392,1.392,0,1,0-2.617-.953l-.6,1.639a1.4,1.4,0,0,0,.832,1.785,1.337,1.337,0,0,0,.477.084,1.4,1.4,0,0,0,1.308-.919Z" transform="translate(48.464 28.449)" fill="#24a7f1"/>
    <path id="Path_829" data-name="Path 829" d="M23.533,12.449a1.392,1.392,0,0,0-2.617.953l.595,1.635a1.4,1.4,0,0,0,1.308.919,1.418,1.418,0,0,0,.477-.084,1.392,1.392,0,0,0,.832-1.785Z" transform="translate(51.504 28.451)" fill="#24a7f1"/>
    <path id="Path_830" data-name="Path 830" d="M25.239,11.912l-1.51-.87a1.393,1.393,0,1,0-1.4,2.411l1.51.87a1.391,1.391,0,0,0,1.9-.508A1.389,1.389,0,0,0,25.239,11.912Z" transform="translate(53.504 26.772)" fill="#24a7f1"/>
    <path id="Path_831" data-name="Path 831" d="M24.685,9.762l-1.712.3a1.392,1.392,0,0,0,.244,2.763,1.148,1.148,0,0,0,.24-.024l1.712-.3A1.385,1.385,0,0,0,26.3,10.889,1.359,1.359,0,0,0,24.685,9.762Z" transform="translate(53.961 23.975)" fill="#24a7f1"/>
    <path id="Path_832" data-name="Path 832" d="M23.753,12.143l1.117-1.336a1.391,1.391,0,0,0-2.133-1.785L21.62,10.358a1.39,1.39,0,0,0,.174,1.959,1.4,1.4,0,0,0,.894.327A1.381,1.381,0,0,0,23.753,12.143Z" transform="translate(52.652 20.981)" fill="#24a7f1"/>
    <path id="Path_833" data-name="Path 833" d="M36.681,20.439a1.392,1.392,0,0,0,0-2.784h-2.71V10.478a.947.947,0,0,0-.946-.946H26.779a.947.947,0,0,0-.946.946v7.175H23.126V5.057a.947.947,0,0,0-.946-.946H15.934a.947.947,0,0,0-.946.946v12.6H12.28V.989a.947.947,0,0,0-.946-.946H5.088a.947.947,0,0,0-.946.946V17.652H1.435a1.392,1.392,0,0,0,0,2.784H36.681Zm-8.135-8.194h2.71v5.407h-2.71ZM17.7,6.821h2.71V17.652H17.7ZM6.856,2.757h2.71v14.9H6.856Z" transform="translate(-0.043 -0.043)" fill="#24a7f1"/>
  </g>
</svg>
