<svg xmlns="http://www.w3.org/2000/svg" width="86" height="85.133" viewBox="0 0 86 85.133">
  <path id="Path_799" data-name="Path 799" d="M99.355,73.142h5.814l.234,3.314a12.087,12.087,0,0,1,4.078,2.216l3.161-1.465,3.551,5.768-2.927,1.831a10.513,10.513,0,0,1,0,4.413l2.927,1.849-3.551,5.768-3.161-1.465a12.087,12.087,0,0,1-4.078,2.216l-.234,3.3H98.087l-.234-3.3a12.087,12.087,0,0,1-4.078-2.216l-3.161,1.465-3.551-5.768,2.927-1.831a10.6,10.6,0,0,1,0-4.431l-2.927-1.831,3.551-5.768,3.161,1.465a12.087,12.087,0,0,1,4.078-2.216l.234-3.314Zm3.258,2.563h-1.99l-.2,2.747a10.931,10.931,0,0,0-3.376,1.135,11.275,11.275,0,0,0-2.751,2.2l-2.634-1.208-1,1.611,2.439,1.538a8.851,8.851,0,0,0,0,6.628l-2.439,1.538,1,1.611L94.3,92.294a10.918,10.918,0,0,0,2.751,2.2,11.434,11.434,0,0,0,3.376,1.135l.2,2.747h1.99l.2-2.747a10.93,10.93,0,0,0,3.376-1.135,10.815,10.815,0,0,0,2.732-2.2L111.55,93.5l1-1.611-2.439-1.538a9.319,9.319,0,0,0,.644-3.314,9.767,9.767,0,0,0-.644-3.314l2.439-1.538-1-1.611-2.634,1.208a11.17,11.17,0,0,0-2.732-2.2,11.434,11.434,0,0,0-3.376-1.135Zm-1,6.006c5.014,0,7.531,5.713,3.98,9.027S95.979,91.69,95.979,87a5.488,5.488,0,0,1,5.639-5.292Zm2.049,3.369c-1.815-1.7-4.956-.494-4.956,1.923s3.141,3.625,4.956,1.923a2.6,2.6,0,0,0,0-3.845Zm-.683-19.024,8.644,4.687h0l10.009,5.42V97.842l-20.019,10.84L81.6,97.842V92.715H76.292V67.649c3.024-2.142,5.814-4.266,8.6-6.683l2.283-2V73.16l4.429-2.417h0l.488-.256V54.026l.351-.366a97.011,97.011,0,0,0,8.039-9.851l2.5-3.5V66.056Zm-21.365,24.1V76.163l2.829-1.538V64.756c-1.776,1.447-3.532,2.8-5.424,4.156v21.24ZM94.828,69l5.424-2.93V48.588c-.468.6-.956,1.227-1.463,1.813-1.268,1.556-2.6,3.076-3.961,4.559Zm15.434,3.955-8.644-4.687L84.35,77.646V96.377l17.287,9.356,17.287-9.356V77.646ZM51.805,50.016l-1-.879,1.854-1.868A9.053,9.053,0,0,1,55.551,50.6a3.966,3.966,0,0,1,.254,2.216l.644,1.318c1.034,2.142,1.932,3.992,4.117,4.907l1.132-.311a18.977,18.977,0,0,1-1.717-5.859,4.172,4.172,0,0,1-2.263-6.756,4.513,4.513,0,0,1,2.907-1.538l1.346-.183.371,2.527L61,47.1a1.666,1.666,0,0,0-.976,2.911,2.076,2.076,0,0,0,1.893.366h0c3.317-.4,7.785-.916,9.658-2.765a3.92,3.92,0,0,1-.644-3.992l.351-1.227,2.615.677a6.374,6.374,0,0,0-.468,2.563,1.131,1.131,0,0,0,.6.531c4.351-.22,7-2.142,8.136-4.651a8.3,8.3,0,0,0,.644-4.211c-1.463-.238-2.4.33-3.668.934l-1.21-2.289a8.784,8.784,0,0,1,4.234-1.245,11.221,11.221,0,0,0-.976-1.923c-2.166-3.369-6.361-5.914-12.292-5.53a5.194,5.194,0,0,0-.859.9h0l.449,1.08-2.537.916c-.566-1.392-1.112-2.2-.02-3.625-2.693-.861-6.751-.256-9.385.787a5.472,5.472,0,0,0-1.854.97,1.093,1.093,0,0,0,.819,1.685l1.346.22-.488,2.527c-1.463-.238-2.576-.293-3.629-1.447a3.5,3.5,0,0,1-.585-3.973,11.139,11.139,0,0,0-9.4,4.156,6.586,6.586,0,0,1,5.424,2.966l.7,1.1-2.341,1.3c-.7-1.1-1.112-2-2.458-2.527a3.914,3.914,0,0,0-2.341-.183l-.663.146a10.1,10.1,0,0,0-1.99,3.094,9.738,9.738,0,0,0,2.478,10.84c.527-3.424,4.819-5.145,7.824-3.039l1.093.769-1.639,2.051L47.747,47.2a2.186,2.186,0,0,0-3.493,1.831c.1,1.044.917,1.52,1.756,2.216l-.02.018a8.4,8.4,0,0,0,7.083,1.3c.254-.97-.429-1.831-1.268-2.545Zm-.859-7.361-.488-.751a8.064,8.064,0,0,1-5.268-.824L44.02,40.44l1.366-2.216,1.171.641a5.093,5.093,0,0,0,6.244-1.1l.839-.989,2.127,1.593a9.7,9.7,0,0,1-2.751,2.582,4.319,4.319,0,0,1,.839,1.923,6.393,6.393,0,0,1-.429,2.893l-2.654-.641.332-1.245a1.375,1.375,0,0,0-.156-1.227ZM68.019,28.044l.039.11s-.078-.183-.039-.11ZM55.376,24.986,55.8,24.8l.02.018a21.811,21.811,0,0,1,6.458-1.263,11.747,11.747,0,0,1,6.049,1.19c7.317-.641,12.546,2.527,15.239,6.738,4.566,7.141,1.58,16.754-9.444,17.266C71.9,51.7,66.692,52.415,62.712,52.891a16.175,16.175,0,0,0,1.912,5.6c1.385,2.179-2.517,2.747-3.649,3.131-.566.2-.351.2-.917,0-3.649-1.227-4.8-3.717-6.185-6.592a12.2,12.2,0,0,1-5.307.146A10.716,10.716,0,0,1,43.3,52.451a13.432,13.432,0,0,1-5.522-4.6,12.052,12.052,0,0,1-1.249-11.389,12.441,12.441,0,0,1,2.419-3.772,12.648,12.648,0,0,1,4.9-5.768A14.373,14.373,0,0,1,55,25.132a3.113,3.113,0,0,1,.371-.146Zm6.38,11.938.585.11c1.932-.531,3.649.073,5.385.677a6.809,6.809,0,0,0,4.566.476c2.888-.952,1.756-3.845,0-4.687a3.208,3.208,0,0,0-3.473.641l-1.054.824L66.01,33.006l1.054-.824c4.722-3.7,9.873.092,9.7,4.175A4.64,4.64,0,0,1,73.19,40.6c-2.576.861-4.527.165-6.419-.494-2.049-.714-4-1.41-6.79,1.648l-.9.97-2.068-1.666A22.179,22.179,0,0,1,59.3,38.755a3.913,3.913,0,0,1-.2-6.72l1.093-.751,1.6,2.069L60.7,34.1c-.878.6-1.229,2.4,1.054,2.82Zm-18.38,40.1-1.307.33-.7-2.472,1.327-.33c23.59-5.841,43.784-20.178,56.174-39.88l-3.883-1.666,9.366-6.225,1.073,10.711-4.058-1.758C88.6,56.15,67.766,71,43.376,77.023Zm58.808-44.658-.1-.952-1.658,1.117,1.854.806ZM55.551,80.759V92.715H44.683V82.553c3.3-.97,5.775-1.758,8.995-2.985l1.873-.714v1.9ZM52.82,90.152V82.626L47.4,84.421v5.731ZM71.375,73.343V92.715H60.488v-16c3.122-1.465,5.814-2.856,8.8-4.6l2.088-1.208ZM68.644,90.152V75.467c-1.8.989-3.571,1.9-5.424,2.8V90.152Z" transform="translate(-35.637 -23.548)" fill="#24a7f1"/>
</svg>
