<svg xmlns="http://www.w3.org/2000/svg" width="64.516" height="86" viewBox="0 0 64.516 86">
  <g id="Group_3734" data-name="Group 3734" transform="translate(-117.5 -23.427)">
    <path id="Path_800" data-name="Path 800" d="M181.347,41.692h0l-17.6-17.6a2.277,2.277,0,0,0-1.615-.669H119.784a2.284,2.284,0,0,0-2.284,2.284v81.432a2.284,2.284,0,0,0,2.284,2.284h59.949a2.284,2.284,0,0,0,2.284-2.284V43.307A2.315,2.315,0,0,0,181.347,41.692Zm-3.9,63.167H122.068V27.995H161.19l13.028,13.028h-9.8V36.251a2.284,2.284,0,1,0-4.568,0v7.055a2.284,2.284,0,0,0,2.284,2.284h15.312Z" transform="translate(0 0)" fill="#24a7f1"/>
    <path id="Path_801" data-name="Path 801" d="M224.625,219.228l-4.551,4.551-.651-.651a2.284,2.284,0,1,0-3.23,3.23l2.265,2.265a2.284,2.284,0,0,0,3.23,0l6.166-6.166a2.284,2.284,0,1,0-3.23-3.23Z" transform="translate(-86.832 -172.85)" fill="#24a7f1"/>
    <path id="Path_802" data-name="Path 802" d="M540.115,277.125h.759a2.284,2.284,0,0,0,0-4.568h-.759a2.284,2.284,0,0,0,0,4.568Z" transform="translate(-372.334 -220.682)" fill="#24a7f1"/>
    <path id="Path_803" data-name="Path 803" d="M349.673,272.557a2.284,2.284,0,0,0,0,4.568h14.8a2.284,2.284,0,0,0,0-4.568Z" transform="translate(-203.638 -220.682)" fill="#24a7f1"/>
    <path id="Path_804" data-name="Path 804" d="M540.115,400.12h.759a2.284,2.284,0,0,0,0-4.568h-.759a2.284,2.284,0,0,0,0,4.568Z" transform="translate(-372.334 -329.633)" fill="#24a7f1"/>
    <path id="Path_805" data-name="Path 805" d="M364.472,395.552h-14.8a2.284,2.284,0,0,0,0,4.568h14.8a2.284,2.284,0,0,0,0-4.568Z" transform="translate(-203.638 -329.633)" fill="#24a7f1"/>
    <path id="Path_806" data-name="Path 806" d="M540.115,523.114h.759a2.284,2.284,0,0,0,0-4.568h-.759a2.284,2.284,0,0,0,0,4.568Z" transform="translate(-372.334 -438.583)" fill="#24a7f1"/>
    <path id="Path_807" data-name="Path 807" d="M364.472,518.547h-14.8a2.284,2.284,0,1,0,0,4.568h14.8a2.284,2.284,0,1,0,0-4.568Z" transform="translate(-203.638 -438.583)" fill="#24a7f1"/>
    <path id="Path_808" data-name="Path 808" d="M540.115,646.109h.759a2.284,2.284,0,0,0,0-4.568h-.759a2.284,2.284,0,0,0,0,4.568Z" transform="translate(-372.334 -547.534)" fill="#24a7f1"/>
    <path id="Path_809" data-name="Path 809" d="M364.472,641.542h-14.8a2.284,2.284,0,1,0,0,4.568h14.8a2.284,2.284,0,1,0,0-4.568Z" transform="translate(-203.638 -547.534)" fill="#24a7f1"/>
    <path id="Path_810" data-name="Path 810" d="M220.074,352.288a2.283,2.283,0,0,0,1.615-.669l6.166-6.166a2.284,2.284,0,1,0-3.23-3.23l-4.551,4.551-.651-.651a2.284,2.284,0,1,0-3.23,3.23l2.266,2.266A2.284,2.284,0,0,0,220.074,352.288Z" transform="translate(-86.832 -281.802)" fill="#24a7f1"/>
    <path id="Path_811" data-name="Path 811" d="M217.662,469.915l-1.468,1.468a2.284,2.284,0,0,0,3.23,3.23l1.468-1.468,1.468,1.468a2.284,2.284,0,0,0,3.23-3.23l-1.468-1.468,1.468-1.468a2.284,2.284,0,0,0-3.23-3.23l-1.468,1.468-1.468-1.468a2.284,2.284,0,0,0-3.23,3.23Z" transform="translate(-86.832 -390.751)" fill="#24a7f1"/>
    <path id="Path_812" data-name="Path 812" d="M224.625,588.211l-4.551,4.551-.651-.651a2.284,2.284,0,0,0-3.23,3.23l2.265,2.265a2.284,2.284,0,0,0,3.23,0l6.166-6.166a2.284,2.284,0,0,0-3.23-3.23Z" transform="translate(-86.832 -499.7)" fill="#24a7f1"/>
  </g>
</svg>
