<svg xmlns="http://www.w3.org/2000/svg" xmlns:xlink="http://www.w3.org/1999/xlink" width="1400" height="250" viewBox="0 0 1400 250">
  <defs>
    <linearGradient id="linear-gradient" x1="1" x2="-0.074" y2="1.044" gradientUnits="objectBoundingBox">
      <stop offset="0" stop-color="#23afff"/>
      <stop offset="1" stop-color="#885bc2"/>
    </linearGradient>
    <clipPath id="clip-path">
      <rect id="Rectangle_1414" data-name="Rectangle 1414" width="1400" height="250" transform="translate(0 662)" fill="url(#linear-gradient)"/>
    </clipPath>
  </defs>
  <g id="Mask_Group_4" data-name="Mask Group 4" transform="translate(0 -662)" opacity="0.3" clip-path="url(#clip-path)">
    <g id="aaa" transform="translate(-156.995 793.426)" opacity="0.51">
      <g id="Group_3585" data-name="Group 3585" transform="translate(6.543 111.179)">
        <path id="Path_545" data-name="Path 545" d="M96.518,166.29H7.15V164.1H95.611l10.359-10.374h32.013l34.033-34.032H336.355L377.864,78.18l1.551,1.551-42.153,42.153H172.923l-34.032,34.032H106.877Z" transform="translate(-3.229 -74.968)" fill="#4b5363"/>
        <path id="Path_546" data-name="Path 546" d="M259.342,77.192a4.128,4.128,0,1,1,0,5.838A4.133,4.133,0,0,1,259.342,77.192Z" transform="translate(113.011 -75.985)" fill="#4b5363"/>
        <circle id="Ellipse_268" data-name="Ellipse 268" cx="4.126" cy="4.126" r="4.126" transform="translate(0 86.098)" fill="#4b5363"/>
      </g>
      <g id="Group_3586" data-name="Group 3586" transform="translate(13.324 210.62)">
        <path id="Path_547" data-name="Path 547" d="M496.553,218.189H157.589L85.529,146.145H30.618L12.841,163.907l-1.551-1.551L29.711,143.95H86.437L158.5,215.995h337.15l66.514-66.514H672.173v2.195H563.067Z" transform="translate(-8.093 -143.95)" fill="#4b5363"/>
        <circle id="Ellipse_269" data-name="Ellipse 269" cx="4.126" cy="4.126" r="4.126" transform="translate(659.749 2.502)" fill="#4b5363"/>
        <path id="Path_548" data-name="Path 548" d="M10.312,155.342a4.128,4.128,0,1,0,5.838,0A4.133,4.133,0,0,0,10.312,155.342Z" transform="translate(-9.105 -139.233)" fill="#4b5363"/>
      </g>
      <g id="Group_3587" data-name="Group 3587" transform="translate(231.353 192.77)">
        <path id="Path_549" data-name="Path 549" d="M159.671,222.559l-1.551-1.551,39.446-39.446H380.692l47.742-47.742H572.86v2.195H429.341L381.6,183.757H198.488Z" transform="translate(-158.12 -130.791)" fill="#4b5363"/>
        <path id="Path_550" data-name="Path 550" d="M442.746,140a4.126,4.126,0,1,0-4.126-4.126A4.121,4.121,0,0,0,442.746,140Z" transform="translate(-28.211 -131.75)" fill="#4b5363"/>
      </g>
      <g id="Group_3588" data-name="Group 3588" transform="translate(122.569 133.689)">
        <path id="Path_551" data-name="Path 551" d="M179.708,200.893H83.77V198.7h95.016l43.045-43.045H385.38L447.608,93.44H680.86v2.195H448.515L386.3,157.847H222.738Z" transform="translate(-83.77 -90.411)" fill="#4b5363"/>
        <path id="Path_552" data-name="Path 552" d="M493.026,99.622A4.126,4.126,0,1,0,488.9,95.5,4.121,4.121,0,0,0,493.026,99.622Z" transform="translate(103.859 -91.37)" fill="#4b5363"/>
      </g>
      <g id="Group_3589" data-name="Group 3589" transform="translate(103.797 182.206)">
        <path id="Path_553" data-name="Path 553" d="M172.335,166.748H70.94v-2.195H171.428L209.382,126.6H356.558v2.195H210.289Z" transform="translate(-70.94 -123.571)" fill="#4b5363"/>
        <path id="Path_554" data-name="Path 554" d="M267.316,132.782a4.126,4.126,0,1,0-4.126-4.126A4.121,4.121,0,0,0,267.316,132.782Z" transform="translate(18.097 -124.53)" fill="#4b5363"/>
      </g>
      <g id="Group_3590" data-name="Group 3590" transform="translate(223.95 79.114)">
        <path id="Path_555" data-name="Path 555" d="M154.611,132.135l-1.551-1.551,46.469-46.469h80.984L308.489,56.14H538.435v2.195H309.411L281.435,86.31h-81Z" transform="translate(-153.06 -53.111)" fill="#4b5363"/>
        <circle id="Ellipse_270" data-name="Ellipse 270" cx="4.126" cy="4.126" r="4.126" transform="translate(381.044)" fill="#4b5363"/>
      </g>
      <g id="Group_3591" data-name="Group 3591" transform="translate(272.935 133.689)">
        <path id="Path_556" data-name="Path 556" d="M188.091,114.392l-1.551-1.551,19.387-19.4h30.579v2.195H206.834Z" transform="translate(-186.54 -90.411)" fill="#4b5363"/>
        <path id="Path_557" data-name="Path 557" d="M221.856,99.622A4.126,4.126,0,1,0,217.73,95.5,4.121,4.121,0,0,0,221.856,99.622Z" transform="translate(-172.095 -91.37)" fill="#4b5363"/>
      </g>
      <g id="Group_3592" data-name="Group 3592" transform="translate(385.472 148.357)">
        <path id="Path_558" data-name="Path 558" d="M330.7,124.2H284.715L265.65,105.131l1.551-1.551L285.622,122H330.7Z" transform="translate(-262.438 -100.383)" fill="#4b5363"/>
        <path id="Path_559" data-name="Path 559" d="M270.5,102.6a4.128,4.128,0,1,0,0,5.838A4.133,4.133,0,0,0,270.5,102.6Z" transform="translate(-263.455 -101.395)" fill="#4b5363"/>
      </g>
      <g id="Group_3593" data-name="Group 3593" transform="translate(334.972 154.436)">
        <path id="Path_560" data-name="Path 560" d="M342.538,169.276h-95.6l-18-18,1.551-1.551,17.353,17.353h93.787l59.476-59.462h86.53v2.195H402.014Z" transform="translate(-228.94 -104.591)" fill="#4b5363"/>
        <path id="Path_561" data-name="Path 561" d="M406.916,113.8a4.126,4.126,0,1,0-4.126-4.126A4.121,4.121,0,0,0,406.916,113.8Z" transform="translate(-148.424 -105.55)" fill="#4b5363"/>
      </g>
      <g id="Group_3594" data-name="Group 3594" transform="translate(306.5 222.684)">
        <path id="Path_562" data-name="Path 562" d="M393.806,197.713H233.256L209.48,173.937l1.551-1.566,23.132,23.147H392.9l41.129-41.129,1.551,1.551Z" transform="translate(-209.48 -151.178)" fill="#4b5363"/>
        <path id="Path_563" data-name="Path 563" d="M367.6,159.24a4.128,4.128,0,1,0-5.838,0A4.133,4.133,0,0,0,367.6,159.24Z" transform="translate(-139.512 -152.195)" fill="#4b5363"/>
      </g>
      <g id="Group_3595" data-name="Group 3595" transform="translate(408.217 82.655)">
        <path id="Path_564" data-name="Path 564" d="M426.894,83.412H304.356L279,58.041l1.551-1.551,24.727,24.727H426.894Z" transform="translate(-279 -56.49)" fill="#4b5363"/>
        <circle id="Ellipse_271" data-name="Ellipse 271" cx="4.126" cy="4.126" r="4.126" transform="translate(143.563 21.698)" fill="#4b5363"/>
      </g>
      <g id="Group_3596" data-name="Group 3596" transform="translate(567.859 116.087)">
        <path id="Path_565" data-name="Path 565" d="M389.661,100.5l-1.551-1.551L405.638,81.41H500V83.6H406.56Z" transform="translate(-388.11 -78.381)" fill="#4b5363"/>
        <path id="Path_566" data-name="Path 566" d="M465.746,87.592a4.126,4.126,0,1,0-4.126-4.126A4.121,4.121,0,0,0,465.746,87.592Z" transform="translate(-354.065 -79.34)" fill="#4b5363"/>
      </g>
      <g id="Group_3597" data-name="Group 3597" transform="translate(148.993 212.625)">
        <path id="Path_567" data-name="Path 567" d="M175.06,202.126H101.83v-2.195h72.308l52.541-52.541H266.93v2.195H227.586Z" transform="translate(-101.83 -144.361)" fill="#4b5363"/>
        <path id="Path_568" data-name="Path 568" d="M215.836,153.572a4.126,4.126,0,1,0-4.126-4.126A4.121,4.121,0,0,0,215.836,153.572Z" transform="translate(-50.941 -145.32)" fill="#4b5363"/>
      </g>
      <g id="Group_3598" data-name="Group 3598" transform="translate(528.735 157.787)">
        <path id="Path_569" data-name="Path 569" d="M542.3,152.2,521.32,131.221H383.2l-21.83-21.83,1.551-1.551,21.186,21.186H522.242l21.61,21.625Z" transform="translate(-361.37 -107.84)" fill="#4b5363"/>
        <path id="Path_570" data-name="Path 570" d="M483.842,141.75a4.128,4.128,0,1,0,0-5.838A4.133,4.133,0,0,0,483.842,141.75Z" transform="translate(-305.208 -95.398)" fill="#4b5363"/>
      </g>
      <g id="Group_3599" data-name="Group 3599" transform="translate(-0.005 55.44)">
        <path id="Path_571" data-name="Path 571" d="M59.794,173.617H21.737L2.19,154.07l1.551-1.551,18.9,18.9H58.886l73.961-73.947h53.99L244.353,39.96h75.966v2.195H245.275L187.745,99.67h-53.99Z" transform="translate(1.022 -36.931)" fill="#4b5363"/>
        <path id="Path_572" data-name="Path 572" d="M220.786,37.89a4.126,4.126,0,1,1-4.126,4.126A4.121,4.121,0,0,1,220.786,37.89Z" transform="translate(100.35 -37.89)" fill="#4b5363"/>
        <path id="Path_573" data-name="Path 573" d="M7.04,115.912a4.128,4.128,0,1,0,0,5.838A4.133,4.133,0,0,0,7.04,115.912Z" transform="translate(0.005 -2.314)" fill="#4b5363"/>
      </g>
      <g id="Group_3600" data-name="Group 3600" transform="translate(79.919 134.859)">
        <path id="Path_574" data-name="Path 574" d="M91.462,128.916H54.62v-2.195H90.555L123.036,94.24h32.145v2.195H123.943Z" transform="translate(-54.62 -91.211)" fill="#4b5363"/>
        <path id="Path_575" data-name="Path 575" d="M124.516,100.422A4.126,4.126,0,1,0,120.39,96.3,4.121,4.121,0,0,0,124.516,100.422Z" transform="translate(-24.16 -92.17)" fill="#4b5363"/>
      </g>
      <g id="Group_3601" data-name="Group 3601" transform="translate(211.001 65.5)">
        <path id="Path_576" data-name="Path 576" d="M226.438,73.74H144.21V71.545h81.321l17.031-17.016h46.747l7.579-7.579,1.551,1.551-8.223,8.223H243.469Z" transform="translate(-144.21 -43.753)" fill="#4b5363"/>
        <path id="Path_577" data-name="Path 577" d="M253.21,51.81a4.128,4.128,0,1,0-5.838,0A4.133,4.133,0,0,0,253.21,51.81Z" transform="translate(-96.991 -44.765)" fill="#4b5363"/>
      </g>
      <g id="Group_3602" data-name="Group 3602" transform="translate(203.927 119.782)">
        <path id="Path_578" data-name="Path 578" d="M180.655,98.033H153.982L141.56,85.611l1.551-1.551,11.778,11.778h25.766Z" transform="translate(-138.363 -80.848)" fill="#4b5363"/>
        <path id="Path_579" data-name="Path 579" d="M146.42,83.072a4.128,4.128,0,1,0,0,5.838A4.133,4.133,0,0,0,146.42,83.072Z" transform="translate(-139.375 -81.865)" fill="#4b5363"/>
      </g>
      <g id="Group_3603" data-name="Group 3603" transform="translate(328.388 41.248)">
        <path id="Path_580" data-name="Path 580" d="M535.78,64.959,522.144,51.322H370.914L349.977,30.385H260.492l-34.5,34.5-1.551-1.551L259.585,28.19h91.3l20.937,20.937h151.23l14.28,14.28Z" transform="translate(-224.44 -28.19)" fill="#4b5363"/>
        <path id="Path_581" data-name="Path 581" d="M436.042,56.91a4.128,4.128,0,1,0,0-5.838A4.133,4.133,0,0,0,436.042,56.91Z" transform="translate(-126.999 -18.152)" fill="#4b5363"/>
      </g>
      <g id="Group_3604" data-name="Group 3604" transform="translate(364.381 131.64)">
        <path id="Path_582" data-name="Path 582" d="M332.761,100.417l-8.267-8.252H249.04V89.97H325.4l8.91,8.9Z" transform="translate(-249.04 -89.97)" fill="#4b5363"/>
        <path id="Path_583" data-name="Path 583" d="M305.072,100.7a4.128,4.128,0,1,0,0-5.838A4.133,4.133,0,0,0,305.072,100.7Z" transform="translate(-223.649 -88.263)" fill="#4b5363"/>
      </g>
      <g id="Group_3605" data-name="Group 3605" transform="translate(118.414 169.55)">
        <path id="Path_584" data-name="Path 584" d="M160.042,152.714H96.4L80.93,137.249l1.551-1.551L97.3,150.519h61.832L191.7,117.95H280.18v2.195H192.611Z" transform="translate(-80.93 -114.921)" fill="#4b5363"/>
        <path id="Path_585" data-name="Path 585" d="M218.276,124.132a4.126,4.126,0,1,0-4.126-4.126A4.121,4.121,0,0,0,218.276,124.132Z" transform="translate(-19.231 -115.88)" fill="#4b5363"/>
      </g>
      <g id="Group_3606" data-name="Group 3606" transform="translate(155.724 173.033)">
        <rect id="Rectangle_1412" data-name="Rectangle 1412" width="38.861" height="2.195" transform="translate(0 3.029)" fill="#4b5363"/>
        <path id="Path_586" data-name="Path 586" d="M134.166,126.512a4.126,4.126,0,1,0-4.126-4.126A4.121,4.121,0,0,0,134.166,126.512Z" transform="translate(-95.495 -118.26)" fill="#4b5363"/>
      </g>
      <g id="Group_3607" data-name="Group 3607" transform="translate(366.854 216.985)">
        <path id="Path_587" data-name="Path 587" d="M326.213,163.092H263.971L250.73,149.851l1.551-1.551,12.6,12.6h61.335Z" transform="translate(-250.73 -148.3)" fill="#4b5363"/>
        <path id="Path_588" data-name="Path 588" d="M303.476,163.092a4.126,4.126,0,1,0-4.126-4.126A4.121,4.121,0,0,0,303.476,163.092Z" transform="translate(-228.212 -145.271)" fill="#4b5363"/>
      </g>
      <g id="Group_3608" data-name="Group 3608" transform="translate(387.645 41.628)">
        <path id="Path_589" data-name="Path 589" d="M329.245,50.66H285.6L264.94,30l1.551-1.551,20.016,20.016h42.738Z" transform="translate(-264.94 -28.45)" fill="#4b5363"/>
        <path id="Path_590" data-name="Path 590" d="M310.046,48.312a4.126,4.126,0,1,0-4.126-4.126A4.121,4.121,0,0,0,310.046,48.312Z" transform="translate(-245.961 -23.073)" fill="#4b5363"/>
      </g>
      <g id="Group_3609" data-name="Group 3609" transform="translate(467.883 205.719)">
        <path id="Path_591" data-name="Path 591" d="M345.385,166.651h-25.6v-2.195h24.7l21.8-21.786h37.866v2.195H367.186Z" transform="translate(-319.78 -139.641)" fill="#4b5363"/>
        <circle id="Ellipse_272" data-name="Ellipse 272" cx="4.126" cy="4.126" r="4.126" transform="translate(80.033)" fill="#4b5363"/>
      </g>
      <g id="Group_3610" data-name="Group 3610" transform="translate(472.112 107.996)">
        <path id="Path_592" data-name="Path 592" d="M390.794,88.778H336.087L322.67,75.361l1.551-1.551,12.773,12.773h53.8Z" transform="translate(-322.67 -73.81)" fill="#4b5363"/>
        <path id="Path_593" data-name="Path 593" d="M370.4,88.722A4.126,4.126,0,1,0,366.27,84.6,4.121,4.121,0,0,0,370.4,88.722Z" transform="translate(-302.477 -70.726)" fill="#4b5363"/>
      </g>
      <g id="Group_3611" data-name="Group 3611" transform="translate(201.9 283.426)">
        <path id="Path_594" data-name="Path 594" d="M475.1,256.464H199.208l-61.218-61.2,1.551-1.551,60.574,60.559h274.06l42.636-42.621H660.973L676.628,227.3l-1.551,1.551-15.012-15.012H517.717Z" transform="translate(-137.99 -193.71)" fill="#4b5363"/>
        <path id="Path_595" data-name="Path 595" d="M503.882,221.33a4.128,4.128,0,1,0,0-5.838A4.133,4.133,0,0,0,503.882,221.33Z" transform="translate(30.908 -184.181)" fill="#4b5363"/>
      </g>
      <g id="Group_3612" data-name="Group 3612" transform="translate(398.765 256.219)">
        <path id="Path_596" data-name="Path 596" d="M423.667,225.93H295.848L272.54,202.608l1.551-1.551,22.664,22.679H422.76l46.425-46.425,1.551,1.551Z" transform="translate(-272.54 -174.098)" fill="#4b5363"/>
        <path id="Path_597" data-name="Path 597" d="M411.59,182.16a4.128,4.128,0,1,0-5.838,0A4.133,4.133,0,0,0,411.59,182.16Z" transform="translate(-211.404 -175.115)" fill="#4b5363"/>
      </g>
      <g id="Group_3613" data-name="Group 3613" transform="translate(522.048 235.289)">
        <path id="Path_598" data-name="Path 598" d="M400.518,188.865H356.8v-2.195h42.8L423.4,162.88h46.762v2.195H424.309Z" transform="translate(-356.8 -159.851)" fill="#4b5363"/>
        <circle id="Ellipse_273" data-name="Ellipse 273" cx="4.126" cy="4.126" r="4.126" transform="translate(109.033)" fill="#4b5363"/>
      </g>
      <g id="Group_3614" data-name="Group 3614" transform="translate(622.697 270.375)">
        <path id="Path_599" data-name="Path 599" d="M427.141,216.854,425.59,215.3l28.443-28.443h28.985v2.195H454.94Z" transform="translate(-425.59 -183.831)" fill="#4b5363"/>
        <path id="Path_600" data-name="Path 600" d="M466.006,193.042a4.126,4.126,0,1,0-4.126-4.126A4.121,4.121,0,0,0,466.006,193.042Z" transform="translate(-408.783 -184.79)" fill="#4b5363"/>
      </g>
      <g id="Group_3615" data-name="Group 3615" transform="translate(230.885 310.655)">
        <path id="Path_601" data-name="Path 601" d="M285.971,230.331l-15.816-15.816H157.8V212.32H271.061l16.46,16.46Z" transform="translate(-157.8 -212.32)" fill="#4b5363"/>
        <path id="Path_602" data-name="Path 602" d="M244.222,228.23a4.128,4.128,0,1,0,0-5.838A4.133,4.133,0,0,0,244.222,228.23Z" transform="translate(-118.334 -208.214)" fill="#4b5363"/>
      </g>
      <g id="Group_3616" data-name="Group 3616" transform="translate(354.461 283.104)">
        <path id="Path_603" data-name="Path 603" d="M370.343,235.745H282.95l-40.69-40.7,1.551-1.551,40.061,40.061h86.471Z" transform="translate(-242.26 -193.49)" fill="#4b5363"/>
        <path id="Path_604" data-name="Path 604" d="M330.966,227.052a4.126,4.126,0,1,0-4.126-4.126A4.121,4.121,0,0,0,330.966,227.052Z" transform="translate(-203.088 -181.768)" fill="#4b5363"/>
      </g>
      <g id="Group_3617" data-name="Group 3617" transform="translate(508.88 -0.005)">
        <path id="Path_605" data-name="Path 605" d="M349.366,62.866,347.8,61.315l33.7-33.7H523.157L548.586,2.19l1.551,1.551L524.064,29.814H382.4Z" transform="translate(-347.8 1.022)" fill="#4b5363"/>
        <path id="Path_606" data-name="Path 606" d="M489.68,7.04a4.128,4.128,0,1,0-5.838,0A4.133,4.133,0,0,0,489.68,7.04Z" transform="translate(-285.353 0.005)" fill="#4b5363"/>
      </g>
    </g>
    <g id="aaa-2" data-name="aaa" transform="translate(663 473.421)" opacity="0.51">
      <g id="Group_3618" data-name="Group 3618" transform="translate(357.795 111.184)">
        <path id="Path_607" data-name="Path 607" d="M290.047,166.29h89.368V164.1H290.954L280.6,153.722H248.582l-34.032-34.032H50.21L8.7,78.18,7.15,79.731,49.3,121.884H213.642l34.032,34.032h32.013Z" transform="translate(-3.938 -74.968)" fill="#4b5363"/>
        <path id="Path_608" data-name="Path 608" d="M265.18,77.192a4.128,4.128,0,1,0,0,5.838A4.133,4.133,0,0,0,265.18,77.192Z" transform="translate(-258.135 -75.985)" fill="#4b5363"/>
        <ellipse id="Ellipse_274" data-name="Ellipse 274" cx="4.126" cy="4.126" rx="4.126" ry="4.126" transform="translate(371.146 86.098)" fill="#4b5363"/>
      </g>
      <g id="Group_3619" data-name="Group 3619" transform="translate(62.41 210.625)">
        <path id="Path_609" data-name="Path 609" d="M186.91,218.189H525.874l72.059-72.045h54.911l17.777,17.762,1.551-1.551L653.752,143.95H597.026l-72.059,72.045H187.817L121.3,149.481H11.29v2.195H120.4Z" transform="translate(-7.369 -143.95)" fill="#4b5363"/>
        <ellipse id="Ellipse_275" data-name="Ellipse 275" cx="4.126" cy="4.126" rx="4.126" ry="4.126" transform="translate(0 2.502)" fill="#4b5363"/>
        <path id="Path_610" data-name="Path 610" d="M16.15,155.342a4.128,4.128,0,1,1-5.838,0A4.133,4.133,0,0,1,16.15,155.342Z" transform="translate(650.644 -139.233)" fill="#4b5363"/>
      </g>
      <g id="Group_3620" data-name="Group 3620" transform="translate(93.721 192.775)">
        <path id="Path_611" data-name="Path 611" d="M571.309,222.559l1.551-1.551-39.446-39.446H350.288L302.546,133.82H158.12v2.195H301.639l47.742,47.742H532.492Z" transform="translate(-154.199 -130.791)" fill="#4b5363"/>
        <path id="Path_612" data-name="Path 612" d="M442.746,140a4.126,4.126,0,1,1,4.126-4.126A4.121,4.121,0,0,1,442.746,140Z" transform="translate(-438.62 -131.75)" fill="#4b5363"/>
      </g>
      <g id="Group_3621" data-name="Group 3621" transform="translate(20.155 133.694)">
        <path id="Path_613" data-name="Path 613" d="M584.922,200.893H680.86V198.7H585.844L542.8,155.652H379.25L317.023,93.44H83.77v2.195H316.116l62.212,62.212H541.892Z" transform="translate(-79.849 -90.411)" fill="#4b5363"/>
        <path id="Path_614" data-name="Path 614" d="M493.026,99.622a4.126,4.126,0,1,1,4.126-4.126A4.121,4.121,0,0,1,493.026,99.622Z" transform="translate(-488.9 -91.37)" fill="#4b5363"/>
      </g>
      <g id="Group_3622" data-name="Group 3622" transform="translate(350.398 182.211)">
        <path id="Path_615" data-name="Path 615" d="M255.163,166.748h101.4v-2.195H256.07L218.117,126.6H70.94v2.195H217.209Z" transform="translate(-67.019 -123.571)" fill="#4b5363"/>
        <path id="Path_616" data-name="Path 616" d="M267.316,132.782a4.126,4.126,0,1,1,4.126-4.126A4.121,4.121,0,0,1,267.316,132.782Z" transform="translate(-263.19 -124.53)" fill="#4b5363"/>
      </g>
      <g id="Group_3623" data-name="Group 3623" transform="translate(130.49 79.119)">
        <path id="Path_617" data-name="Path 617" d="M536.884,132.135l1.551-1.551L491.966,84.115H410.981L383.006,56.14H153.06v2.195H382.084L410.059,86.31h81Z" transform="translate(-149.139 -53.111)" fill="#4b5363"/>
        <ellipse id="Ellipse_276" data-name="Ellipse 276" cx="4.126" cy="4.126" rx="4.126" ry="4.126" transform="translate(0)" fill="#4b5363"/>
      </g>
      <g id="Group_3624" data-name="Group 3624" transform="translate(416.912 133.694)">
        <path id="Path_618" data-name="Path 618" d="M234.955,114.392l1.551-1.551-19.387-19.4H186.54v2.195h29.672Z" transform="translate(-182.619 -90.411)" fill="#4b5363"/>
        <path id="Path_619" data-name="Path 619" d="M221.856,99.622a4.126,4.126,0,1,1,4.126-4.126A4.121,4.121,0,0,1,221.856,99.622Z" transform="translate(-217.73 -91.37)" fill="#4b5363"/>
      </g>
      <g id="Group_3625" data-name="Group 3625" transform="translate(290 148.362)">
        <path id="Path_620" data-name="Path 620" d="M265.65,124.2h45.986L330.7,105.131l-1.551-1.551L310.729,122H265.65Z" transform="translate(-265.65 -100.383)" fill="#4b5363"/>
        <path id="Path_621" data-name="Path 621" d="M264.662,102.6a4.128,4.128,0,1,1,0,5.838A4.133,4.133,0,0,1,264.662,102.6Z" transform="translate(-203.445 -101.395)" fill="#4b5363"/>
      </g>
      <g id="Group_3626" data-name="Group 3626" transform="translate(146.145 154.441)">
        <path id="Path_622" data-name="Path 622" d="M374.039,169.276h95.6l18-18-1.551-1.551-17.353,17.353H374.946L315.47,107.62H228.94v2.195h85.623Z" transform="translate(-225.019 -104.591)" fill="#4b5363"/>
        <path id="Path_623" data-name="Path 623" d="M406.916,113.8a4.126,4.126,0,1,1,4.126-4.126A4.121,4.121,0,0,1,406.916,113.8Z" transform="translate(-402.79 -105.55)" fill="#4b5363"/>
      </g>
      <g id="Group_3627" data-name="Group 3627" transform="translate(207.94 222.689)">
        <path id="Path_624" data-name="Path 624" d="M251.252,197.713H411.8l23.776-23.776-1.551-1.566-23.132,23.147H252.16L211.031,154.39l-1.551,1.551Z" transform="translate(-206.283 -151.178)" fill="#4b5363"/>
        <path id="Path_625" data-name="Path 625" d="M361.762,159.24a4.128,4.128,0,1,1,5.838,0A4.133,4.133,0,0,1,361.762,159.24Z" transform="translate(-360.555 -152.195)" fill="#4b5363"/>
      </g>
      <g id="Group_3628" data-name="Group 3628" transform="translate(183.704 82.66)">
        <path id="Path_626" data-name="Path 626" d="M279,83.412H401.537l25.356-25.371-1.551-1.551L400.616,81.217H279Z" transform="translate(-275.079 -56.49)" fill="#4b5363"/>
        <ellipse id="Ellipse_277" data-name="Ellipse 277" cx="4.126" cy="4.126" rx="4.126" ry="4.126" transform="translate(0 21.698)" fill="#4b5363"/>
      </g>
      <g id="Group_3629" data-name="Group 3629" transform="translate(60.069 116.092)">
        <path id="Path_627" data-name="Path 627" d="M498.445,100.5,500,98.953,482.467,81.41H388.11V83.6h93.436Z" transform="translate(-384.189 -78.381)" fill="#4b5363"/>
        <path id="Path_628" data-name="Path 628" d="M465.746,87.592a4.126,4.126,0,1,1,4.126-4.126A4.121,4.121,0,0,1,465.746,87.592Z" transform="translate(-461.62 -79.34)" fill="#4b5363"/>
      </g>
      <g id="Group_3630" data-name="Group 3630" transform="translate(425.721 212.63)">
        <path id="Path_629" data-name="Path 629" d="M193.7,202.126h73.23v-2.195H194.622L142.081,147.39H101.83v2.195h39.344Z" transform="translate(-97.909 -144.361)" fill="#4b5363"/>
        <path id="Path_630" data-name="Path 630" d="M215.836,153.572a4.126,4.126,0,1,1,4.126-4.126A4.121,4.121,0,0,1,215.836,153.572Z" transform="translate(-211.71 -145.32)" fill="#4b5363"/>
      </g>
      <g id="Group_3631" data-name="Group 3631" transform="translate(29.321 157.792)">
        <path id="Path_631" data-name="Path 631" d="M362.921,152.2,383.9,131.221h138.12l21.83-21.83L542.3,107.84l-21.186,21.186H382.981l-21.61,21.625Z" transform="translate(-358.173 -107.84)" fill="#4b5363"/>
        <path id="Path_632" data-name="Path 632" d="M489.68,141.75a4.128,4.128,0,1,1,0-5.838A4.133,4.133,0,0,1,489.68,141.75Z" transform="translate(-482.635 -95.398)" fill="#4b5363"/>
      </g>
      <g id="Group_3632" data-name="Group 3632" transform="translate(418.478 55.445)">
        <path id="Path_633" data-name="Path 633" d="M262.716,173.617h38.056l19.547-19.547-1.551-1.551-18.9,18.9H263.623L189.661,97.476h-53.99L78.156,39.96H2.19v2.195H77.234l57.53,57.516h53.99Z" transform="translate(1.731 -36.931)" fill="#4b5363"/>
        <path id="Path_634" data-name="Path 634" d="M220.786,37.89a4.126,4.126,0,1,0,4.126,4.126A4.121,4.121,0,0,0,220.786,37.89Z" transform="translate(-216.66 -37.89)" fill="#4b5363"/>
        <path id="Path_635" data-name="Path 635" d="M1.2,115.912a4.128,4.128,0,1,1,0,5.838A4.133,4.133,0,0,1,1.2,115.912Z" transform="translate(317.015 -2.314)" fill="#4b5363"/>
      </g>
      <g id="Group_3633" data-name="Group 3633" transform="translate(559.334 134.864)">
        <path id="Path_636" data-name="Path 636" d="M118.339,128.916h36.842v-2.195H119.247L86.765,94.24H54.62v2.195H85.858Z" transform="translate(-50.699 -91.211)" fill="#4b5363"/>
        <path id="Path_637" data-name="Path 637" d="M124.516,100.422a4.126,4.126,0,1,1,4.126-4.126A4.121,4.121,0,0,1,124.516,100.422Z" transform="translate(-120.39 -92.17)" fill="#4b5363"/>
      </g>
      <g id="Group_3634" data-name="Group 3634" transform="translate(375.308 65.505)">
        <path id="Path_638" data-name="Path 638" d="M216.211,73.74h82.228V71.545H217.118L200.087,54.529H153.34l-7.579-7.579L144.21,48.5l8.223,8.223H199.18Z" transform="translate(-141.013 -43.753)" fill="#4b5363"/>
        <path id="Path_639" data-name="Path 639" d="M247.372,51.81a4.128,4.128,0,1,1,5.838,0A4.133,4.133,0,0,1,247.372,51.81Z" transform="translate(-246.165 -44.765)" fill="#4b5363"/>
      </g>
      <g id="Group_3635" data-name="Group 3635" transform="translate(497.517 119.787)">
        <path id="Path_640" data-name="Path 640" d="M141.56,98.033h26.673l12.422-12.422L179.1,84.06,167.326,95.838H141.56Z" transform="translate(-141.56 -80.848)" fill="#4b5363"/>
        <path id="Path_641" data-name="Path 641" d="M140.582,83.072a4.128,4.128,0,1,1,0,5.838A4.133,4.133,0,0,1,140.582,83.072Z" transform="translate(-105.335 -81.865)" fill="#4b5363"/>
      </g>
      <g id="Group_3636" data-name="Group 3636" transform="translate(99.259 41.253)">
        <path id="Path_642" data-name="Path 642" d="M225.991,64.959l13.636-13.636h151.23l20.937-20.937h89.485l34.5,34.5,1.551-1.551L502.187,28.19h-91.3L389.95,49.127H238.72l-14.28,14.28Z" transform="translate(-221.243 -28.19)" fill="#4b5363"/>
        <path id="Path_643" data-name="Path 643" d="M441.88,56.91a4.128,4.128,0,1,1,0-5.838A4.133,4.133,0,0,1,441.88,56.91Z" transform="translate(-434.835 -18.152)" fill="#4b5363"/>
      </g>
      <g id="Group_3637" data-name="Group 3637" transform="translate(290.885 131.645)">
        <path id="Path_644" data-name="Path 644" d="M250.591,100.417l8.267-8.252h75.454V89.97H257.951l-8.91,8.9Z" transform="translate(-245.843 -89.97)" fill="#4b5363"/>
        <path id="Path_645" data-name="Path 645" d="M310.91,100.7a4.128,4.128,0,1,1,0-5.838A4.133,4.133,0,0,1,310.91,100.7Z" transform="translate(-303.865 -88.263)" fill="#4b5363"/>
      </g>
      <g id="Group_3638" data-name="Group 3638" transform="translate(422.151 169.555)">
        <path id="Path_646" data-name="Path 646" d="M201.068,152.714h63.646l15.465-15.465-1.551-1.551-14.822,14.822H201.975L169.406,117.95H80.93v2.195H168.5Z" transform="translate(-77.009 -114.921)" fill="#4b5363"/>
        <path id="Path_647" data-name="Path 647" d="M218.276,124.132a4.126,4.126,0,1,1,4.126-4.126A4.121,4.121,0,0,1,218.276,124.132Z" transform="translate(-214.15 -115.88)" fill="#4b5363"/>
      </g>
      <g id="Group_3639" data-name="Group 3639" transform="translate(545.215 173.038)">
        <rect id="Rectangle_1413" data-name="Rectangle 1413" width="38.861" height="2.195" transform="translate(3.936 3.029)" fill="#4b5363"/>
        <path id="Path_648" data-name="Path 648" d="M134.166,126.512a4.126,4.126,0,1,1,4.126-4.126A4.121,4.121,0,0,1,134.166,126.512Z" transform="translate(-130.04 -118.26)" fill="#4b5363"/>
      </g>
      <g id="Group_3640" data-name="Group 3640" transform="translate(297.492 216.99)">
        <path id="Path_649" data-name="Path 649" d="M250.73,163.092h62.242l13.241-13.241-1.551-1.551-12.6,12.6H250.73Z" transform="translate(-246.823 -148.3)" fill="#4b5363"/>
        <path id="Path_650" data-name="Path 650" d="M303.476,163.092a4.126,4.126,0,1,1,4.126-4.126A4.121,4.121,0,0,1,303.476,163.092Z" transform="translate(-299.35 -145.271)" fill="#4b5363"/>
      </g>
      <g id="Group_3641" data-name="Group 3641" transform="translate(287.879 41.633)">
        <path id="Path_651" data-name="Path 651" d="M264.94,50.66h43.645L329.245,30l-1.551-1.551L307.678,48.466H264.94Z" transform="translate(-261.033 -28.45)" fill="#4b5363"/>
        <path id="Path_652" data-name="Path 652" d="M310.046,48.312a4.126,4.126,0,1,1,4.126-4.126A4.121,4.121,0,0,1,310.046,48.312Z" transform="translate(-305.92 -23.073)" fill="#4b5363"/>
      </g>
      <g id="Group_3642" data-name="Group 3642" transform="translate(187.566 205.724)">
        <path id="Path_653" data-name="Path 653" d="M378.539,166.651h25.6v-2.195h-24.7l-21.8-21.786H319.78v2.195h36.959Z" transform="translate(-315.859 -139.641)" fill="#4b5363"/>
        <ellipse id="Ellipse_278" data-name="Ellipse 278" cx="4.126" cy="4.126" rx="4.126" ry="4.126" transform="translate(0)" fill="#4b5363"/>
      </g>
      <g id="Group_3643" data-name="Group 3643" transform="translate(199.579 108.001)">
        <path id="Path_654" data-name="Path 654" d="M322.67,88.778h54.707l13.417-13.417-1.551-1.551L376.469,86.583h-53.8Z" transform="translate(-318.749 -73.81)" fill="#4b5363"/>
        <path id="Path_655" data-name="Path 655" d="M370.4,88.722a4.126,4.126,0,1,1,4.126-4.126A4.121,4.121,0,0,1,370.4,88.722Z" transform="translate(-366.27 -70.726)" fill="#4b5363"/>
      </g>
      <g id="Group_3644" data-name="Group 3644" transform="translate(0 283.431)">
        <path id="Path_656" data-name="Path 656" d="M339.522,256.464H615.411l61.218-61.2-1.551-1.551L614.5,254.269H340.444l-42.636-42.621H153.646L137.99,227.3l1.551,1.551,15.012-15.012H296.9Z" transform="translate(-134.793 -193.71)" fill="#4b5363"/>
        <path id="Path_657" data-name="Path 657" d="M509.72,221.33a4.128,4.128,0,1,1,0-5.838A4.133,4.133,0,0,1,509.72,221.33Z" transform="translate(-502.675 -184.181)" fill="#4b5363"/>
      </g>
      <g id="Group_3645" data-name="Group 3645" transform="translate(143.577 256.224)">
        <path id="Path_658" data-name="Path 658" d="M319.609,225.93H447.428l23.308-23.322-1.551-1.551-22.664,22.679H320.516L274.091,177.31l-1.551,1.551Z" transform="translate(-269.343 -174.098)" fill="#4b5363"/>
        <path id="Path_659" data-name="Path 659" d="M405.752,182.16a4.128,4.128,0,1,1,5.838,0A4.133,4.133,0,0,1,405.752,182.16Z" transform="translate(-404.545 -175.115)" fill="#4b5363"/>
      </g>
      <g id="Group_3646" data-name="Group 3646" transform="translate(104.402 235.294)">
        <path id="Path_660" data-name="Path 660" d="M426.445,188.865h43.718v-2.195h-42.8L403.562,162.88H356.8v2.195h45.855Z" transform="translate(-352.879 -159.851)" fill="#4b5363"/>
        <ellipse id="Ellipse_279" data-name="Ellipse 279" cx="4.126" cy="4.126" rx="4.126" ry="4.126" transform="translate(0)" fill="#4b5363"/>
      </g>
      <g id="Group_3647" data-name="Group 3647" transform="translate(59.688 270.38)">
        <path id="Path_661" data-name="Path 661" d="M481.467,216.854l1.551-1.551L454.575,186.86H425.59v2.195h28.078Z" transform="translate(-421.669 -183.831)" fill="#4b5363"/>
        <path id="Path_662" data-name="Path 662" d="M466.006,193.042a4.126,4.126,0,1,1,4.126-4.126A4.121,4.121,0,0,1,466.006,193.042Z" transform="translate(-461.88 -184.79)" fill="#4b5363"/>
      </g>
      <g id="Group_3648" data-name="Group 3648" transform="translate(379.917 310.66)">
        <path id="Path_663" data-name="Path 663" d="M159.351,230.331l15.816-15.816H287.521V212.32H174.26L157.8,228.78Z" transform="translate(-154.588 -212.32)" fill="#4b5363"/>
        <path id="Path_664" data-name="Path 664" d="M250.06,228.23a4.128,4.128,0,1,1,0-5.838A4.133,4.133,0,0,1,250.06,228.23Z" transform="translate(-243.015 -208.214)" fill="#4b5363"/>
      </g>
      <g id="Group_3649" data-name="Group 3649" transform="translate(257.27 283.109)">
        <path id="Path_665" data-name="Path 665" d="M242.26,235.745h87.393l40.69-40.7-1.551-1.551-40.061,40.061H242.26Z" transform="translate(-238.339 -193.49)" fill="#4b5363"/>
        <path id="Path_666" data-name="Path 666" d="M330.966,227.052a4.126,4.126,0,1,1,4.126-4.126A4.121,4.121,0,0,1,330.966,227.052Z" transform="translate(-326.84 -181.768)" fill="#4b5363"/>
      </g>
      <g id="Group_3650" data-name="Group 3650" transform="translate(29.321 0)">
        <path id="Path_667" data-name="Path 667" d="M548.571,62.866l1.566-1.551-33.7-33.7H374.78L349.351,2.19,347.8,3.741l26.073,26.073H515.534Z" transform="translate(-344.603 1.022)" fill="#4b5363"/>
        <path id="Path_668" data-name="Path 668" d="M483.842,7.04a4.128,4.128,0,1,1,5.838,0A4.133,4.133,0,0,1,483.842,7.04Z" transform="translate(-482.635 0.005)" fill="#4b5363"/>
      </g>
    </g>
    <g id="Group_3651" data-name="Group 3651" transform="translate(9 -531)" opacity="0.49">
      <circle id="Ellipse_280" data-name="Ellipse 280" cx="2" cy="2" r="2" transform="translate(334 1137)" fill="#4b5363"/>
      <circle id="Ellipse_281" data-name="Ellipse 281" cx="2" cy="2" r="2" transform="translate(352 1137)" fill="#4b5363"/>
      <circle id="Ellipse_282" data-name="Ellipse 282" cx="2" cy="2" r="2" transform="translate(369 1137)" fill="#4b5363"/>
      <circle id="Ellipse_283" data-name="Ellipse 283" cx="2" cy="2" r="2" transform="translate(387 1137)" fill="#4b5363"/>
      <circle id="Ellipse_284" data-name="Ellipse 284" cx="2" cy="2" r="2" transform="translate(404 1137)" fill="#4b5363"/>
      <circle id="Ellipse_285" data-name="Ellipse 285" cx="2" cy="2" r="2" transform="translate(422 1137)" fill="#4b5363"/>
      <circle id="Ellipse_286" data-name="Ellipse 286" cx="2" cy="2" r="2" transform="translate(334 1155)" fill="#4b5363"/>
      <circle id="Ellipse_287" data-name="Ellipse 287" cx="2" cy="2" r="2" transform="translate(352 1155)" fill="#4b5363"/>
      <circle id="Ellipse_288" data-name="Ellipse 288" cx="2" cy="2" r="2" transform="translate(369 1155)" fill="#4b5363"/>
      <circle id="Ellipse_289" data-name="Ellipse 289" cx="2" cy="2" r="2" transform="translate(387 1155)" fill="#4b5363"/>
      <circle id="Ellipse_290" data-name="Ellipse 290" cx="2" cy="2" r="2" transform="translate(404 1155)" fill="#4b5363"/>
      <circle id="Ellipse_291" data-name="Ellipse 291" cx="2" cy="2" r="2" transform="translate(422 1155)" fill="#4b5363"/>
      <circle id="Ellipse_292" data-name="Ellipse 292" cx="2" cy="2" r="2" transform="translate(334 1172)" fill="#4b5363"/>
      <circle id="Ellipse_293" data-name="Ellipse 293" cx="2" cy="2" r="2" transform="translate(352 1172)" fill="#4b5363"/>
      <circle id="Ellipse_294" data-name="Ellipse 294" cx="2" cy="2" r="2" transform="translate(369 1172)" fill="#4b5363"/>
      <circle id="Ellipse_295" data-name="Ellipse 295" cx="2" cy="2" r="2" transform="translate(387 1172)" fill="#4b5363"/>
      <circle id="Ellipse_296" data-name="Ellipse 296" cx="2" cy="2" r="2" transform="translate(404 1172)" fill="#4b5363"/>
      <circle id="Ellipse_297" data-name="Ellipse 297" cx="2" cy="2" r="2" transform="translate(422 1172)" fill="#4b5363"/>
      <circle id="Ellipse_298" data-name="Ellipse 298" cx="2" cy="2" r="2" transform="translate(334 1207)" fill="#4b5363"/>
      <circle id="Ellipse_299" data-name="Ellipse 299" cx="2" cy="2" r="2" transform="translate(352 1207)" fill="#4b5363"/>
      <circle id="Ellipse_300" data-name="Ellipse 300" cx="2" cy="2" r="2" transform="translate(369 1207)" fill="#4b5363"/>
      <circle id="Ellipse_301" data-name="Ellipse 301" cx="2" cy="2" r="2" transform="translate(387 1207)" fill="#4b5363"/>
      <circle id="Ellipse_302" data-name="Ellipse 302" cx="2" cy="2" r="2" transform="translate(404 1207)" fill="#4b5363"/>
      <circle id="Ellipse_303" data-name="Ellipse 303" cx="2" cy="2" r="2" transform="translate(422 1207)" fill="#4b5363"/>
      <circle id="Ellipse_304" data-name="Ellipse 304" cx="2" cy="2" r="2" transform="translate(334 1190)" fill="#4b5363"/>
      <circle id="Ellipse_305" data-name="Ellipse 305" cx="2" cy="2" r="2" transform="translate(352 1190)" fill="#4b5363"/>
      <circle id="Ellipse_306" data-name="Ellipse 306" cx="2" cy="2" r="2" transform="translate(369 1190)" fill="#4b5363"/>
      <circle id="Ellipse_307" data-name="Ellipse 307" cx="2" cy="2" r="2" transform="translate(387 1190)" fill="#4b5363"/>
      <circle id="Ellipse_308" data-name="Ellipse 308" cx="2" cy="2" r="2" transform="translate(404 1190)" fill="#4b5363"/>
      <circle id="Ellipse_309" data-name="Ellipse 309" cx="2" cy="2" r="2" transform="translate(422 1190)" fill="#4b5363"/>
      <circle id="Ellipse_310" data-name="Ellipse 310" cx="2" cy="2" r="2" transform="translate(334 1225)" fill="#4b5363"/>
      <circle id="Ellipse_311" data-name="Ellipse 311" cx="2" cy="2" r="2" transform="translate(352 1225)" fill="#4b5363"/>
      <circle id="Ellipse_312" data-name="Ellipse 312" cx="2" cy="2" r="2" transform="translate(369 1225)" fill="#4b5363"/>
      <circle id="Ellipse_313" data-name="Ellipse 313" cx="2" cy="2" r="2" transform="translate(387 1225)" fill="#4b5363"/>
      <circle id="Ellipse_314" data-name="Ellipse 314" cx="2" cy="2" r="2" transform="translate(404 1225)" fill="#4b5363"/>
      <circle id="Ellipse_315" data-name="Ellipse 315" cx="2" cy="2" r="2" transform="translate(422 1225)" fill="#4b5363"/>
    </g>
    <g id="Group_3652" data-name="Group 3652" transform="translate(559 -291)" opacity="0.49">
      <circle id="Ellipse_316" data-name="Ellipse 316" cx="2" cy="2" r="2" transform="translate(334 1137)" fill="#4b5363"/>
      <circle id="Ellipse_317" data-name="Ellipse 317" cx="2" cy="2" r="2" transform="translate(352 1137)" fill="#4b5363"/>
      <circle id="Ellipse_318" data-name="Ellipse 318" cx="2" cy="2" r="2" transform="translate(369 1137)" fill="#4b5363"/>
      <circle id="Ellipse_319" data-name="Ellipse 319" cx="2" cy="2" r="2" transform="translate(387 1137)" fill="#4b5363"/>
      <circle id="Ellipse_320" data-name="Ellipse 320" cx="2" cy="2" r="2" transform="translate(404 1137)" fill="#4b5363"/>
      <circle id="Ellipse_321" data-name="Ellipse 321" cx="2" cy="2" r="2" transform="translate(422 1137)" fill="#4b5363"/>
      <circle id="Ellipse_322" data-name="Ellipse 322" cx="2" cy="2" r="2" transform="translate(334 1155)" fill="#4b5363"/>
      <circle id="Ellipse_323" data-name="Ellipse 323" cx="2" cy="2" r="2" transform="translate(352 1155)" fill="#4b5363"/>
      <circle id="Ellipse_324" data-name="Ellipse 324" cx="2" cy="2" r="2" transform="translate(369 1155)" fill="#4b5363"/>
      <circle id="Ellipse_325" data-name="Ellipse 325" cx="2" cy="2" r="2" transform="translate(387 1155)" fill="#4b5363"/>
      <circle id="Ellipse_326" data-name="Ellipse 326" cx="2" cy="2" r="2" transform="translate(404 1155)" fill="#4b5363"/>
      <circle id="Ellipse_327" data-name="Ellipse 327" cx="2" cy="2" r="2" transform="translate(422 1155)" fill="#4b5363"/>
      <circle id="Ellipse_328" data-name="Ellipse 328" cx="2" cy="2" r="2" transform="translate(334 1172)" fill="#4b5363"/>
      <circle id="Ellipse_329" data-name="Ellipse 329" cx="2" cy="2" r="2" transform="translate(352 1172)" fill="#4b5363"/>
      <circle id="Ellipse_330" data-name="Ellipse 330" cx="2" cy="2" r="2" transform="translate(369 1172)" fill="#4b5363"/>
      <circle id="Ellipse_331" data-name="Ellipse 331" cx="2" cy="2" r="2" transform="translate(387 1172)" fill="#4b5363"/>
      <circle id="Ellipse_332" data-name="Ellipse 332" cx="2" cy="2" r="2" transform="translate(404 1172)" fill="#4b5363"/>
      <circle id="Ellipse_333" data-name="Ellipse 333" cx="2" cy="2" r="2" transform="translate(422 1172)" fill="#4b5363"/>
      <circle id="Ellipse_334" data-name="Ellipse 334" cx="2" cy="2" r="2" transform="translate(334 1207)" fill="#4b5363"/>
      <circle id="Ellipse_335" data-name="Ellipse 335" cx="2" cy="2" r="2" transform="translate(352 1207)" fill="#4b5363"/>
      <circle id="Ellipse_336" data-name="Ellipse 336" cx="2" cy="2" r="2" transform="translate(369 1207)" fill="#4b5363"/>
      <circle id="Ellipse_337" data-name="Ellipse 337" cx="2" cy="2" r="2" transform="translate(387 1207)" fill="#4b5363"/>
      <circle id="Ellipse_338" data-name="Ellipse 338" cx="2" cy="2" r="2" transform="translate(404 1207)" fill="#4b5363"/>
      <circle id="Ellipse_339" data-name="Ellipse 339" cx="2" cy="2" r="2" transform="translate(422 1207)" fill="#4b5363"/>
      <circle id="Ellipse_340" data-name="Ellipse 340" cx="2" cy="2" r="2" transform="translate(334 1190)" fill="#4b5363"/>
      <circle id="Ellipse_341" data-name="Ellipse 341" cx="2" cy="2" r="2" transform="translate(352 1190)" fill="#4b5363"/>
      <circle id="Ellipse_342" data-name="Ellipse 342" cx="2" cy="2" r="2" transform="translate(369 1190)" fill="#4b5363"/>
      <circle id="Ellipse_343" data-name="Ellipse 343" cx="2" cy="2" r="2" transform="translate(387 1190)" fill="#4b5363"/>
      <circle id="Ellipse_344" data-name="Ellipse 344" cx="2" cy="2" r="2" transform="translate(404 1190)" fill="#4b5363"/>
      <circle id="Ellipse_345" data-name="Ellipse 345" cx="2" cy="2" r="2" transform="translate(422 1190)" fill="#4b5363"/>
      <circle id="Ellipse_346" data-name="Ellipse 346" cx="2" cy="2" r="2" transform="translate(334 1225)" fill="#4b5363"/>
      <circle id="Ellipse_347" data-name="Ellipse 347" cx="2" cy="2" r="2" transform="translate(352 1225)" fill="#4b5363"/>
      <circle id="Ellipse_348" data-name="Ellipse 348" cx="2" cy="2" r="2" transform="translate(369 1225)" fill="#4b5363"/>
      <circle id="Ellipse_349" data-name="Ellipse 349" cx="2" cy="2" r="2" transform="translate(387 1225)" fill="#4b5363"/>
      <circle id="Ellipse_350" data-name="Ellipse 350" cx="2" cy="2" r="2" transform="translate(404 1225)" fill="#4b5363"/>
      <circle id="Ellipse_351" data-name="Ellipse 351" cx="2" cy="2" r="2" transform="translate(422 1225)" fill="#4b5363"/>
    </g>
    <g id="Ellipse_352" data-name="Ellipse 352" transform="translate(1187 816)" fill="none" stroke="#4b5363" stroke-width="1">
      <circle cx="130.5" cy="130.5" r="130.5" stroke="none"/>
      <circle cx="130.5" cy="130.5" r="130" fill="none"/>
    </g>
    <g id="Ellipse_353" data-name="Ellipse 353" transform="translate(-43 594)" fill="none" stroke="#4b5363" stroke-width="1">
      <circle cx="107.5" cy="107.5" r="107.5" stroke="none"/>
      <circle cx="107.5" cy="107.5" r="107" fill="none"/>
    </g>
  </g>
</svg>
