<svg width="12" height="14" viewBox="0 0 12 14" fill="none" xmlns="http://www.w3.org/2000/svg">
<g clip-path="url(#clip0_855_5498)">
<path d="M13 13C13 12.4469 12.5531 12 12 12H5C4.44688 12 4 12.4469 4 13C4 13.5531 4.44688 14 5 14H12C12.5531 14 13 13.5531 13 13ZM13 5C13 4.44687 12.5531 4 12 4H5C4.44688 4 4 4.44687 4 5C4 5.55313 4.44688 6 5 6H12C12.5531 6 13 5.55313 13 5ZM-1 9C-1 9.55312 -0.553125 10 0 10H12C12.5531 10 13 9.55312 13 9C13 8.44688 12.5531 8 12 8H0C-0.553125 8 -1 8.44688 -1 9ZM13 1C13 0.446875 12.5531 0 12 0H0C-0.553125 0 -1 0.446875 -1 1C-1 1.55313 -0.553125 2 0 2H12C12.5531 2 13 1.55313 13 1Z" fill="#7840E0"/>
</g>
<defs>
<clipPath id="clip0_855_5498">
<rect width="12" height="14" fill="white" transform="matrix(1 0 0 -1 0 14)"/>
</clipPath>
</defs>
</svg>
