<svg width="14" height="16" viewBox="0 0 14 16" fill="none" xmlns="http://www.w3.org/2000/svg">
<g clip-path="url(#clip0_593_8549)">
<path d="M5.5 0C4.94688 0 4.5 0.446875 4.5 1C4.5 1.55313 4.94688 2 5.5 2H6V3.075C2.88438 3.55625 0.5 6.25 0.5 9.5C0.5 13.0906 3.40937 16 7 16C10.5906 16 13.5 13.0906 13.5 9.5C13.5 8.19375 13.1156 6.97813 12.4531 5.9625L13.2063 5.20937C13.5969 4.81875 13.5969 4.18437 13.2063 3.79375C12.8156 3.40313 12.1812 3.40313 11.7906 3.79375L11.1156 4.46875C10.2375 3.75 9.17188 3.25625 8 3.075V2H8.5C9.05313 2 9.5 1.55313 9.5 1C9.5 0.446875 9.05313 0 8.5 0H7H5.5ZM7.75 6V10C7.75 10.4156 7.41563 10.75 7 10.75C6.58437 10.75 6.25 10.4156 6.25 10V6C6.25 5.58437 6.58437 5.25 7 5.25C7.41563 5.25 7.75 5.58437 7.75 6Z" fill="#fff"/>
</g>
<defs>
<clipPath id="clip0_593_8549">
<rect width="14" height="16" fill="white"/>
</clipPath>
</defs>
</svg>
