<svg xmlns="http://www.w3.org/2000/svg" width="28" height="24.189" viewBox="0 0 28 24.189">
  <path id="warning_FILL0_wght500_GRAD0_opsz48" d="M34.739-862.029l14-24.189,14,24.189Zm3.578-2.067H59.161l-10.422-18ZM48.87-865.82a.925.925,0,0,0,.688-.286.953.953,0,0,0,.28-.693.913.913,0,0,0-.286-.684.959.959,0,0,0-.693-.276.932.932,0,0,0-.688.282.94.94,0,0,0-.28.69.926.926,0,0,0,.286.688A.953.953,0,0,0,48.87-865.82Zm-.949-3.475h1.887v-6.983H47.922ZM48.739-873.094Z" transform="translate(-34.739 886.218)" fill="#ff6a39"/>
</svg>
