<svg xmlns="http://www.w3.org/2000/svg" width="16" height="12.8" viewBox="0 0 16 12.8">
  <path id="chalkboard-user" d="M4,1.6A1.6,1.6,0,0,1,5.6,0h8.8A1.6,1.6,0,0,1,16,1.6V8.8a1.6,1.6,0,0,1-1.6,1.6H8.42A4.144,4.144,0,0,0,7.11,8.8H9.6V8a.8.8,0,0,1,.8-.8H12a.8.8,0,0,1,.8.8v.8h1.6V1.6H5.6V2.828A3.182,3.182,0,0,0,4,2.4ZM4,3.2A2.4,2.4,0,1,1,1.6,5.6,2.4,2.4,0,0,1,4,3.2ZM3.333,8.8H4.665A3.334,3.334,0,0,1,8,12.132a.667.667,0,0,1-.668.668H.668A.666.666,0,0,1,0,12.132,3.333,3.333,0,0,1,3.333,8.8Z" fill="#FF375E"/>
</svg>
