<svg xmlns="http://www.w3.org/2000/svg" width="20" height="20" viewBox="0 0 20 20">
  <path id="Path_4049" data-name="Path 4049" d="M21.343-59.977a1.008,1.008,0,0,0,.742-.3,1.008,1.008,0,0,0,.3-.742,1.008,1.008,0,0,0-.3-.742,1.008,1.008,0,0,0-.742-.3,1.008,1.008,0,0,0-.742.3,1.008,1.008,0,0,0-.3.742,1.008,1.008,0,0,0,.3.742A1.008,1.008,0,0,0,21.343-59.977Zm-.755-3.177H22.1a3.518,3.518,0,0,1,.117-1.081A2.212,2.212,0,0,1,22.8-65a11.893,11.893,0,0,0,.976-1.042,2.017,2.017,0,0,0,.43-1.328,2.424,2.424,0,0,0-.792-1.888,2.972,2.972,0,0,0-2.073-.716,2.965,2.965,0,0,0-1.771.56,2.931,2.931,0,0,0-1.094,1.533l1.354.563a1.757,1.757,0,0,1,.586-.911,1.468,1.468,0,0,1,.924-.313,1.406,1.406,0,0,1,.978.339,1.135,1.135,0,0,1,.376.885,1.3,1.3,0,0,1-.4.951q-.4.4-.846.82a2.449,2.449,0,0,0-.716.951A5.094,5.094,0,0,0,20.588-63.154Zm-5.495,6.3a1.805,1.805,0,0,1-1.324-.551,1.805,1.805,0,0,1-.551-1.324v-12.5a1.805,1.805,0,0,1,.551-1.324,1.805,1.805,0,0,1,1.324-.551h12.5a1.805,1.805,0,0,1,1.324.551,1.805,1.805,0,0,1,.551,1.324v12.5a1.805,1.805,0,0,1-.551,1.324,1.805,1.805,0,0,1-1.324.551Zm-3.75,3.75a1.805,1.805,0,0,1-1.324-.551,1.805,1.805,0,0,1-.551-1.324V-69.352h1.875v14.375H25.718V-53.1Z" transform="translate(-9.468 73.102)" fill="#46008c"/>
</svg>
