<svg xmlns="http://www.w3.org/2000/svg" width="20" height="20" viewBox="0 0 20 20">
  <path id="Path_4025" data-name="Path 4025" d="M13.14-58.024A10.408,10.408,0,0,1,16.148-59.5a11.462,11.462,0,0,1,3.32-.482,11.462,11.462,0,0,1,3.32.482A10.408,10.408,0,0,1,25.8-58.024a7.182,7.182,0,0,0,1.354-2.37,8.354,8.354,0,0,0,.443-2.708,7.829,7.829,0,0,0-2.376-5.751,7.841,7.841,0,0,0-5.755-2.374,7.821,7.821,0,0,0-5.749,2.374,7.84,7.84,0,0,0-2.37,5.751,8.354,8.354,0,0,0,.443,2.708A7.182,7.182,0,0,0,13.14-58.024Zm6.328-3.2a3.616,3.616,0,0,1-2.656-1.094,3.616,3.616,0,0,1-1.094-2.656,3.617,3.617,0,0,1,1.094-2.656,3.616,3.616,0,0,1,2.656-1.094,3.616,3.616,0,0,1,2.656,1.094,3.617,3.617,0,0,1,1.094,2.656,3.616,3.616,0,0,1-1.094,2.656A3.616,3.616,0,0,1,19.468-61.227Zm.007,8.125a9.763,9.763,0,0,1-3.887-.781,10.077,10.077,0,0,1-3.19-2.148,10.086,10.086,0,0,1-2.148-3.189,9.771,9.771,0,0,1-.781-3.893A9.686,9.686,0,0,1,10.249-67,10.123,10.123,0,0,1,12.4-70.172a10.086,10.086,0,0,1,3.189-2.148A9.771,9.771,0,0,1,19.48-73.1a9.686,9.686,0,0,1,3.881.781,10.123,10.123,0,0,1,3.177,2.148,10.1,10.1,0,0,1,2.148,3.183,9.711,9.711,0,0,1,.781,3.88,9.763,9.763,0,0,1-.781,3.887,10.082,10.082,0,0,1-2.148,3.19,10.1,10.1,0,0,1-3.183,2.148A9.711,9.711,0,0,1,19.475-53.1Z" transform="translate(-9.468 73.102)" fill="#46008c"/>
</svg>
