<svg xmlns="http://www.w3.org/2000/svg" width="15" height="20" viewBox="0 0 15 20">
  <path id="Path_4097" data-name="Path 4097" d="M18.936-56.227V-58.1h1.25v-6.25a6.144,6.144,0,0,1,1.393-3.984,5.9,5.9,0,0,1,3.607-2.135v-1.38a1.205,1.205,0,0,1,.365-.885,1.2,1.2,0,0,1,.885-.365,1.205,1.205,0,0,1,.885.365,1.205,1.205,0,0,1,.365.885v1.38a5.9,5.9,0,0,1,3.607,2.135,6.144,6.144,0,0,1,1.393,3.984v6.25h1.25v1.875ZM26.43-53.1a1.8,1.8,0,0,1-1.323-.551,1.812,1.812,0,0,1-.547-1.324h3.75a1.8,1.8,0,0,1-.552,1.328A1.82,1.82,0,0,1,26.43-53.1Z" transform="translate(-18.936 73.102)" fill="#46008c"/>
</svg>
