<svg xmlns="http://www.w3.org/2000/svg" width="20" height="20" viewBox="0 0 20 20">
  <path id="Path_4121" data-name="Path 4121" d="M11.343-73.1h16.25a1.787,1.787,0,0,1,1.328.56,1.822,1.822,0,0,1,.547,1.315v11.25a1.822,1.822,0,0,1-.547,1.315,1.787,1.787,0,0,1-1.328.56H23.218v5l-3.75-1.953L15.718-53.1v-5H11.343a1.8,1.8,0,0,1-1.315-.56,1.8,1.8,0,0,1-.56-1.315v-11.25a1.8,1.8,0,0,1,.56-1.315A1.8,1.8,0,0,1,11.343-73.1Zm0,11.25h16.25v-2.5H11.343Z" transform="translate(-9.468 73.102)" fill="#46008c"/>
</svg>
